<?xml version="1.0" encoding="utf-8" standalone="no"?>
<!DOCTYPE svg PUBLIC "-//W3C//DTD SVG 1.1//EN"
  "http://www.w3.org/Graphics/SVG/1.1/DTD/svg11.dtd">
<!-- Created with matplotlib (https://matplotlib.org/) -->
<svg height="576pt" version="1.1" viewBox="0 0 1080 576" width="1080pt" xmlns="http://www.w3.org/2000/svg" xmlns:xlink="http://www.w3.org/1999/xlink">
 <defs>
  <style type="text/css">
*{stroke-linecap:butt;stroke-linejoin:round;}
  </style>
 </defs>
 <g id="figure_1">
  <g id="patch_1">
   <path d="M 0 576 
L 1080 576 
L 1080 0 
L 0 0 
z
" style="fill:#ffffff;"/>
  </g>
  <g id="axes_1">
   <g id="patch_2">
    <path d="M 135 512.64 
L 972 512.64 
L 972 69.12 
L 135 69.12 
z
" style="fill:#eaeaf2;"/>
   </g>
   <g id="matplotlib.axis_1">
    <g id="xtick_1">
     <g id="line2d_1">
      <path clip-path="url(#p2a59fe3498)" d="M 167.409091 512.64 
L 167.409091 69.12 
" style="fill:none;stroke:#ffffff;stroke-linecap:round;"/>
     </g>
     <g id="text_1">
      <!-- 0.0 -->
      <defs>
       <path d="M 31.78125 66.40625 
Q 24.171875 66.40625 20.328125 58.90625 
Q 16.5 51.421875 16.5 36.375 
Q 16.5 21.390625 20.328125 13.890625 
Q 24.171875 6.390625 31.78125 6.390625 
Q 39.453125 6.390625 43.28125 13.890625 
Q 47.125 21.390625 47.125 36.375 
Q 47.125 51.421875 43.28125 58.90625 
Q 39.453125 66.40625 31.78125 66.40625 
z
M 31.78125 74.21875 
Q 44.046875 74.21875 50.515625 64.515625 
Q 56.984375 54.828125 56.984375 36.375 
Q 56.984375 17.96875 50.515625 8.265625 
Q 44.046875 -1.421875 31.78125 -1.421875 
Q 19.53125 -1.421875 13.0625 8.265625 
Q 6.59375 17.96875 6.59375 36.375 
Q 6.59375 54.828125 13.0625 64.515625 
Q 19.53125 74.21875 31.78125 74.21875 
z
" id="DejaVuSans-48"/>
       <path d="M 10.6875 12.40625 
L 21 12.40625 
L 21 0 
L 10.6875 0 
z
" id="DejaVuSans-46"/>
      </defs>
      <g style="fill:#262626;" transform="translate(154.289013 534.677422)scale(0.165 -0.165)">
       <use xlink:href="#DejaVuSans-48"/>
       <use x="63.623047" xlink:href="#DejaVuSans-46"/>
       <use x="95.410156" xlink:href="#DejaVuSans-48"/>
      </g>
     </g>
    </g>
    <g id="xtick_2">
     <g id="line2d_2">
      <path clip-path="url(#p2a59fe3498)" d="M 343.545455 512.64 
L 343.545455 69.12 
" style="fill:none;stroke:#ffffff;stroke-linecap:round;"/>
     </g>
     <g id="text_2">
      <!-- 0.5 -->
      <defs>
       <path d="M 10.796875 72.90625 
L 49.515625 72.90625 
L 49.515625 64.59375 
L 19.828125 64.59375 
L 19.828125 46.734375 
Q 21.96875 47.46875 24.109375 47.828125 
Q 26.265625 48.1875 28.421875 48.1875 
Q 40.625 48.1875 47.75 41.5 
Q 54.890625 34.8125 54.890625 23.390625 
Q 54.890625 11.625 47.5625 5.09375 
Q 40.234375 -1.421875 26.90625 -1.421875 
Q 22.3125 -1.421875 17.546875 -0.640625 
Q 12.796875 0.140625 7.71875 1.703125 
L 7.71875 11.625 
Q 12.109375 9.234375 16.796875 8.0625 
Q 21.484375 6.890625 26.703125 6.890625 
Q 35.15625 6.890625 40.078125 11.328125 
Q 45.015625 15.765625 45.015625 23.390625 
Q 45.015625 31 40.078125 35.4375 
Q 35.15625 39.890625 26.703125 39.890625 
Q 22.75 39.890625 18.8125 39.015625 
Q 14.890625 38.140625 10.796875 36.28125 
z
" id="DejaVuSans-53"/>
      </defs>
      <g style="fill:#262626;" transform="translate(330.425376 534.677422)scale(0.165 -0.165)">
       <use xlink:href="#DejaVuSans-48"/>
       <use x="63.623047" xlink:href="#DejaVuSans-46"/>
       <use x="95.410156" xlink:href="#DejaVuSans-53"/>
      </g>
     </g>
    </g>
    <g id="xtick_3">
     <g id="line2d_3">
      <path clip-path="url(#p2a59fe3498)" d="M 519.681818 512.64 
L 519.681818 69.12 
" style="fill:none;stroke:#ffffff;stroke-linecap:round;"/>
     </g>
     <g id="text_3">
      <!-- 1.0 -->
      <defs>
       <path d="M 12.40625 8.296875 
L 28.515625 8.296875 
L 28.515625 63.921875 
L 10.984375 60.40625 
L 10.984375 69.390625 
L 28.421875 72.90625 
L 38.28125 72.90625 
L 38.28125 8.296875 
L 54.390625 8.296875 
L 54.390625 0 
L 12.40625 0 
z
" id="DejaVuSans-49"/>
      </defs>
      <g style="fill:#262626;" transform="translate(506.56174 534.677422)scale(0.165 -0.165)">
       <use xlink:href="#DejaVuSans-49"/>
       <use x="63.623047" xlink:href="#DejaVuSans-46"/>
       <use x="95.410156" xlink:href="#DejaVuSans-48"/>
      </g>
     </g>
    </g>
    <g id="xtick_4">
     <g id="line2d_4">
      <path clip-path="url(#p2a59fe3498)" d="M 695.818182 512.64 
L 695.818182 69.12 
" style="fill:none;stroke:#ffffff;stroke-linecap:round;"/>
     </g>
     <g id="text_4">
      <!-- 1.5 -->
      <g style="fill:#262626;" transform="translate(682.698104 534.677422)scale(0.165 -0.165)">
       <use xlink:href="#DejaVuSans-49"/>
       <use x="63.623047" xlink:href="#DejaVuSans-46"/>
       <use x="95.410156" xlink:href="#DejaVuSans-53"/>
      </g>
     </g>
    </g>
    <g id="xtick_5">
     <g id="line2d_5">
      <path clip-path="url(#p2a59fe3498)" d="M 871.954545 512.64 
L 871.954545 69.12 
" style="fill:none;stroke:#ffffff;stroke-linecap:round;"/>
     </g>
     <g id="text_5">
      <!-- 2.0 -->
      <defs>
       <path d="M 19.1875 8.296875 
L 53.609375 8.296875 
L 53.609375 0 
L 7.328125 0 
L 7.328125 8.296875 
Q 12.9375 14.109375 22.625 23.890625 
Q 32.328125 33.6875 34.8125 36.53125 
Q 39.546875 41.84375 41.421875 45.53125 
Q 43.3125 49.21875 43.3125 52.78125 
Q 43.3125 58.59375 39.234375 62.25 
Q 35.15625 65.921875 28.609375 65.921875 
Q 23.96875 65.921875 18.8125 64.3125 
Q 13.671875 62.703125 7.8125 59.421875 
L 7.8125 69.390625 
Q 13.765625 71.78125 18.9375 73 
Q 24.125 74.21875 28.421875 74.21875 
Q 39.75 74.21875 46.484375 68.546875 
Q 53.21875 62.890625 53.21875 53.421875 
Q 53.21875 48.921875 51.53125 44.890625 
Q 49.859375 40.875 45.40625 35.40625 
Q 44.1875 33.984375 37.640625 27.21875 
Q 31.109375 20.453125 19.1875 8.296875 
z
" id="DejaVuSans-50"/>
      </defs>
      <g style="fill:#262626;" transform="translate(858.834467 534.677422)scale(0.165 -0.165)">
       <use xlink:href="#DejaVuSans-50"/>
       <use x="63.623047" xlink:href="#DejaVuSans-46"/>
       <use x="95.410156" xlink:href="#DejaVuSans-48"/>
      </g>
     </g>
    </g>
    <g id="text_6">
     <!--  Env Steps  -->
     <defs>
      <path id="DejaVuSans-32"/>
      <path d="M 9.8125 72.90625 
L 55.90625 72.90625 
L 55.90625 64.59375 
L 19.671875 64.59375 
L 19.671875 43.015625 
L 54.390625 43.015625 
L 54.390625 34.71875 
L 19.671875 34.71875 
L 19.671875 8.296875 
L 56.78125 8.296875 
L 56.78125 0 
L 9.8125 0 
z
" id="DejaVuSans-69"/>
      <path d="M 54.890625 33.015625 
L 54.890625 0 
L 45.90625 0 
L 45.90625 32.71875 
Q 45.90625 40.484375 42.875 44.328125 
Q 39.84375 48.1875 33.796875 48.1875 
Q 26.515625 48.1875 22.3125 43.546875 
Q 18.109375 38.921875 18.109375 30.90625 
L 18.109375 0 
L 9.078125 0 
L 9.078125 54.6875 
L 18.109375 54.6875 
L 18.109375 46.1875 
Q 21.34375 51.125 25.703125 53.5625 
Q 30.078125 56 35.796875 56 
Q 45.21875 56 50.046875 50.171875 
Q 54.890625 44.34375 54.890625 33.015625 
z
" id="DejaVuSans-110"/>
      <path d="M 2.984375 54.6875 
L 12.5 54.6875 
L 29.59375 8.796875 
L 46.6875 54.6875 
L 56.203125 54.6875 
L 35.6875 0 
L 23.484375 0 
z
" id="DejaVuSans-118"/>
      <path d="M 53.515625 70.515625 
L 53.515625 60.890625 
Q 47.90625 63.578125 42.921875 64.890625 
Q 37.9375 66.21875 33.296875 66.21875 
Q 25.25 66.21875 20.875 63.09375 
Q 16.5 59.96875 16.5 54.203125 
Q 16.5 49.359375 19.40625 46.890625 
Q 22.3125 44.4375 30.421875 42.921875 
L 36.375 41.703125 
Q 47.40625 39.59375 52.65625 34.296875 
Q 57.90625 29 57.90625 20.125 
Q 57.90625 9.515625 50.796875 4.046875 
Q 43.703125 -1.421875 29.984375 -1.421875 
Q 24.8125 -1.421875 18.96875 -0.25 
Q 13.140625 0.921875 6.890625 3.21875 
L 6.890625 13.375 
Q 12.890625 10.015625 18.65625 8.296875 
Q 24.421875 6.59375 29.984375 6.59375 
Q 38.421875 6.59375 43.015625 9.90625 
Q 47.609375 13.234375 47.609375 19.390625 
Q 47.609375 24.75 44.3125 27.78125 
Q 41.015625 30.8125 33.5 32.328125 
L 27.484375 33.5 
Q 16.453125 35.6875 11.515625 40.375 
Q 6.59375 45.0625 6.59375 53.421875 
Q 6.59375 63.09375 13.40625 68.65625 
Q 20.21875 74.21875 32.171875 74.21875 
Q 37.3125 74.21875 42.625 73.28125 
Q 47.953125 72.359375 53.515625 70.515625 
z
" id="DejaVuSans-83"/>
      <path d="M 18.3125 70.21875 
L 18.3125 54.6875 
L 36.8125 54.6875 
L 36.8125 47.703125 
L 18.3125 47.703125 
L 18.3125 18.015625 
Q 18.3125 11.328125 20.140625 9.421875 
Q 21.96875 7.515625 27.59375 7.515625 
L 36.8125 7.515625 
L 36.8125 0 
L 27.59375 0 
Q 17.1875 0 13.234375 3.875 
Q 9.28125 7.765625 9.28125 18.015625 
L 9.28125 47.703125 
L 2.6875 47.703125 
L 2.6875 54.6875 
L 9.28125 54.6875 
L 9.28125 70.21875 
z
" id="DejaVuSans-116"/>
      <path d="M 56.203125 29.59375 
L 56.203125 25.203125 
L 14.890625 25.203125 
Q 15.484375 15.921875 20.484375 11.0625 
Q 25.484375 6.203125 34.421875 6.203125 
Q 39.59375 6.203125 44.453125 7.46875 
Q 49.3125 8.734375 54.109375 11.28125 
L 54.109375 2.78125 
Q 49.265625 0.734375 44.1875 -0.34375 
Q 39.109375 -1.421875 33.890625 -1.421875 
Q 20.796875 -1.421875 13.15625 6.1875 
Q 5.515625 13.8125 5.515625 26.8125 
Q 5.515625 40.234375 12.765625 48.109375 
Q 20.015625 56 32.328125 56 
Q 43.359375 56 49.78125 48.890625 
Q 56.203125 41.796875 56.203125 29.59375 
z
M 47.21875 32.234375 
Q 47.125 39.59375 43.09375 43.984375 
Q 39.0625 48.390625 32.421875 48.390625 
Q 24.90625 48.390625 20.390625 44.140625 
Q 15.875 39.890625 15.1875 32.171875 
z
" id="DejaVuSans-101"/>
      <path d="M 18.109375 8.203125 
L 18.109375 -20.796875 
L 9.078125 -20.796875 
L 9.078125 54.6875 
L 18.109375 54.6875 
L 18.109375 46.390625 
Q 20.953125 51.265625 25.265625 53.625 
Q 29.59375 56 35.59375 56 
Q 45.5625 56 51.78125 48.09375 
Q 58.015625 40.1875 58.015625 27.296875 
Q 58.015625 14.40625 51.78125 6.484375 
Q 45.5625 -1.421875 35.59375 -1.421875 
Q 29.59375 -1.421875 25.265625 0.953125 
Q 20.953125 3.328125 18.109375 8.203125 
z
M 48.6875 27.296875 
Q 48.6875 37.203125 44.609375 42.84375 
Q 40.53125 48.484375 33.40625 48.484375 
Q 26.265625 48.484375 22.1875 42.84375 
Q 18.109375 37.203125 18.109375 27.296875 
Q 18.109375 17.390625 22.1875 11.75 
Q 26.265625 6.109375 33.40625 6.109375 
Q 40.53125 6.109375 44.609375 11.75 
Q 48.6875 17.390625 48.6875 27.296875 
z
" id="DejaVuSans-112"/>
      <path d="M 44.28125 53.078125 
L 44.28125 44.578125 
Q 40.484375 46.53125 36.375 47.5 
Q 32.28125 48.484375 27.875 48.484375 
Q 21.1875 48.484375 17.84375 46.4375 
Q 14.5 44.390625 14.5 40.28125 
Q 14.5 37.15625 16.890625 35.375 
Q 19.28125 33.59375 26.515625 31.984375 
L 29.59375 31.296875 
Q 39.15625 29.25 43.1875 25.515625 
Q 47.21875 21.78125 47.21875 15.09375 
Q 47.21875 7.46875 41.1875 3.015625 
Q 35.15625 -1.421875 24.609375 -1.421875 
Q 20.21875 -1.421875 15.453125 -0.5625 
Q 10.6875 0.296875 5.421875 2 
L 5.421875 11.28125 
Q 10.40625 8.6875 15.234375 7.390625 
Q 20.0625 6.109375 24.8125 6.109375 
Q 31.15625 6.109375 34.5625 8.28125 
Q 37.984375 10.453125 37.984375 14.40625 
Q 37.984375 18.0625 35.515625 20.015625 
Q 33.0625 21.96875 24.703125 23.78125 
L 21.578125 24.515625 
Q 13.234375 26.265625 9.515625 29.90625 
Q 5.8125 33.546875 5.8125 39.890625 
Q 5.8125 47.609375 11.28125 51.796875 
Q 16.75 56 26.8125 56 
Q 31.78125 56 36.171875 55.265625 
Q 40.578125 54.546875 44.28125 53.078125 
z
" id="DejaVuSans-115"/>
     </defs>
     <g style="fill:#262626;" transform="translate(503.019844 555.786094)scale(0.18 -0.18)">
      <use xlink:href="#DejaVuSans-32"/>
      <use x="31.787109" xlink:href="#DejaVuSans-69"/>
      <use x="94.970703" xlink:href="#DejaVuSans-110"/>
      <use x="158.349609" xlink:href="#DejaVuSans-118"/>
      <use x="217.529297" xlink:href="#DejaVuSans-32"/>
      <use x="249.316406" xlink:href="#DejaVuSans-83"/>
      <use x="312.792969" xlink:href="#DejaVuSans-116"/>
      <use x="352.001953" xlink:href="#DejaVuSans-101"/>
      <use x="413.525391" xlink:href="#DejaVuSans-112"/>
      <use x="477.001953" xlink:href="#DejaVuSans-115"/>
      <use x="529.101562" xlink:href="#DejaVuSans-32"/>
     </g>
    </g>
    <g id="text_7">
     <!-- 1e6 -->
     <defs>
      <path d="M 33.015625 40.375 
Q 26.375 40.375 22.484375 35.828125 
Q 18.609375 31.296875 18.609375 23.390625 
Q 18.609375 15.53125 22.484375 10.953125 
Q 26.375 6.390625 33.015625 6.390625 
Q 39.65625 6.390625 43.53125 10.953125 
Q 47.40625 15.53125 47.40625 23.390625 
Q 47.40625 31.296875 43.53125 35.828125 
Q 39.65625 40.375 33.015625 40.375 
z
M 52.59375 71.296875 
L 52.59375 62.3125 
Q 48.875 64.0625 45.09375 64.984375 
Q 41.3125 65.921875 37.59375 65.921875 
Q 27.828125 65.921875 22.671875 59.328125 
Q 17.53125 52.734375 16.796875 39.40625 
Q 19.671875 43.65625 24.015625 45.921875 
Q 28.375 48.1875 33.59375 48.1875 
Q 44.578125 48.1875 50.953125 41.515625 
Q 57.328125 34.859375 57.328125 23.390625 
Q 57.328125 12.15625 50.6875 5.359375 
Q 44.046875 -1.421875 33.015625 -1.421875 
Q 20.359375 -1.421875 13.671875 8.265625 
Q 6.984375 17.96875 6.984375 36.375 
Q 6.984375 53.65625 15.1875 63.9375 
Q 23.390625 74.21875 37.203125 74.21875 
Q 40.921875 74.21875 44.703125 73.484375 
Q 48.484375 72.75 52.59375 71.296875 
z
" id="DejaVuSans-54"/>
     </defs>
     <g style="fill:#262626;" transform="translate(940.851094 553.646328)scale(0.165 -0.165)">
      <use xlink:href="#DejaVuSans-49"/>
      <use x="63.623047" xlink:href="#DejaVuSans-101"/>
      <use x="125.146484" xlink:href="#DejaVuSans-54"/>
     </g>
    </g>
   </g>
   <g id="matplotlib.axis_2">
    <g id="ytick_1">
     <g id="line2d_6">
      <path clip-path="url(#p2a59fe3498)" d="M 135 499.061123 
L 972 499.061123 
" style="fill:none;stroke:#ffffff;stroke-linecap:round;"/>
     </g>
     <g id="text_8">
      <!-- −8 -->
      <defs>
       <path d="M 10.59375 35.5 
L 73.1875 35.5 
L 73.1875 27.203125 
L 10.59375 27.203125 
z
" id="DejaVuSans-8722"/>
       <path d="M 31.78125 34.625 
Q 24.75 34.625 20.71875 30.859375 
Q 16.703125 27.09375 16.703125 20.515625 
Q 16.703125 13.921875 20.71875 10.15625 
Q 24.75 6.390625 31.78125 6.390625 
Q 38.8125 6.390625 42.859375 10.171875 
Q 46.921875 13.96875 46.921875 20.515625 
Q 46.921875 27.09375 42.890625 30.859375 
Q 38.875 34.625 31.78125 34.625 
z
M 21.921875 38.8125 
Q 15.578125 40.375 12.03125 44.71875 
Q 8.5 49.078125 8.5 55.328125 
Q 8.5 64.0625 14.71875 69.140625 
Q 20.953125 74.21875 31.78125 74.21875 
Q 42.671875 74.21875 48.875 69.140625 
Q 55.078125 64.0625 55.078125 55.328125 
Q 55.078125 49.078125 51.53125 44.71875 
Q 48 40.375 41.703125 38.8125 
Q 48.828125 37.15625 52.796875 32.3125 
Q 56.78125 27.484375 56.78125 20.515625 
Q 56.78125 9.90625 50.3125 4.234375 
Q 43.84375 -1.421875 31.78125 -1.421875 
Q 19.734375 -1.421875 13.25 4.234375 
Q 6.78125 9.90625 6.78125 20.515625 
Q 6.78125 27.484375 10.78125 32.3125 
Q 14.796875 37.15625 21.921875 38.8125 
z
M 18.3125 54.390625 
Q 18.3125 48.734375 21.84375 45.5625 
Q 25.390625 42.390625 31.78125 42.390625 
Q 38.140625 42.390625 41.71875 45.5625 
Q 45.3125 48.734375 45.3125 54.390625 
Q 45.3125 60.0625 41.71875 63.234375 
Q 38.140625 66.40625 31.78125 66.40625 
Q 25.390625 66.40625 21.84375 63.234375 
Q 18.3125 60.0625 18.3125 54.390625 
z
" id="DejaVuSans-56"/>
      </defs>
      <g style="fill:#262626;" transform="translate(101.175391 505.329833)scale(0.165 -0.165)">
       <use xlink:href="#DejaVuSans-8722"/>
       <use x="83.789062" xlink:href="#DejaVuSans-56"/>
      </g>
     </g>
    </g>
    <g id="ytick_2">
     <g id="line2d_7">
      <path clip-path="url(#p2a59fe3498)" d="M 135 413.447074 
L 972 413.447074 
" style="fill:none;stroke:#ffffff;stroke-linecap:round;"/>
     </g>
     <g id="text_9">
      <!-- −6 -->
      <g style="fill:#262626;" transform="translate(101.175391 419.715785)scale(0.165 -0.165)">
       <use xlink:href="#DejaVuSans-8722"/>
       <use x="83.789062" xlink:href="#DejaVuSans-54"/>
      </g>
     </g>
    </g>
    <g id="ytick_3">
     <g id="line2d_8">
      <path clip-path="url(#p2a59fe3498)" d="M 135 327.833026 
L 972 327.833026 
" style="fill:none;stroke:#ffffff;stroke-linecap:round;"/>
     </g>
     <g id="text_10">
      <!-- −4 -->
      <defs>
       <path d="M 37.796875 64.3125 
L 12.890625 25.390625 
L 37.796875 25.390625 
z
M 35.203125 72.90625 
L 47.609375 72.90625 
L 47.609375 25.390625 
L 58.015625 25.390625 
L 58.015625 17.1875 
L 47.609375 17.1875 
L 47.609375 0 
L 37.796875 0 
L 37.796875 17.1875 
L 4.890625 17.1875 
L 4.890625 26.703125 
z
" id="DejaVuSans-52"/>
      </defs>
      <g style="fill:#262626;" transform="translate(101.175391 334.101737)scale(0.165 -0.165)">
       <use xlink:href="#DejaVuSans-8722"/>
       <use x="83.789062" xlink:href="#DejaVuSans-52"/>
      </g>
     </g>
    </g>
    <g id="ytick_4">
     <g id="line2d_9">
      <path clip-path="url(#p2a59fe3498)" d="M 135 242.218977 
L 972 242.218977 
" style="fill:none;stroke:#ffffff;stroke-linecap:round;"/>
     </g>
     <g id="text_11">
      <!-- −2 -->
      <g style="fill:#262626;" transform="translate(101.175391 248.487688)scale(0.165 -0.165)">
       <use xlink:href="#DejaVuSans-8722"/>
       <use x="83.789062" xlink:href="#DejaVuSans-50"/>
      </g>
     </g>
    </g>
    <g id="ytick_5">
     <g id="line2d_10">
      <path clip-path="url(#p2a59fe3498)" d="M 135 156.604929 
L 972 156.604929 
" style="fill:none;stroke:#ffffff;stroke-linecap:round;"/>
     </g>
     <g id="text_12">
      <!-- 0 -->
      <g style="fill:#262626;" transform="translate(115.001875 162.87364)scale(0.165 -0.165)">
       <use xlink:href="#DejaVuSans-48"/>
      </g>
     </g>
    </g>
    <g id="ytick_6">
     <g id="line2d_11">
      <path clip-path="url(#p2a59fe3498)" d="M 135 70.990881 
L 972 70.990881 
" style="fill:none;stroke:#ffffff;stroke-linecap:round;"/>
     </g>
     <g id="text_13">
      <!-- 2 -->
      <g style="fill:#262626;" transform="translate(115.001875 77.259592)scale(0.165 -0.165)">
       <use xlink:href="#DejaVuSans-50"/>
      </g>
     </g>
    </g>
    <g id="text_14">
     <!--  Mean Reward  -->
     <defs>
      <path d="M 9.8125 72.90625 
L 24.515625 72.90625 
L 43.109375 23.296875 
L 61.8125 72.90625 
L 76.515625 72.90625 
L 76.515625 0 
L 66.890625 0 
L 66.890625 64.015625 
L 48.09375 14.015625 
L 38.1875 14.015625 
L 19.390625 64.015625 
L 19.390625 0 
L 9.8125 0 
z
" id="DejaVuSans-77"/>
      <path d="M 34.28125 27.484375 
Q 23.390625 27.484375 19.1875 25 
Q 14.984375 22.515625 14.984375 16.5 
Q 14.984375 11.71875 18.140625 8.90625 
Q 21.296875 6.109375 26.703125 6.109375 
Q 34.1875 6.109375 38.703125 11.40625 
Q 43.21875 16.703125 43.21875 25.484375 
L 43.21875 27.484375 
z
M 52.203125 31.203125 
L 52.203125 0 
L 43.21875 0 
L 43.21875 8.296875 
Q 40.140625 3.328125 35.546875 0.953125 
Q 30.953125 -1.421875 24.3125 -1.421875 
Q 15.921875 -1.421875 10.953125 3.296875 
Q 6 8.015625 6 15.921875 
Q 6 25.140625 12.171875 29.828125 
Q 18.359375 34.515625 30.609375 34.515625 
L 43.21875 34.515625 
L 43.21875 35.40625 
Q 43.21875 41.609375 39.140625 45 
Q 35.0625 48.390625 27.6875 48.390625 
Q 23 48.390625 18.546875 47.265625 
Q 14.109375 46.140625 10.015625 43.890625 
L 10.015625 52.203125 
Q 14.9375 54.109375 19.578125 55.046875 
Q 24.21875 56 28.609375 56 
Q 40.484375 56 46.34375 49.84375 
Q 52.203125 43.703125 52.203125 31.203125 
z
" id="DejaVuSans-97"/>
      <path d="M 44.390625 34.1875 
Q 47.5625 33.109375 50.5625 29.59375 
Q 53.5625 26.078125 56.59375 19.921875 
L 66.609375 0 
L 56 0 
L 46.6875 18.703125 
Q 43.0625 26.03125 39.671875 28.421875 
Q 36.28125 30.8125 30.421875 30.8125 
L 19.671875 30.8125 
L 19.671875 0 
L 9.8125 0 
L 9.8125 72.90625 
L 32.078125 72.90625 
Q 44.578125 72.90625 50.734375 67.671875 
Q 56.890625 62.453125 56.890625 51.90625 
Q 56.890625 45.015625 53.6875 40.46875 
Q 50.484375 35.9375 44.390625 34.1875 
z
M 19.671875 64.796875 
L 19.671875 38.921875 
L 32.078125 38.921875 
Q 39.203125 38.921875 42.84375 42.21875 
Q 46.484375 45.515625 46.484375 51.90625 
Q 46.484375 58.296875 42.84375 61.546875 
Q 39.203125 64.796875 32.078125 64.796875 
z
" id="DejaVuSans-82"/>
      <path d="M 4.203125 54.6875 
L 13.1875 54.6875 
L 24.421875 12.015625 
L 35.59375 54.6875 
L 46.1875 54.6875 
L 57.421875 12.015625 
L 68.609375 54.6875 
L 77.59375 54.6875 
L 63.28125 0 
L 52.6875 0 
L 40.921875 44.828125 
L 29.109375 0 
L 18.5 0 
z
" id="DejaVuSans-119"/>
      <path d="M 41.109375 46.296875 
Q 39.59375 47.171875 37.8125 47.578125 
Q 36.03125 48 33.890625 48 
Q 26.265625 48 22.1875 43.046875 
Q 18.109375 38.09375 18.109375 28.8125 
L 18.109375 0 
L 9.078125 0 
L 9.078125 54.6875 
L 18.109375 54.6875 
L 18.109375 46.1875 
Q 20.953125 51.171875 25.484375 53.578125 
Q 30.03125 56 36.53125 56 
Q 37.453125 56 38.578125 55.875 
Q 39.703125 55.765625 41.0625 55.515625 
z
" id="DejaVuSans-114"/>
      <path d="M 45.40625 46.390625 
L 45.40625 75.984375 
L 54.390625 75.984375 
L 54.390625 0 
L 45.40625 0 
L 45.40625 8.203125 
Q 42.578125 3.328125 38.25 0.953125 
Q 33.9375 -1.421875 27.875 -1.421875 
Q 17.96875 -1.421875 11.734375 6.484375 
Q 5.515625 14.40625 5.515625 27.296875 
Q 5.515625 40.1875 11.734375 48.09375 
Q 17.96875 56 27.875 56 
Q 33.9375 56 38.25 53.625 
Q 42.578125 51.265625 45.40625 46.390625 
z
M 14.796875 27.296875 
Q 14.796875 17.390625 18.875 11.75 
Q 22.953125 6.109375 30.078125 6.109375 
Q 37.203125 6.109375 41.296875 11.75 
Q 45.40625 17.390625 45.40625 27.296875 
Q 45.40625 37.203125 41.296875 42.84375 
Q 37.203125 48.484375 30.078125 48.484375 
Q 22.953125 48.484375 18.875 42.84375 
Q 14.796875 37.203125 14.796875 27.296875 
z
" id="DejaVuSans-100"/>
     </defs>
     <g style="fill:#262626;" transform="translate(93.431953 358.056562)rotate(-90)scale(0.18 -0.18)">
      <use xlink:href="#DejaVuSans-32"/>
      <use x="31.787109" xlink:href="#DejaVuSans-77"/>
      <use x="118.066406" xlink:href="#DejaVuSans-101"/>
      <use x="179.589844" xlink:href="#DejaVuSans-97"/>
      <use x="240.869141" xlink:href="#DejaVuSans-110"/>
      <use x="304.248047" xlink:href="#DejaVuSans-32"/>
      <use x="336.035156" xlink:href="#DejaVuSans-82"/>
      <use x="405.455078" xlink:href="#DejaVuSans-101"/>
      <use x="466.978516" xlink:href="#DejaVuSans-119"/>
      <use x="548.765625" xlink:href="#DejaVuSans-97"/>
      <use x="610.044922" xlink:href="#DejaVuSans-114"/>
      <use x="651.142578" xlink:href="#DejaVuSans-100"/>
      <use x="714.619141" xlink:href="#DejaVuSans-32"/>
     </g>
    </g>
   </g>
   <g id="PolyCollection_1">
    <defs>
     <path d="M 173.045455 -240.269901 
L 173.045455 -190.016435 
L 178.681818 -160.972513 
L 184.318182 -144.763386 
L 189.954545 -155.682913 
L 195.590909 -132.628972 
L 201.227273 -186.760752 
L 206.863636 -166.202968 
L 212.5 -179.898952 
L 218.136364 -200.458669 
L 223.772727 -208.043036 
L 229.409091 -148.72595 
L 235.045455 -147.819027 
L 240.681818 -154.737189 
L 246.318182 -146.092124 
L 251.954545 -160.859587 
L 257.590909 -207.158336 
L 263.227273 -210.242457 
L 268.863636 -187.473448 
L 274.5 -221.482587 
L 280.136364 -180.559518 
L 285.772727 -143.760811 
L 291.409091 -150.346001 
L 297.045455 -178.708752 
L 302.681818 -159.847384 
L 308.318182 -159.410877 
L 313.954545 -188.496261 
L 319.590909 -201.03364 
L 325.227273 -188.842236 
L 330.863636 -165.924033 
L 336.5 -178.75768 
L 342.136364 -174.395608 
L 347.772727 -142.600863 
L 353.409091 -119.341404 
L 359.045455 -158.936796 
L 364.681818 -155.893885 
L 370.318182 -176.859087 
L 375.954545 -192.077026 
L 381.590909 -239.540832 
L 387.227273 -212.73898 
L 392.863636 -223.752658 
L 398.5 -201.852421 
L 404.136364 -169.409028 
L 409.772727 -172.643935 
L 415.409091 -161.622996 
L 421.045455 -145.363392 
L 426.681818 -153.236734 
L 432.318182 -174.437843 
L 437.954545 -142.057203 
L 443.590909 -158.827744 
L 449.227273 -169.695512 
L 454.863636 -167.974568 
L 460.5 -209.116107 
L 466.136364 -217.456148 
L 471.772727 -261.487967 
L 477.409091 -251.078561 
L 483.045455 -248.914916 
L 488.681818 -259.601635 
L 494.318182 -261.11636 
L 499.954545 -238.127375 
L 505.590909 -274.504598 
L 511.227273 -285.845596 
L 516.863636 -290.647828 
L 522.5 -302.896166 
L 528.136364 -275.751243 
L 533.772727 -250.995176 
L 539.409091 -257.30096 
L 545.045455 -207.214458 
L 550.681818 -178.879293 
L 556.318182 -211.719911 
L 561.954545 -255.261355 
L 567.590909 -261.510476 
L 573.227273 -290.898531 
L 578.863636 -317.20042 
L 584.5 -307.597406 
L 590.136364 -274.509041 
L 595.772727 -272.129202 
L 601.409091 -296.689944 
L 607.045455 -279.622806 
L 612.681818 -287.33 
L 618.318182 -301.739246 
L 623.954545 -260.700563 
L 629.590909 -233.411279 
L 635.227273 -249.713809 
L 640.863636 -252.181849 
L 646.5 -221.670591 
L 652.136364 -249.004896 
L 657.772727 -242.245268 
L 663.409091 -230.991843 
L 669.045455 -250.274437 
L 674.681818 -290.246251 
L 680.318182 -272.591909 
L 685.954545 -277.971271 
L 691.590909 -327.503348 
L 697.227273 -317.127568 
L 702.863636 -289.226691 
L 708.5 -321.877871 
L 714.136364 -308.112321 
L 719.772727 -288.860252 
L 725.409091 -281.801278 
L 731.045455 -289.027945 
L 736.681818 -280.431023 
L 742.318182 -272.165139 
L 747.954545 -220.322645 
L 753.590909 -234.384972 
L 759.227273 -242.942298 
L 764.863636 -244.442414 
L 770.5 -250.31026 
L 776.136364 -280.669692 
L 781.772727 -236.316 
L 787.409091 -243.752842 
L 793.045455 -294.413236 
L 798.681818 -317.467052 
L 804.318182 -341.379639 
L 809.954545 -339.657527 
L 815.590909 -288.403128 
L 821.227273 -278.810593 
L 826.863636 -248.587664 
L 832.5 -249.216287 
L 838.136364 -265.899813 
L 843.772727 -304.390412 
L 849.409091 -314.088768 
L 855.045455 -351.32535 
L 860.681818 -329.855387 
L 866.318182 -320.493364 
L 871.954545 -307.887371 
L 877.590909 -313.98576 
L 883.227273 -299.753921 
L 888.863636 -307.328862 
L 894.5 -308.555295 
L 900.136364 -276.286775 
L 905.772727 -268.283813 
L 911.409091 -282.270221 
L 917.045455 -284.327226 
L 922.681818 -291.624433 
L 928.318182 -292.233683 
L 933.954545 -324.552322 
L 933.954545 -432.247551 
L 933.954545 -432.247551 
L 928.318182 -455.66009 
L 922.681818 -410.899983 
L 917.045455 -406.507658 
L 911.409091 -432.374348 
L 905.772727 -388.816483 
L 900.136364 -399.789059 
L 894.5 -439.863933 
L 888.863636 -406.850529 
L 883.227273 -375.220614 
L 877.590909 -419.50236 
L 871.954545 -398.79899 
L 866.318182 -390.695223 
L 860.681818 -430.648777 
L 855.045455 -430.059491 
L 849.409091 -397.119037 
L 843.772727 -418.969937 
L 838.136364 -419.614718 
L 832.5 -397.957775 
L 826.863636 -419.116658 
L 821.227273 -432.914602 
L 815.590909 -446.552969 
L 809.954545 -430.201751 
L 804.318182 -414.753069 
L 798.681818 -400.69409 
L 793.045455 -393.434803 
L 787.409091 -365.193002 
L 781.772727 -373.218024 
L 776.136364 -408.891337 
L 770.5 -401.094617 
L 764.863636 -373.684662 
L 759.227273 -389.952675 
L 753.590909 -400.073124 
L 747.954545 -395.475994 
L 742.318182 -407.511091 
L 736.681818 -408.543326 
L 731.045455 -415.157955 
L 725.409091 -409.640409 
L 719.772727 -414.53144 
L 714.136364 -403.559817 
L 708.5 -430.57516 
L 702.863636 -405.682183 
L 697.227273 -412.894419 
L 691.590909 -392.88297 
L 685.954545 -382.219846 
L 680.318182 -364.727018 
L 674.681818 -416.690638 
L 669.045455 -399.352512 
L 663.409091 -417.185978 
L 657.772727 -464.319586 
L 652.136364 -462.134073 
L 646.5 -486.72 
L 640.863636 -464.175439 
L 635.227273 -476.551891 
L 629.590909 -431.183975 
L 623.954545 -451.881989 
L 618.318182 -444.42106 
L 612.681818 -458.385811 
L 607.045455 -446.907462 
L 601.409091 -456.885241 
L 595.772727 -476.266406 
L 590.136364 -439.510127 
L 584.5 -416.898991 
L 578.863636 -432.221083 
L 573.227273 -433.650064 
L 567.590909 -403.448182 
L 561.954545 -435.840495 
L 556.318182 -412.861591 
L 550.681818 -411.378335 
L 545.045455 -387.638195 
L 539.409091 -391.807943 
L 533.772727 -389.955015 
L 528.136364 -416.249841 
L 522.5 -402.728334 
L 516.863636 -413.616788 
L 511.227273 -390.670476 
L 505.590909 -395.239414 
L 499.954545 -375.631416 
L 494.318182 -362.97088 
L 488.681818 -333.801751 
L 483.045455 -336.435735 
L 477.409091 -319.33941 
L 471.772727 -355.743807 
L 466.136364 -373.834414 
L 460.5 -358.32971 
L 454.863636 -365.624054 
L 449.227273 -356.310011 
L 443.590909 -348.836249 
L 437.954545 -355.004178 
L 432.318182 -353.108239 
L 426.681818 -354.968855 
L 421.045455 -338.607118 
L 415.409091 -355.663285 
L 409.772727 -324.708428 
L 404.136364 -335.911962 
L 398.5 -329.628727 
L 392.863636 -346.932244 
L 387.227273 -345.789839 
L 381.590909 -340.350641 
L 375.954545 -345.533174 
L 370.318182 -356.0778 
L 364.681818 -384.940912 
L 359.045455 -368.634218 
L 353.409091 -371.940563 
L 347.772727 -362.217046 
L 342.136364 -359.924204 
L 336.5 -354.190201 
L 330.863636 -340.874654 
L 325.227273 -352.01375 
L 319.590909 -365.463099 
L 313.954545 -368.769429 
L 308.318182 -350.933635 
L 302.681818 -338.655015 
L 297.045455 -339.830528 
L 291.409091 -317.855734 
L 285.772727 -310.512397 
L 280.136364 -295.568552 
L 274.5 -298.10148 
L 268.863636 -332.912357 
L 263.227273 -325.156554 
L 257.590909 -362.070782 
L 251.954545 -344.613432 
L 246.318182 -293.261426 
L 240.681818 -284.380601 
L 235.045455 -302.662454 
L 229.409091 -328.787065 
L 223.772727 -348.777607 
L 218.136364 -342.880866 
L 212.5 -362.175169 
L 206.863636 -316.747028 
L 201.227273 -292.703508 
L 195.590909 -299.166087 
L 189.954545 -288.209025 
L 184.318182 -241.152942 
L 178.681818 -255.179099 
L 173.045455 -240.269901 
z
" id="mefb61c270d" style="stroke:#4c72b0;stroke-opacity:0.2;"/>
    </defs>
    <g clip-path="url(#p2a59fe3498)">
     <use style="fill:#4c72b0;fill-opacity:0.2;stroke:#4c72b0;stroke-opacity:0.2;" x="0" xlink:href="#mefb61c270d" y="576"/>
    </g>
   </g>
   <g id="line2d_12">
    <path clip-path="url(#p2a59fe3498)" d="M 173.045455 363.614872 
L 178.681818 370.843605 
L 184.318182 386.124649 
L 189.954545 356.546426 
L 195.590909 350.958797 
L 201.227273 333.666273 
L 206.863636 334.525002 
L 212.5 304.96294 
L 218.136364 304.330232 
L 223.772727 309.175334 
L 229.409091 343.311266 
L 235.045455 349.374784 
L 240.681818 355.052541 
L 246.318182 356.323225 
L 251.954545 341.77348 
L 257.590909 315.44951 
L 263.227273 310.011993 
L 268.863636 315.807098 
L 274.5 316.207966 
L 285.772727 343.32573 
L 291.409091 334.033304 
L 297.045455 318.876214 
L 302.681818 330.476107 
L 308.318182 323.500616 
L 313.954545 305.340142 
L 319.590909 294.301314 
L 325.227273 305.572007 
L 330.863636 328.171431 
L 336.5 324.501145 
L 342.136364 317.423077 
L 347.772727 330.861571 
L 353.409091 326.228545 
L 359.045455 302.062176 
L 364.681818 298.711722 
L 370.318182 300.149381 
L 375.954545 297.452069 
L 381.590909 292.044814 
L 387.227273 296.385584 
L 392.863636 290.986833 
L 398.5 316.359525 
L 404.136364 323.339505 
L 409.772727 327.323818 
L 415.409091 313.995138 
L 421.045455 334.014745 
L 426.681818 321.897205 
L 432.318182 312.226959 
L 437.954545 327.46931 
L 443.590909 322.168004 
L 449.227273 312.997238 
L 454.863636 300.178742 
L 460.5 291.759529 
L 466.136364 274.355169 
L 471.772727 269.211163 
L 477.409091 290.791014 
L 483.045455 277.720081 
L 488.681818 279.298307 
L 494.318182 262.919228 
L 499.954545 270.938291 
L 505.590909 236.704941 
L 511.227273 237.224985 
L 516.863636 215.31999 
L 522.5 223.18775 
L 528.136364 229.999458 
L 533.772727 245.101258 
L 539.409091 240.866083 
L 545.045455 267.901457 
L 550.681818 262.763375 
L 556.318182 238.358476 
L 561.954545 221.854492 
L 567.590909 238.769111 
L 573.227273 212.356214 
L 578.863636 209.04347 
L 584.5 219.032789 
L 590.136364 221.269125 
L 595.772727 199.587236 
L 601.409091 191.794447 
L 607.045455 205.94022 
L 612.681818 198.199478 
L 618.318182 201.975527 
L 623.954545 217.609971 
L 629.590909 248.982099 
L 635.227273 226.70454 
L 640.863636 238.284677 
L 646.5 246.517963 
L 652.136364 234.094805 
L 657.772727 222.555712 
L 663.409091 251.91109 
L 669.045455 251.186525 
L 674.681818 226.193902 
L 680.318182 257.340537 
L 685.954545 251.191528 
L 691.590909 219.460612 
L 697.227273 212.736461 
L 702.863636 228.545563 
L 708.5 199.773485 
L 714.136364 220.046265 
L 719.772727 224.304154 
L 725.409091 230.279156 
L 731.045455 222.455065 
L 736.681818 231.512826 
L 742.318182 236.161885 
L 747.954545 263.196467 
L 753.590909 251.20083 
L 759.227273 249.582739 
L 764.863636 266.936462 
L 770.5 250.297561 
L 776.136364 237.052872 
L 781.772727 258.347442 
L 787.409091 267.411318 
L 793.045455 231.654805 
L 798.681818 221.841722 
L 804.318182 204.417753 
L 809.954545 192.188988 
L 815.590909 189.788472 
L 821.227273 203.317883 
L 826.863636 241.986632 
L 832.5 247.899725 
L 838.136364 228.661423 
L 843.772727 219.99156 
L 849.409091 220.396098 
L 855.045455 186.204882 
L 860.681818 195.747918 
L 866.318182 218.325799 
L 871.954545 223.366481 
L 877.590909 216.068672 
L 883.227273 245.315195 
L 888.863636 233.638401 
L 894.5 220.972191 
L 900.136364 248.417153 
L 905.772727 255.218793 
L 911.409091 220.523579 
L 917.045455 227.734731 
L 922.681818 225.984485 
L 928.318182 205.59186 
L 933.954545 203.477038 
L 933.954545 203.477038 
" style="fill:none;stroke:#4c72b0;stroke-linecap:round;stroke-width:1.5;"/>
   </g>
   <g id="line2d_13">
    <path clip-path="url(#p2a59fe3498)" d="M 173.045455 409.318915 
L 178.681818 438.276277 
L 184.318182 445.904705 
L 189.954545 466.283678 
L 195.590909 440.842707 
L 201.227273 468.092663 
L 206.863636 443.287968 
L 212.5 385.499156 
L 218.136364 382.595876 
L 223.772727 400.310226 
L 229.409091 348.920432 
L 235.045455 343.539383 
L 240.681818 322.853622 
L 246.318182 345.117887 
L 251.954545 312.743537 
L 257.590909 334.56008 
L 263.227273 336.300535 
L 268.863636 402.403898 
L 274.5 360.630379 
L 280.136364 383.274676 
L 285.772727 399.770692 
L 291.409091 380.297947 
L 297.045455 331.992182 
L 302.681818 359.464009 
L 308.318182 331.671629 
L 313.954545 352.444131 
L 319.590909 357.301734 
L 325.227273 353.15072 
L 330.863636 336.74239 
L 336.5 345.499064 
L 342.136364 349.370937 
L 347.772727 406.700452 
L 353.409091 419.018631 
L 359.045455 409.933356 
L 364.681818 397.466652 
L 370.318182 396.069648 
L 375.954545 397.724804 
L 381.590909 412.564969 
L 387.227273 437.645015 
L 392.863636 455.600059 
L 398.5 402.212189 
L 404.136364 378.50082 
L 409.772727 360.149564 
L 415.409091 300.740625 
L 421.045455 270.901281 
L 426.681818 295.17729 
L 432.318182 287.043055 
L 437.954545 282.523732 
L 443.590909 330.415471 
L 449.227273 357.308962 
L 454.863636 344.104501 
L 460.5 312.103992 
L 466.136364 343.006343 
L 471.772727 308.011958 
L 477.409091 298.142573 
L 483.045455 297.497606 
L 488.681818 373.320081 
L 494.318182 384.686502 
L 499.954545 389.13621 
L 505.590909 385.87622 
L 511.227273 419.730485 
L 516.863636 401.955423 
L 522.5 358.049792 
L 528.136364 354.935011 
L 533.772727 380.050522 
L 539.409091 350.995393 
L 545.045455 316.100441 
L 550.681818 360.784205 
L 556.318182 377.114467 
L 561.954545 355.654021 
L 567.590909 397.832184 
L 573.227273 395.74399 
L 578.863636 367.699869 
L 584.5 358.541463 
L 590.136364 355.495323 
L 595.772727 354.127266 
L 601.409091 398.777952 
L 607.045455 413.296014 
L 612.681818 462.682315 
L 618.318182 480.442623 
L 623.954545 482.625942 
L 629.590909 487.934145 
L 635.227273 492.48 
L 640.863636 480.378904 
L 646.5 490.493562 
L 652.136364 458.843429 
L 657.772727 435.162659 
L 663.409091 402.621761 
L 669.045455 379.003469 
L 674.681818 378.734614 
L 680.318182 384.027377 
L 685.954545 413.177802 
L 691.590909 423.82936 
L 697.227273 420.397966 
L 708.5 323.31722 
L 714.136364 317.904956 
L 719.772727 307.181518 
L 725.409091 297.997961 
L 731.045455 315.696167 
L 736.681818 378.861147 
L 742.318182 328.141611 
L 747.954545 330.297474 
L 753.590909 356.166662 
L 759.227273 388.746246 
L 764.863636 351.153758 
L 770.5 350.090415 
L 776.136364 373.643855 
L 781.772727 400.428049 
L 787.409091 385.507467 
L 793.045455 393.641694 
L 798.681818 435.768692 
L 804.318182 395.646648 
L 809.954545 330.126929 
L 815.590909 353.923287 
L 821.227273 336.566672 
L 826.863636 295.481353 
L 832.5 298.220683 
L 838.136364 309.082974 
L 843.772727 269.8699 
L 849.409091 342.626623 
L 855.045455 329.831283 
L 860.681818 372.768627 
L 866.318182 339.495599 
L 871.954545 370.862172 
L 877.590909 296.710029 
L 883.227273 279.978319 
L 888.863636 233.450211 
L 894.5 263.359892 
L 900.136364 250.157999 
L 905.772727 314.146409 
L 911.409091 343.938035 
L 917.045455 351.970248 
L 922.681818 338.857558 
L 928.318182 332.815118 
L 933.954545 283.171161 
L 933.954545 283.171161 
" style="fill:none;stroke:#c44e52;stroke-dasharray:9.6,2.4,1.5,2.4;stroke-dashoffset:0;stroke-width:1.5;"/>
   </g>
   <g id="patch_3">
    <path d="M 135 512.64 
L 135 69.12 
" style="fill:none;stroke:#ffffff;stroke-linecap:square;stroke-linejoin:miter;stroke-width:1.25;"/>
   </g>
   <g id="patch_4">
    <path d="M 972 512.64 
L 972 69.12 
" style="fill:none;stroke:#ffffff;stroke-linecap:square;stroke-linejoin:miter;stroke-width:1.25;"/>
   </g>
   <g id="patch_5">
    <path d="M 135 512.64 
L 972 512.64 
" style="fill:none;stroke:#ffffff;stroke-linecap:square;stroke-linejoin:miter;stroke-width:1.25;"/>
   </g>
   <g id="patch_6">
    <path d="M 135 69.12 
L 972 69.12 
" style="fill:none;stroke:#ffffff;stroke-linecap:square;stroke-linejoin:miter;stroke-width:1.25;"/>
   </g>
   <g id="legend_1">
    <g id="patch_7">
     <path d="M 690.6 197.285813 
L 885.998672 197.285813 
Q 889.298672 197.285813 889.298672 193.985813 
L 889.298672 147.198 
Q 889.298672 143.898 885.998672 143.898 
L 690.6 143.898 
Q 687.3 143.898 687.3 147.198 
L 687.3 193.985813 
Q 687.3 197.285813 690.6 197.285813 
z
" style="fill:#eaeaf2;opacity:0.8;stroke:#cccccc;stroke-linejoin:miter;"/>
    </g>
    <g id="line2d_14">
     <path d="M 693.9 157.260422 
L 726.9 157.260422 
" style="fill:none;stroke:#4c72b0;stroke-linecap:round;stroke-width:1.5;"/>
    </g>
    <g id="line2d_15"/>
    <g id="text_15">
     <!-- MAHRL(Hetero) -->
     <defs>
      <path d="M 34.1875 63.1875 
L 20.796875 26.90625 
L 47.609375 26.90625 
z
M 28.609375 72.90625 
L 39.796875 72.90625 
L 67.578125 0 
L 57.328125 0 
L 50.6875 18.703125 
L 17.828125 18.703125 
L 11.1875 0 
L 0.78125 0 
z
" id="DejaVuSans-65"/>
      <path d="M 9.8125 72.90625 
L 19.671875 72.90625 
L 19.671875 43.015625 
L 55.515625 43.015625 
L 55.515625 72.90625 
L 65.375 72.90625 
L 65.375 0 
L 55.515625 0 
L 55.515625 34.71875 
L 19.671875 34.71875 
L 19.671875 0 
L 9.8125 0 
z
" id="DejaVuSans-72"/>
      <path d="M 9.8125 72.90625 
L 19.671875 72.90625 
L 19.671875 8.296875 
L 55.171875 8.296875 
L 55.171875 0 
L 9.8125 0 
z
" id="DejaVuSans-76"/>
      <path d="M 31 75.875 
Q 24.46875 64.65625 21.28125 53.65625 
Q 18.109375 42.671875 18.109375 31.390625 
Q 18.109375 20.125 21.3125 9.0625 
Q 24.515625 -2 31 -13.1875 
L 23.1875 -13.1875 
Q 15.875 -1.703125 12.234375 9.375 
Q 8.59375 20.453125 8.59375 31.390625 
Q 8.59375 42.28125 12.203125 53.3125 
Q 15.828125 64.359375 23.1875 75.875 
z
" id="DejaVuSans-40"/>
      <path d="M 30.609375 48.390625 
Q 23.390625 48.390625 19.1875 42.75 
Q 14.984375 37.109375 14.984375 27.296875 
Q 14.984375 17.484375 19.15625 11.84375 
Q 23.34375 6.203125 30.609375 6.203125 
Q 37.796875 6.203125 41.984375 11.859375 
Q 46.1875 17.53125 46.1875 27.296875 
Q 46.1875 37.015625 41.984375 42.703125 
Q 37.796875 48.390625 30.609375 48.390625 
z
M 30.609375 56 
Q 42.328125 56 49.015625 48.375 
Q 55.71875 40.765625 55.71875 27.296875 
Q 55.71875 13.875 49.015625 6.21875 
Q 42.328125 -1.421875 30.609375 -1.421875 
Q 18.84375 -1.421875 12.171875 6.21875 
Q 5.515625 13.875 5.515625 27.296875 
Q 5.515625 40.765625 12.171875 48.375 
Q 18.84375 56 30.609375 56 
z
" id="DejaVuSans-111"/>
      <path d="M 8.015625 75.875 
L 15.828125 75.875 
Q 23.140625 64.359375 26.78125 53.3125 
Q 30.421875 42.28125 30.421875 31.390625 
Q 30.421875 20.453125 26.78125 9.375 
Q 23.140625 -1.703125 15.828125 -13.1875 
L 8.015625 -13.1875 
Q 14.5 -2 17.703125 9.0625 
Q 20.90625 20.125 20.90625 31.390625 
Q 20.90625 42.671875 17.703125 53.65625 
Q 14.5 64.65625 8.015625 75.875 
z
" id="DejaVuSans-41"/>
     </defs>
     <g style="fill:#262626;" transform="translate(740.1 163.035422)scale(0.165 -0.165)">
      <use xlink:href="#DejaVuSans-77"/>
      <use x="86.279297" xlink:href="#DejaVuSans-65"/>
      <use x="154.6875" xlink:href="#DejaVuSans-72"/>
      <use x="229.882812" xlink:href="#DejaVuSans-82"/>
      <use x="299.365234" xlink:href="#DejaVuSans-76"/>
      <use x="355.078125" xlink:href="#DejaVuSans-40"/>
      <use x="394.091797" xlink:href="#DejaVuSans-72"/>
      <use x="469.287109" xlink:href="#DejaVuSans-101"/>
      <use x="530.810547" xlink:href="#DejaVuSans-116"/>
      <use x="570.019531" xlink:href="#DejaVuSans-101"/>
      <use x="631.542969" xlink:href="#DejaVuSans-114"/>
      <use x="672.625" xlink:href="#DejaVuSans-111"/>
      <use x="733.806641" xlink:href="#DejaVuSans-41"/>
     </g>
    </g>
    <g id="line2d_16">
     <path d="M 693.9 181.479328 
L 726.9 181.479328 
" style="fill:none;stroke:#c44e52;stroke-dasharray:9.6,2.4,1.5,2.4;stroke-dashoffset:0;stroke-width:1.5;"/>
    </g>
    <g id="line2d_17"/>
    <g id="text_16">
     <!-- MADDPG(Hetero) -->
     <defs>
      <path d="M 19.671875 64.796875 
L 19.671875 8.109375 
L 31.59375 8.109375 
Q 46.6875 8.109375 53.6875 14.9375 
Q 60.6875 21.78125 60.6875 36.53125 
Q 60.6875 51.171875 53.6875 57.984375 
Q 46.6875 64.796875 31.59375 64.796875 
z
M 9.8125 72.90625 
L 30.078125 72.90625 
Q 51.265625 72.90625 61.171875 64.09375 
Q 71.09375 55.28125 71.09375 36.53125 
Q 71.09375 17.671875 61.125 8.828125 
Q 51.171875 0 30.078125 0 
L 9.8125 0 
z
" id="DejaVuSans-68"/>
      <path d="M 19.671875 64.796875 
L 19.671875 37.40625 
L 32.078125 37.40625 
Q 38.96875 37.40625 42.71875 40.96875 
Q 46.484375 44.53125 46.484375 51.125 
Q 46.484375 57.671875 42.71875 61.234375 
Q 38.96875 64.796875 32.078125 64.796875 
z
M 9.8125 72.90625 
L 32.078125 72.90625 
Q 44.34375 72.90625 50.609375 67.359375 
Q 56.890625 61.8125 56.890625 51.125 
Q 56.890625 40.328125 50.609375 34.8125 
Q 44.34375 29.296875 32.078125 29.296875 
L 19.671875 29.296875 
L 19.671875 0 
L 9.8125 0 
z
" id="DejaVuSans-80"/>
      <path d="M 59.515625 10.40625 
L 59.515625 29.984375 
L 43.40625 29.984375 
L 43.40625 38.09375 
L 69.28125 38.09375 
L 69.28125 6.78125 
Q 63.578125 2.734375 56.6875 0.65625 
Q 49.8125 -1.421875 42 -1.421875 
Q 24.90625 -1.421875 15.25 8.5625 
Q 5.609375 18.5625 5.609375 36.375 
Q 5.609375 54.25 15.25 64.234375 
Q 24.90625 74.21875 42 74.21875 
Q 49.125 74.21875 55.546875 72.453125 
Q 61.96875 70.703125 67.390625 67.28125 
L 67.390625 56.78125 
Q 61.921875 61.421875 55.765625 63.765625 
Q 49.609375 66.109375 42.828125 66.109375 
Q 29.4375 66.109375 22.71875 58.640625 
Q 16.015625 51.171875 16.015625 36.375 
Q 16.015625 21.625 22.71875 14.15625 
Q 29.4375 6.6875 42.828125 6.6875 
Q 48.046875 6.6875 52.140625 7.59375 
Q 56.25 8.5 59.515625 10.40625 
z
" id="DejaVuSans-71"/>
     </defs>
     <g style="fill:#262626;" transform="translate(740.1 187.254328)scale(0.165 -0.165)">
      <use xlink:href="#DejaVuSans-77"/>
      <use x="86.279297" xlink:href="#DejaVuSans-65"/>
      <use x="154.6875" xlink:href="#DejaVuSans-68"/>
      <use x="231.689453" xlink:href="#DejaVuSans-68"/>
      <use x="308.691406" xlink:href="#DejaVuSans-80"/>
      <use x="368.994141" xlink:href="#DejaVuSans-71"/>
      <use x="446.484375" xlink:href="#DejaVuSans-40"/>
      <use x="485.498047" xlink:href="#DejaVuSans-72"/>
      <use x="560.693359" xlink:href="#DejaVuSans-101"/>
      <use x="622.216797" xlink:href="#DejaVuSans-116"/>
      <use x="661.425781" xlink:href="#DejaVuSans-101"/>
      <use x="722.949219" xlink:href="#DejaVuSans-114"/>
      <use x="764.03125" xlink:href="#DejaVuSans-111"/>
      <use x="825.212891" xlink:href="#DejaVuSans-41"/>
     </g>
    </g>
   </g>
  </g>
 </g>
 <defs>
  <clipPath id="p2a59fe3498">
   <rect height="443.52" width="837" x="135" y="69.12"/>
  </clipPath>
 </defs>
</svg>
