<?xml version="1.0" encoding="utf-8" standalone="no"?>
<!DOCTYPE svg PUBLIC "-//W3C//DTD SVG 1.1//EN"
  "http://www.w3.org/Graphics/SVG/1.1/DTD/svg11.dtd">
<!-- Created with matplotlib (https://matplotlib.org/) -->
<svg height="576pt" version="1.1" viewBox="0 0 1080 576" width="1080pt" xmlns="http://www.w3.org/2000/svg" xmlns:xlink="http://www.w3.org/1999/xlink">
 <defs>
  <style type="text/css">
*{stroke-linecap:butt;stroke-linejoin:round;white-space:pre;}
  </style>
 </defs>
 <g id="figure_1">
  <g id="patch_1">
   <path d="M 0 576 
L 1080 576 
L 1080 0 
L 0 0 
z
" style="fill:#ffffff;"/>
  </g>
  <g id="axes_1">
   <g id="patch_2">
    <path d="M 135 512.64 
L 972 512.64 
L 972 69.12 
L 135 69.12 
z
" style="fill:#eaeaf2;"/>
   </g>
   <g id="matplotlib.axis_1">
    <g id="xtick_1">
     <g id="line2d_1">
      <path clip-path="url(#p544e9fbe78)" d="M 164.683816 512.64 
L 164.683816 69.12 
" style="fill:none;stroke:#ffffff;stroke-linecap:round;"/>
     </g>
     <g id="text_1">
      <!-- 0.0 -->
      <defs>
       <path d="M 31.78125 66.40625 
Q 24.171875 66.40625 20.328125 58.90625 
Q 16.5 51.421875 16.5 36.375 
Q 16.5 21.390625 20.328125 13.890625 
Q 24.171875 6.390625 31.78125 6.390625 
Q 39.453125 6.390625 43.28125 13.890625 
Q 47.125 21.390625 47.125 36.375 
Q 47.125 51.421875 43.28125 58.90625 
Q 39.453125 66.40625 31.78125 66.40625 
z
M 31.78125 74.21875 
Q 44.046875 74.21875 50.515625 64.515625 
Q 56.984375 54.828125 56.984375 36.375 
Q 56.984375 17.96875 50.515625 8.265625 
Q 44.046875 -1.421875 31.78125 -1.421875 
Q 19.53125 -1.421875 13.0625 8.265625 
Q 6.59375 17.96875 6.59375 36.375 
Q 6.59375 54.828125 13.0625 64.515625 
Q 19.53125 74.21875 31.78125 74.21875 
z
" id="DejaVuSans-48"/>
       <path d="M 10.6875 12.40625 
L 21 12.40625 
L 21 0 
L 10.6875 0 
z
" id="DejaVuSans-46"/>
      </defs>
      <g style="fill:#262626;" transform="translate(151.563738 534.677422)scale(0.165 -0.165)">
       <use xlink:href="#DejaVuSans-48"/>
       <use x="63.623047" xlink:href="#DejaVuSans-46"/>
       <use x="95.410156" xlink:href="#DejaVuSans-48"/>
      </g>
     </g>
    </g>
    <g id="xtick_2">
     <g id="line2d_2">
      <path clip-path="url(#p544e9fbe78)" d="M 269.204296 512.64 
L 269.204296 69.12 
" style="fill:none;stroke:#ffffff;stroke-linecap:round;"/>
     </g>
     <g id="text_2">
      <!-- 0.2 -->
      <defs>
       <path d="M 19.1875 8.296875 
L 53.609375 8.296875 
L 53.609375 0 
L 7.328125 0 
L 7.328125 8.296875 
Q 12.9375 14.109375 22.625 23.890625 
Q 32.328125 33.6875 34.8125 36.53125 
Q 39.546875 41.84375 41.421875 45.53125 
Q 43.3125 49.21875 43.3125 52.78125 
Q 43.3125 58.59375 39.234375 62.25 
Q 35.15625 65.921875 28.609375 65.921875 
Q 23.96875 65.921875 18.8125 64.3125 
Q 13.671875 62.703125 7.8125 59.421875 
L 7.8125 69.390625 
Q 13.765625 71.78125 18.9375 73 
Q 24.125 74.21875 28.421875 74.21875 
Q 39.75 74.21875 46.484375 68.546875 
Q 53.21875 62.890625 53.21875 53.421875 
Q 53.21875 48.921875 51.53125 44.890625 
Q 49.859375 40.875 45.40625 35.40625 
Q 44.1875 33.984375 37.640625 27.21875 
Q 31.109375 20.453125 19.1875 8.296875 
z
" id="DejaVuSans-50"/>
      </defs>
      <g style="fill:#262626;" transform="translate(256.084218 534.677422)scale(0.165 -0.165)">
       <use xlink:href="#DejaVuSans-48"/>
       <use x="63.623047" xlink:href="#DejaVuSans-46"/>
       <use x="95.410156" xlink:href="#DejaVuSans-50"/>
      </g>
     </g>
    </g>
    <g id="xtick_3">
     <g id="line2d_3">
      <path clip-path="url(#p544e9fbe78)" d="M 373.724775 512.64 
L 373.724775 69.12 
" style="fill:none;stroke:#ffffff;stroke-linecap:round;"/>
     </g>
     <g id="text_3">
      <!-- 0.4 -->
      <defs>
       <path d="M 37.796875 64.3125 
L 12.890625 25.390625 
L 37.796875 25.390625 
z
M 35.203125 72.90625 
L 47.609375 72.90625 
L 47.609375 25.390625 
L 58.015625 25.390625 
L 58.015625 17.1875 
L 47.609375 17.1875 
L 47.609375 0 
L 37.796875 0 
L 37.796875 17.1875 
L 4.890625 17.1875 
L 4.890625 26.703125 
z
" id="DejaVuSans-52"/>
      </defs>
      <g style="fill:#262626;" transform="translate(360.604697 534.677422)scale(0.165 -0.165)">
       <use xlink:href="#DejaVuSans-48"/>
       <use x="63.623047" xlink:href="#DejaVuSans-46"/>
       <use x="95.410156" xlink:href="#DejaVuSans-52"/>
      </g>
     </g>
    </g>
    <g id="xtick_4">
     <g id="line2d_4">
      <path clip-path="url(#p544e9fbe78)" d="M 478.245255 512.64 
L 478.245255 69.12 
" style="fill:none;stroke:#ffffff;stroke-linecap:round;"/>
     </g>
     <g id="text_4">
      <!-- 0.6 -->
      <defs>
       <path d="M 33.015625 40.375 
Q 26.375 40.375 22.484375 35.828125 
Q 18.609375 31.296875 18.609375 23.390625 
Q 18.609375 15.53125 22.484375 10.953125 
Q 26.375 6.390625 33.015625 6.390625 
Q 39.65625 6.390625 43.53125 10.953125 
Q 47.40625 15.53125 47.40625 23.390625 
Q 47.40625 31.296875 43.53125 35.828125 
Q 39.65625 40.375 33.015625 40.375 
z
M 52.59375 71.296875 
L 52.59375 62.3125 
Q 48.875 64.0625 45.09375 64.984375 
Q 41.3125 65.921875 37.59375 65.921875 
Q 27.828125 65.921875 22.671875 59.328125 
Q 17.53125 52.734375 16.796875 39.40625 
Q 19.671875 43.65625 24.015625 45.921875 
Q 28.375 48.1875 33.59375 48.1875 
Q 44.578125 48.1875 50.953125 41.515625 
Q 57.328125 34.859375 57.328125 23.390625 
Q 57.328125 12.15625 50.6875 5.359375 
Q 44.046875 -1.421875 33.015625 -1.421875 
Q 20.359375 -1.421875 13.671875 8.265625 
Q 6.984375 17.96875 6.984375 36.375 
Q 6.984375 53.65625 15.1875 63.9375 
Q 23.390625 74.21875 37.203125 74.21875 
Q 40.921875 74.21875 44.703125 73.484375 
Q 48.484375 72.75 52.59375 71.296875 
z
" id="DejaVuSans-54"/>
      </defs>
      <g style="fill:#262626;" transform="translate(465.125177 534.677422)scale(0.165 -0.165)">
       <use xlink:href="#DejaVuSans-48"/>
       <use x="63.623047" xlink:href="#DejaVuSans-46"/>
       <use x="95.410156" xlink:href="#DejaVuSans-54"/>
      </g>
     </g>
    </g>
    <g id="xtick_5">
     <g id="line2d_5">
      <path clip-path="url(#p544e9fbe78)" d="M 582.765734 512.64 
L 582.765734 69.12 
" style="fill:none;stroke:#ffffff;stroke-linecap:round;"/>
     </g>
     <g id="text_5">
      <!-- 0.8 -->
      <defs>
       <path d="M 31.78125 34.625 
Q 24.75 34.625 20.71875 30.859375 
Q 16.703125 27.09375 16.703125 20.515625 
Q 16.703125 13.921875 20.71875 10.15625 
Q 24.75 6.390625 31.78125 6.390625 
Q 38.8125 6.390625 42.859375 10.171875 
Q 46.921875 13.96875 46.921875 20.515625 
Q 46.921875 27.09375 42.890625 30.859375 
Q 38.875 34.625 31.78125 34.625 
z
M 21.921875 38.8125 
Q 15.578125 40.375 12.03125 44.71875 
Q 8.5 49.078125 8.5 55.328125 
Q 8.5 64.0625 14.71875 69.140625 
Q 20.953125 74.21875 31.78125 74.21875 
Q 42.671875 74.21875 48.875 69.140625 
Q 55.078125 64.0625 55.078125 55.328125 
Q 55.078125 49.078125 51.53125 44.71875 
Q 48 40.375 41.703125 38.8125 
Q 48.828125 37.15625 52.796875 32.3125 
Q 56.78125 27.484375 56.78125 20.515625 
Q 56.78125 9.90625 50.3125 4.234375 
Q 43.84375 -1.421875 31.78125 -1.421875 
Q 19.734375 -1.421875 13.25 4.234375 
Q 6.78125 9.90625 6.78125 20.515625 
Q 6.78125 27.484375 10.78125 32.3125 
Q 14.796875 37.15625 21.921875 38.8125 
z
M 18.3125 54.390625 
Q 18.3125 48.734375 21.84375 45.5625 
Q 25.390625 42.390625 31.78125 42.390625 
Q 38.140625 42.390625 41.71875 45.5625 
Q 45.3125 48.734375 45.3125 54.390625 
Q 45.3125 60.0625 41.71875 63.234375 
Q 38.140625 66.40625 31.78125 66.40625 
Q 25.390625 66.40625 21.84375 63.234375 
Q 18.3125 60.0625 18.3125 54.390625 
z
" id="DejaVuSans-56"/>
      </defs>
      <g style="fill:#262626;" transform="translate(569.645656 534.677422)scale(0.165 -0.165)">
       <use xlink:href="#DejaVuSans-48"/>
       <use x="63.623047" xlink:href="#DejaVuSans-46"/>
       <use x="95.410156" xlink:href="#DejaVuSans-56"/>
      </g>
     </g>
    </g>
    <g id="xtick_6">
     <g id="line2d_6">
      <path clip-path="url(#p544e9fbe78)" d="M 687.286214 512.64 
L 687.286214 69.12 
" style="fill:none;stroke:#ffffff;stroke-linecap:round;"/>
     </g>
     <g id="text_6">
      <!-- 1.0 -->
      <defs>
       <path d="M 12.40625 8.296875 
L 28.515625 8.296875 
L 28.515625 63.921875 
L 10.984375 60.40625 
L 10.984375 69.390625 
L 28.421875 72.90625 
L 38.28125 72.90625 
L 38.28125 8.296875 
L 54.390625 8.296875 
L 54.390625 0 
L 12.40625 0 
z
" id="DejaVuSans-49"/>
      </defs>
      <g style="fill:#262626;" transform="translate(674.166136 534.677422)scale(0.165 -0.165)">
       <use xlink:href="#DejaVuSans-49"/>
       <use x="63.623047" xlink:href="#DejaVuSans-46"/>
       <use x="95.410156" xlink:href="#DejaVuSans-48"/>
      </g>
     </g>
    </g>
    <g id="xtick_7">
     <g id="line2d_7">
      <path clip-path="url(#p544e9fbe78)" d="M 791.806693 512.64 
L 791.806693 69.12 
" style="fill:none;stroke:#ffffff;stroke-linecap:round;"/>
     </g>
     <g id="text_7">
      <!-- 1.2 -->
      <g style="fill:#262626;" transform="translate(778.686615 534.677422)scale(0.165 -0.165)">
       <use xlink:href="#DejaVuSans-49"/>
       <use x="63.623047" xlink:href="#DejaVuSans-46"/>
       <use x="95.410156" xlink:href="#DejaVuSans-50"/>
      </g>
     </g>
    </g>
    <g id="xtick_8">
     <g id="line2d_8">
      <path clip-path="url(#p544e9fbe78)" d="M 896.327173 512.64 
L 896.327173 69.12 
" style="fill:none;stroke:#ffffff;stroke-linecap:round;"/>
     </g>
     <g id="text_8">
      <!-- 1.4 -->
      <g style="fill:#262626;" transform="translate(883.207095 534.677422)scale(0.165 -0.165)">
       <use xlink:href="#DejaVuSans-49"/>
       <use x="63.623047" xlink:href="#DejaVuSans-46"/>
       <use x="95.410156" xlink:href="#DejaVuSans-52"/>
      </g>
     </g>
    </g>
    <g id="text_9">
     <!--  Env Steps  -->
     <defs>
      <path id="DejaVuSans-32"/>
      <path d="M 9.8125 72.90625 
L 55.90625 72.90625 
L 55.90625 64.59375 
L 19.671875 64.59375 
L 19.671875 43.015625 
L 54.390625 43.015625 
L 54.390625 34.71875 
L 19.671875 34.71875 
L 19.671875 8.296875 
L 56.78125 8.296875 
L 56.78125 0 
L 9.8125 0 
z
" id="DejaVuSans-69"/>
      <path d="M 54.890625 33.015625 
L 54.890625 0 
L 45.90625 0 
L 45.90625 32.71875 
Q 45.90625 40.484375 42.875 44.328125 
Q 39.84375 48.1875 33.796875 48.1875 
Q 26.515625 48.1875 22.3125 43.546875 
Q 18.109375 38.921875 18.109375 30.90625 
L 18.109375 0 
L 9.078125 0 
L 9.078125 54.6875 
L 18.109375 54.6875 
L 18.109375 46.1875 
Q 21.34375 51.125 25.703125 53.5625 
Q 30.078125 56 35.796875 56 
Q 45.21875 56 50.046875 50.171875 
Q 54.890625 44.34375 54.890625 33.015625 
z
" id="DejaVuSans-110"/>
      <path d="M 2.984375 54.6875 
L 12.5 54.6875 
L 29.59375 8.796875 
L 46.6875 54.6875 
L 56.203125 54.6875 
L 35.6875 0 
L 23.484375 0 
z
" id="DejaVuSans-118"/>
      <path d="M 53.515625 70.515625 
L 53.515625 60.890625 
Q 47.90625 63.578125 42.921875 64.890625 
Q 37.9375 66.21875 33.296875 66.21875 
Q 25.25 66.21875 20.875 63.09375 
Q 16.5 59.96875 16.5 54.203125 
Q 16.5 49.359375 19.40625 46.890625 
Q 22.3125 44.4375 30.421875 42.921875 
L 36.375 41.703125 
Q 47.40625 39.59375 52.65625 34.296875 
Q 57.90625 29 57.90625 20.125 
Q 57.90625 9.515625 50.796875 4.046875 
Q 43.703125 -1.421875 29.984375 -1.421875 
Q 24.8125 -1.421875 18.96875 -0.25 
Q 13.140625 0.921875 6.890625 3.21875 
L 6.890625 13.375 
Q 12.890625 10.015625 18.65625 8.296875 
Q 24.421875 6.59375 29.984375 6.59375 
Q 38.421875 6.59375 43.015625 9.90625 
Q 47.609375 13.234375 47.609375 19.390625 
Q 47.609375 24.75 44.3125 27.78125 
Q 41.015625 30.8125 33.5 32.328125 
L 27.484375 33.5 
Q 16.453125 35.6875 11.515625 40.375 
Q 6.59375 45.0625 6.59375 53.421875 
Q 6.59375 63.09375 13.40625 68.65625 
Q 20.21875 74.21875 32.171875 74.21875 
Q 37.3125 74.21875 42.625 73.28125 
Q 47.953125 72.359375 53.515625 70.515625 
z
" id="DejaVuSans-83"/>
      <path d="M 18.3125 70.21875 
L 18.3125 54.6875 
L 36.8125 54.6875 
L 36.8125 47.703125 
L 18.3125 47.703125 
L 18.3125 18.015625 
Q 18.3125 11.328125 20.140625 9.421875 
Q 21.96875 7.515625 27.59375 7.515625 
L 36.8125 7.515625 
L 36.8125 0 
L 27.59375 0 
Q 17.1875 0 13.234375 3.875 
Q 9.28125 7.765625 9.28125 18.015625 
L 9.28125 47.703125 
L 2.6875 47.703125 
L 2.6875 54.6875 
L 9.28125 54.6875 
L 9.28125 70.21875 
z
" id="DejaVuSans-116"/>
      <path d="M 56.203125 29.59375 
L 56.203125 25.203125 
L 14.890625 25.203125 
Q 15.484375 15.921875 20.484375 11.0625 
Q 25.484375 6.203125 34.421875 6.203125 
Q 39.59375 6.203125 44.453125 7.46875 
Q 49.3125 8.734375 54.109375 11.28125 
L 54.109375 2.78125 
Q 49.265625 0.734375 44.1875 -0.34375 
Q 39.109375 -1.421875 33.890625 -1.421875 
Q 20.796875 -1.421875 13.15625 6.1875 
Q 5.515625 13.8125 5.515625 26.8125 
Q 5.515625 40.234375 12.765625 48.109375 
Q 20.015625 56 32.328125 56 
Q 43.359375 56 49.78125 48.890625 
Q 56.203125 41.796875 56.203125 29.59375 
z
M 47.21875 32.234375 
Q 47.125 39.59375 43.09375 43.984375 
Q 39.0625 48.390625 32.421875 48.390625 
Q 24.90625 48.390625 20.390625 44.140625 
Q 15.875 39.890625 15.1875 32.171875 
z
" id="DejaVuSans-101"/>
      <path d="M 18.109375 8.203125 
L 18.109375 -20.796875 
L 9.078125 -20.796875 
L 9.078125 54.6875 
L 18.109375 54.6875 
L 18.109375 46.390625 
Q 20.953125 51.265625 25.265625 53.625 
Q 29.59375 56 35.59375 56 
Q 45.5625 56 51.78125 48.09375 
Q 58.015625 40.1875 58.015625 27.296875 
Q 58.015625 14.40625 51.78125 6.484375 
Q 45.5625 -1.421875 35.59375 -1.421875 
Q 29.59375 -1.421875 25.265625 0.953125 
Q 20.953125 3.328125 18.109375 8.203125 
z
M 48.6875 27.296875 
Q 48.6875 37.203125 44.609375 42.84375 
Q 40.53125 48.484375 33.40625 48.484375 
Q 26.265625 48.484375 22.1875 42.84375 
Q 18.109375 37.203125 18.109375 27.296875 
Q 18.109375 17.390625 22.1875 11.75 
Q 26.265625 6.109375 33.40625 6.109375 
Q 40.53125 6.109375 44.609375 11.75 
Q 48.6875 17.390625 48.6875 27.296875 
z
" id="DejaVuSans-112"/>
      <path d="M 44.28125 53.078125 
L 44.28125 44.578125 
Q 40.484375 46.53125 36.375 47.5 
Q 32.28125 48.484375 27.875 48.484375 
Q 21.1875 48.484375 17.84375 46.4375 
Q 14.5 44.390625 14.5 40.28125 
Q 14.5 37.15625 16.890625 35.375 
Q 19.28125 33.59375 26.515625 31.984375 
L 29.59375 31.296875 
Q 39.15625 29.25 43.1875 25.515625 
Q 47.21875 21.78125 47.21875 15.09375 
Q 47.21875 7.46875 41.1875 3.015625 
Q 35.15625 -1.421875 24.609375 -1.421875 
Q 20.21875 -1.421875 15.453125 -0.5625 
Q 10.6875 0.296875 5.421875 2 
L 5.421875 11.28125 
Q 10.40625 8.6875 15.234375 7.390625 
Q 20.0625 6.109375 24.8125 6.109375 
Q 31.15625 6.109375 34.5625 8.28125 
Q 37.984375 10.453125 37.984375 14.40625 
Q 37.984375 18.0625 35.515625 20.015625 
Q 33.0625 21.96875 24.703125 23.78125 
L 21.578125 24.515625 
Q 13.234375 26.265625 9.515625 29.90625 
Q 5.8125 33.546875 5.8125 39.890625 
Q 5.8125 47.609375 11.28125 51.796875 
Q 16.75 56 26.8125 56 
Q 31.78125 56 36.171875 55.265625 
Q 40.578125 54.546875 44.28125 53.078125 
z
" id="DejaVuSans-115"/>
     </defs>
     <g style="fill:#262626;" transform="translate(503.019844 555.786094)scale(0.18 -0.18)">
      <use xlink:href="#DejaVuSans-32"/>
      <use x="31.787109" xlink:href="#DejaVuSans-69"/>
      <use x="94.970703" xlink:href="#DejaVuSans-110"/>
      <use x="158.349609" xlink:href="#DejaVuSans-118"/>
      <use x="217.529297" xlink:href="#DejaVuSans-32"/>
      <use x="249.316406" xlink:href="#DejaVuSans-83"/>
      <use x="312.792969" xlink:href="#DejaVuSans-116"/>
      <use x="352.001953" xlink:href="#DejaVuSans-101"/>
      <use x="413.525391" xlink:href="#DejaVuSans-112"/>
      <use x="477.001953" xlink:href="#DejaVuSans-115"/>
      <use x="529.101562" xlink:href="#DejaVuSans-32"/>
     </g>
    </g>
    <g id="text_10">
     <!-- 1e6 -->
     <g style="fill:#262626;" transform="translate(940.851094 553.646328)scale(0.165 -0.165)">
      <use xlink:href="#DejaVuSans-49"/>
      <use x="63.623047" xlink:href="#DejaVuSans-101"/>
      <use x="125.146484" xlink:href="#DejaVuSans-54"/>
     </g>
    </g>
   </g>
   <g id="matplotlib.axis_2">
    <g id="ytick_1">
     <g id="line2d_9">
      <path clip-path="url(#p544e9fbe78)" d="M 135 479.938399 
L 972 479.938399 
" style="fill:none;stroke:#ffffff;stroke-linecap:round;"/>
     </g>
     <g id="text_11">
      <!-- −20 -->
      <defs>
       <path d="M 10.59375 35.5 
L 73.1875 35.5 
L 73.1875 27.203125 
L 10.59375 27.203125 
z
" id="DejaVuSans-8722"/>
      </defs>
      <g style="fill:#262626;" transform="translate(90.677266 486.20711)scale(0.165 -0.165)">
       <use xlink:href="#DejaVuSans-8722"/>
       <use x="83.789062" xlink:href="#DejaVuSans-50"/>
       <use x="147.412109" xlink:href="#DejaVuSans-48"/>
      </g>
     </g>
    </g>
    <g id="ytick_2">
     <g id="line2d_10">
      <path clip-path="url(#p544e9fbe78)" d="M 135 381.850232 
L 972 381.850232 
" style="fill:none;stroke:#ffffff;stroke-linecap:round;"/>
     </g>
     <g id="text_12">
      <!-- −15 -->
      <defs>
       <path d="M 10.796875 72.90625 
L 49.515625 72.90625 
L 49.515625 64.59375 
L 19.828125 64.59375 
L 19.828125 46.734375 
Q 21.96875 47.46875 24.109375 47.828125 
Q 26.265625 48.1875 28.421875 48.1875 
Q 40.625 48.1875 47.75 41.5 
Q 54.890625 34.8125 54.890625 23.390625 
Q 54.890625 11.625 47.5625 5.09375 
Q 40.234375 -1.421875 26.90625 -1.421875 
Q 22.3125 -1.421875 17.546875 -0.640625 
Q 12.796875 0.140625 7.71875 1.703125 
L 7.71875 11.625 
Q 12.109375 9.234375 16.796875 8.0625 
Q 21.484375 6.890625 26.703125 6.890625 
Q 35.15625 6.890625 40.078125 11.328125 
Q 45.015625 15.765625 45.015625 23.390625 
Q 45.015625 31 40.078125 35.4375 
Q 35.15625 39.890625 26.703125 39.890625 
Q 22.75 39.890625 18.8125 39.015625 
Q 14.890625 38.140625 10.796875 36.28125 
z
" id="DejaVuSans-53"/>
      </defs>
      <g style="fill:#262626;" transform="translate(90.677266 388.118943)scale(0.165 -0.165)">
       <use xlink:href="#DejaVuSans-8722"/>
       <use x="83.789062" xlink:href="#DejaVuSans-49"/>
       <use x="147.412109" xlink:href="#DejaVuSans-53"/>
      </g>
     </g>
    </g>
    <g id="ytick_3">
     <g id="line2d_11">
      <path clip-path="url(#p544e9fbe78)" d="M 135 283.762065 
L 972 283.762065 
" style="fill:none;stroke:#ffffff;stroke-linecap:round;"/>
     </g>
     <g id="text_13">
      <!-- −10 -->
      <g style="fill:#262626;" transform="translate(90.677266 290.030776)scale(0.165 -0.165)">
       <use xlink:href="#DejaVuSans-8722"/>
       <use x="83.789062" xlink:href="#DejaVuSans-49"/>
       <use x="147.412109" xlink:href="#DejaVuSans-48"/>
      </g>
     </g>
    </g>
    <g id="ytick_4">
     <g id="line2d_12">
      <path clip-path="url(#p544e9fbe78)" d="M 135 185.673898 
L 972 185.673898 
" style="fill:none;stroke:#ffffff;stroke-linecap:round;"/>
     </g>
     <g id="text_14">
      <!-- −5 -->
      <g style="fill:#262626;" transform="translate(101.175391 191.942609)scale(0.165 -0.165)">
       <use xlink:href="#DejaVuSans-8722"/>
       <use x="83.789062" xlink:href="#DejaVuSans-53"/>
      </g>
     </g>
    </g>
    <g id="ytick_5">
     <g id="line2d_13">
      <path clip-path="url(#p544e9fbe78)" d="M 135 87.585731 
L 972 87.585731 
" style="fill:none;stroke:#ffffff;stroke-linecap:round;"/>
     </g>
     <g id="text_15">
      <!-- 0 -->
      <g style="fill:#262626;" transform="translate(115.001875 93.854442)scale(0.165 -0.165)">
       <use xlink:href="#DejaVuSans-48"/>
      </g>
     </g>
    </g>
    <g id="text_16">
     <!--  Mean Reward  -->
     <defs>
      <path d="M 9.8125 72.90625 
L 24.515625 72.90625 
L 43.109375 23.296875 
L 61.8125 72.90625 
L 76.515625 72.90625 
L 76.515625 0 
L 66.890625 0 
L 66.890625 64.015625 
L 48.09375 14.015625 
L 38.1875 14.015625 
L 19.390625 64.015625 
L 19.390625 0 
L 9.8125 0 
z
" id="DejaVuSans-77"/>
      <path d="M 34.28125 27.484375 
Q 23.390625 27.484375 19.1875 25 
Q 14.984375 22.515625 14.984375 16.5 
Q 14.984375 11.71875 18.140625 8.90625 
Q 21.296875 6.109375 26.703125 6.109375 
Q 34.1875 6.109375 38.703125 11.40625 
Q 43.21875 16.703125 43.21875 25.484375 
L 43.21875 27.484375 
z
M 52.203125 31.203125 
L 52.203125 0 
L 43.21875 0 
L 43.21875 8.296875 
Q 40.140625 3.328125 35.546875 0.953125 
Q 30.953125 -1.421875 24.3125 -1.421875 
Q 15.921875 -1.421875 10.953125 3.296875 
Q 6 8.015625 6 15.921875 
Q 6 25.140625 12.171875 29.828125 
Q 18.359375 34.515625 30.609375 34.515625 
L 43.21875 34.515625 
L 43.21875 35.40625 
Q 43.21875 41.609375 39.140625 45 
Q 35.0625 48.390625 27.6875 48.390625 
Q 23 48.390625 18.546875 47.265625 
Q 14.109375 46.140625 10.015625 43.890625 
L 10.015625 52.203125 
Q 14.9375 54.109375 19.578125 55.046875 
Q 24.21875 56 28.609375 56 
Q 40.484375 56 46.34375 49.84375 
Q 52.203125 43.703125 52.203125 31.203125 
z
" id="DejaVuSans-97"/>
      <path d="M 44.390625 34.1875 
Q 47.5625 33.109375 50.5625 29.59375 
Q 53.5625 26.078125 56.59375 19.921875 
L 66.609375 0 
L 56 0 
L 46.6875 18.703125 
Q 43.0625 26.03125 39.671875 28.421875 
Q 36.28125 30.8125 30.421875 30.8125 
L 19.671875 30.8125 
L 19.671875 0 
L 9.8125 0 
L 9.8125 72.90625 
L 32.078125 72.90625 
Q 44.578125 72.90625 50.734375 67.671875 
Q 56.890625 62.453125 56.890625 51.90625 
Q 56.890625 45.015625 53.6875 40.46875 
Q 50.484375 35.9375 44.390625 34.1875 
z
M 19.671875 64.796875 
L 19.671875 38.921875 
L 32.078125 38.921875 
Q 39.203125 38.921875 42.84375 42.21875 
Q 46.484375 45.515625 46.484375 51.90625 
Q 46.484375 58.296875 42.84375 61.546875 
Q 39.203125 64.796875 32.078125 64.796875 
z
" id="DejaVuSans-82"/>
      <path d="M 4.203125 54.6875 
L 13.1875 54.6875 
L 24.421875 12.015625 
L 35.59375 54.6875 
L 46.1875 54.6875 
L 57.421875 12.015625 
L 68.609375 54.6875 
L 77.59375 54.6875 
L 63.28125 0 
L 52.6875 0 
L 40.921875 44.828125 
L 29.109375 0 
L 18.5 0 
z
" id="DejaVuSans-119"/>
      <path d="M 41.109375 46.296875 
Q 39.59375 47.171875 37.8125 47.578125 
Q 36.03125 48 33.890625 48 
Q 26.265625 48 22.1875 43.046875 
Q 18.109375 38.09375 18.109375 28.8125 
L 18.109375 0 
L 9.078125 0 
L 9.078125 54.6875 
L 18.109375 54.6875 
L 18.109375 46.1875 
Q 20.953125 51.171875 25.484375 53.578125 
Q 30.03125 56 36.53125 56 
Q 37.453125 56 38.578125 55.875 
Q 39.703125 55.765625 41.0625 55.515625 
z
" id="DejaVuSans-114"/>
      <path d="M 45.40625 46.390625 
L 45.40625 75.984375 
L 54.390625 75.984375 
L 54.390625 0 
L 45.40625 0 
L 45.40625 8.203125 
Q 42.578125 3.328125 38.25 0.953125 
Q 33.9375 -1.421875 27.875 -1.421875 
Q 17.96875 -1.421875 11.734375 6.484375 
Q 5.515625 14.40625 5.515625 27.296875 
Q 5.515625 40.1875 11.734375 48.09375 
Q 17.96875 56 27.875 56 
Q 33.9375 56 38.25 53.625 
Q 42.578125 51.265625 45.40625 46.390625 
z
M 14.796875 27.296875 
Q 14.796875 17.390625 18.875 11.75 
Q 22.953125 6.109375 30.078125 6.109375 
Q 37.203125 6.109375 41.296875 11.75 
Q 45.40625 17.390625 45.40625 27.296875 
Q 45.40625 37.203125 41.296875 42.84375 
Q 37.203125 48.484375 30.078125 48.484375 
Q 22.953125 48.484375 18.875 42.84375 
Q 14.796875 37.203125 14.796875 27.296875 
z
" id="DejaVuSans-100"/>
     </defs>
     <g style="fill:#262626;" transform="translate(82.933828 358.056562)rotate(-90)scale(0.18 -0.18)">
      <use xlink:href="#DejaVuSans-32"/>
      <use x="31.787109" xlink:href="#DejaVuSans-77"/>
      <use x="118.066406" xlink:href="#DejaVuSans-101"/>
      <use x="179.589844" xlink:href="#DejaVuSans-97"/>
      <use x="240.869141" xlink:href="#DejaVuSans-110"/>
      <use x="304.248047" xlink:href="#DejaVuSans-32"/>
      <use x="336.035156" xlink:href="#DejaVuSans-82"/>
      <use x="405.455078" xlink:href="#DejaVuSans-101"/>
      <use x="466.978516" xlink:href="#DejaVuSans-119"/>
      <use x="548.765625" xlink:href="#DejaVuSans-97"/>
      <use x="610.044922" xlink:href="#DejaVuSans-114"/>
      <use x="651.142578" xlink:href="#DejaVuSans-100"/>
      <use x="714.619141" xlink:href="#DejaVuSans-32"/>
     </g>
    </g>
   </g>
   <g id="PolyCollection_1">
    <defs>
     <path d="M 173.045455 -418.440832 
L 173.045455 -344.935555 
L 181.407093 -382.972767 
L 189.768731 -404.287841 
L 198.13037 -410.817208 
L 206.492008 -433.689795 
L 214.853646 -452.065092 
L 223.215285 -443.951297 
L 231.576923 -453.16074 
L 239.938561 -462.921915 
L 248.3002 -464.546156 
L 256.661838 -471.302185 
L 265.023477 -468.064975 
L 273.385115 -458.148934 
L 281.746753 -439.981372 
L 290.108392 -449.348229 
L 298.47003 -445.409151 
L 306.831668 -457.197703 
L 315.193307 -462.280751 
L 323.554945 -448.569944 
L 331.916583 -443.998955 
L 340.278222 -444.90878 
L 348.63986 -442.15031 
L 357.001499 -431.249826 
L 365.363137 -432.234924 
L 373.724775 -432.373991 
L 382.086414 -430.841588 
L 390.448052 -429.805268 
L 398.80969 -438.303757 
L 407.171329 -438.179847 
L 415.532967 -452.958316 
L 423.894605 -449.789091 
L 432.256244 -443.219132 
L 440.617882 -445.188826 
L 448.97952 -452.679951 
L 457.341159 -454.305137 
L 465.702797 -458.918788 
L 474.064436 -462.346035 
L 482.426074 -457.982056 
L 490.787712 -443.974798 
L 499.149351 -423.537357 
L 507.510989 -411.244651 
L 515.872627 -392.23768 
L 524.234266 -385.535315 
L 532.595904 -383.469906 
L 540.957542 -384.009844 
L 549.319181 -400.072412 
L 557.680819 -406.202475 
L 566.042458 -410.309732 
L 574.404096 -409.012976 
L 582.765734 -418.728311 
L 591.127373 -416.544944 
L 599.489011 -414.375013 
L 607.850649 -411.165043 
L 616.212288 -416.913829 
L 624.573926 -416.798243 
L 632.935564 -416.851531 
L 641.297203 -424.802366 
L 649.658841 -426.602065 
L 658.02048 -433.115869 
L 666.382118 -432.529275 
L 674.743756 -431.371625 
L 683.105395 -440.742949 
L 691.467033 -432.242958 
L 699.828671 -426.508787 
L 708.19031 -430.806893 
L 716.551948 -430.501425 
L 724.913586 -420.533181 
L 733.275225 -417.054909 
L 741.636863 -404.829051 
L 749.998501 -402.201389 
L 758.36014 -406.116805 
L 766.721778 -412.862073 
L 775.083417 -433.509869 
L 783.445055 -437.72444 
L 791.806693 -424.776255 
L 800.168332 -428.763132 
L 808.52997 -425.680195 
L 816.891608 -412.615747 
L 825.253247 -407.551818 
L 833.614885 -404.864029 
L 841.976523 -400.054123 
L 850.338162 -397.726512 
L 858.6998 -396.829207 
L 867.061439 -381.422325 
L 875.423077 -384.699707 
L 883.784715 -386.506296 
L 892.146354 -383.772945 
L 900.507992 -381.086307 
L 908.86963 -404.75028 
L 917.231269 -391.093204 
L 925.592907 -367.23432 
L 933.954545 -384.845659 
L 933.954545 -442.380423 
L 933.954545 -442.380423 
L 925.592907 -443.619237 
L 917.231269 -452.789217 
L 908.86963 -462.732445 
L 900.507992 -462.035718 
L 892.146354 -463.693077 
L 883.784715 -472.352 
L 875.423077 -476.508086 
L 867.061439 -479.179228 
L 858.6998 -472.714147 
L 850.338162 -469.962344 
L 841.976523 -477.6848 
L 833.614885 -474.459064 
L 825.253247 -471.685936 
L 816.891608 -476.075126 
L 808.52997 -471.725364 
L 800.168332 -469.850927 
L 791.806693 -470.861395 
L 783.445055 -467.337876 
L 775.083417 -460.704332 
L 766.721778 -463.785716 
L 758.36014 -465.126799 
L 749.998501 -454.388518 
L 741.636863 -463.032693 
L 733.275225 -463.293204 
L 724.913586 -466.00539 
L 716.551948 -463.212682 
L 708.19031 -461.267198 
L 699.828671 -450.480231 
L 691.467033 -449.362135 
L 683.105395 -451.890383 
L 674.743756 -455.179458 
L 666.382118 -448.800848 
L 658.02048 -451.221903 
L 649.658841 -453.910487 
L 641.297203 -447.495438 
L 632.935564 -446.372163 
L 624.573926 -455.718496 
L 616.212288 -459.401672 
L 607.850649 -459.332497 
L 599.489011 -468.863429 
L 591.127373 -472.996851 
L 582.765734 -474.27791 
L 574.404096 -468.892522 
L 566.042458 -471.075273 
L 557.680819 -471.57542 
L 549.319181 -469.519849 
L 540.957542 -470.00715 
L 532.595904 -472.933415 
L 524.234266 -461.825013 
L 515.872627 -465.282004 
L 507.510989 -470.390662 
L 499.149351 -468.107956 
L 490.787712 -462.917666 
L 482.426074 -483.755039 
L 474.064436 -483.267416 
L 465.702797 -480.977652 
L 457.341159 -481.560724 
L 448.97952 -481.651214 
L 440.617882 -481.190428 
L 432.256244 -481.919555 
L 423.894605 -483.611361 
L 415.532967 -485.450994 
L 407.171329 -483.504875 
L 398.80969 -481.961821 
L 390.448052 -471.339207 
L 382.086414 -469.035656 
L 373.724775 -464.472924 
L 365.363137 -462.842567 
L 357.001499 -466.940133 
L 348.63986 -478.041664 
L 340.278222 -482.280606 
L 331.916583 -479.839121 
L 323.554945 -486.72 
L 315.193307 -472.709186 
L 306.831668 -467.827531 
L 298.47003 -464.483913 
L 290.108392 -476.964718 
L 281.746753 -482.782795 
L 273.385115 -479.532937 
L 265.023477 -481.401786 
L 256.661838 -481.124574 
L 248.3002 -474.73445 
L 239.938561 -476.640699 
L 231.576923 -477.640592 
L 223.215285 -476.792232 
L 214.853646 -480.720981 
L 206.492008 -480.53468 
L 198.13037 -479.075152 
L 189.768731 -462.317097 
L 181.407093 -453.272816 
L 173.045455 -418.440832 
z
" id="m7c7c591e4f" style="stroke:#4c72b0;stroke-opacity:0.2;"/>
    </defs>
    <g clip-path="url(#p544e9fbe78)">
     <use style="fill:#4c72b0;fill-opacity:0.2;stroke:#4c72b0;stroke-opacity:0.2;" x="0" xlink:href="#m7c7c591e4f" y="576"/>
    </g>
   </g>
   <g id="PolyCollection_2">
    <defs>
     <path d="M 173.045455 -387.364922 
L 173.045455 -361.675227 
L 181.407093 -363.090398 
L 189.768731 -376.49799 
L 198.13037 -375.864802 
L 206.492008 -370.223197 
L 214.853646 -380.551655 
L 223.215285 -381.624192 
L 231.576923 -369.648879 
L 239.938561 -381.600392 
L 248.3002 -386.83214 
L 256.661838 -395.741611 
L 265.023477 -401.42455 
L 273.385115 -403.640161 
L 281.746753 -410.504619 
L 290.108392 -410.795317 
L 298.47003 -415.391149 
L 306.831668 -417.397624 
L 315.193307 -417.358234 
L 323.554945 -425.996429 
L 331.916583 -435.805655 
L 340.278222 -430.572007 
L 348.63986 -425.130386 
L 357.001499 -433.687312 
L 365.363137 -433.394817 
L 373.724775 -431.255615 
L 382.086414 -428.615287 
L 390.448052 -424.001052 
L 398.80969 -424.560268 
L 407.171329 -423.903409 
L 415.532967 -421.883243 
L 423.894605 -418.645587 
L 432.256244 -424.110348 
L 440.617882 -427.510849 
L 448.97952 -419.071925 
L 457.341159 -430.420959 
L 465.702797 -433.296218 
L 474.064436 -427.167827 
L 482.426074 -428.57251 
L 490.787712 -434.064134 
L 499.149351 -431.59642 
L 507.510989 -428.540633 
L 515.872627 -434.095913 
L 524.234266 -427.369119 
L 532.595904 -414.723694 
L 540.957542 -414.810864 
L 549.319181 -416.44187 
L 557.680819 -416.354488 
L 566.042458 -419.0917 
L 574.404096 -431.697199 
L 582.765734 -436.634553 
L 591.127373 -444.062301 
L 599.489011 -439.00252 
L 607.850649 -442.963715 
L 616.212288 -448.057041 
L 624.573926 -450.65664 
L 632.935564 -445.6413 
L 641.297203 -447.257294 
L 649.658841 -438.849967 
L 658.02048 -430.146075 
L 666.382118 -419.173906 
L 674.743756 -419.145295 
L 683.105395 -416.488727 
L 691.467033 -417.037737 
L 699.828671 -428.099676 
L 708.19031 -435.469445 
L 716.551948 -436.659951 
L 724.913586 -430.605548 
L 733.275225 -430.760778 
L 741.636863 -428.405753 
L 749.998501 -426.787356 
L 758.36014 -416.376138 
L 766.721778 -432.445086 
L 775.083417 -423.85402 
L 783.445055 -419.876829 
L 791.806693 -428.264149 
L 800.168332 -432.60722 
L 808.52997 -435.644431 
L 816.891608 -442.814501 
L 825.253247 -445.2066 
L 833.614885 -437.664726 
L 841.976523 -440.038759 
L 850.338162 -439.555421 
L 858.6998 -440.363348 
L 867.061439 -438.16591 
L 875.423077 -445.756078 
L 883.784715 -439.635646 
L 892.146354 -430.910869 
L 900.507992 -425.514211 
L 908.86963 -436.479204 
L 917.231269 -440.042176 
L 925.592907 -439.413574 
L 933.954545 -441.03687 
L 933.954545 -447.689696 
L 933.954545 -447.689696 
L 925.592907 -440.659254 
L 917.231269 -440.440795 
L 908.86963 -445.450857 
L 900.507992 -444.70916 
L 892.146354 -449.757119 
L 883.784715 -448.088297 
L 875.423077 -449.611628 
L 867.061439 -441.059138 
L 858.6998 -444.650325 
L 850.338162 -439.844478 
L 841.976523 -442.198879 
L 833.614885 -443.341015 
L 825.253247 -449.669595 
L 816.891608 -447.978697 
L 808.52997 -445.018856 
L 800.168332 -445.819796 
L 791.806693 -444.649527 
L 783.445055 -444.800105 
L 775.083417 -435.711561 
L 766.721778 -443.458483 
L 758.36014 -437.189315 
L 749.998501 -427.596019 
L 741.636863 -429.22783 
L 733.275225 -430.815833 
L 724.913586 -432.832382 
L 716.551948 -446.314276 
L 708.19031 -440.661592 
L 699.828671 -440.466452 
L 691.467033 -435.000367 
L 683.105395 -424.952119 
L 674.743756 -426.668664 
L 666.382118 -430.613294 
L 658.02048 -436.006729 
L 649.658841 -449.160871 
L 641.297203 -449.812039 
L 632.935564 -449.070461 
L 624.573926 -451.623824 
L 616.212288 -453.858625 
L 607.850649 -456.089603 
L 599.489011 -455.78415 
L 591.127373 -450.051274 
L 582.765734 -447.456217 
L 574.404096 -442.260412 
L 566.042458 -438.770088 
L 557.680819 -426.197605 
L 549.319181 -426.190509 
L 540.957542 -420.951444 
L 532.595904 -423.92247 
L 524.234266 -430.579747 
L 515.872627 -440.562149 
L 507.510989 -437.116587 
L 499.149351 -435.76114 
L 490.787712 -434.257181 
L 482.426074 -433.040066 
L 474.064436 -429.529491 
L 465.702797 -435.024548 
L 457.341159 -438.429662 
L 448.97952 -435.206225 
L 440.617882 -435.23326 
L 432.256244 -426.10204 
L 423.894605 -428.376126 
L 415.532967 -426.845505 
L 407.171329 -432.212148 
L 398.80969 -434.057154 
L 390.448052 -446.890776 
L 382.086414 -435.350582 
L 373.724775 -433.867193 
L 365.363137 -442.364101 
L 357.001499 -435.345247 
L 348.63986 -442.854993 
L 340.278222 -447.145251 
L 331.916583 -443.015347 
L 323.554945 -427.253595 
L 315.193307 -427.074802 
L 306.831668 -425.099014 
L 298.47003 -420.140932 
L 290.108392 -421.624467 
L 281.746753 -421.764946 
L 273.385115 -423.47663 
L 265.023477 -410.945448 
L 256.661838 -396.338235 
L 248.3002 -393.359539 
L 239.938561 -398.713632 
L 231.576923 -399.020678 
L 223.215285 -388.613532 
L 214.853646 -383.212272 
L 206.492008 -380.123225 
L 198.13037 -383.18788 
L 189.768731 -378.617227 
L 181.407093 -389.886518 
L 173.045455 -387.364922 
z
" id="mca2586d154" style="stroke:#1a1a1a;stroke-opacity:0.2;"/>
    </defs>
    <g clip-path="url(#p544e9fbe78)">
     <use style="fill:#1a1a1a;fill-opacity:0.2;stroke:#1a1a1a;stroke-opacity:0.2;" x="0" xlink:href="#mca2586d154" y="576"/>
    </g>
   </g>
   <g id="PolyCollection_3">
    <defs>
     <path d="M 173.045455 -84.907779 
L 173.045455 -84.245411 
L 181.407093 -84.282352 
L 189.768731 -84.362236 
L 198.13037 -84.228685 
L 206.492008 -84.050419 
L 214.853646 -83.799433 
L 223.215285 -83.52 
L 231.576923 -83.590505 
L 239.938561 -83.907824 
L 248.3002 -84.098701 
L 256.661838 -84.260589 
L 265.023477 -84.43347 
L 273.385115 -84.543564 
L 281.746753 -84.529407 
L 290.108392 -84.607194 
L 298.47003 -84.762486 
L 306.831668 -84.763569 
L 315.193307 -84.760357 
L 323.554945 -84.687153 
L 331.916583 -84.672124 
L 340.278222 -84.536872 
L 348.63986 -84.593635 
L 357.001499 -84.656577 
L 365.363137 -84.829117 
L 373.724775 -84.803301 
L 382.086414 -84.935536 
L 390.448052 -84.980888 
L 398.80969 -84.867928 
L 407.171329 -84.888493 
L 415.532967 -84.899502 
L 423.894605 -84.850521 
L 432.256244 -84.872613 
L 440.617882 -84.743242 
L 448.97952 -84.52334 
L 457.341159 -84.490866 
L 465.702797 -84.445714 
L 474.064436 -84.24151 
L 482.426074 -84.321172 
L 490.787712 -84.415961 
L 499.149351 -84.300795 
L 507.510989 -84.52825 
L 515.872627 -84.695136 
L 524.234266 -84.703686 
L 532.595904 -84.740472 
L 540.957542 -84.725446 
L 549.319181 -84.716761 
L 557.680819 -84.646097 
L 566.042458 -84.73267 
L 574.404096 -84.765516 
L 582.765734 -84.758289 
L 591.127373 -84.716447 
L 599.489011 -84.696799 
L 607.850649 -84.719842 
L 616.212288 -84.700904 
L 624.573926 -84.704925 
L 632.935564 -84.805329 
L 641.297203 -84.892493 
L 649.658841 -84.859504 
L 658.02048 -84.867897 
L 666.382118 -84.896057 
L 674.743756 -84.928429 
L 683.105395 -84.930629 
L 691.467033 -84.915812 
L 699.828671 -85.039019 
L 708.19031 -84.945693 
L 716.551948 -84.845792 
L 724.913586 -84.785043 
L 733.275225 -84.608013 
L 741.636863 -84.693918 
L 749.998501 -84.690693 
L 758.36014 -84.723675 
L 766.721778 -84.698995 
L 775.083417 -84.731099 
L 783.445055 -84.635728 
L 791.806693 -84.619652 
L 800.168332 -84.43196 
L 808.52997 -84.439446 
L 816.891608 -84.486967 
L 825.253247 -84.598841 
L 833.614885 -84.817322 
L 841.976523 -84.863422 
L 850.338162 -84.937109 
L 858.6998 -84.919211 
L 867.061439 -85.05379 
L 875.423077 -85.056898 
L 883.784715 -85.041251 
L 892.146354 -85.027493 
L 900.507992 -85.015029 
L 908.86963 -84.853277 
L 917.231269 -84.695216 
L 925.592907 -84.60023 
L 933.954545 -84.575262 
L 933.954545 -86.184989 
L 933.954545 -86.184989 
L 925.592907 -86.295451 
L 917.231269 -86.221653 
L 908.86963 -86.455087 
L 900.507992 -86.42754 
L 892.146354 -86.435666 
L 883.784715 -86.479565 
L 875.423077 -86.556919 
L 867.061439 -86.296982 
L 858.6998 -86.234038 
L 850.338162 -86.174155 
L 841.976523 -86.00236 
L 833.614885 -85.998923 
L 825.253247 -86.098514 
L 816.891608 -85.876226 
L 808.52997 -86.096192 
L 800.168332 -86.255639 
L 791.806693 -86.088403 
L 783.445055 -85.997008 
L 775.083417 -86.024112 
L 766.721778 -86.02501 
L 758.36014 -86.093746 
L 749.998501 -86.140098 
L 741.636863 -86.220447 
L 733.275225 -86.241702 
L 724.913586 -86.33556 
L 716.551948 -86.41695 
L 708.19031 -86.378461 
L 699.828671 -86.299485 
L 691.467033 -86.234232 
L 683.105395 -86.299483 
L 674.743756 -85.960576 
L 666.382118 -86.00956 
L 658.02048 -86.132601 
L 649.658841 -86.291339 
L 641.297203 -86.329366 
L 632.935564 -86.489363 
L 624.573926 -86.604184 
L 616.212288 -86.745314 
L 607.850649 -86.873151 
L 599.489011 -86.99559 
L 591.127373 -87.117263 
L 582.765734 -87.087933 
L 574.404096 -87.060725 
L 566.042458 -87.075912 
L 557.680819 -87.217794 
L 549.319181 -87.188025 
L 540.957542 -87.161202 
L 532.595904 -87.221969 
L 524.234266 -86.836805 
L 515.872627 -86.612075 
L 507.510989 -86.47399 
L 499.149351 -86.458281 
L 490.787712 -86.604179 
L 482.426074 -86.727039 
L 474.064436 -86.876654 
L 465.702797 -87.007339 
L 457.341159 -87.096694 
L 448.97952 -87.148215 
L 440.617882 -87.247964 
L 432.256244 -86.887473 
L 423.894605 -87.049366 
L 415.532967 -86.942083 
L 407.171329 -86.912465 
L 398.80969 -86.95483 
L 390.448052 -87.069254 
L 382.086414 -87.054394 
L 373.724775 -87.035478 
L 365.363137 -87.051955 
L 357.001499 -87.010884 
L 348.63986 -86.925103 
L 340.278222 -86.917997 
L 331.916583 -86.779945 
L 323.554945 -86.645395 
L 315.193307 -86.732749 
L 306.831668 -86.825147 
L 298.47003 -86.419206 
L 290.108392 -86.223374 
L 281.746753 -85.946263 
L 273.385115 -85.563912 
L 265.023477 -85.446544 
L 256.661838 -85.384609 
L 248.3002 -85.329432 
L 239.938561 -85.437845 
L 231.576923 -85.305016 
L 223.215285 -85.221867 
L 214.853646 -85.160037 
L 206.492008 -85.129568 
L 198.13037 -84.992352 
L 189.768731 -85.044054 
L 181.407093 -85.056555 
L 173.045455 -84.907779 
z
" id="m627dbde5bc" style="stroke:#800080;stroke-opacity:0.2;"/>
    </defs>
    <g clip-path="url(#p544e9fbe78)">
     <use style="fill:#800080;fill-opacity:0.2;stroke:#800080;stroke-opacity:0.2;" x="0" xlink:href="#m627dbde5bc" y="576"/>
    </g>
   </g>
   <g id="line2d_14">
    <path clip-path="url(#p544e9fbe78)" d="M 173.045455 194.311806 
L 181.407093 157.877208 
L 189.768731 142.697531 
L 198.13037 131.05382 
L 206.492008 117.327846 
L 214.853646 109.14217 
L 223.215285 115.121144 
L 231.576923 110.599334 
L 239.938561 107.362266 
L 248.3002 105.223902 
L 256.661838 100.350433 
L 265.023477 102.455919 
L 273.385115 107.678375 
L 281.746753 112.561397 
L 290.108392 112.843527 
L 298.47003 119.916333 
L 306.831668 114.293022 
L 315.193307 108.709787 
L 323.554945 106.150596 
L 331.916583 114.080962 
L 340.278222 112.405307 
L 348.63986 115.298322 
L 357.001499 126.867013 
L 365.363137 128.897954 
L 373.724775 127.576543 
L 382.086414 126.546115 
L 390.448052 125.311152 
L 398.80969 114.565687 
L 407.171329 110.176779 
L 415.532967 104.529842 
L 423.894605 110.640611 
L 432.256244 113.461713 
L 440.617882 112.810373 
L 448.97952 108.834417 
L 457.341159 108.046417 
L 465.702797 106.05178 
L 474.064436 103.22618 
L 482.426074 103.196247 
L 490.787712 122.161643 
L 499.149351 129.391306 
L 507.510989 135.182343 
L 515.872627 146.679487 
L 524.234266 152.890062 
L 532.595904 147.798339 
L 540.957542 149.423115 
L 549.319181 146.543403 
L 557.680819 142.239131 
L 566.042458 141.288264 
L 574.404096 138.166863 
L 582.765734 135.126777 
L 591.127373 129.220432 
L 599.489011 131.028497 
L 607.850649 134.645313 
L 616.212288 132.486045 
L 624.573926 135.387966 
L 632.935564 142.18196 
L 641.297203 137.660689 
L 649.658841 135.539256 
L 658.02048 133.831114 
L 666.382118 135.334939 
L 674.743756 132.925482 
L 683.105395 129.755488 
L 691.467033 133.930995 
L 699.828671 134.153208 
L 708.19031 129.962955 
L 716.551948 129.142947 
L 724.913586 132.290337 
L 733.275225 135.825943 
L 741.636863 143.456658 
L 749.998501 143.324652 
L 758.36014 141.41754 
L 766.721778 137.749098 
L 775.083417 128.8929 
L 783.445055 123.011512 
L 791.806693 126.095973 
L 800.168332 126.69297 
L 808.52997 127.29722 
L 816.891608 131.69814 
L 825.253247 136.309488 
L 833.614885 136.338454 
L 841.976523 137.130538 
L 850.338162 142.155572 
L 858.6998 142.90253 
L 867.061439 144.47817 
L 875.423077 145.877465 
L 883.784715 147.811424 
L 892.146354 157.041577 
L 900.507992 159.083734 
L 908.86963 149.345789 
L 917.231269 157.055903 
L 925.592907 161.295954 
L 933.954545 153.597215 
" style="fill:none;stroke:#4c72b0;stroke-dasharray:5.55,2.4;stroke-dashoffset:0;stroke-width:1.5;"/>
   </g>
   <g id="line2d_15">
    <path clip-path="url(#p544e9fbe78)" d="M 173.045455 201.479926 
L 181.407093 199.511542 
L 189.768731 198.442392 
L 198.13037 196.473659 
L 206.492008 200.826789 
L 214.853646 194.118037 
L 223.215285 190.881138 
L 231.576923 191.665221 
L 239.938561 185.842988 
L 248.3002 185.90416 
L 256.661838 179.960077 
L 265.023477 169.815001 
L 273.385115 162.441604 
L 281.746753 159.865218 
L 290.108392 159.790108 
L 298.47003 158.233959 
L 306.831668 154.751681 
L 315.193307 153.783482 
L 323.554945 149.374988 
L 331.916583 136.589499 
L 340.278222 137.141371 
L 348.63986 142.007311 
L 357.001499 141.48372 
L 365.363137 138.120541 
L 373.724775 143.438596 
L 382.086414 144.017065 
L 390.448052 140.554086 
L 398.80969 146.691289 
L 407.171329 147.942221 
L 415.532967 151.635626 
L 423.894605 152.489144 
L 432.256244 150.893806 
L 440.617882 144.627945 
L 448.97952 148.860925 
L 457.341159 141.57469 
L 465.702797 141.839617 
L 474.064436 147.651341 
L 482.426074 145.193712 
L 490.787712 141.839342 
L 499.149351 142.32122 
L 507.510989 143.17139 
L 515.872627 138.670969 
L 524.234266 147.025567 
L 532.595904 156.676918 
L 540.957542 158.118846 
L 549.319181 154.68381 
L 557.680819 154.723953 
L 566.042458 147.069106 
L 574.404096 139.021195 
L 582.765734 133.954615 
L 591.127373 128.943212 
L 599.489011 128.606665 
L 607.850649 126.473341 
L 616.212288 125.042167 
L 624.573926 124.859768 
L 632.935564 128.644119 
L 641.297203 127.465333 
L 649.658841 131.994581 
L 658.02048 142.923598 
L 666.382118 151.1064 
L 674.743756 153.093021 
L 683.105395 155.279577 
L 691.467033 149.980948 
L 699.828671 141.716936 
L 708.19031 137.934481 
L 716.551948 134.512886 
L 724.913586 144.281035 
L 733.275225 145.211695 
L 741.636863 147.183209 
L 749.998501 148.808313 
L 758.36014 149.217274 
L 766.721778 138.048215 
L 775.083417 146.217209 
L 783.445055 143.661533 
L 791.806693 139.543162 
L 800.168332 136.786492 
L 808.52997 135.668356 
L 816.891608 130.603401 
L 825.253247 128.561903 
L 833.614885 135.497129 
L 841.976523 134.881181 
L 850.338162 136.300051 
L 858.6998 133.493163 
L 867.061439 136.387476 
L 875.423077 128.316147 
L 883.784715 132.138028 
L 892.146354 135.666006 
L 900.507992 140.888314 
L 908.86963 135.034969 
L 917.231269 135.758515 
L 925.592907 135.963586 
L 933.954545 131.636717 
" style="fill:none;stroke:#1a1a1a;stroke-linecap:round;stroke-width:1.5;"/>
   </g>
   <g id="line2d_16">
    <path clip-path="url(#p544e9fbe78)" d="M 173.045455 201.326508 
L 181.407093 230.141257 
L 189.768731 229.124744 
L 198.13037 231.39961 
L 206.492008 224.265317 
L 214.853646 249.892475 
L 223.215285 243.086597 
L 231.576923 237.541275 
L 239.938561 234.233738 
L 248.3002 245.127715 
L 256.661838 247.592918 
L 265.023477 217.91088 
L 273.385115 208.372049 
L 281.746753 218.381893 
L 290.108392 202.842847 
L 298.47003 176.893799 
L 306.831668 217.015648 
L 315.193307 218.128048 
L 323.554945 208.088904 
L 331.916583 201.313099 
L 340.278222 232.501905 
L 348.63986 216.016861 
L 357.001499 230.895664 
L 365.363137 240.117638 
L 373.724775 255.391735 
L 382.086414 209.3112 
L 390.448052 203.22817 
L 398.80969 173.865728 
L 407.171329 158.407008 
L 415.532967 156.057242 
L 423.894605 170.921274 
L 432.256244 170.923857 
L 440.617882 216.840591 
L 448.97952 217.164649 
L 457.341159 232.844864 
L 465.702797 224.258502 
L 474.064436 231.162042 
L 482.426074 206.492596 
L 490.787712 220.433251 
L 499.149351 207.110266 
L 507.510989 225.942292 
L 515.872627 208.858024 
L 524.234266 210.238886 
L 532.595904 196.880603 
L 540.957542 179.072279 
L 549.319181 175.797596 
L 557.680819 199.12796 
L 566.042458 199.055919 
L 574.404096 212.549299 
L 582.765734 230.11063 
L 591.127373 246.258248 
L 599.489011 241.246446 
L 607.850649 260.824809 
L 616.212288 254.034205 
L 624.573926 238.985822 
L 632.935564 222.938568 
L 641.297203 226.492015 
L 649.658841 220.044838 
L 658.02048 211.882641 
L 666.382118 227.187126 
L 674.743756 219.991726 
L 683.105395 214.445462 
L 691.467033 191.852938 
L 699.828671 215.51271 
L 708.19031 229.116146 
L 716.551948 243.793267 
L 724.913586 223.451528 
L 733.275225 247.178776 
L 741.636863 238.815486 
L 749.998501 214.244353 
L 758.36014 204.78639 
L 766.721778 219.16556 
L 775.083417 204.850317 
L 783.445055 212.970252 
L 791.806693 229.656235 
L 800.168332 250.657728 
L 808.52997 258.813789 
L 816.891608 257.361305 
L 825.253247 241.680789 
L 833.614885 248.090567 
L 841.976523 248.787706 
L 850.338162 240.661047 
L 858.6998 246.006983 
L 867.061439 254.167174 
L 875.423077 226.380257 
L 883.784715 227.865705 
L 892.146354 228.179888 
L 900.507992 215.468351 
L 908.86963 214.736218 
L 917.231269 229.255071 
L 925.592907 212.397983 
L 933.954545 219.212372 
" style="fill:none;stroke:#c44e52;stroke-dasharray:9.6,2.4,1.5,2.4;stroke-dashoffset:0;stroke-width:1.5;"/>
   </g>
   <g id="line2d_17">
    <path clip-path="url(#p544e9fbe78)" d="M 173.045455 491.388649 
L 181.407093 491.305825 
L 189.768731 491.296855 
L 198.13037 491.389358 
L 206.492008 491.380563 
L 214.853646 491.448724 
L 223.215285 491.444304 
L 231.576923 491.417834 
L 239.938561 491.254855 
L 248.3002 491.247806 
L 256.661838 491.151966 
L 265.023477 491.059993 
L 273.385115 490.946262 
L 281.746753 490.762165 
L 290.108392 490.584716 
L 298.47003 490.409154 
L 306.831668 490.323118 
L 315.193307 490.253447 
L 323.554945 490.333726 
L 331.916583 490.273965 
L 340.278222 490.272565 
L 348.63986 490.240631 
L 357.001499 490.169535 
L 365.363137 490.059464 
L 373.724775 490.080611 
L 382.086414 490.005035 
L 390.448052 489.974929 
L 398.80969 490.070221 
L 407.171329 490.099521 
L 415.532967 490.079208 
L 423.894605 490.147463 
L 432.256244 490.119957 
L 440.617882 490.062637 
L 448.97952 490.165617 
L 457.341159 490.20622 
L 465.702797 490.273474 
L 474.064436 490.43776 
L 482.426074 490.475895 
L 490.787712 490.48993 
L 499.149351 490.526685 
L 507.510989 490.49888 
L 515.872627 490.346395 
L 524.234266 490.229755 
L 532.595904 490.111786 
L 540.957542 490.056676 
L 549.319181 490.047607 
L 557.680819 490.068055 
L 566.042458 490.095709 
L 574.404096 490.08688 
L 582.765734 490.056566 
L 591.127373 490.083145 
L 599.489011 490.153805 
L 607.850649 490.203503 
L 616.212288 490.276891 
L 624.573926 490.345446 
L 632.935564 490.352654 
L 641.297203 490.390699 
L 649.658841 490.424579 
L 658.02048 490.499751 
L 666.382118 490.547192 
L 674.743756 490.555498 
L 683.105395 490.447419 
L 691.467033 490.408069 
L 699.828671 490.330748 
L 708.19031 490.337923 
L 716.551948 490.363107 
L 724.913586 490.439699 
L 733.275225 490.525937 
L 741.636863 490.542818 
L 749.998501 490.584605 
L 758.36014 490.59129 
L 766.721778 490.640124 
L 775.083417 490.627434 
L 783.445055 490.683632 
L 791.806693 490.68715 
L 800.168332 490.718778 
L 808.52997 490.747814 
L 816.891608 490.742033 
L 825.253247 490.724068 
L 833.614885 490.662264 
L 841.976523 490.606265 
L 850.338162 490.497961 
L 858.6998 490.481285 
L 867.061439 490.393855 
L 875.423077 490.293795 
L 883.784715 490.331082 
L 892.146354 490.361304 
L 900.507992 490.368197 
L 908.86963 490.429662 
L 917.231269 490.541854 
L 925.592907 490.602643 
L 933.954545 490.661936 
" style="fill:none;stroke:#800080;stroke-dasharray:1.5,2.475;stroke-dashoffset:0;stroke-width:1.5;"/>
   </g>
   <g id="patch_3">
    <path d="M 135 512.64 
L 135 69.12 
" style="fill:none;stroke:#ffffff;stroke-linecap:square;stroke-linejoin:miter;stroke-width:1.25;"/>
   </g>
   <g id="patch_4">
    <path d="M 972 512.64 
L 972 69.12 
" style="fill:none;stroke:#ffffff;stroke-linecap:square;stroke-linejoin:miter;stroke-width:1.25;"/>
   </g>
   <g id="patch_5">
    <path d="M 135 512.64 
L 972 512.64 
" style="fill:none;stroke:#ffffff;stroke-linecap:square;stroke-linejoin:miter;stroke-width:1.25;"/>
   </g>
   <g id="patch_6">
    <path d="M 135 69.12 
L 972 69.12 
" style="fill:none;stroke:#ffffff;stroke-linecap:square;stroke-linejoin:miter;stroke-width:1.25;"/>
   </g>
   <g id="legend_1">
    <g id="patch_7">
     <path d="M 690.6 400.955625 
L 885.998672 400.955625 
Q 889.298672 400.955625 889.298672 397.655625 
L 889.298672 302.43 
Q 889.298672 299.13 885.998672 299.13 
L 690.6 299.13 
Q 687.3 299.13 687.3 302.43 
L 687.3 397.655625 
Q 687.3 400.955625 690.6 400.955625 
z
" style="fill:#eaeaf2;opacity:0.8;stroke:#cccccc;stroke-linejoin:miter;"/>
    </g>
    <g id="line2d_18">
     <path d="M 693.9 312.492422 
L 726.9 312.492422 
" style="fill:none;stroke:#4c72b0;stroke-dasharray:5.55,2.4;stroke-dashoffset:0;stroke-width:1.5;"/>
    </g>
    <g id="line2d_19"/>
    <g id="text_17">
     <!-- MAHRL(Homo) -->
     <defs>
      <path d="M 34.1875 63.1875 
L 20.796875 26.90625 
L 47.609375 26.90625 
z
M 28.609375 72.90625 
L 39.796875 72.90625 
L 67.578125 0 
L 57.328125 0 
L 50.6875 18.703125 
L 17.828125 18.703125 
L 11.1875 0 
L 0.78125 0 
z
" id="DejaVuSans-65"/>
      <path d="M 9.8125 72.90625 
L 19.671875 72.90625 
L 19.671875 43.015625 
L 55.515625 43.015625 
L 55.515625 72.90625 
L 65.375 72.90625 
L 65.375 0 
L 55.515625 0 
L 55.515625 34.71875 
L 19.671875 34.71875 
L 19.671875 0 
L 9.8125 0 
z
" id="DejaVuSans-72"/>
      <path d="M 9.8125 72.90625 
L 19.671875 72.90625 
L 19.671875 8.296875 
L 55.171875 8.296875 
L 55.171875 0 
L 9.8125 0 
z
" id="DejaVuSans-76"/>
      <path d="M 31 75.875 
Q 24.46875 64.65625 21.28125 53.65625 
Q 18.109375 42.671875 18.109375 31.390625 
Q 18.109375 20.125 21.3125 9.0625 
Q 24.515625 -2 31 -13.1875 
L 23.1875 -13.1875 
Q 15.875 -1.703125 12.234375 9.375 
Q 8.59375 20.453125 8.59375 31.390625 
Q 8.59375 42.28125 12.203125 53.3125 
Q 15.828125 64.359375 23.1875 75.875 
z
" id="DejaVuSans-40"/>
      <path d="M 30.609375 48.390625 
Q 23.390625 48.390625 19.1875 42.75 
Q 14.984375 37.109375 14.984375 27.296875 
Q 14.984375 17.484375 19.15625 11.84375 
Q 23.34375 6.203125 30.609375 6.203125 
Q 37.796875 6.203125 41.984375 11.859375 
Q 46.1875 17.53125 46.1875 27.296875 
Q 46.1875 37.015625 41.984375 42.703125 
Q 37.796875 48.390625 30.609375 48.390625 
z
M 30.609375 56 
Q 42.328125 56 49.015625 48.375 
Q 55.71875 40.765625 55.71875 27.296875 
Q 55.71875 13.875 49.015625 6.21875 
Q 42.328125 -1.421875 30.609375 -1.421875 
Q 18.84375 -1.421875 12.171875 6.21875 
Q 5.515625 13.875 5.515625 27.296875 
Q 5.515625 40.765625 12.171875 48.375 
Q 18.84375 56 30.609375 56 
z
" id="DejaVuSans-111"/>
      <path d="M 52 44.1875 
Q 55.375 50.25 60.0625 53.125 
Q 64.75 56 71.09375 56 
Q 79.640625 56 84.28125 50.015625 
Q 88.921875 44.046875 88.921875 33.015625 
L 88.921875 0 
L 79.890625 0 
L 79.890625 32.71875 
Q 79.890625 40.578125 77.09375 44.375 
Q 74.3125 48.1875 68.609375 48.1875 
Q 61.625 48.1875 57.5625 43.546875 
Q 53.515625 38.921875 53.515625 30.90625 
L 53.515625 0 
L 44.484375 0 
L 44.484375 32.71875 
Q 44.484375 40.625 41.703125 44.40625 
Q 38.921875 48.1875 33.109375 48.1875 
Q 26.21875 48.1875 22.15625 43.53125 
Q 18.109375 38.875 18.109375 30.90625 
L 18.109375 0 
L 9.078125 0 
L 9.078125 54.6875 
L 18.109375 54.6875 
L 18.109375 46.1875 
Q 21.1875 51.21875 25.484375 53.609375 
Q 29.78125 56 35.6875 56 
Q 41.65625 56 45.828125 52.96875 
Q 50 49.953125 52 44.1875 
z
" id="DejaVuSans-109"/>
      <path d="M 8.015625 75.875 
L 15.828125 75.875 
Q 23.140625 64.359375 26.78125 53.3125 
Q 30.421875 42.28125 30.421875 31.390625 
Q 30.421875 20.453125 26.78125 9.375 
Q 23.140625 -1.703125 15.828125 -13.1875 
L 8.015625 -13.1875 
Q 14.5 -2 17.703125 9.0625 
Q 20.90625 20.125 20.90625 31.390625 
Q 20.90625 42.671875 17.703125 53.65625 
Q 14.5 64.65625 8.015625 75.875 
z
" id="DejaVuSans-41"/>
     </defs>
     <g style="fill:#262626;" transform="translate(740.1 318.267422)scale(0.165 -0.165)">
      <use xlink:href="#DejaVuSans-77"/>
      <use x="86.279297" xlink:href="#DejaVuSans-65"/>
      <use x="154.6875" xlink:href="#DejaVuSans-72"/>
      <use x="229.882812" xlink:href="#DejaVuSans-82"/>
      <use x="299.365234" xlink:href="#DejaVuSans-76"/>
      <use x="355.078125" xlink:href="#DejaVuSans-40"/>
      <use x="394.091797" xlink:href="#DejaVuSans-72"/>
      <use x="469.287109" xlink:href="#DejaVuSans-111"/>
      <use x="530.46875" xlink:href="#DejaVuSans-109"/>
      <use x="627.880859" xlink:href="#DejaVuSans-111"/>
      <use x="689.0625" xlink:href="#DejaVuSans-41"/>
     </g>
    </g>
    <g id="line2d_20">
     <path d="M 693.9 336.711328 
L 726.9 336.711328 
" style="fill:none;stroke:#1a1a1a;stroke-linecap:round;stroke-width:1.5;"/>
    </g>
    <g id="line2d_21"/>
    <g id="text_18">
     <!-- MAHRL(Hetero) -->
     <g style="fill:#262626;" transform="translate(740.1 342.486328)scale(0.165 -0.165)">
      <use xlink:href="#DejaVuSans-77"/>
      <use x="86.279297" xlink:href="#DejaVuSans-65"/>
      <use x="154.6875" xlink:href="#DejaVuSans-72"/>
      <use x="229.882812" xlink:href="#DejaVuSans-82"/>
      <use x="299.365234" xlink:href="#DejaVuSans-76"/>
      <use x="355.078125" xlink:href="#DejaVuSans-40"/>
      <use x="394.091797" xlink:href="#DejaVuSans-72"/>
      <use x="469.287109" xlink:href="#DejaVuSans-101"/>
      <use x="530.810547" xlink:href="#DejaVuSans-116"/>
      <use x="570.019531" xlink:href="#DejaVuSans-101"/>
      <use x="631.542969" xlink:href="#DejaVuSans-114"/>
      <use x="672.625" xlink:href="#DejaVuSans-111"/>
      <use x="733.806641" xlink:href="#DejaVuSans-41"/>
     </g>
    </g>
    <g id="line2d_22">
     <path d="M 693.9 360.930234 
L 726.9 360.930234 
" style="fill:none;stroke:#c44e52;stroke-dasharray:9.6,2.4,1.5,2.4;stroke-dashoffset:0;stroke-width:1.5;"/>
    </g>
    <g id="line2d_23"/>
    <g id="text_19">
     <!-- MADDPG(Hetero) -->
     <defs>
      <path d="M 19.671875 64.796875 
L 19.671875 8.109375 
L 31.59375 8.109375 
Q 46.6875 8.109375 53.6875 14.9375 
Q 60.6875 21.78125 60.6875 36.53125 
Q 60.6875 51.171875 53.6875 57.984375 
Q 46.6875 64.796875 31.59375 64.796875 
z
M 9.8125 72.90625 
L 30.078125 72.90625 
Q 51.265625 72.90625 61.171875 64.09375 
Q 71.09375 55.28125 71.09375 36.53125 
Q 71.09375 17.671875 61.125 8.828125 
Q 51.171875 0 30.078125 0 
L 9.8125 0 
z
" id="DejaVuSans-68"/>
      <path d="M 19.671875 64.796875 
L 19.671875 37.40625 
L 32.078125 37.40625 
Q 38.96875 37.40625 42.71875 40.96875 
Q 46.484375 44.53125 46.484375 51.125 
Q 46.484375 57.671875 42.71875 61.234375 
Q 38.96875 64.796875 32.078125 64.796875 
z
M 9.8125 72.90625 
L 32.078125 72.90625 
Q 44.34375 72.90625 50.609375 67.359375 
Q 56.890625 61.8125 56.890625 51.125 
Q 56.890625 40.328125 50.609375 34.8125 
Q 44.34375 29.296875 32.078125 29.296875 
L 19.671875 29.296875 
L 19.671875 0 
L 9.8125 0 
z
" id="DejaVuSans-80"/>
      <path d="M 59.515625 10.40625 
L 59.515625 29.984375 
L 43.40625 29.984375 
L 43.40625 38.09375 
L 69.28125 38.09375 
L 69.28125 6.78125 
Q 63.578125 2.734375 56.6875 0.65625 
Q 49.8125 -1.421875 42 -1.421875 
Q 24.90625 -1.421875 15.25 8.5625 
Q 5.609375 18.5625 5.609375 36.375 
Q 5.609375 54.25 15.25 64.234375 
Q 24.90625 74.21875 42 74.21875 
Q 49.125 74.21875 55.546875 72.453125 
Q 61.96875 70.703125 67.390625 67.28125 
L 67.390625 56.78125 
Q 61.921875 61.421875 55.765625 63.765625 
Q 49.609375 66.109375 42.828125 66.109375 
Q 29.4375 66.109375 22.71875 58.640625 
Q 16.015625 51.171875 16.015625 36.375 
Q 16.015625 21.625 22.71875 14.15625 
Q 29.4375 6.6875 42.828125 6.6875 
Q 48.046875 6.6875 52.140625 7.59375 
Q 56.25 8.5 59.515625 10.40625 
z
" id="DejaVuSans-71"/>
     </defs>
     <g style="fill:#262626;" transform="translate(740.1 366.705234)scale(0.165 -0.165)">
      <use xlink:href="#DejaVuSans-77"/>
      <use x="86.279297" xlink:href="#DejaVuSans-65"/>
      <use x="154.6875" xlink:href="#DejaVuSans-68"/>
      <use x="231.689453" xlink:href="#DejaVuSans-68"/>
      <use x="308.691406" xlink:href="#DejaVuSans-80"/>
      <use x="368.994141" xlink:href="#DejaVuSans-71"/>
      <use x="446.484375" xlink:href="#DejaVuSans-40"/>
      <use x="485.498047" xlink:href="#DejaVuSans-72"/>
      <use x="560.693359" xlink:href="#DejaVuSans-101"/>
      <use x="622.216797" xlink:href="#DejaVuSans-116"/>
      <use x="661.425781" xlink:href="#DejaVuSans-101"/>
      <use x="722.949219" xlink:href="#DejaVuSans-114"/>
      <use x="764.03125" xlink:href="#DejaVuSans-111"/>
      <use x="825.212891" xlink:href="#DejaVuSans-41"/>
     </g>
    </g>
    <g id="line2d_24">
     <path d="M 693.9 385.149141 
L 726.9 385.149141 
" style="fill:none;stroke:#800080;stroke-dasharray:1.5,2.475;stroke-dashoffset:0;stroke-width:1.5;"/>
    </g>
    <g id="line2d_25"/>
    <g id="text_20">
     <!-- PPO(Homo) -->
     <defs>
      <path d="M 39.40625 66.21875 
Q 28.65625 66.21875 22.328125 58.203125 
Q 16.015625 50.203125 16.015625 36.375 
Q 16.015625 22.609375 22.328125 14.59375 
Q 28.65625 6.59375 39.40625 6.59375 
Q 50.140625 6.59375 56.421875 14.59375 
Q 62.703125 22.609375 62.703125 36.375 
Q 62.703125 50.203125 56.421875 58.203125 
Q 50.140625 66.21875 39.40625 66.21875 
z
M 39.40625 74.21875 
Q 54.734375 74.21875 63.90625 63.9375 
Q 73.09375 53.65625 73.09375 36.375 
Q 73.09375 19.140625 63.90625 8.859375 
Q 54.734375 -1.421875 39.40625 -1.421875 
Q 24.03125 -1.421875 14.8125 8.828125 
Q 5.609375 19.09375 5.609375 36.375 
Q 5.609375 53.65625 14.8125 63.9375 
Q 24.03125 74.21875 39.40625 74.21875 
z
" id="DejaVuSans-79"/>
     </defs>
     <g style="fill:#262626;" transform="translate(740.1 390.924141)scale(0.165 -0.165)">
      <use xlink:href="#DejaVuSans-80"/>
      <use x="60.302734" xlink:href="#DejaVuSans-80"/>
      <use x="120.605469" xlink:href="#DejaVuSans-79"/>
      <use x="199.316406" xlink:href="#DejaVuSans-40"/>
      <use x="238.330078" xlink:href="#DejaVuSans-72"/>
      <use x="313.525391" xlink:href="#DejaVuSans-111"/>
      <use x="374.707031" xlink:href="#DejaVuSans-109"/>
      <use x="472.119141" xlink:href="#DejaVuSans-111"/>
      <use x="533.300781" xlink:href="#DejaVuSans-41"/>
     </g>
    </g>
   </g>
  </g>
 </g>
 <defs>
  <clipPath id="p544e9fbe78">
   <rect height="443.52" width="837" x="135" y="69.12"/>
  </clipPath>
 </defs>
</svg>
