<?xml version="1.0" encoding="utf-8" standalone="no"?>
<!DOCTYPE svg PUBLIC "-//W3C//DTD SVG 1.1//EN"
  "http://www.w3.org/Graphics/SVG/1.1/DTD/svg11.dtd">
<!-- Created with matplotlib (https://matplotlib.org/) -->
<svg height="576pt" version="1.1" viewBox="0 0 1080 576" width="1080pt" xmlns="http://www.w3.org/2000/svg" xmlns:xlink="http://www.w3.org/1999/xlink">
 <defs>
  <style type="text/css">
*{stroke-linecap:butt;stroke-linejoin:round;white-space:pre;}
  </style>
 </defs>
 <g id="figure_1">
  <g id="patch_1">
   <path d="M 0 576 
L 1080 576 
L 1080 0 
L 0 0 
z
" style="fill:#ffffff;"/>
  </g>
  <g id="axes_1">
   <g id="patch_2">
    <path d="M 135 512.64 
L 972 512.64 
L 972 69.12 
L 135 69.12 
z
" style="fill:#eaeaf2;"/>
   </g>
   <g id="matplotlib.axis_1">
    <g id="xtick_1">
     <g id="line2d_1">
      <path clip-path="url(#p60007174ce)" d="M 171.856534 512.64 
L 171.856534 69.12 
" style="fill:none;stroke:#ffffff;stroke-linecap:round;"/>
     </g>
     <g id="text_1">
      <!-- 0.0 -->
      <defs>
       <path d="M 31.78125 66.40625 
Q 24.171875 66.40625 20.328125 58.90625 
Q 16.5 51.421875 16.5 36.375 
Q 16.5 21.390625 20.328125 13.890625 
Q 24.171875 6.390625 31.78125 6.390625 
Q 39.453125 6.390625 43.28125 13.890625 
Q 47.125 21.390625 47.125 36.375 
Q 47.125 51.421875 43.28125 58.90625 
Q 39.453125 66.40625 31.78125 66.40625 
z
M 31.78125 74.21875 
Q 44.046875 74.21875 50.515625 64.515625 
Q 56.984375 54.828125 56.984375 36.375 
Q 56.984375 17.96875 50.515625 8.265625 
Q 44.046875 -1.421875 31.78125 -1.421875 
Q 19.53125 -1.421875 13.0625 8.265625 
Q 6.59375 17.96875 6.59375 36.375 
Q 6.59375 54.828125 13.0625 64.515625 
Q 19.53125 74.21875 31.78125 74.21875 
z
" id="DejaVuSans-48"/>
       <path d="M 10.6875 12.40625 
L 21 12.40625 
L 21 0 
L 10.6875 0 
z
" id="DejaVuSans-46"/>
      </defs>
      <g style="fill:#262626;" transform="translate(158.736456 534.677422)scale(0.165 -0.165)">
       <use xlink:href="#DejaVuSans-48"/>
       <use x="63.623047" xlink:href="#DejaVuSans-46"/>
       <use x="95.410156" xlink:href="#DejaVuSans-48"/>
      </g>
     </g>
    </g>
    <g id="xtick_2">
     <g id="line2d_2">
      <path clip-path="url(#p60007174ce)" d="M 320.471591 512.64 
L 320.471591 69.12 
" style="fill:none;stroke:#ffffff;stroke-linecap:round;"/>
     </g>
     <g id="text_2">
      <!-- 0.2 -->
      <defs>
       <path d="M 19.1875 8.296875 
L 53.609375 8.296875 
L 53.609375 0 
L 7.328125 0 
L 7.328125 8.296875 
Q 12.9375 14.109375 22.625 23.890625 
Q 32.328125 33.6875 34.8125 36.53125 
Q 39.546875 41.84375 41.421875 45.53125 
Q 43.3125 49.21875 43.3125 52.78125 
Q 43.3125 58.59375 39.234375 62.25 
Q 35.15625 65.921875 28.609375 65.921875 
Q 23.96875 65.921875 18.8125 64.3125 
Q 13.671875 62.703125 7.8125 59.421875 
L 7.8125 69.390625 
Q 13.765625 71.78125 18.9375 73 
Q 24.125 74.21875 28.421875 74.21875 
Q 39.75 74.21875 46.484375 68.546875 
Q 53.21875 62.890625 53.21875 53.421875 
Q 53.21875 48.921875 51.53125 44.890625 
Q 49.859375 40.875 45.40625 35.40625 
Q 44.1875 33.984375 37.640625 27.21875 
Q 31.109375 20.453125 19.1875 8.296875 
z
" id="DejaVuSans-50"/>
      </defs>
      <g style="fill:#262626;" transform="translate(307.351513 534.677422)scale(0.165 -0.165)">
       <use xlink:href="#DejaVuSans-48"/>
       <use x="63.623047" xlink:href="#DejaVuSans-46"/>
       <use x="95.410156" xlink:href="#DejaVuSans-50"/>
      </g>
     </g>
    </g>
    <g id="xtick_3">
     <g id="line2d_3">
      <path clip-path="url(#p60007174ce)" d="M 469.086648 512.64 
L 469.086648 69.12 
" style="fill:none;stroke:#ffffff;stroke-linecap:round;"/>
     </g>
     <g id="text_3">
      <!-- 0.4 -->
      <defs>
       <path d="M 37.796875 64.3125 
L 12.890625 25.390625 
L 37.796875 25.390625 
z
M 35.203125 72.90625 
L 47.609375 72.90625 
L 47.609375 25.390625 
L 58.015625 25.390625 
L 58.015625 17.1875 
L 47.609375 17.1875 
L 47.609375 0 
L 37.796875 0 
L 37.796875 17.1875 
L 4.890625 17.1875 
L 4.890625 26.703125 
z
" id="DejaVuSans-52"/>
      </defs>
      <g style="fill:#262626;" transform="translate(455.96657 534.677422)scale(0.165 -0.165)">
       <use xlink:href="#DejaVuSans-48"/>
       <use x="63.623047" xlink:href="#DejaVuSans-46"/>
       <use x="95.410156" xlink:href="#DejaVuSans-52"/>
      </g>
     </g>
    </g>
    <g id="xtick_4">
     <g id="line2d_4">
      <path clip-path="url(#p60007174ce)" d="M 617.701705 512.64 
L 617.701705 69.12 
" style="fill:none;stroke:#ffffff;stroke-linecap:round;"/>
     </g>
     <g id="text_4">
      <!-- 0.6 -->
      <defs>
       <path d="M 33.015625 40.375 
Q 26.375 40.375 22.484375 35.828125 
Q 18.609375 31.296875 18.609375 23.390625 
Q 18.609375 15.53125 22.484375 10.953125 
Q 26.375 6.390625 33.015625 6.390625 
Q 39.65625 6.390625 43.53125 10.953125 
Q 47.40625 15.53125 47.40625 23.390625 
Q 47.40625 31.296875 43.53125 35.828125 
Q 39.65625 40.375 33.015625 40.375 
z
M 52.59375 71.296875 
L 52.59375 62.3125 
Q 48.875 64.0625 45.09375 64.984375 
Q 41.3125 65.921875 37.59375 65.921875 
Q 27.828125 65.921875 22.671875 59.328125 
Q 17.53125 52.734375 16.796875 39.40625 
Q 19.671875 43.65625 24.015625 45.921875 
Q 28.375 48.1875 33.59375 48.1875 
Q 44.578125 48.1875 50.953125 41.515625 
Q 57.328125 34.859375 57.328125 23.390625 
Q 57.328125 12.15625 50.6875 5.359375 
Q 44.046875 -1.421875 33.015625 -1.421875 
Q 20.359375 -1.421875 13.671875 8.265625 
Q 6.984375 17.96875 6.984375 36.375 
Q 6.984375 53.65625 15.1875 63.9375 
Q 23.390625 74.21875 37.203125 74.21875 
Q 40.921875 74.21875 44.703125 73.484375 
Q 48.484375 72.75 52.59375 71.296875 
z
" id="DejaVuSans-54"/>
      </defs>
      <g style="fill:#262626;" transform="translate(604.581626 534.677422)scale(0.165 -0.165)">
       <use xlink:href="#DejaVuSans-48"/>
       <use x="63.623047" xlink:href="#DejaVuSans-46"/>
       <use x="95.410156" xlink:href="#DejaVuSans-54"/>
      </g>
     </g>
    </g>
    <g id="xtick_5">
     <g id="line2d_5">
      <path clip-path="url(#p60007174ce)" d="M 766.316761 512.64 
L 766.316761 69.12 
" style="fill:none;stroke:#ffffff;stroke-linecap:round;"/>
     </g>
     <g id="text_5">
      <!-- 0.8 -->
      <defs>
       <path d="M 31.78125 34.625 
Q 24.75 34.625 20.71875 30.859375 
Q 16.703125 27.09375 16.703125 20.515625 
Q 16.703125 13.921875 20.71875 10.15625 
Q 24.75 6.390625 31.78125 6.390625 
Q 38.8125 6.390625 42.859375 10.171875 
Q 46.921875 13.96875 46.921875 20.515625 
Q 46.921875 27.09375 42.890625 30.859375 
Q 38.875 34.625 31.78125 34.625 
z
M 21.921875 38.8125 
Q 15.578125 40.375 12.03125 44.71875 
Q 8.5 49.078125 8.5 55.328125 
Q 8.5 64.0625 14.71875 69.140625 
Q 20.953125 74.21875 31.78125 74.21875 
Q 42.671875 74.21875 48.875 69.140625 
Q 55.078125 64.0625 55.078125 55.328125 
Q 55.078125 49.078125 51.53125 44.71875 
Q 48 40.375 41.703125 38.8125 
Q 48.828125 37.15625 52.796875 32.3125 
Q 56.78125 27.484375 56.78125 20.515625 
Q 56.78125 9.90625 50.3125 4.234375 
Q 43.84375 -1.421875 31.78125 -1.421875 
Q 19.734375 -1.421875 13.25 4.234375 
Q 6.78125 9.90625 6.78125 20.515625 
Q 6.78125 27.484375 10.78125 32.3125 
Q 14.796875 37.15625 21.921875 38.8125 
z
M 18.3125 54.390625 
Q 18.3125 48.734375 21.84375 45.5625 
Q 25.390625 42.390625 31.78125 42.390625 
Q 38.140625 42.390625 41.71875 45.5625 
Q 45.3125 48.734375 45.3125 54.390625 
Q 45.3125 60.0625 41.71875 63.234375 
Q 38.140625 66.40625 31.78125 66.40625 
Q 25.390625 66.40625 21.84375 63.234375 
Q 18.3125 60.0625 18.3125 54.390625 
z
" id="DejaVuSans-56"/>
      </defs>
      <g style="fill:#262626;" transform="translate(753.196683 534.677422)scale(0.165 -0.165)">
       <use xlink:href="#DejaVuSans-48"/>
       <use x="63.623047" xlink:href="#DejaVuSans-46"/>
       <use x="95.410156" xlink:href="#DejaVuSans-56"/>
      </g>
     </g>
    </g>
    <g id="xtick_6">
     <g id="line2d_6">
      <path clip-path="url(#p60007174ce)" d="M 914.931818 512.64 
L 914.931818 69.12 
" style="fill:none;stroke:#ffffff;stroke-linecap:round;"/>
     </g>
     <g id="text_6">
      <!-- 1.0 -->
      <defs>
       <path d="M 12.40625 8.296875 
L 28.515625 8.296875 
L 28.515625 63.921875 
L 10.984375 60.40625 
L 10.984375 69.390625 
L 28.421875 72.90625 
L 38.28125 72.90625 
L 38.28125 8.296875 
L 54.390625 8.296875 
L 54.390625 0 
L 12.40625 0 
z
" id="DejaVuSans-49"/>
      </defs>
      <g style="fill:#262626;" transform="translate(901.81174 534.677422)scale(0.165 -0.165)">
       <use xlink:href="#DejaVuSans-49"/>
       <use x="63.623047" xlink:href="#DejaVuSans-46"/>
       <use x="95.410156" xlink:href="#DejaVuSans-48"/>
      </g>
     </g>
    </g>
    <g id="text_7">
     <!--  Env Steps  -->
     <defs>
      <path id="DejaVuSans-32"/>
      <path d="M 9.8125 72.90625 
L 55.90625 72.90625 
L 55.90625 64.59375 
L 19.671875 64.59375 
L 19.671875 43.015625 
L 54.390625 43.015625 
L 54.390625 34.71875 
L 19.671875 34.71875 
L 19.671875 8.296875 
L 56.78125 8.296875 
L 56.78125 0 
L 9.8125 0 
z
" id="DejaVuSans-69"/>
      <path d="M 54.890625 33.015625 
L 54.890625 0 
L 45.90625 0 
L 45.90625 32.71875 
Q 45.90625 40.484375 42.875 44.328125 
Q 39.84375 48.1875 33.796875 48.1875 
Q 26.515625 48.1875 22.3125 43.546875 
Q 18.109375 38.921875 18.109375 30.90625 
L 18.109375 0 
L 9.078125 0 
L 9.078125 54.6875 
L 18.109375 54.6875 
L 18.109375 46.1875 
Q 21.34375 51.125 25.703125 53.5625 
Q 30.078125 56 35.796875 56 
Q 45.21875 56 50.046875 50.171875 
Q 54.890625 44.34375 54.890625 33.015625 
z
" id="DejaVuSans-110"/>
      <path d="M 2.984375 54.6875 
L 12.5 54.6875 
L 29.59375 8.796875 
L 46.6875 54.6875 
L 56.203125 54.6875 
L 35.6875 0 
L 23.484375 0 
z
" id="DejaVuSans-118"/>
      <path d="M 53.515625 70.515625 
L 53.515625 60.890625 
Q 47.90625 63.578125 42.921875 64.890625 
Q 37.9375 66.21875 33.296875 66.21875 
Q 25.25 66.21875 20.875 63.09375 
Q 16.5 59.96875 16.5 54.203125 
Q 16.5 49.359375 19.40625 46.890625 
Q 22.3125 44.4375 30.421875 42.921875 
L 36.375 41.703125 
Q 47.40625 39.59375 52.65625 34.296875 
Q 57.90625 29 57.90625 20.125 
Q 57.90625 9.515625 50.796875 4.046875 
Q 43.703125 -1.421875 29.984375 -1.421875 
Q 24.8125 -1.421875 18.96875 -0.25 
Q 13.140625 0.921875 6.890625 3.21875 
L 6.890625 13.375 
Q 12.890625 10.015625 18.65625 8.296875 
Q 24.421875 6.59375 29.984375 6.59375 
Q 38.421875 6.59375 43.015625 9.90625 
Q 47.609375 13.234375 47.609375 19.390625 
Q 47.609375 24.75 44.3125 27.78125 
Q 41.015625 30.8125 33.5 32.328125 
L 27.484375 33.5 
Q 16.453125 35.6875 11.515625 40.375 
Q 6.59375 45.0625 6.59375 53.421875 
Q 6.59375 63.09375 13.40625 68.65625 
Q 20.21875 74.21875 32.171875 74.21875 
Q 37.3125 74.21875 42.625 73.28125 
Q 47.953125 72.359375 53.515625 70.515625 
z
" id="DejaVuSans-83"/>
      <path d="M 18.3125 70.21875 
L 18.3125 54.6875 
L 36.8125 54.6875 
L 36.8125 47.703125 
L 18.3125 47.703125 
L 18.3125 18.015625 
Q 18.3125 11.328125 20.140625 9.421875 
Q 21.96875 7.515625 27.59375 7.515625 
L 36.8125 7.515625 
L 36.8125 0 
L 27.59375 0 
Q 17.1875 0 13.234375 3.875 
Q 9.28125 7.765625 9.28125 18.015625 
L 9.28125 47.703125 
L 2.6875 47.703125 
L 2.6875 54.6875 
L 9.28125 54.6875 
L 9.28125 70.21875 
z
" id="DejaVuSans-116"/>
      <path d="M 56.203125 29.59375 
L 56.203125 25.203125 
L 14.890625 25.203125 
Q 15.484375 15.921875 20.484375 11.0625 
Q 25.484375 6.203125 34.421875 6.203125 
Q 39.59375 6.203125 44.453125 7.46875 
Q 49.3125 8.734375 54.109375 11.28125 
L 54.109375 2.78125 
Q 49.265625 0.734375 44.1875 -0.34375 
Q 39.109375 -1.421875 33.890625 -1.421875 
Q 20.796875 -1.421875 13.15625 6.1875 
Q 5.515625 13.8125 5.515625 26.8125 
Q 5.515625 40.234375 12.765625 48.109375 
Q 20.015625 56 32.328125 56 
Q 43.359375 56 49.78125 48.890625 
Q 56.203125 41.796875 56.203125 29.59375 
z
M 47.21875 32.234375 
Q 47.125 39.59375 43.09375 43.984375 
Q 39.0625 48.390625 32.421875 48.390625 
Q 24.90625 48.390625 20.390625 44.140625 
Q 15.875 39.890625 15.1875 32.171875 
z
" id="DejaVuSans-101"/>
      <path d="M 18.109375 8.203125 
L 18.109375 -20.796875 
L 9.078125 -20.796875 
L 9.078125 54.6875 
L 18.109375 54.6875 
L 18.109375 46.390625 
Q 20.953125 51.265625 25.265625 53.625 
Q 29.59375 56 35.59375 56 
Q 45.5625 56 51.78125 48.09375 
Q 58.015625 40.1875 58.015625 27.296875 
Q 58.015625 14.40625 51.78125 6.484375 
Q 45.5625 -1.421875 35.59375 -1.421875 
Q 29.59375 -1.421875 25.265625 0.953125 
Q 20.953125 3.328125 18.109375 8.203125 
z
M 48.6875 27.296875 
Q 48.6875 37.203125 44.609375 42.84375 
Q 40.53125 48.484375 33.40625 48.484375 
Q 26.265625 48.484375 22.1875 42.84375 
Q 18.109375 37.203125 18.109375 27.296875 
Q 18.109375 17.390625 22.1875 11.75 
Q 26.265625 6.109375 33.40625 6.109375 
Q 40.53125 6.109375 44.609375 11.75 
Q 48.6875 17.390625 48.6875 27.296875 
z
" id="DejaVuSans-112"/>
      <path d="M 44.28125 53.078125 
L 44.28125 44.578125 
Q 40.484375 46.53125 36.375 47.5 
Q 32.28125 48.484375 27.875 48.484375 
Q 21.1875 48.484375 17.84375 46.4375 
Q 14.5 44.390625 14.5 40.28125 
Q 14.5 37.15625 16.890625 35.375 
Q 19.28125 33.59375 26.515625 31.984375 
L 29.59375 31.296875 
Q 39.15625 29.25 43.1875 25.515625 
Q 47.21875 21.78125 47.21875 15.09375 
Q 47.21875 7.46875 41.1875 3.015625 
Q 35.15625 -1.421875 24.609375 -1.421875 
Q 20.21875 -1.421875 15.453125 -0.5625 
Q 10.6875 0.296875 5.421875 2 
L 5.421875 11.28125 
Q 10.40625 8.6875 15.234375 7.390625 
Q 20.0625 6.109375 24.8125 6.109375 
Q 31.15625 6.109375 34.5625 8.28125 
Q 37.984375 10.453125 37.984375 14.40625 
Q 37.984375 18.0625 35.515625 20.015625 
Q 33.0625 21.96875 24.703125 23.78125 
L 21.578125 24.515625 
Q 13.234375 26.265625 9.515625 29.90625 
Q 5.8125 33.546875 5.8125 39.890625 
Q 5.8125 47.609375 11.28125 51.796875 
Q 16.75 56 26.8125 56 
Q 31.78125 56 36.171875 55.265625 
Q 40.578125 54.546875 44.28125 53.078125 
z
" id="DejaVuSans-115"/>
     </defs>
     <g style="fill:#262626;" transform="translate(503.019844 555.786094)scale(0.18 -0.18)">
      <use xlink:href="#DejaVuSans-32"/>
      <use x="31.787109" xlink:href="#DejaVuSans-69"/>
      <use x="94.970703" xlink:href="#DejaVuSans-110"/>
      <use x="158.349609" xlink:href="#DejaVuSans-118"/>
      <use x="217.529297" xlink:href="#DejaVuSans-32"/>
      <use x="249.316406" xlink:href="#DejaVuSans-83"/>
      <use x="312.792969" xlink:href="#DejaVuSans-116"/>
      <use x="352.001953" xlink:href="#DejaVuSans-101"/>
      <use x="413.525391" xlink:href="#DejaVuSans-112"/>
      <use x="477.001953" xlink:href="#DejaVuSans-115"/>
      <use x="529.101562" xlink:href="#DejaVuSans-32"/>
     </g>
    </g>
    <g id="text_8">
     <!-- 1e7 -->
     <defs>
      <path d="M 8.203125 72.90625 
L 55.078125 72.90625 
L 55.078125 68.703125 
L 28.609375 0 
L 18.3125 0 
L 43.21875 64.59375 
L 8.203125 64.59375 
z
" id="DejaVuSans-55"/>
     </defs>
     <g style="fill:#262626;" transform="translate(940.851094 553.646328)scale(0.165 -0.165)">
      <use xlink:href="#DejaVuSans-49"/>
      <use x="63.623047" xlink:href="#DejaVuSans-101"/>
      <use x="125.146484" xlink:href="#DejaVuSans-55"/>
     </g>
    </g>
   </g>
   <g id="matplotlib.axis_2">
    <g id="ytick_1">
     <g id="line2d_7">
      <path clip-path="url(#p60007174ce)" d="M 135 490.243945 
L 972 490.243945 
" style="fill:none;stroke:#ffffff;stroke-linecap:round;"/>
     </g>
     <g id="text_9">
      <!-- 0 -->
      <g style="fill:#262626;" transform="translate(115.001875 496.512656)scale(0.165 -0.165)">
       <use xlink:href="#DejaVuSans-48"/>
      </g>
     </g>
    </g>
    <g id="ytick_2">
     <g id="line2d_8">
      <path clip-path="url(#p60007174ce)" d="M 135 435.414359 
L 972 435.414359 
" style="fill:none;stroke:#ffffff;stroke-linecap:round;"/>
     </g>
     <g id="text_10">
      <!-- 2 -->
      <g style="fill:#262626;" transform="translate(115.001875 441.68307)scale(0.165 -0.165)">
       <use xlink:href="#DejaVuSans-50"/>
      </g>
     </g>
    </g>
    <g id="ytick_3">
     <g id="line2d_9">
      <path clip-path="url(#p60007174ce)" d="M 135 380.584772 
L 972 380.584772 
" style="fill:none;stroke:#ffffff;stroke-linecap:round;"/>
     </g>
     <g id="text_11">
      <!-- 4 -->
      <g style="fill:#262626;" transform="translate(115.001875 386.853483)scale(0.165 -0.165)">
       <use xlink:href="#DejaVuSans-52"/>
      </g>
     </g>
    </g>
    <g id="ytick_4">
     <g id="line2d_10">
      <path clip-path="url(#p60007174ce)" d="M 135 325.755186 
L 972 325.755186 
" style="fill:none;stroke:#ffffff;stroke-linecap:round;"/>
     </g>
     <g id="text_12">
      <!-- 6 -->
      <g style="fill:#262626;" transform="translate(115.001875 332.023897)scale(0.165 -0.165)">
       <use xlink:href="#DejaVuSans-54"/>
      </g>
     </g>
    </g>
    <g id="ytick_5">
     <g id="line2d_11">
      <path clip-path="url(#p60007174ce)" d="M 135 270.9256 
L 972 270.9256 
" style="fill:none;stroke:#ffffff;stroke-linecap:round;"/>
     </g>
     <g id="text_13">
      <!-- 8 -->
      <g style="fill:#262626;" transform="translate(115.001875 277.194311)scale(0.165 -0.165)">
       <use xlink:href="#DejaVuSans-56"/>
      </g>
     </g>
    </g>
    <g id="ytick_6">
     <g id="line2d_12">
      <path clip-path="url(#p60007174ce)" d="M 135 216.096014 
L 972 216.096014 
" style="fill:none;stroke:#ffffff;stroke-linecap:round;"/>
     </g>
     <g id="text_14">
      <!-- 10 -->
      <g style="fill:#262626;" transform="translate(104.50375 222.364724)scale(0.165 -0.165)">
       <use xlink:href="#DejaVuSans-49"/>
       <use x="63.623047" xlink:href="#DejaVuSans-48"/>
      </g>
     </g>
    </g>
    <g id="ytick_7">
     <g id="line2d_13">
      <path clip-path="url(#p60007174ce)" d="M 135 161.266427 
L 972 161.266427 
" style="fill:none;stroke:#ffffff;stroke-linecap:round;"/>
     </g>
     <g id="text_15">
      <!-- 12 -->
      <g style="fill:#262626;" transform="translate(104.50375 167.535138)scale(0.165 -0.165)">
       <use xlink:href="#DejaVuSans-49"/>
       <use x="63.623047" xlink:href="#DejaVuSans-50"/>
      </g>
     </g>
    </g>
    <g id="ytick_8">
     <g id="line2d_14">
      <path clip-path="url(#p60007174ce)" d="M 135 106.436841 
L 972 106.436841 
" style="fill:none;stroke:#ffffff;stroke-linecap:round;"/>
     </g>
     <g id="text_16">
      <!-- 14 -->
      <g style="fill:#262626;" transform="translate(104.50375 112.705552)scale(0.165 -0.165)">
       <use xlink:href="#DejaVuSans-49"/>
       <use x="63.623047" xlink:href="#DejaVuSans-52"/>
      </g>
     </g>
    </g>
    <g id="text_17">
     <!--  Mean Reward  -->
     <defs>
      <path d="M 9.8125 72.90625 
L 24.515625 72.90625 
L 43.109375 23.296875 
L 61.8125 72.90625 
L 76.515625 72.90625 
L 76.515625 0 
L 66.890625 0 
L 66.890625 64.015625 
L 48.09375 14.015625 
L 38.1875 14.015625 
L 19.390625 64.015625 
L 19.390625 0 
L 9.8125 0 
z
" id="DejaVuSans-77"/>
      <path d="M 34.28125 27.484375 
Q 23.390625 27.484375 19.1875 25 
Q 14.984375 22.515625 14.984375 16.5 
Q 14.984375 11.71875 18.140625 8.90625 
Q 21.296875 6.109375 26.703125 6.109375 
Q 34.1875 6.109375 38.703125 11.40625 
Q 43.21875 16.703125 43.21875 25.484375 
L 43.21875 27.484375 
z
M 52.203125 31.203125 
L 52.203125 0 
L 43.21875 0 
L 43.21875 8.296875 
Q 40.140625 3.328125 35.546875 0.953125 
Q 30.953125 -1.421875 24.3125 -1.421875 
Q 15.921875 -1.421875 10.953125 3.296875 
Q 6 8.015625 6 15.921875 
Q 6 25.140625 12.171875 29.828125 
Q 18.359375 34.515625 30.609375 34.515625 
L 43.21875 34.515625 
L 43.21875 35.40625 
Q 43.21875 41.609375 39.140625 45 
Q 35.0625 48.390625 27.6875 48.390625 
Q 23 48.390625 18.546875 47.265625 
Q 14.109375 46.140625 10.015625 43.890625 
L 10.015625 52.203125 
Q 14.9375 54.109375 19.578125 55.046875 
Q 24.21875 56 28.609375 56 
Q 40.484375 56 46.34375 49.84375 
Q 52.203125 43.703125 52.203125 31.203125 
z
" id="DejaVuSans-97"/>
      <path d="M 44.390625 34.1875 
Q 47.5625 33.109375 50.5625 29.59375 
Q 53.5625 26.078125 56.59375 19.921875 
L 66.609375 0 
L 56 0 
L 46.6875 18.703125 
Q 43.0625 26.03125 39.671875 28.421875 
Q 36.28125 30.8125 30.421875 30.8125 
L 19.671875 30.8125 
L 19.671875 0 
L 9.8125 0 
L 9.8125 72.90625 
L 32.078125 72.90625 
Q 44.578125 72.90625 50.734375 67.671875 
Q 56.890625 62.453125 56.890625 51.90625 
Q 56.890625 45.015625 53.6875 40.46875 
Q 50.484375 35.9375 44.390625 34.1875 
z
M 19.671875 64.796875 
L 19.671875 38.921875 
L 32.078125 38.921875 
Q 39.203125 38.921875 42.84375 42.21875 
Q 46.484375 45.515625 46.484375 51.90625 
Q 46.484375 58.296875 42.84375 61.546875 
Q 39.203125 64.796875 32.078125 64.796875 
z
" id="DejaVuSans-82"/>
      <path d="M 4.203125 54.6875 
L 13.1875 54.6875 
L 24.421875 12.015625 
L 35.59375 54.6875 
L 46.1875 54.6875 
L 57.421875 12.015625 
L 68.609375 54.6875 
L 77.59375 54.6875 
L 63.28125 0 
L 52.6875 0 
L 40.921875 44.828125 
L 29.109375 0 
L 18.5 0 
z
" id="DejaVuSans-119"/>
      <path d="M 41.109375 46.296875 
Q 39.59375 47.171875 37.8125 47.578125 
Q 36.03125 48 33.890625 48 
Q 26.265625 48 22.1875 43.046875 
Q 18.109375 38.09375 18.109375 28.8125 
L 18.109375 0 
L 9.078125 0 
L 9.078125 54.6875 
L 18.109375 54.6875 
L 18.109375 46.1875 
Q 20.953125 51.171875 25.484375 53.578125 
Q 30.03125 56 36.53125 56 
Q 37.453125 56 38.578125 55.875 
Q 39.703125 55.765625 41.0625 55.515625 
z
" id="DejaVuSans-114"/>
      <path d="M 45.40625 46.390625 
L 45.40625 75.984375 
L 54.390625 75.984375 
L 54.390625 0 
L 45.40625 0 
L 45.40625 8.203125 
Q 42.578125 3.328125 38.25 0.953125 
Q 33.9375 -1.421875 27.875 -1.421875 
Q 17.96875 -1.421875 11.734375 6.484375 
Q 5.515625 14.40625 5.515625 27.296875 
Q 5.515625 40.1875 11.734375 48.09375 
Q 17.96875 56 27.875 56 
Q 33.9375 56 38.25 53.625 
Q 42.578125 51.265625 45.40625 46.390625 
z
M 14.796875 27.296875 
Q 14.796875 17.390625 18.875 11.75 
Q 22.953125 6.109375 30.078125 6.109375 
Q 37.203125 6.109375 41.296875 11.75 
Q 45.40625 17.390625 45.40625 27.296875 
Q 45.40625 37.203125 41.296875 42.84375 
Q 37.203125 48.484375 30.078125 48.484375 
Q 22.953125 48.484375 18.875 42.84375 
Q 14.796875 37.203125 14.796875 27.296875 
z
" id="DejaVuSans-100"/>
     </defs>
     <g style="fill:#262626;" transform="translate(96.760312 358.056562)rotate(-90)scale(0.18 -0.18)">
      <use xlink:href="#DejaVuSans-32"/>
      <use x="31.787109" xlink:href="#DejaVuSans-77"/>
      <use x="118.066406" xlink:href="#DejaVuSans-101"/>
      <use x="179.589844" xlink:href="#DejaVuSans-97"/>
      <use x="240.869141" xlink:href="#DejaVuSans-110"/>
      <use x="304.248047" xlink:href="#DejaVuSans-32"/>
      <use x="336.035156" xlink:href="#DejaVuSans-82"/>
      <use x="405.455078" xlink:href="#DejaVuSans-101"/>
      <use x="466.978516" xlink:href="#DejaVuSans-119"/>
      <use x="548.765625" xlink:href="#DejaVuSans-97"/>
      <use x="610.044922" xlink:href="#DejaVuSans-114"/>
      <use x="651.142578" xlink:href="#DejaVuSans-100"/>
      <use x="714.619141" xlink:href="#DejaVuSans-32"/>
     </g>
    </g>
   </g>
   <g id="PolyCollection_1">
    <defs>
     <path d="M 173.045455 -149.88704 
L 173.045455 -109.964083 
L 174.234375 -108.429114 
L 175.423295 -119.080306 
L 176.612216 -105.744514 
L 177.801136 -106.027642 
L 178.990057 -91.089621 
L 180.178977 -90.64068 
L 181.367898 -96.295665 
L 182.556818 -90.391011 
L 183.745739 -89.659475 
L 184.934659 -97.17287 
L 186.12358 -91.517183 
L 187.3125 -87.14889 
L 188.50142 -91.371985 
L 189.690341 -92.011835 
L 190.879261 -90.020123 
L 192.068182 -90.23624 
L 193.257102 -93.949919 
L 194.446023 -94.095373 
L 195.634943 -95.751168 
L 196.823864 -99.075154 
L 198.012784 -98.019313 
L 199.201705 -116.782702 
L 200.390625 -101.459637 
L 201.579545 -102.768855 
L 202.768466 -97.837407 
L 203.957386 -107.698282 
L 205.146307 -95.170434 
L 206.335227 -94.961162 
L 207.524148 -97.673093 
L 208.713068 -98.157535 
L 209.901989 -98.67747 
L 211.090909 -93.306844 
L 212.27983 -95.906462 
L 213.46875 -95.947708 
L 214.65767 -101.725421 
L 215.846591 -93.897479 
L 217.035511 -105.383765 
L 218.224432 -98.139423 
L 219.413352 -106.386872 
L 220.602273 -98.522016 
L 221.791193 -104.038994 
L 222.980114 -92.130073 
L 224.169034 -93.113871 
L 225.357955 -104.580477 
L 226.546875 -111.123976 
L 227.735795 -113.260311 
L 228.924716 -102.69023 
L 230.113636 -102.586753 
L 231.302557 -96.017241 
L 232.491477 -92.897113 
L 233.680398 -91.782581 
L 234.869318 -105.774022 
L 236.058239 -107.42908 
L 237.247159 -109.208809 
L 238.43608 -105.041858 
L 239.625 -102.23233 
L 240.81392 -104.747711 
L 242.002841 -89.640514 
L 243.191761 -95.693207 
L 244.380682 -93.495176 
L 245.569602 -93.432585 
L 246.758523 -87.274245 
L 247.947443 -90.640533 
L 249.136364 -85.977398 
L 250.325284 -85.999402 
L 251.514205 -90.604286 
L 252.703125 -90.655195 
L 253.892045 -84.279307 
L 255.080966 -88.417816 
L 256.269886 -90.400048 
L 257.458807 -97.03041 
L 258.647727 -102.594774 
L 259.836648 -98.976796 
L 261.025568 -98.331783 
L 262.214489 -97.197233 
L 263.403409 -93.081618 
L 264.59233 -83.892895 
L 265.78125 -86.070107 
L 266.97017 -89.029838 
L 268.159091 -100.306076 
L 269.348011 -117.142581 
L 270.536932 -117.307396 
L 271.725852 -109.469397 
L 272.914773 -131.265061 
L 274.103693 -131.750747 
L 275.292614 -113.775361 
L 276.481534 -97.940029 
L 277.670455 -98.603343 
L 278.859375 -96.263204 
L 280.048295 -95.920253 
L 281.237216 -95.661165 
L 282.426136 -93.420815 
L 283.615057 -94.893017 
L 284.803977 -91.849373 
L 285.992898 -87.726371 
L 287.181818 -88.523041 
L 288.370739 -100.113448 
L 289.559659 -106.01416 
L 290.74858 -100.163093 
L 291.9375 -108.448388 
L 293.12642 -130.725433 
L 294.315341 -115.23379 
L 295.504261 -97.190838 
L 296.693182 -97.467652 
L 297.882102 -88.807143 
L 299.071023 -97.142591 
L 300.259943 -98.441428 
L 301.448864 -106.810013 
L 302.637784 -121.326883 
L 303.826705 -121.966524 
L 305.015625 -108.886238 
L 306.204545 -96.250567 
L 307.393466 -104.695183 
L 308.582386 -105.478143 
L 309.771307 -111.57556 
L 310.960227 -116.29095 
L 312.149148 -124.649095 
L 313.338068 -113.172668 
L 314.526989 -124.300987 
L 315.715909 -116.935156 
L 316.90483 -105.161663 
L 318.09375 -96.862879 
L 319.28267 -91.516433 
L 320.471591 -91.933916 
L 321.660511 -93.027895 
L 322.849432 -106.893715 
L 324.038352 -106.737041 
L 325.227273 -102.180161 
L 326.416193 -106.758717 
L 327.605114 -131.218958 
L 328.794034 -142.845367 
L 329.982955 -144.022254 
L 331.171875 -131.347042 
L 332.360795 -128.653573 
L 333.549716 -119.926121 
L 334.738636 -116.57942 
L 335.927557 -100.03455 
L 337.116477 -99.819116 
L 338.305398 -103.427941 
L 339.494318 -91.767882 
L 340.683239 -91.997995 
L 341.872159 -94.047397 
L 343.06108 -102.109893 
L 344.25 -97.228956 
L 345.43892 -115.430521 
L 346.627841 -116.29685 
L 347.816761 -109.645414 
L 349.005682 -115.009173 
L 350.194602 -114.92716 
L 351.383523 -93.641182 
L 352.572443 -91.700095 
L 353.761364 -91.285446 
L 354.950284 -83.52 
L 356.139205 -83.797288 
L 357.328125 -83.662729 
L 358.517045 -86.093882 
L 359.705966 -86.069842 
L 360.894886 -87.067998 
L 362.083807 -100.470488 
L 363.272727 -100.619935 
L 364.461648 -108.01889 
L 365.650568 -106.919884 
L 366.839489 -116.349813 
L 368.028409 -101.862629 
L 369.21733 -103.558638 
L 370.40625 -103.155281 
L 371.59517 -106.069926 
L 372.784091 -106.008282 
L 373.973011 -111.335703 
L 375.161932 -100.557489 
L 376.350852 -86.00233 
L 377.539773 -96.151944 
L 378.728693 -108.724482 
L 379.917614 -105.855507 
L 381.106534 -106.415481 
L 382.295455 -112.376138 
L 383.484375 -116.007106 
L 384.673295 -106.811702 
L 385.862216 -105.054604 
L 387.051136 -101.147288 
L 388.240057 -94.741589 
L 389.428977 -120.235357 
L 390.617898 -112.38466 
L 391.806818 -131.385307 
L 392.995739 -122.302427 
L 394.184659 -125.144087 
L 395.37358 -105.080291 
L 396.5625 -97.259326 
L 397.75142 -105.484817 
L 398.940341 -101.927816 
L 400.129261 -94.557263 
L 401.318182 -111.79046 
L 402.507102 -92.507446 
L 403.696023 -99.489067 
L 404.884943 -109.644555 
L 406.073864 -102.903353 
L 407.262784 -110.746617 
L 408.451705 -119.632318 
L 409.640625 -118.545922 
L 410.829545 -112.787874 
L 412.018466 -111.821174 
L 413.207386 -111.176208 
L 414.396307 -110.486484 
L 415.585227 -125.886357 
L 416.774148 -122.005363 
L 417.963068 -127.699966 
L 419.151989 -124.706162 
L 420.340909 -119.028189 
L 421.52983 -124.695221 
L 422.71875 -139.627626 
L 423.90767 -116.615029 
L 425.096591 -121.397947 
L 426.285511 -119.0375 
L 427.474432 -114.320323 
L 428.663352 -99.631351 
L 429.852273 -110.607955 
L 431.041193 -102.375799 
L 432.230114 -107.270134 
L 433.419034 -107.861982 
L 434.607955 -101.531554 
L 435.796875 -107.020915 
L 436.985795 -112.962979 
L 438.174716 -112.978513 
L 439.363636 -113.243832 
L 440.552557 -122.919861 
L 441.741477 -117.987764 
L 442.930398 -107.323802 
L 444.119318 -104.849416 
L 445.308239 -119.011112 
L 446.497159 -116.79788 
L 447.68608 -121.518847 
L 448.875 -121.098374 
L 450.06392 -114.599793 
L 451.252841 -106.365423 
L 452.441761 -102.845994 
L 453.630682 -97.877417 
L 454.819602 -98.137543 
L 456.008523 -93.572348 
L 457.197443 -91.116741 
L 458.386364 -99.623933 
L 459.575284 -99.042835 
L 460.764205 -101.544454 
L 461.953125 -123.901825 
L 463.142045 -122.137749 
L 464.330966 -116.542433 
L 465.519886 -135.866745 
L 466.708807 -134.704723 
L 467.897727 -117.608516 
L 469.086648 -115.332405 
L 470.275568 -128.37739 
L 471.464489 -109.549185 
L 472.653409 -116.432484 
L 473.84233 -102.956318 
L 475.03125 -96.19557 
L 476.22017 -99.805498 
L 477.409091 -97.5619 
L 478.598011 -109.243406 
L 479.786932 -117.303635 
L 480.975852 -124.582316 
L 482.164773 -126.160998 
L 483.353693 -123.022443 
L 484.542614 -124.438971 
L 485.731534 -114.723283 
L 486.920455 -106.138353 
L 488.109375 -106.594737 
L 489.298295 -106.339163 
L 490.487216 -84.187497 
L 491.676136 -83.63825 
L 492.865057 -83.647096 
L 494.053977 -95.230773 
L 495.242898 -104.515861 
L 496.431818 -100.80117 
L 497.620739 -104.462966 
L 498.809659 -105.235478 
L 499.99858 -93.440304 
L 501.1875 -95.549044 
L 502.37642 -111.924946 
L 503.565341 -103.655007 
L 504.754261 -125.362805 
L 505.943182 -118.705008 
L 507.132102 -118.324604 
L 508.321023 -120.299744 
L 509.509943 -119.05794 
L 510.698864 -112.78278 
L 511.887784 -111.131755 
L 513.076705 -86.977956 
L 514.265625 -94.659261 
L 515.454545 -103.515544 
L 516.643466 -118.063546 
L 517.832386 -126.79463 
L 519.021307 -110.951157 
L 520.210227 -118.829339 
L 521.399148 -115.878037 
L 522.588068 -115.210372 
L 523.776989 -107.331423 
L 524.965909 -114.121271 
L 526.15483 -112.540924 
L 527.34375 -104.367389 
L 528.53267 -103.473412 
L 529.721591 -107.972501 
L 530.910511 -105.046546 
L 532.099432 -104.812665 
L 533.288352 -107.062626 
L 534.477273 -110.099086 
L 535.666193 -108.358447 
L 536.855114 -107.444052 
L 538.044034 -102.499796 
L 539.232955 -101.864837 
L 540.421875 -92.070201 
L 541.610795 -93.952945 
L 542.799716 -89.242001 
L 543.988636 -103.403366 
L 545.177557 -111.521762 
L 546.366477 -127.690193 
L 547.555398 -122.282338 
L 548.744318 -125.739945 
L 549.933239 -116.107839 
L 551.122159 -110.348891 
L 552.31108 -89.778073 
L 553.5 -94.631047 
L 554.68892 -95.337049 
L 555.877841 -124.203693 
L 557.066761 -135.110196 
L 558.255682 -155.852748 
L 559.444602 -154.530145 
L 560.633523 -169.115096 
L 561.822443 -151.03867 
L 563.011364 -139.436162 
L 564.200284 -125.173205 
L 565.389205 -126.437021 
L 566.578125 -125.838368 
L 567.767045 -101.2031 
L 568.955966 -105.018046 
L 570.144886 -113.648526 
L 571.333807 -105.532111 
L 572.522727 -98.921198 
L 573.711648 -123.158739 
L 574.900568 -126.20879 
L 576.089489 -121.372125 
L 577.278409 -130.563904 
L 578.46733 -126.068934 
L 579.65625 -108.745478 
L 580.84517 -112.594606 
L 582.034091 -110.827381 
L 583.223011 -107.669742 
L 584.411932 -103.632627 
L 585.600852 -127.28726 
L 586.789773 -138.242083 
L 587.978693 -131.379746 
L 589.167614 -114.390677 
L 590.356534 -113.090937 
L 591.545455 -116.360859 
L 592.734375 -118.442664 
L 593.923295 -129.180789 
L 595.112216 -127.289339 
L 596.301136 -137.01769 
L 597.490057 -130.865685 
L 598.678977 -109.542885 
L 599.867898 -136.575083 
L 601.056818 -107.122958 
L 602.245739 -117.322259 
L 603.434659 -121.329375 
L 604.62358 -116.418101 
L 605.8125 -117.429847 
L 607.00142 -124.542694 
L 608.190341 -130.717524 
L 609.379261 -146.089915 
L 610.568182 -141.173454 
L 611.757102 -127.584842 
L 612.946023 -147.000832 
L 614.134943 -158.239421 
L 615.323864 -156.717444 
L 616.512784 -157.189947 
L 617.701705 -148.509985 
L 618.890625 -125.985543 
L 620.079545 -127.292276 
L 621.268466 -133.887324 
L 622.457386 -138.932885 
L 623.646307 -144.849247 
L 624.835227 -138.050192 
L 626.024148 -125.643694 
L 627.213068 -129.556693 
L 628.401989 -129.018944 
L 629.590909 -126.571392 
L 630.77983 -126.083165 
L 631.96875 -110.481669 
L 633.15767 -106.651881 
L 634.346591 -107.185856 
L 635.535511 -126.111381 
L 636.724432 -137.892832 
L 637.913352 -138.032406 
L 639.102273 -133.83025 
L 640.291193 -138.389064 
L 641.480114 -124.909599 
L 642.669034 -116.543561 
L 643.857955 -115.602248 
L 645.046875 -114.378407 
L 646.235795 -109.624278 
L 647.424716 -109.566636 
L 648.613636 -110.93963 
L 649.802557 -115.559487 
L 650.991477 -121.347101 
L 652.180398 -133.226789 
L 653.369318 -139.444257 
L 654.558239 -140.889623 
L 655.747159 -136.267785 
L 656.93608 -106.469119 
L 658.125 -104.111584 
L 659.31392 -125.886617 
L 660.502841 -147.983604 
L 661.691761 -155.446501 
L 662.880682 -169.315501 
L 664.069602 -152.668698 
L 665.258523 -143.777162 
L 666.447443 -148.667225 
L 667.636364 -147.193804 
L 668.825284 -136.901472 
L 670.014205 -155.492435 
L 671.203125 -148.520059 
L 672.392045 -136.265082 
L 673.580966 -114.558111 
L 674.769886 -152.604697 
L 675.958807 -145.761078 
L 677.147727 -158.843789 
L 678.336648 -148.566113 
L 679.525568 -155.514892 
L 680.714489 -129.37749 
L 681.903409 -109.214086 
L 683.09233 -95.028564 
L 684.28125 -131.000275 
L 685.47017 -123.636592 
L 686.659091 -129.133603 
L 687.848011 -123.640967 
L 689.036932 -113.459077 
L 690.225852 -91.382211 
L 691.414773 -87.929247 
L 692.603693 -94.197311 
L 693.792614 -112.341343 
L 694.981534 -119.91783 
L 696.170455 -114.768893 
L 697.359375 -117.726602 
L 698.548295 -120.659543 
L 699.737216 -137.186237 
L 700.926136 -134.056844 
L 702.115057 -133.801311 
L 703.303977 -165.351227 
L 704.492898 -159.791864 
L 705.681818 -136.611132 
L 706.870739 -133.652686 
L 708.059659 -120.448132 
L 709.24858 -105.443689 
L 710.4375 -126.093619 
L 711.62642 -155.086406 
L 712.815341 -150.862778 
L 714.004261 -155.874085 
L 715.193182 -155.897466 
L 716.382102 -136.856252 
L 717.571023 -114.641521 
L 718.759943 -110.856606 
L 719.948864 -127.764847 
L 721.137784 -119.45557 
L 722.326705 -117.009872 
L 723.515625 -113.891716 
L 724.704545 -137.458937 
L 725.893466 -120.758723 
L 727.082386 -135.88643 
L 728.271307 -145.807652 
L 729.460227 -125.726592 
L 730.649148 -134.778276 
L 731.838068 -147.253528 
L 733.026989 -159.030956 
L 734.215909 -135.686892 
L 735.40483 -122.030768 
L 736.59375 -118.835606 
L 737.78267 -113.774862 
L 738.971591 -99.104589 
L 740.160511 -101.293851 
L 741.349432 -100.472084 
L 742.538352 -118.166202 
L 743.727273 -128.131814 
L 744.916193 -144.136664 
L 746.105114 -135.824002 
L 747.294034 -128.077414 
L 748.482955 -115.825959 
L 749.671875 -113.464433 
L 750.860795 -97.630033 
L 752.049716 -97.458224 
L 753.238636 -129.191212 
L 754.427557 -142.266743 
L 755.616477 -143.142553 
L 756.805398 -160.076346 
L 757.994318 -175.186889 
L 759.183239 -151.403575 
L 760.372159 -143.332073 
L 761.56108 -117.449509 
L 762.75 -131.444646 
L 763.93892 -121.265559 
L 765.127841 -119.650668 
L 766.316761 -158.163755 
L 767.505682 -160.249716 
L 768.694602 -133.169578 
L 769.883523 -137.942879 
L 771.072443 -147.560297 
L 772.261364 -119.658949 
L 773.450284 -112.18158 
L 774.639205 -111.859472 
L 775.828125 -104.970564 
L 777.017045 -115.978658 
L 778.205966 -130.00725 
L 779.394886 -128.484974 
L 780.583807 -125.993781 
L 781.772727 -129.090616 
L 782.961648 -118.628961 
L 784.150568 -122.936605 
L 785.339489 -137.871532 
L 786.528409 -129.959925 
L 787.71733 -127.830625 
L 788.90625 -132.529558 
L 790.09517 -112.904551 
L 791.284091 -112.00943 
L 792.473011 -114.868057 
L 793.661932 -114.03536 
L 794.850852 -103.987992 
L 796.039773 -116.575722 
L 797.228693 -126.962208 
L 798.417614 -120.639269 
L 799.606534 -129.174766 
L 800.795455 -130.417654 
L 801.984375 -144.135743 
L 803.173295 -160.984927 
L 804.362216 -154.419778 
L 805.551136 -151.590213 
L 806.740057 -158.349057 
L 807.928977 -177.963474 
L 809.117898 -155.184764 
L 810.306818 -165.810459 
L 811.495739 -178.604833 
L 812.684659 -167.279879 
L 813.87358 -130.819833 
L 815.0625 -131.449169 
L 816.25142 -118.311511 
L 817.440341 -111.954179 
L 818.629261 -125.351268 
L 819.818182 -133.151766 
L 821.007102 -125.280468 
L 822.196023 -135.777125 
L 823.384943 -138.621765 
L 824.573864 -121.058448 
L 825.762784 -129.237554 
L 826.951705 -137.179807 
L 828.140625 -117.247945 
L 829.329545 -129.829406 
L 830.518466 -141.88407 
L 831.707386 -160.463377 
L 832.896307 -145.74397 
L 834.085227 -153.937145 
L 835.274148 -153.314028 
L 836.463068 -152.23184 
L 837.651989 -131.358834 
L 838.840909 -139.004219 
L 840.02983 -130.600436 
L 841.21875 -125.886141 
L 842.40767 -137.748715 
L 843.596591 -141.592814 
L 844.785511 -144.783111 
L 845.974432 -172.663096 
L 847.163352 -153.561024 
L 848.352273 -182.054992 
L 849.541193 -175.652368 
L 850.730114 -171.983837 
L 851.919034 -140.143721 
L 853.107955 -122.989796 
L 854.296875 -123.669444 
L 855.485795 -124.099736 
L 856.674716 -133.844526 
L 857.863636 -141.655678 
L 859.052557 -129.9646 
L 860.241477 -135.876335 
L 861.430398 -144.848963 
L 862.619318 -132.871289 
L 863.808239 -127.252898 
L 864.997159 -136.127124 
L 866.18608 -136.731172 
L 867.375 -131.197756 
L 868.56392 -129.853229 
L 869.752841 -138.412302 
L 870.941761 -124.445366 
L 872.130682 -126.495216 
L 873.319602 -133.827562 
L 874.508523 -146.079069 
L 875.697443 -134.983265 
L 876.886364 -137.065666 
L 878.075284 -144.212026 
L 879.264205 -151.481352 
L 880.453125 -157.057633 
L 881.642045 -168.182144 
L 882.830966 -175.027941 
L 884.019886 -177.029962 
L 885.208807 -153.522409 
L 886.397727 -139.476745 
L 887.586648 -144.614171 
L 888.775568 -159.266686 
L 889.964489 -140.128738 
L 891.153409 -170.827848 
L 892.34233 -170.136834 
L 893.53125 -179.293333 
L 894.72017 -171.812939 
L 895.909091 -184.263457 
L 897.098011 -175.005732 
L 898.286932 -196.356646 
L 899.475852 -186.46725 
L 900.664773 -180.008438 
L 901.853693 -167.664371 
L 903.042614 -162.496409 
L 904.231534 -131.764322 
L 905.420455 -118.214114 
L 906.609375 -139.720342 
L 907.798295 -140.812517 
L 908.987216 -154.387359 
L 910.176136 -161.641221 
L 911.365057 -171.617845 
L 912.553977 -167.270981 
L 913.742898 -166.64018 
L 914.931818 -133.914818 
L 916.120739 -163.849454 
L 917.309659 -205.410853 
L 918.49858 -206.038855 
L 919.6875 -206.414265 
L 920.87642 -217.68092 
L 922.065341 -202.700313 
L 923.254261 -163.27642 
L 924.443182 -141.849323 
L 925.632102 -195.698081 
L 926.821023 -197.119879 
L 928.009943 -211.452206 
L 929.198864 -223.832669 
L 930.387784 -212.629184 
L 930.387784 -225.50499 
L 930.387784 -225.50499 
L 929.198864 -244.450758 
L 928.009943 -283.467886 
L 926.821023 -248.338964 
L 925.632102 -235.124088 
L 924.443182 -275.457344 
L 923.254261 -252.669629 
L 922.065341 -264.437786 
L 920.87642 -310.512886 
L 919.6875 -306.231161 
L 918.49858 -281.36807 
L 917.309659 -277.519997 
L 916.120739 -245.307945 
L 914.931818 -234.147146 
L 913.742898 -240.007436 
L 912.553977 -246.859948 
L 911.365057 -277.914249 
L 910.176136 -287.566348 
L 908.987216 -282.305625 
L 907.798295 -274.153998 
L 906.609375 -287.88937 
L 905.420455 -245.884328 
L 904.231534 -243.449731 
L 903.042614 -215.121898 
L 901.853693 -220.019071 
L 900.664773 -214.072408 
L 899.475852 -214.445731 
L 898.286932 -238.726056 
L 897.098011 -242.287941 
L 895.909091 -250.086948 
L 894.72017 -271.560324 
L 893.53125 -257.522417 
L 892.34233 -221.534078 
L 891.153409 -225.800618 
L 889.964489 -254.213607 
L 888.775568 -235.279806 
L 887.586648 -252.601907 
L 886.397727 -252.840677 
L 885.208807 -237.802736 
L 884.019886 -235.98212 
L 882.830966 -222.826907 
L 881.642045 -206.20705 
L 880.453125 -209.681928 
L 879.264205 -207.311012 
L 878.075284 -216.677348 
L 876.886364 -189.360677 
L 875.697443 -191.710744 
L 874.508523 -216.328186 
L 873.319602 -235.777121 
L 872.130682 -208.568801 
L 870.941761 -222.067043 
L 869.752841 -219.734617 
L 868.56392 -219.237786 
L 867.375 -225.335632 
L 866.18608 -261.103708 
L 864.997159 -247.685601 
L 863.808239 -220.039471 
L 862.619318 -228.628009 
L 861.430398 -216.388439 
L 860.241477 -185.617423 
L 859.052557 -160.13988 
L 857.863636 -176.766765 
L 856.674716 -162.637702 
L 855.485795 -196.807818 
L 854.296875 -184.170242 
L 853.107955 -245.671042 
L 851.919034 -235.1655 
L 850.730114 -237.759327 
L 849.541193 -209.994925 
L 848.352273 -236.296463 
L 847.163352 -241.978645 
L 845.974432 -218.950706 
L 844.785511 -188.744497 
L 843.596591 -187.858108 
L 842.40767 -177.192281 
L 841.21875 -209.090729 
L 840.02983 -187.878262 
L 838.840909 -221.634972 
L 837.651989 -224.804818 
L 836.463068 -230.851012 
L 835.274148 -217.806417 
L 834.085227 -217.201191 
L 832.896307 -210.033493 
L 831.707386 -212.874707 
L 830.518466 -226.359058 
L 829.329545 -237.654709 
L 828.140625 -237.547545 
L 826.951705 -244.735898 
L 825.762784 -243.302431 
L 824.573864 -263.383816 
L 823.384943 -239.723918 
L 822.196023 -236.906693 
L 821.007102 -219.053535 
L 819.818182 -217.454515 
L 818.629261 -205.0499 
L 817.440341 -239.549407 
L 816.25142 -231.953738 
L 815.0625 -222.889432 
L 813.87358 -231.387301 
L 812.684659 -233.437471 
L 811.495739 -241.644222 
L 810.306818 -251.731085 
L 809.117898 -235.145543 
L 807.928977 -219.234774 
L 806.740057 -243.934988 
L 805.551136 -224.533005 
L 804.362216 -248.972774 
L 803.173295 -223.608196 
L 801.984375 -205.262475 
L 800.795455 -201.423732 
L 799.606534 -195.223029 
L 798.417614 -177.68544 
L 797.228693 -185.393341 
L 796.039773 -211.071383 
L 794.850852 -220.455715 
L 793.661932 -194.130242 
L 792.473011 -196.518103 
L 791.284091 -197.958946 
L 790.09517 -206.46627 
L 788.90625 -200.084759 
L 787.71733 -208.461507 
L 786.528409 -200.786533 
L 785.339489 -199.644573 
L 784.150568 -196.376458 
L 782.961648 -223.649353 
L 781.772727 -212.360599 
L 780.583807 -183.214161 
L 779.394886 -162.978792 
L 778.205966 -156.90496 
L 777.017045 -145.71707 
L 775.828125 -162.277501 
L 774.639205 -169.72816 
L 773.450284 -150.952078 
L 772.261364 -151.927635 
L 771.072443 -179.135247 
L 769.883523 -187.840487 
L 768.694602 -208.481566 
L 767.505682 -214.688375 
L 766.316761 -228.729054 
L 765.127841 -245.303731 
L 763.93892 -241.431981 
L 762.75 -224.865278 
L 761.56108 -242.799497 
L 760.372159 -244.753031 
L 759.183239 -189.885887 
L 757.994318 -204.178273 
L 756.805398 -212.27433 
L 755.616477 -208.178573 
L 754.427557 -162.924109 
L 753.238636 -192.448731 
L 752.049716 -205.835302 
L 750.860795 -204.635284 
L 749.671875 -205.507714 
L 748.482955 -219.759165 
L 747.294034 -205.235369 
L 746.105114 -199.481306 
L 744.916193 -195.92949 
L 743.727273 -186.621775 
L 742.538352 -179.645122 
L 741.349432 -182.237582 
L 740.160511 -177.444607 
L 738.971591 -175.392119 
L 737.78267 -216.397163 
L 736.59375 -224.412278 
L 735.40483 -268.618137 
L 734.215909 -234.387229 
L 733.026989 -224.026748 
L 731.838068 -230.847449 
L 730.649148 -206.985363 
L 729.460227 -188.726562 
L 728.271307 -179.774956 
L 727.082386 -181.694652 
L 725.893466 -164.623703 
L 724.704545 -188.493443 
L 723.515625 -187.615576 
L 722.326705 -222.326063 
L 721.137784 -233.389784 
L 719.948864 -223.365529 
L 718.759943 -265.714966 
L 717.571023 -249.960732 
L 716.382102 -267.912121 
L 715.193182 -271.679274 
L 714.004261 -265.300258 
L 712.815341 -236.419716 
L 711.62642 -245.02623 
L 710.4375 -243.258187 
L 709.24858 -257.229513 
L 708.059659 -221.457847 
L 706.870739 -217.524841 
L 705.681818 -218.423219 
L 704.492898 -230.129463 
L 703.303977 -206.241533 
L 702.115057 -260.244568 
L 700.926136 -247.645166 
L 699.737216 -246.350555 
L 698.548295 -215.623069 
L 697.359375 -217.559583 
L 696.170455 -198.831519 
L 694.981534 -208.346576 
L 693.792614 -183.881294 
L 692.603693 -191.399765 
L 691.414773 -166.19524 
L 690.225852 -146.171868 
L 689.036932 -187.850776 
L 687.848011 -182.11752 
L 686.659091 -192.070489 
L 685.47017 -209.980204 
L 684.28125 -228.995309 
L 683.09233 -215.707315 
L 681.903409 -204.626121 
L 680.714489 -212.480631 
L 679.525568 -222.284087 
L 678.336648 -197.741821 
L 677.147727 -191.661769 
L 675.958807 -179.422586 
L 674.769886 -172.627096 
L 673.580966 -173.026235 
L 672.392045 -173.161447 
L 671.203125 -154.865661 
L 670.014205 -178.262879 
L 668.825284 -179.132138 
L 667.636364 -206.022939 
L 666.447443 -199.929195 
L 665.258523 -209.264121 
L 664.069602 -221.808224 
L 662.880682 -218.736449 
L 661.691761 -189.001817 
L 660.502841 -171.074336 
L 659.31392 -169.180386 
L 658.125 -160.30257 
L 656.93608 -164.045623 
L 655.747159 -172.679296 
L 654.558239 -182.895688 
L 653.369318 -168.679881 
L 652.180398 -152.123973 
L 650.991477 -159.838953 
L 649.802557 -165.309817 
L 648.613636 -167.804115 
L 647.424716 -177.152355 
L 646.235795 -172.291019 
L 645.046875 -161.952094 
L 643.857955 -179.324121 
L 642.669034 -176.732163 
L 641.480114 -193.006486 
L 640.291193 -181.927073 
L 639.102273 -195.070605 
L 637.913352 -187.074574 
L 636.724432 -154.614468 
L 635.535511 -192.269094 
L 634.346591 -183.71603 
L 633.15767 -177.237624 
L 631.96875 -194.222006 
L 630.77983 -186.578984 
L 629.590909 -135.900355 
L 628.401989 -155.190485 
L 627.213068 -164.562043 
L 626.024148 -192.597481 
L 624.835227 -196.337828 
L 623.646307 -195.314582 
L 622.457386 -202.464827 
L 621.268466 -209.370103 
L 620.079545 -209.59193 
L 618.890625 -212.846823 
L 617.701705 -206.242298 
L 616.512784 -197.203088 
L 615.323864 -216.90509 
L 614.134943 -219.238123 
L 612.946023 -215.699463 
L 611.757102 -184.385249 
L 610.568182 -200.477347 
L 609.379261 -175.999794 
L 608.190341 -193.099198 
L 607.00142 -191.528441 
L 605.8125 -222.333346 
L 604.62358 -208.264544 
L 603.434659 -191.682999 
L 602.245739 -174.759849 
L 601.056818 -167.203846 
L 599.867898 -141.13068 
L 598.678977 -149.567852 
L 597.490057 -152.855754 
L 596.301136 -171.666156 
L 595.112216 -177.87088 
L 593.923295 -150.398076 
L 592.734375 -149.19902 
L 591.545455 -148.420571 
L 590.356534 -142.510876 
L 589.167614 -153.073842 
L 587.978693 -155.213034 
L 586.789773 -173.862686 
L 585.600852 -170.584 
L 584.411932 -186.313854 
L 583.223011 -184.983979 
L 582.034091 -168.614955 
L 580.84517 -186.879013 
L 579.65625 -198.364354 
L 578.46733 -197.655454 
L 577.278409 -192.333757 
L 576.089489 -182.939975 
L 574.900568 -152.191436 
L 573.711648 -137.887314 
L 572.522727 -133.533896 
L 571.333807 -134.081941 
L 570.144886 -123.606088 
L 568.955966 -117.856635 
L 567.767045 -127.870766 
L 566.578125 -146.902072 
L 565.389205 -145.705822 
L 564.200284 -185.785034 
L 563.011364 -210.520895 
L 561.822443 -235.057838 
L 560.633523 -211.055614 
L 559.444602 -195.940538 
L 558.255682 -188.904208 
L 557.066761 -183.945692 
L 555.877841 -168.560815 
L 554.68892 -192.495344 
L 553.5 -184.482065 
L 552.31108 -171.403944 
L 551.122159 -167.123051 
L 549.933239 -168.666787 
L 548.744318 -169.786123 
L 547.555398 -188.251801 
L 546.366477 -185.798323 
L 545.177557 -163.320629 
L 543.988636 -156.702259 
L 542.799716 -146.476482 
L 541.610795 -131.042684 
L 540.421875 -118.29068 
L 539.232955 -131.434237 
L 538.044034 -136.490996 
L 536.855114 -136.678721 
L 535.666193 -146.885429 
L 534.477273 -154.195306 
L 533.288352 -152.493641 
L 532.099432 -166.078946 
L 530.910511 -159.677925 
L 529.721591 -158.488225 
L 528.53267 -137.835239 
L 527.34375 -159.246489 
L 526.15483 -143.10806 
L 524.965909 -145.888205 
L 523.776989 -126.163305 
L 522.588068 -150.263735 
L 521.399148 -168.890795 
L 520.210227 -149.319748 
L 519.021307 -172.202541 
L 517.832386 -177.154141 
L 516.643466 -159.789287 
L 515.454545 -160.09672 
L 514.265625 -146.867648 
L 513.076705 -157.257896 
L 511.887784 -132.784891 
L 510.698864 -133.038334 
L 509.509943 -154.990345 
L 508.321023 -159.41603 
L 507.132102 -167.041823 
L 505.943182 -160.958411 
L 504.754261 -160.971324 
L 503.565341 -128.076016 
L 502.37642 -160.009036 
L 501.1875 -157.496468 
L 499.99858 -149.066344 
L 498.809659 -142.013177 
L 497.620739 -140.510819 
L 496.431818 -148.779556 
L 495.242898 -175.921627 
L 494.053977 -222.135563 
L 492.865057 -235.149152 
L 491.676136 -239.163992 
L 490.487216 -204.357668 
L 489.298295 -178.325771 
L 488.109375 -140.382133 
L 486.920455 -119.481572 
L 485.731534 -144.142229 
L 484.542614 -147.956702 
L 483.353693 -153.425098 
L 482.164773 -166.348043 
L 480.975852 -186.334794 
L 479.786932 -152.078038 
L 478.598011 -145.604795 
L 477.409091 -139.612452 
L 476.22017 -128.649098 
L 475.03125 -142.688075 
L 473.84233 -142.442279 
L 472.653409 -154.775806 
L 471.464489 -159.730386 
L 470.275568 -167.590534 
L 469.086648 -162.915369 
L 467.897727 -199.549322 
L 466.708807 -186.297059 
L 465.519886 -197.134566 
L 464.330966 -174.737689 
L 463.142045 -178.06786 
L 461.953125 -133.42636 
L 460.764205 -133.617283 
L 459.575284 -143.792499 
L 458.386364 -140.472334 
L 457.197443 -129.953225 
L 456.008523 -129.53825 
L 454.819602 -135.561483 
L 453.630682 -148.830508 
L 452.441761 -152.582489 
L 451.252841 -179.016395 
L 450.06392 -180.332018 
L 448.875 -191.927364 
L 447.68608 -162.118849 
L 446.497159 -175.268102 
L 445.308239 -160.412453 
L 444.119318 -167.802015 
L 442.930398 -147.063768 
L 441.741477 -172.149937 
L 440.552557 -167.422095 
L 439.363636 -148.978154 
L 438.174716 -148.772392 
L 436.985795 -159.930879 
L 435.796875 -132.073784 
L 434.607955 -140.905808 
L 433.419034 -149.208452 
L 432.230114 -128.729445 
L 431.041193 -135.164987 
L 429.852273 -145.485201 
L 428.663352 -155.040222 
L 427.474432 -137.648641 
L 426.285511 -172.460775 
L 425.096591 -183.569517 
L 423.90767 -160.749689 
L 422.71875 -172.79391 
L 421.52983 -181.760088 
L 420.340909 -154.954869 
L 419.151989 -162.206104 
L 417.963068 -174.107284 
L 416.774148 -151.860358 
L 415.585227 -161.019478 
L 414.396307 -181.321509 
L 413.207386 -204.25442 
L 412.018466 -221.779878 
L 410.829545 -224.205953 
L 409.640625 -241.516019 
L 408.451705 -202.540167 
L 407.262784 -168.828258 
L 406.073864 -168.071065 
L 404.884943 -136.961711 
L 403.696023 -119.134511 
L 402.507102 -133.155419 
L 401.318182 -137.234347 
L 400.129261 -140.013667 
L 398.940341 -136.185772 
L 397.75142 -122.722518 
L 396.5625 -142.924326 
L 395.37358 -128.361636 
L 394.184659 -148.509464 
L 392.995739 -146.649464 
L 391.806818 -145.987318 
L 390.617898 -138.67314 
L 389.428977 -140.315131 
L 388.240057 -132.866947 
L 387.051136 -156.68793 
L 385.862216 -177.956648 
L 384.673295 -182.924874 
L 383.484375 -173.156966 
L 382.295455 -170.42786 
L 381.106534 -145.28701 
L 379.917614 -142.752885 
L 378.728693 -163.573847 
L 377.539773 -142.86056 
L 376.350852 -163.316205 
L 375.161932 -164.269015 
L 373.973011 -158.409915 
L 372.784091 -125.270381 
L 371.59517 -127.564629 
L 370.40625 -117.595194 
L 369.21733 -118.298301 
L 368.028409 -116.405305 
L 366.839489 -125.504893 
L 365.650568 -141.308981 
L 364.461648 -137.947731 
L 363.272727 -135.788406 
L 362.083807 -126.518417 
L 360.894886 -110.637203 
L 359.705966 -100.527233 
L 358.517045 -93.867433 
L 357.328125 -88.720711 
L 356.139205 -111.712903 
L 354.950284 -119.424519 
L 353.761364 -121.940586 
L 352.572443 -143.41646 
L 351.383523 -158.051782 
L 350.194602 -154.557409 
L 349.005682 -141.336369 
L 347.816761 -140.849079 
L 346.627841 -134.889752 
L 345.43892 -127.276679 
L 344.25 -116.741498 
L 343.06108 -135.942868 
L 341.872159 -134.218937 
L 340.683239 -122.849508 
L 339.494318 -130.623022 
L 338.305398 -132.138757 
L 337.116477 -133.118029 
L 335.927557 -141.013871 
L 334.738636 -134.703869 
L 333.549716 -143.519951 
L 332.360795 -150.198576 
L 331.171875 -156.694617 
L 329.982955 -169.230747 
L 328.794034 -155.131855 
L 327.605114 -168.031531 
L 326.416193 -155.563538 
L 325.227273 -141.334694 
L 324.038352 -134.585365 
L 322.849432 -123.055042 
L 321.660511 -140.129704 
L 320.471591 -160.443151 
L 319.28267 -162.423144 
L 318.09375 -152.446065 
L 316.90483 -167.323282 
L 315.715909 -132.707307 
L 314.526989 -127.645983 
L 313.338068 -129.203036 
L 312.149148 -135.822622 
L 310.960227 -131.974209 
L 309.771307 -122.825881 
L 308.582386 -123.099371 
L 307.393466 -121.115636 
L 306.204545 -117.708121 
L 305.015625 -135.291995 
L 303.826705 -157.146102 
L 302.637784 -146.820579 
L 301.448864 -148.890025 
L 300.259943 -147.260396 
L 299.071023 -149.244081 
L 297.882102 -139.334347 
L 296.693182 -145.490717 
L 295.504261 -144.846309 
L 294.315341 -146.938231 
L 293.12642 -140.636582 
L 291.9375 -141.016398 
L 290.74858 -127.424905 
L 289.559659 -149.615673 
L 288.370739 -156.826919 
L 287.181818 -136.372196 
L 285.992898 -134.476112 
L 284.803977 -149.154801 
L 283.615057 -130.143664 
L 282.426136 -116.157848 
L 281.237216 -125.657822 
L 280.048295 -136.734776 
L 278.859375 -132.062108 
L 277.670455 -149.055648 
L 276.481534 -157.909714 
L 275.292614 -134.453754 
L 274.103693 -152.015395 
L 272.914773 -152.423919 
L 271.725852 -149.202872 
L 270.536932 -162.058676 
L 269.348011 -152.241288 
L 268.159091 -129.445029 
L 266.97017 -123.842504 
L 265.78125 -123.808827 
L 264.59233 -118.860369 
L 263.403409 -149.789139 
L 262.214489 -153.765768 
L 261.025568 -178.061407 
L 259.836648 -183.220599 
L 258.647727 -181.416141 
L 257.458807 -120.095601 
L 256.269886 -134.201159 
L 255.080966 -120.568413 
L 253.892045 -131.930903 
L 252.703125 -125.442697 
L 251.514205 -127.22037 
L 250.325284 -126.777066 
L 249.136364 -109.688 
L 247.947443 -123.590289 
L 246.758523 -125.540743 
L 245.569602 -142.675297 
L 244.380682 -142.600284 
L 243.191761 -162.510241 
L 242.002841 -163.949463 
L 240.81392 -155.103803 
L 239.625 -149.154831 
L 238.43608 -151.734142 
L 237.247159 -138.665855 
L 236.058239 -141.587267 
L 234.869318 -126.349731 
L 233.680398 -140.148483 
L 232.491477 -122.83968 
L 231.302557 -128.297136 
L 230.113636 -135.983034 
L 228.924716 -138.172168 
L 227.735795 -134.804542 
L 226.546875 -132.415567 
L 225.357955 -127.022833 
L 224.169034 -126.398642 
L 222.980114 -114.222258 
L 221.791193 -112.334691 
L 220.602273 -122.423689 
L 219.413352 -138.01689 
L 218.224432 -148.944274 
L 217.035511 -148.614474 
L 215.846591 -134.696068 
L 214.65767 -142.290827 
L 213.46875 -133.332109 
L 212.27983 -133.109329 
L 211.090909 -129.087697 
L 209.901989 -144.367262 
L 208.713068 -155.425091 
L 207.524148 -137.464339 
L 206.335227 -158.450962 
L 205.146307 -151.613321 
L 203.957386 -141.443632 
L 202.768466 -121.554287 
L 201.579545 -142.219792 
L 200.390625 -130.199215 
L 199.201705 -129.087456 
L 198.012784 -128.754784 
L 196.823864 -134.251788 
L 195.634943 -135.680565 
L 194.446023 -134.38416 
L 193.257102 -130.083092 
L 192.068182 -134.406824 
L 190.879261 -116.831907 
L 189.690341 -103.186644 
L 188.50142 -103.68616 
L 187.3125 -106.542493 
L 186.12358 -141.281533 
L 184.934659 -142.590884 
L 183.745739 -134.798994 
L 182.556818 -142.76127 
L 181.367898 -133.595397 
L 180.178977 -129.88655 
L 178.990057 -121.011077 
L 177.801136 -129.223524 
L 176.612216 -128.301798 
L 175.423295 -128.582038 
L 174.234375 -117.548875 
L 173.045455 -149.88704 
z
" id="m035e9b680d" style="stroke:#4c72b0;stroke-opacity:0.2;"/>
    </defs>
    <g clip-path="url(#p60007174ce)">
     <use style="fill:#4c72b0;fill-opacity:0.2;stroke:#4c72b0;stroke-opacity:0.2;" x="0" xlink:href="#m035e9b680d" y="576"/>
    </g>
   </g>
   <g id="PolyCollection_2">
    <defs>
     <path d="M 173.045455 -106.354222 
L 173.045455 -88.968202 
L 174.234375 -86.209581 
L 175.423295 -94.133263 
L 176.612216 -86.272569 
L 177.801136 -86.009852 
L 178.990057 -85.855654 
L 180.178977 -85.718982 
L 181.367898 -86.655307 
L 182.556818 -86.743172 
L 183.745739 -87.137482 
L 184.934659 -87.075665 
L 186.12358 -93.655991 
L 187.3125 -92.781337 
L 188.50142 -95.65125 
L 189.690341 -95.441301 
L 190.879261 -102.281329 
L 192.068182 -93.717182 
L 193.257102 -93.702455 
L 194.446023 -98.098498 
L 195.634943 -98.446027 
L 196.823864 -98.406309 
L 198.012784 -99.028416 
L 199.201705 -100.815464 
L 200.390625 -86.617309 
L 201.579545 -86.448006 
L 202.768466 -86.524968 
L 203.957386 -86.208574 
L 205.146307 -95.500335 
L 206.335227 -95.546009 
L 207.524148 -91.295925 
L 208.713068 -91.355369 
L 209.901989 -94.057731 
L 211.090909 -92.287986 
L 212.27983 -104.856917 
L 213.46875 -97.843022 
L 214.65767 -90.631374 
L 215.846591 -93.970146 
L 217.035511 -90.20438 
L 218.224432 -90.203461 
L 219.413352 -97.478556 
L 220.602273 -88.641762 
L 221.791193 -86.317742 
L 222.980114 -86.325346 
L 224.169034 -86.624785 
L 225.357955 -86.435345 
L 226.546875 -86.655293 
L 227.735795 -86.720209 
L 228.924716 -86.856767 
L 230.113636 -86.687741 
L 231.302557 -86.475004 
L 232.491477 -86.16157 
L 233.680398 -86.14787 
L 234.869318 -90.359813 
L 236.058239 -104.80065 
L 237.247159 -111.645705 
L 238.43608 -110.401627 
L 239.625 -110.538793 
L 240.81392 -86.398859 
L 242.002841 -86.321125 
L 243.191761 -86.658603 
L 244.380682 -86.883337 
L 245.569602 -86.82747 
L 246.758523 -119.436772 
L 247.947443 -119.162666 
L 249.136364 -113.295525 
L 250.325284 -119.098966 
L 251.514205 -118.950642 
L 252.703125 -85.627978 
L 253.892045 -86.018406 
L 255.080966 -85.966641 
L 256.269886 -85.401121 
L 257.458807 -85.112859 
L 258.647727 -85.668181 
L 259.836648 -85.284867 
L 261.025568 -85.179029 
L 262.214489 -85.606686 
L 263.403409 -85.340052 
L 264.59233 -84.917367 
L 265.78125 -85.107695 
L 266.97017 -84.629295 
L 268.159091 -114.222351 
L 269.348011 -114.882408 
L 270.536932 -86.344398 
L 271.725852 -86.252907 
L 272.914773 -102.221742 
L 274.103693 -86.644289 
L 275.292614 -104.828596 
L 276.481534 -105.126871 
L 277.670455 -105.516607 
L 278.859375 -86.273308 
L 280.048295 -86.183191 
L 281.237216 -86.365911 
L 282.426136 -85.81284 
L 283.615057 -85.689625 
L 284.803977 -85.61279 
L 285.992898 -104.497453 
L 287.181818 -105.225196 
L 288.370739 -105.132885 
L 289.559659 -86.395314 
L 290.74858 -85.697044 
L 291.9375 -85.466793 
L 293.12642 -84.915752 
L 294.315341 -85.025936 
L 295.504261 -85.335466 
L 296.693182 -84.532593 
L 297.882102 -84.498432 
L 299.071023 -85.002351 
L 300.259943 -85.23096 
L 301.448864 -84.935647 
L 302.637784 -85.873399 
L 303.826705 -86.010763 
L 305.015625 -85.939322 
L 306.204545 -85.519004 
L 307.393466 -94.682745 
L 308.582386 -94.643593 
L 309.771307 -94.550357 
L 310.960227 -94.239311 
L 312.149148 -86.163256 
L 313.338068 -85.253298 
L 314.526989 -101.972452 
L 315.715909 -85.905179 
L 316.90483 -86.257626 
L 318.09375 -86.546143 
L 319.28267 -86.81743 
L 320.471591 -86.878113 
L 321.660511 -109.208219 
L 322.849432 -105.572247 
L 324.038352 -105.806877 
L 325.227273 -106.174446 
L 326.416193 -109.002733 
L 327.605114 -86.661945 
L 328.794034 -86.365904 
L 329.982955 -86.477076 
L 331.171875 -116.545602 
L 332.360795 -116.538315 
L 333.549716 -115.369878 
L 334.738636 -115.44576 
L 335.927557 -115.333066 
L 337.116477 -85.042528 
L 338.305398 -107.033288 
L 339.494318 -107.991808 
L 340.683239 -108.060779 
L 341.872159 -98.823611 
L 343.06108 -108.139783 
L 344.25 -86.175507 
L 345.43892 -85.908301 
L 346.627841 -86.152889 
L 347.816761 -85.842618 
L 349.005682 -86.160664 
L 350.194602 -85.827234 
L 351.383523 -86.032885 
L 352.572443 -85.600634 
L 353.761364 -117.413399 
L 354.950284 -139.398503 
L 356.139205 -139.37143 
L 357.328125 -164.493735 
L 358.517045 -164.824403 
L 359.705966 -133.260083 
L 360.894886 -111.221832 
L 362.083807 -111.561281 
L 363.272727 -109.605838 
L 364.461648 -109.391624 
L 365.650568 -109.087971 
L 366.839489 -108.996217 
L 368.028409 -129.18162 
L 369.21733 -106.053688 
L 369.21733 -134.292241 
L 369.21733 -134.292241 
L 368.028409 -331.187384 
L 366.839489 -339.401341 
L 365.650568 -349.155058 
L 364.461648 -288.550049 
L 363.272727 -301.300817 
L 362.083807 -280.892852 
L 360.894886 -239.053648 
L 359.705966 -207.906354 
L 358.517045 -282.12605 
L 357.328125 -268.849512 
L 356.139205 -278.148143 
L 354.950284 -263.870441 
L 353.761364 -219.687244 
L 352.572443 -200.542833 
L 351.383523 -224.416782 
L 350.194602 -203.783359 
L 349.005682 -226.760397 
L 347.816761 -302.108043 
L 346.627841 -316.139169 
L 345.43892 -257.645433 
L 344.25 -245.90271 
L 343.06108 -260.895923 
L 341.872159 -165.165332 
L 340.683239 -191.878491 
L 339.494318 -228.376707 
L 338.305398 -228.026957 
L 337.116477 -239.248357 
L 335.927557 -276.435723 
L 334.738636 -268.459699 
L 333.549716 -228.899727 
L 332.360795 -270.219257 
L 331.171875 -251.077582 
L 329.982955 -224.776689 
L 328.794034 -256.738037 
L 327.605114 -217.553116 
L 326.416193 -287.331581 
L 325.227273 -283.974802 
L 324.038352 -255.005292 
L 322.849432 -261.641367 
L 321.660511 -305.816194 
L 320.471591 -281.304011 
L 319.28267 -300.834206 
L 318.09375 -383.460794 
L 316.90483 -320.923674 
L 315.715909 -305.252168 
L 314.526989 -283.563246 
L 313.338068 -217.476221 
L 312.149148 -233.517231 
L 310.960227 -322.941888 
L 309.771307 -347.663498 
L 308.582386 -314.696228 
L 307.393466 -327.22181 
L 306.204545 -328.360551 
L 305.015625 -238.881972 
L 303.826705 -185.740788 
L 302.637784 -206.580199 
L 301.448864 -246.194164 
L 300.259943 -250.178438 
L 299.071023 -272.91283 
L 297.882102 -314.214517 
L 296.693182 -327.636996 
L 295.504261 -348.304601 
L 294.315341 -354.077397 
L 293.12642 -407.505533 
L 291.9375 -419.587932 
L 290.74858 -436.717451 
L 289.559659 -387.585466 
L 288.370739 -319.247533 
L 287.181818 -251.409667 
L 285.992898 -246.097521 
L 284.803977 -226.954057 
L 283.615057 -253.204755 
L 282.426136 -286.040727 
L 281.237216 -277.934368 
L 280.048295 -270.547325 
L 278.859375 -172.334715 
L 277.670455 -200.398957 
L 276.481534 -167.974453 
L 275.292614 -185.887933 
L 274.103693 -198.140585 
L 272.914773 -265.020004 
L 271.725852 -230.022313 
L 270.536932 -399.733827 
L 269.348011 -396.741249 
L 268.159091 -388.947696 
L 266.97017 -443.109424 
L 265.78125 -486.72 
L 264.59233 -327.756311 
L 263.403409 -345.899322 
L 262.214489 -329.028669 
L 261.025568 -232.333974 
L 259.836648 -193.708782 
L 258.647727 -182.810773 
L 257.458807 -149.683629 
L 256.269886 -130.30898 
L 255.080966 -138.207458 
L 253.892045 -154.917813 
L 252.703125 -182.048735 
L 251.514205 -183.991743 
L 250.325284 -242.408989 
L 249.136364 -210.668541 
L 247.947443 -183.789162 
L 246.758523 -194.164926 
L 245.569602 -163.524643 
L 244.380682 -150.55862 
L 243.191761 -150.149849 
L 242.002841 -159.770101 
L 240.81392 -137.551732 
L 239.625 -137.348568 
L 238.43608 -124.098147 
L 237.247159 -127.682928 
L 236.058239 -125.710209 
L 234.869318 -136.273942 
L 233.680398 -129.720062 
L 232.491477 -129.952316 
L 231.302557 -129.949391 
L 230.113636 -151.768605 
L 228.924716 -126.069133 
L 227.735795 -108.486983 
L 226.546875 -108.476707 
L 225.357955 -108.638796 
L 224.169034 -110.078775 
L 222.980114 -109.970149 
L 221.791193 -109.86805 
L 220.602273 -111.28425 
L 219.413352 -134.116522 
L 218.224432 -151.039387 
L 217.035511 -174.081378 
L 215.846591 -175.690103 
L 214.65767 -173.669999 
L 213.46875 -142.072045 
L 212.27983 -135.209124 
L 211.090909 -129.376553 
L 209.901989 -130.066654 
L 208.713068 -144.79846 
L 207.524148 -153.682835 
L 206.335227 -153.085785 
L 205.146307 -152.967426 
L 203.957386 -153.154319 
L 202.768466 -130.286379 
L 201.579545 -123.292494 
L 200.390625 -122.936242 
L 199.201705 -150.263561 
L 198.012784 -177.721888 
L 196.823864 -159.71829 
L 195.634943 -158.223828 
L 194.446023 -158.024907 
L 193.257102 -150.55263 
L 192.068182 -127.033038 
L 190.879261 -130.435365 
L 189.690341 -123.039466 
L 188.50142 -123.131813 
L 187.3125 -134.916695 
L 186.12358 -134.95014 
L 184.934659 -125.315457 
L 183.745739 -125.706638 
L 182.556818 -136.07492 
L 181.367898 -106.730256 
L 180.178977 -132.435389 
L 178.990057 -135.047472 
L 177.801136 -134.888055 
L 176.612216 -121.695921 
L 175.423295 -121.483192 
L 174.234375 -109.441248 
L 173.045455 -106.354222 
z
" id="mfc5b580034" style="stroke:#c44e52;stroke-opacity:0.2;"/>
    </defs>
    <g clip-path="url(#p60007174ce)">
     <use style="fill:#c44e52;fill-opacity:0.2;stroke:#c44e52;stroke-opacity:0.2;" x="0" xlink:href="#mfc5b580034" y="576"/>
    </g>
   </g>
   <g id="line2d_15">
    <path clip-path="url(#p60007174ce)" d="M 173.045455 450.696414 
L 174.234375 462.922607 
L 175.423295 452.183186 
L 176.612216 462.248144 
L 177.801136 458.877367 
L 178.990057 470.195708 
L 180.178977 463.343788 
L 181.367898 458.62117 
L 183.745739 465.507683 
L 184.934659 459.024747 
L 186.12358 465.980863 
L 187.3125 479.410058 
L 188.50142 477.204351 
L 189.690341 477.400814 
L 190.879261 472.893781 
L 192.068182 466.518054 
L 193.257102 463.983494 
L 194.446023 461.760234 
L 195.634943 460.871361 
L 196.823864 459.200582 
L 198.012784 461.788932 
L 199.201705 453.064921 
L 200.390625 459.531912 
L 201.579545 453.744985 
L 202.768466 466.417545 
L 203.957386 453.736574 
L 205.146307 453.005187 
L 206.335227 453.236821 
L 207.524148 455.235467 
L 208.713068 448.60951 
L 209.901989 451.812582 
L 211.090909 464.53973 
L 212.27983 461.090811 
L 213.46875 460.066231 
L 214.65767 453.991876 
L 215.846591 460.918143 
L 217.035511 449.001432 
L 218.224432 452.458152 
L 219.413352 453.798119 
L 220.602273 466.685411 
L 221.791193 467.188679 
L 222.980114 471.332955 
L 224.169034 466.121295 
L 225.357955 459.754615 
L 226.546875 454.571175 
L 227.735795 453.07112 
L 228.924716 455.976903 
L 230.113636 456.811302 
L 231.302557 463.842812 
L 232.491477 465.998911 
L 233.680398 461.748342 
L 234.869318 461.274424 
L 236.058239 455.605355 
L 237.247159 452.062684 
L 238.43608 447.612 
L 239.625 455.471004 
L 240.81392 453.001382 
L 242.002841 457.052251 
L 243.191761 450.386837 
L 244.380682 457.95227 
L 245.569602 462.096395 
L 246.758523 469.592506 
L 247.947443 469.845258 
L 249.136364 478.167301 
L 250.325284 473.242952 
L 251.514205 467.838998 
L 252.703125 469.678716 
L 253.892045 469.709882 
L 255.080966 471.786544 
L 256.269886 466.024723 
L 257.458807 467.436995 
L 258.647727 439.088966 
L 259.836648 440.830579 
L 261.025568 442.04111 
L 262.214489 450.518499 
L 263.403409 454.564621 
L 264.59233 480.14966 
L 265.78125 470.864273 
L 266.97017 469.563829 
L 268.159091 461.63489 
L 269.348011 444.683424 
L 270.536932 436.316964 
L 271.725852 446.663865 
L 272.914773 434.15551 
L 274.103693 436.928313 
L 275.292614 449.523651 
L 276.481534 451.56774 
L 277.670455 452.170505 
L 278.859375 463.28565 
L 280.048295 459.672485 
L 281.237216 464.091954 
L 282.426136 471.668176 
L 283.615057 463.48166 
L 284.803977 458.061995 
L 285.992898 469.076549 
L 287.181818 467.154076 
L 288.370739 451.972388 
L 289.559659 450.723517 
L 290.74858 459.240004 
L 291.9375 449.40248 
L 293.12642 441.639528 
L 294.315341 445.679535 
L 295.504261 457.774108 
L 296.693182 456.842708 
L 297.882102 466.661915 
L 299.071023 452.844032 
L 300.259943 449.293193 
L 301.448864 442.96104 
L 302.637784 441.018228 
L 303.826705 434.763104 
L 305.015625 456.30492 
L 306.204545 469.943178 
L 307.393466 462.17726 
L 308.582386 460.339936 
L 309.771307 459.708027 
L 312.149148 445.242656 
L 313.338068 452.999432 
L 314.526989 450.14907 
L 315.715909 450.604812 
L 316.90483 447.226361 
L 318.09375 457.085502 
L 319.28267 455.341509 
L 320.471591 455.532693 
L 321.660511 459.421201 
L 322.849432 461.504279 
L 324.038352 457.707862 
L 325.227273 450.637095 
L 326.416193 445.087478 
L 327.605114 426.693842 
L 328.794034 425.195142 
L 329.982955 419.868145 
L 331.171875 428.642262 
L 332.360795 434.604852 
L 333.549716 444.276964 
L 334.738636 451.258051 
L 335.927557 455.47579 
L 337.116477 461.742831 
L 338.305398 456.518986 
L 339.494318 464.247023 
L 340.683239 466.16464 
L 341.872159 461.866833 
L 343.06108 455.240301 
L 344.25 469.424489 
L 345.43892 454.6464 
L 346.627841 449.298682 
L 347.816761 450.692582 
L 349.005682 451.002472 
L 350.194602 446.571744 
L 351.383523 452.858357 
L 352.572443 461.688233 
L 353.761364 469.280662 
L 354.950284 474.52774 
L 356.139205 478.244905 
L 357.328125 490.375202 
L 358.517045 485.729309 
L 359.705966 482.541466 
L 360.894886 478.084054 
L 362.083807 465.57323 
L 363.272727 460.373625 
L 364.461648 456.350987 
L 365.650568 452.965287 
L 366.839489 455.072647 
L 368.028409 466.866033 
L 369.21733 463.626069 
L 370.40625 464.107105 
L 371.59517 458.958372 
L 372.784091 462.376548 
L 373.973011 445.941604 
L 375.161932 443.586748 
L 377.539773 456.493748 
L 378.728693 442.761486 
L 379.917614 451.695804 
L 381.106534 450.148755 
L 382.295455 437.651579 
L 383.484375 432.598232 
L 384.673295 437.438827 
L 385.862216 440.527687 
L 387.051136 445.200883 
L 388.240057 459.078583 
L 389.428977 445.074169 
L 390.617898 449.912898 
L 391.806818 437.492607 
L 392.995739 441.738175 
L 394.184659 439.173224 
L 395.37358 458.538337 
L 396.5625 451.57337 
L 397.75142 463.825034 
L 398.940341 456.943206 
L 400.129261 456.710574 
L 401.318182 454.864982 
L 402.507102 465.848358 
L 403.696023 467.335378 
L 404.884943 453.80639 
L 407.262784 436.212562 
L 408.451705 415.772362 
L 409.640625 407.048478 
L 410.829545 420.439688 
L 412.018466 422.025606 
L 413.207386 427.58932 
L 414.396307 430.343499 
L 415.585227 435.643842 
L 416.774148 439.262802 
L 417.963068 422.940724 
L 419.151989 432.543867 
L 420.340909 436.236852 
L 421.52983 420.692419 
L 422.71875 415.995093 
L 423.90767 437.317641 
L 425.096591 420.587277 
L 426.285511 425.633935 
L 427.474432 449.271861 
L 428.663352 448.664214 
L 429.852273 447.169004 
L 431.041193 457.229607 
L 432.230114 457.681608 
L 433.419034 448.677005 
L 434.607955 454.916568 
L 435.796875 453.921886 
L 436.985795 438.448493 
L 438.174716 440.81673 
L 439.363636 441.507284 
L 440.552557 430.069407 
L 441.741477 430.93115 
L 442.930398 447.416329 
L 444.119318 437.172242 
L 445.308239 436.288218 
L 446.497159 439.03383 
L 447.68608 438.921946 
L 448.875 430.073152 
L 450.06392 437.926001 
L 451.252841 439.128776 
L 452.441761 448.91945 
L 453.630682 452.646037 
L 454.819602 460.560132 
L 456.008523 464.444701 
L 457.197443 465.611213 
L 458.386364 459.75463 
L 459.575284 460.156397 
L 460.764205 458.419132 
L 461.953125 447.986938 
L 463.142045 428.811592 
L 464.330966 434.651085 
L 465.519886 411.672823 
L 466.708807 417.102921 
L 467.897727 416.172511 
L 469.086648 436.906863 
L 470.275568 428.374427 
L 471.464489 441.360214 
L 472.653409 437.816749 
L 473.84233 452.865573 
L 475.03125 456.558177 
L 476.22017 458.435146 
L 477.409091 457.412824 
L 478.598011 448.606019 
L 479.786932 441.309163 
L 480.975852 424.023028 
L 482.164773 428.043676 
L 483.353693 437.786755 
L 484.542614 438.362593 
L 485.731534 446.567244 
L 486.920455 463.190038 
L 488.109375 452.511565 
L 489.298295 433.734339 
L 490.487216 431.727418 
L 491.676136 414.598879 
L 492.865057 416.601876 
L 494.053977 417.316832 
L 495.242898 435.781256 
L 496.431818 452.117096 
L 497.620739 452.151839 
L 498.809659 451.102196 
L 499.99858 458.231051 
L 501.1875 455.46562 
L 502.37642 445.093097 
L 503.565341 458.040924 
L 504.754261 431.689328 
L 505.943182 434.373519 
L 507.132102 430.255937 
L 508.321023 431.149409 
L 509.509943 435.416851 
L 510.698864 453.089443 
L 511.887784 457.031809 
L 513.076705 456.633697 
L 514.265625 455.236546 
L 516.643466 434.572118 
L 517.832386 421.734477 
L 519.021307 434.423151 
L 520.210227 441.925457 
L 521.399148 434.502851 
L 522.588068 443.262946 
L 523.776989 458.467752 
L 524.965909 443.241822 
L 526.15483 446.878999 
L 527.34375 448.71768 
L 528.53267 456.596187 
L 529.721591 445.662523 
L 530.910511 443.692782 
L 532.099432 440.514672 
L 533.288352 446.221866 
L 534.477273 441.127192 
L 535.666193 450.748901 
L 536.855114 453.148675 
L 538.044034 456.504604 
L 539.232955 462.599227 
L 540.421875 467.910052 
L 541.610795 460.062574 
L 542.799716 462.232692 
L 543.988636 449.723606 
L 545.177557 440.126465 
L 546.366477 426.047632 
L 547.555398 426.210939 
L 548.744318 428.236966 
L 549.933239 433.612687 
L 551.122159 437.76309 
L 552.31108 445.408991 
L 553.5 436.173425 
L 554.68892 436.827552 
L 555.877841 429.617746 
L 558.255682 401.912665 
L 559.444602 396.169907 
L 560.633523 388.525837 
L 561.822443 382.940379 
L 564.200284 419.171008 
L 565.389205 439.901909 
L 566.578125 439.967242 
L 567.767045 459.651079 
L 568.955966 463.424435 
L 570.144886 457.372693 
L 571.333807 455.648389 
L 572.522727 463.673078 
L 573.711648 445.661817 
L 574.900568 436.473541 
L 576.089489 423.84395 
L 577.278409 413.007705 
L 578.46733 416.342134 
L 579.65625 423.090397 
L 580.84517 427.677971 
L 582.034091 436.274166 
L 583.223011 438.876869 
L 584.411932 430.532472 
L 585.600852 427.060846 
L 586.789773 421.83237 
L 587.978693 432.574235 
L 589.167614 440.566921 
L 590.356534 446.05065 
L 591.545455 444.712547 
L 592.734375 442.707619 
L 593.923295 435.226251 
L 595.112216 423.419891 
L 596.301136 425.53594 
L 598.678977 442.09512 
L 599.867898 437.170231 
L 601.056818 439.452829 
L 602.245739 434.204016 
L 603.434659 423.665691 
L 604.62358 418.884968 
L 605.8125 406.118403 
L 607.00142 417.964432 
L 608.190341 413.5092 
L 609.379261 413.271185 
L 610.568182 400.540052 
L 611.757102 420.027198 
L 612.946023 394.649853 
L 614.134943 387.261228 
L 615.323864 389.206344 
L 616.512784 395.725229 
L 617.701705 392.710541 
L 618.890625 404.292628 
L 620.079545 407.557897 
L 621.268466 402.087688 
L 622.457386 398.946032 
L 623.646307 398.77774 
L 624.835227 409.281787 
L 626.024148 422.005424 
L 627.213068 428.940632 
L 628.401989 433.895285 
L 629.590909 445.132628 
L 630.77983 420.944011 
L 631.96875 423.648163 
L 633.15767 434.055248 
L 634.346591 430.811407 
L 635.535511 417.357991 
L 636.724432 430.266758 
L 637.913352 420.122949 
L 639.102273 411.549573 
L 640.291193 415.841932 
L 641.480114 416.849093 
L 642.669034 429.362138 
L 643.857955 433.584022 
L 645.046875 440.983097 
L 646.235795 435.741008 
L 647.424716 442.533523 
L 648.613636 444.550905 
L 649.802557 438.157765 
L 650.991477 430.753742 
L 652.180398 431.461831 
L 653.369318 425.090054 
L 654.558239 415.246254 
L 655.747159 423.312933 
L 656.93608 436.532185 
L 658.125 439.645606 
L 659.31392 426.554039 
L 661.691761 406.990106 
L 662.880682 383.989067 
L 665.258523 397.639136 
L 666.447443 405.612161 
L 667.636364 399.447088 
L 668.825284 417.983195 
L 670.014205 411.116965 
L 671.203125 423.81507 
L 672.392045 422.0772 
L 673.580966 437.497319 
L 674.769886 413.384103 
L 675.958807 413.755671 
L 677.147727 402.265702 
L 678.336648 404.878104 
L 679.525568 394.88546 
L 680.714489 412.270769 
L 681.903409 419.079897 
L 683.09233 427.795149 
L 684.28125 397.728204 
L 685.47017 403.725326 
L 686.659091 414.768058 
L 687.848011 421.417763 
L 689.036932 424.956881 
L 690.225852 457.22296 
L 691.414773 450.138154 
L 693.792614 427.888681 
L 694.981534 414.678318 
L 696.170455 418.432473 
L 697.359375 405.874145 
L 698.548295 401.586847 
L 699.737216 378.696156 
L 700.926136 383.449861 
L 702.115057 375.241379 
L 703.303977 388.667033 
L 704.492898 380.232582 
L 705.681818 401.02072 
L 706.870739 402.085903 
L 708.059659 406.544663 
L 709.24858 403.995345 
L 710.4375 395.055747 
L 711.62642 381.169691 
L 712.815341 387.000535 
L 714.004261 370.92077 
L 717.571023 393.698873 
L 718.759943 387.714214 
L 719.948864 400.434812 
L 721.137784 404.827098 
L 723.515625 433.819886 
L 724.704545 419.231544 
L 725.893466 433.989944 
L 727.082386 414.768578 
L 728.271307 412.582478 
L 729.460227 413.283588 
L 730.649148 409.232599 
L 731.838068 394.715238 
L 733.026989 393.187633 
L 734.215909 388.235099 
L 735.40483 381.988887 
L 736.59375 402.329047 
L 737.78267 412.171659 
L 738.971591 439.257566 
L 740.160511 445.591117 
L 741.349432 434.645167 
L 742.538352 427.094338 
L 743.727273 418.445189 
L 744.916193 405.966923 
L 746.105114 408.434413 
L 748.482955 410.181684 
L 749.671875 416.513926 
L 750.860795 424.867341 
L 752.049716 424.353237 
L 753.238636 413.793076 
L 754.427557 421.732339 
L 755.616477 395.215931 
L 756.805398 388.061341 
L 757.994318 385.66173 
L 759.183239 403.11086 
L 760.372159 382.606671 
L 761.56108 401.036427 
L 762.75 404.620714 
L 763.93892 398.169807 
L 765.127841 393.5228 
L 766.316761 383.854654 
L 767.505682 388.603928 
L 768.694602 398.874865 
L 769.883523 410.471831 
L 771.072443 412.652228 
L 772.261364 444.234453 
L 773.450284 443.832428 
L 774.639205 434.797043 
L 775.828125 442.133926 
L 777.017045 445.152136 
L 778.205966 432.217098 
L 779.394886 433.325038 
L 780.583807 420.032416 
L 781.772727 405.350865 
L 782.961648 404.860843 
L 784.150568 412.463609 
L 785.339489 407.241947 
L 786.528409 413.085694 
L 787.71733 417.402196 
L 788.90625 414.049776 
L 790.09517 420.11093 
L 791.284091 421.273163 
L 792.473011 426.136936 
L 793.661932 425.334778 
L 794.850852 418.369917 
L 796.039773 412.189137 
L 797.228693 420.015154 
L 798.417614 423.43159 
L 799.606534 413.157836 
L 800.795455 416.678384 
L 801.984375 403.648756 
L 803.173295 388.623064 
L 804.362216 387.184944 
L 805.551136 387.938391 
L 806.740057 370.805709 
L 807.928977 374.478948 
L 809.117898 373.295236 
L 810.306818 368.565944 
L 811.495739 365.875473 
L 812.684659 383.403339 
L 813.87358 394.896433 
L 815.0625 398.8307 
L 817.440341 402.710744 
L 818.629261 410.799416 
L 819.818182 400.603541 
L 821.007102 406.465563 
L 822.196023 391.783443 
L 823.384943 389.708242 
L 824.573864 383.060147 
L 825.762784 389.730008 
L 826.951705 383.764336 
L 828.140625 397.021349 
L 829.329545 401.251868 
L 831.707386 391.413399 
L 832.896307 398.111269 
L 834.085227 384.926076 
L 835.274148 389.538957 
L 836.463068 384.458574 
L 837.651989 397.918174 
L 838.840909 395.680405 
L 840.02983 416.760651 
L 841.21875 408.511565 
L 842.40767 418.606413 
L 843.596591 408.644219 
L 844.785511 407.654475 
L 845.974432 380.064063 
L 847.163352 381.833694 
L 848.352273 366.865609 
L 849.541193 383.176354 
L 850.730114 371.062243 
L 851.919034 388.345389 
L 853.107955 394.611992 
L 854.296875 422.097374 
L 855.485795 415.546223 
L 856.674716 424.518435 
L 857.863636 415.494559 
L 859.052557 426.995304 
L 860.241477 417.658483 
L 861.430398 395.381299 
L 862.619318 395.220945 
L 863.808239 402.353815 
L 864.997159 384.093637 
L 866.18608 378.718427 
L 867.375 399.058895 
L 868.56392 400.004857 
L 869.752841 396.92654 
L 872.130682 408.467991 
L 873.319602 391.203159 
L 874.508523 397.895016 
L 875.697443 414.332897 
L 876.886364 412.786828 
L 878.075284 393.263252 
L 879.264205 398.415394 
L 880.453125 390.944867 
L 881.642045 386.867225 
L 882.830966 376.569147 
L 884.019886 369.383436 
L 885.208807 369.312399 
L 886.397727 368.312123 
L 887.586648 364.633449 
L 888.775568 373.030932 
L 889.964489 386.032909 
L 891.153409 375.313825 
L 892.34233 381.106095 
L 893.53125 357.059719 
L 894.72017 355.271956 
L 895.909091 355.203954 
L 897.098011 361.870204 
L 898.286932 358.458649 
L 899.475852 373.138822 
L 900.664773 378.956297 
L 901.853693 382.158279 
L 903.042614 382.560831 
L 904.231534 381.037494 
L 905.420455 386.107198 
L 906.609375 366.397333 
L 907.798295 366.927891 
L 908.987216 357.653508 
L 910.176136 351.396216 
L 911.365057 350.793013 
L 912.553977 358.635771 
L 914.931818 387.4422 
L 916.120739 365.815769 
L 917.309659 334.660946 
L 918.49858 329.920535 
L 919.6875 311.907667 
L 920.87642 305.853053 
L 922.065341 338.729768 
L 923.254261 365.032119 
L 924.443182 366.072571 
L 925.632102 360.588915 
L 926.821023 353.270579 
L 928.009943 328.539954 
L 929.198864 341.858286 
L 930.387784 356.932913 
L 931.576705 345.730029 
L 932.765625 361.237745 
L 933.954545 335.735636 
L 933.954545 335.735636 
" style="fill:none;stroke:#4c72b0;stroke-linecap:round;stroke-width:1.5;"/>
   </g>
   <g id="line2d_16">
    <path clip-path="url(#p60007174ce)" d="M 173.045455 478.338788 
L 174.234375 478.174585 
L 175.423295 466.57524 
L 176.612216 472.015755 
L 177.801136 465.551046 
L 178.990057 465.548437 
L 180.178977 466.922814 
L 181.367898 482.436544 
L 182.556818 465.574 
L 183.745739 471.953824 
L 184.934659 470.156827 
L 186.12358 462.91223 
L 187.3125 463.149247 
L 188.50142 465.278671 
L 189.690341 465.443509 
L 190.879261 459.650689 
L 192.068182 465.62489 
L 193.257102 454.718634 
L 194.446023 450.089829 
L 195.634943 449.808674 
L 196.823864 451.431531 
L 198.012784 446.710466 
L 199.201705 454.747451 
L 200.390625 474.081189 
L 201.579545 471.12975 
L 202.768466 468.917029 
L 205.146307 451.76612 
L 206.335227 451.684103 
L 207.524148 451.178713 
L 208.713068 455.633626 
L 209.901989 463.937807 
L 211.090909 467.054687 
L 212.27983 458.949912 
L 213.46875 456.17302 
L 214.65767 445.471096 
L 215.846591 449.666349 
L 218.224432 463.003635 
L 219.413352 461.75153 
L 220.602273 476.218506 
L 221.791193 477.99447 
L 222.980114 479.998951 
L 224.169034 481.491594 
L 225.357955 481.83773 
L 227.735795 481.765322 
L 228.924716 475.949761 
L 230.113636 467.506717 
L 231.302557 474.925983 
L 232.491477 474.956953 
L 233.680398 475.114281 
L 234.869318 466.925478 
L 236.058239 462.350819 
L 237.247159 456.335683 
L 238.43608 460.488215 
L 239.625 451.933348 
L 240.81392 462.285161 
L 242.002841 460.4846 
L 243.191761 461.815614 
L 244.380682 461.478997 
L 245.569602 448.030439 
L 246.758523 427.100818 
L 247.947443 430.719425 
L 249.136364 428.313827 
L 250.325284 404.324455 
L 251.514205 423.328295 
L 252.703125 444.674856 
L 253.892045 453.432198 
L 255.080966 458.92389 
L 256.269886 475.125883 
L 257.458807 469.036621 
L 258.647727 457.739929 
L 259.836648 454.388329 
L 261.025568 441.563915 
L 262.214489 409.230859 
L 264.59233 397.397899 
L 265.78125 344.263413 
L 266.97017 359.01649 
L 268.159091 367.170142 
L 269.348011 364.414475 
L 270.536932 375.633078 
L 271.725852 432.270697 
L 272.914773 413.90051 
L 274.103693 445.9673 
L 275.292614 443.019716 
L 276.481534 448.898883 
L 277.670455 437.921674 
L 278.859375 453.722802 
L 280.048295 420.999269 
L 281.237216 425.565009 
L 282.426136 423.066502 
L 283.615057 426.416754 
L 284.803977 415.673966 
L 285.992898 422.508124 
L 287.181818 420.454539 
L 288.370739 398.02541 
L 290.74858 366.940723 
L 291.9375 379.112035 
L 293.12642 383.483674 
L 294.315341 401.070255 
L 295.504261 402.714917 
L 296.693182 409.670589 
L 297.882102 414.164539 
L 299.071023 427.77036 
L 300.259943 435.215778 
L 301.448864 425.744393 
L 302.637784 438.748578 
L 303.826705 445.570843 
L 305.015625 427.864644 
L 306.204545 393.520079 
L 307.393466 401.936036 
L 308.582386 405.992381 
L 309.771307 395.064645 
L 310.960227 403.419079 
L 312.149148 437.915191 
L 313.338068 416.317513 
L 314.526989 407.965107 
L 315.715909 400.517194 
L 316.90483 391.320929 
L 318.09375 370.377168 
L 319.28267 414.054272 
L 320.471591 420.587933 
L 321.660511 398.757347 
L 322.849432 417.167303 
L 324.038352 419.393233 
L 325.227273 409.569829 
L 326.416193 389.73582 
L 327.605114 410.26086 
L 328.794034 397.170872 
L 329.982955 399.778631 
L 331.171875 381.172137 
L 332.360795 384.972439 
L 333.549716 407.478611 
L 334.738636 396.87985 
L 335.927557 399.08867 
L 337.116477 417.457936 
L 338.305398 422.398148 
L 339.494318 421.900286 
L 340.683239 439.854324 
L 341.872159 442.422496 
L 343.06108 415.394272 
L 344.25 406.53172 
L 345.43892 399.89462 
L 346.627841 373.871513 
L 347.816761 378.679466 
L 349.005682 405.641256 
L 350.194602 417.15884 
L 351.383523 412.931714 
L 352.572443 427.190572 
L 353.761364 391.901302 
L 354.950284 374.60947 
L 356.139205 376.658695 
L 357.328125 371.539492 
L 358.517045 370.911228 
L 359.705966 397.292893 
L 360.894886 392.953268 
L 362.083807 353.737162 
L 363.272727 340.636775 
L 364.461648 350.008153 
L 365.650568 345.331984 
L 366.839489 363.80492 
L 368.028409 369.809405 
L 369.21733 455.827035 
L 370.40625 442.20495 
L 371.59517 449.691081 
L 371.59517 449.691081 
" style="fill:none;stroke:#c44e52;stroke-dasharray:5.55,2.4;stroke-dashoffset:0;stroke-width:1.5;"/>
   </g>
   <g id="patch_3">
    <path d="M 135 512.64 
L 135 69.12 
" style="fill:none;stroke:#ffffff;stroke-linecap:square;stroke-linejoin:miter;stroke-width:1.25;"/>
   </g>
   <g id="patch_4">
    <path d="M 972 512.64 
L 972 69.12 
" style="fill:none;stroke:#ffffff;stroke-linecap:square;stroke-linejoin:miter;stroke-width:1.25;"/>
   </g>
   <g id="patch_5">
    <path d="M 135 512.64 
L 972 512.64 
" style="fill:none;stroke:#ffffff;stroke-linecap:square;stroke-linejoin:miter;stroke-width:1.25;"/>
   </g>
   <g id="patch_6">
    <path d="M 135 69.12 
L 972 69.12 
" style="fill:none;stroke:#ffffff;stroke-linecap:square;stroke-linejoin:miter;stroke-width:1.25;"/>
   </g>
   <g id="legend_1">
    <g id="patch_7">
     <path d="M 690.6 219.461812 
L 848.146641 219.461812 
Q 851.446641 219.461812 851.446641 216.161812 
L 851.446641 169.374 
Q 851.446641 166.074 848.146641 166.074 
L 690.6 166.074 
Q 687.3 166.074 687.3 169.374 
L 687.3 216.161812 
Q 687.3 219.461812 690.6 219.461812 
z
" style="fill:#eaeaf2;opacity:0.8;stroke:#cccccc;stroke-linejoin:miter;"/>
    </g>
    <g id="line2d_17">
     <path d="M 693.9 179.436422 
L 726.9 179.436422 
" style="fill:none;stroke:#4c72b0;stroke-linecap:round;stroke-width:1.5;"/>
    </g>
    <g id="line2d_18"/>
    <g id="text_18">
     <!-- MAHRL(PPO) -->
     <defs>
      <path d="M 34.1875 63.1875 
L 20.796875 26.90625 
L 47.609375 26.90625 
z
M 28.609375 72.90625 
L 39.796875 72.90625 
L 67.578125 0 
L 57.328125 0 
L 50.6875 18.703125 
L 17.828125 18.703125 
L 11.1875 0 
L 0.78125 0 
z
" id="DejaVuSans-65"/>
      <path d="M 9.8125 72.90625 
L 19.671875 72.90625 
L 19.671875 43.015625 
L 55.515625 43.015625 
L 55.515625 72.90625 
L 65.375 72.90625 
L 65.375 0 
L 55.515625 0 
L 55.515625 34.71875 
L 19.671875 34.71875 
L 19.671875 0 
L 9.8125 0 
z
" id="DejaVuSans-72"/>
      <path d="M 9.8125 72.90625 
L 19.671875 72.90625 
L 19.671875 8.296875 
L 55.171875 8.296875 
L 55.171875 0 
L 9.8125 0 
z
" id="DejaVuSans-76"/>
      <path d="M 31 75.875 
Q 24.46875 64.65625 21.28125 53.65625 
Q 18.109375 42.671875 18.109375 31.390625 
Q 18.109375 20.125 21.3125 9.0625 
Q 24.515625 -2 31 -13.1875 
L 23.1875 -13.1875 
Q 15.875 -1.703125 12.234375 9.375 
Q 8.59375 20.453125 8.59375 31.390625 
Q 8.59375 42.28125 12.203125 53.3125 
Q 15.828125 64.359375 23.1875 75.875 
z
" id="DejaVuSans-40"/>
      <path d="M 19.671875 64.796875 
L 19.671875 37.40625 
L 32.078125 37.40625 
Q 38.96875 37.40625 42.71875 40.96875 
Q 46.484375 44.53125 46.484375 51.125 
Q 46.484375 57.671875 42.71875 61.234375 
Q 38.96875 64.796875 32.078125 64.796875 
z
M 9.8125 72.90625 
L 32.078125 72.90625 
Q 44.34375 72.90625 50.609375 67.359375 
Q 56.890625 61.8125 56.890625 51.125 
Q 56.890625 40.328125 50.609375 34.8125 
Q 44.34375 29.296875 32.078125 29.296875 
L 19.671875 29.296875 
L 19.671875 0 
L 9.8125 0 
z
" id="DejaVuSans-80"/>
      <path d="M 39.40625 66.21875 
Q 28.65625 66.21875 22.328125 58.203125 
Q 16.015625 50.203125 16.015625 36.375 
Q 16.015625 22.609375 22.328125 14.59375 
Q 28.65625 6.59375 39.40625 6.59375 
Q 50.140625 6.59375 56.421875 14.59375 
Q 62.703125 22.609375 62.703125 36.375 
Q 62.703125 50.203125 56.421875 58.203125 
Q 50.140625 66.21875 39.40625 66.21875 
z
M 39.40625 74.21875 
Q 54.734375 74.21875 63.90625 63.9375 
Q 73.09375 53.65625 73.09375 36.375 
Q 73.09375 19.140625 63.90625 8.859375 
Q 54.734375 -1.421875 39.40625 -1.421875 
Q 24.03125 -1.421875 14.8125 8.828125 
Q 5.609375 19.09375 5.609375 36.375 
Q 5.609375 53.65625 14.8125 63.9375 
Q 24.03125 74.21875 39.40625 74.21875 
z
" id="DejaVuSans-79"/>
      <path d="M 8.015625 75.875 
L 15.828125 75.875 
Q 23.140625 64.359375 26.78125 53.3125 
Q 30.421875 42.28125 30.421875 31.390625 
Q 30.421875 20.453125 26.78125 9.375 
Q 23.140625 -1.703125 15.828125 -13.1875 
L 8.015625 -13.1875 
Q 14.5 -2 17.703125 9.0625 
Q 20.90625 20.125 20.90625 31.390625 
Q 20.90625 42.671875 17.703125 53.65625 
Q 14.5 64.65625 8.015625 75.875 
z
" id="DejaVuSans-41"/>
     </defs>
     <g style="fill:#262626;" transform="translate(740.1 185.211422)scale(0.165 -0.165)">
      <use xlink:href="#DejaVuSans-77"/>
      <use x="86.279297" xlink:href="#DejaVuSans-65"/>
      <use x="154.6875" xlink:href="#DejaVuSans-72"/>
      <use x="229.882812" xlink:href="#DejaVuSans-82"/>
      <use x="299.365234" xlink:href="#DejaVuSans-76"/>
      <use x="355.078125" xlink:href="#DejaVuSans-40"/>
      <use x="394.091797" xlink:href="#DejaVuSans-80"/>
      <use x="454.394531" xlink:href="#DejaVuSans-80"/>
      <use x="514.697266" xlink:href="#DejaVuSans-79"/>
      <use x="593.408203" xlink:href="#DejaVuSans-41"/>
     </g>
    </g>
    <g id="line2d_19">
     <path d="M 693.9 203.655328 
L 726.9 203.655328 
" style="fill:none;stroke:#c44e52;stroke-dasharray:5.55,2.4;stroke-dashoffset:0;stroke-width:1.5;"/>
    </g>
    <g id="line2d_20"/>
    <g id="text_19">
     <!-- MAHRL(TD3) -->
     <defs>
      <path d="M -0.296875 72.90625 
L 61.375 72.90625 
L 61.375 64.59375 
L 35.5 64.59375 
L 35.5 0 
L 25.59375 0 
L 25.59375 64.59375 
L -0.296875 64.59375 
z
" id="DejaVuSans-84"/>
      <path d="M 19.671875 64.796875 
L 19.671875 8.109375 
L 31.59375 8.109375 
Q 46.6875 8.109375 53.6875 14.9375 
Q 60.6875 21.78125 60.6875 36.53125 
Q 60.6875 51.171875 53.6875 57.984375 
Q 46.6875 64.796875 31.59375 64.796875 
z
M 9.8125 72.90625 
L 30.078125 72.90625 
Q 51.265625 72.90625 61.171875 64.09375 
Q 71.09375 55.28125 71.09375 36.53125 
Q 71.09375 17.671875 61.125 8.828125 
Q 51.171875 0 30.078125 0 
L 9.8125 0 
z
" id="DejaVuSans-68"/>
      <path d="M 40.578125 39.3125 
Q 47.65625 37.796875 51.625 33 
Q 55.609375 28.21875 55.609375 21.1875 
Q 55.609375 10.40625 48.1875 4.484375 
Q 40.765625 -1.421875 27.09375 -1.421875 
Q 22.515625 -1.421875 17.65625 -0.515625 
Q 12.796875 0.390625 7.625 2.203125 
L 7.625 11.71875 
Q 11.71875 9.328125 16.59375 8.109375 
Q 21.484375 6.890625 26.8125 6.890625 
Q 36.078125 6.890625 40.9375 10.546875 
Q 45.796875 14.203125 45.796875 21.1875 
Q 45.796875 27.640625 41.28125 31.265625 
Q 36.765625 34.90625 28.71875 34.90625 
L 20.21875 34.90625 
L 20.21875 43.015625 
L 29.109375 43.015625 
Q 36.375 43.015625 40.234375 45.921875 
Q 44.09375 48.828125 44.09375 54.296875 
Q 44.09375 59.90625 40.109375 62.90625 
Q 36.140625 65.921875 28.71875 65.921875 
Q 24.65625 65.921875 20.015625 65.03125 
Q 15.375 64.15625 9.8125 62.3125 
L 9.8125 71.09375 
Q 15.4375 72.65625 20.34375 73.4375 
Q 25.25 74.21875 29.59375 74.21875 
Q 40.828125 74.21875 47.359375 69.109375 
Q 53.90625 64.015625 53.90625 55.328125 
Q 53.90625 49.265625 50.4375 45.09375 
Q 46.96875 40.921875 40.578125 39.3125 
z
" id="DejaVuSans-51"/>
     </defs>
     <g style="fill:#262626;" transform="translate(740.1 209.430328)scale(0.165 -0.165)">
      <use xlink:href="#DejaVuSans-77"/>
      <use x="86.279297" xlink:href="#DejaVuSans-65"/>
      <use x="154.6875" xlink:href="#DejaVuSans-72"/>
      <use x="229.882812" xlink:href="#DejaVuSans-82"/>
      <use x="299.365234" xlink:href="#DejaVuSans-76"/>
      <use x="355.078125" xlink:href="#DejaVuSans-40"/>
      <use x="394.091797" xlink:href="#DejaVuSans-84"/>
      <use x="455.175781" xlink:href="#DejaVuSans-68"/>
      <use x="532.177734" xlink:href="#DejaVuSans-51"/>
      <use x="595.800781" xlink:href="#DejaVuSans-41"/>
     </g>
    </g>
   </g>
  </g>
 </g>
 <defs>
  <clipPath id="p60007174ce">
   <rect height="443.52" width="837" x="135" y="69.12"/>
  </clipPath>
 </defs>
</svg>
