<?xml version="1.0" encoding="utf-8" standalone="no"?>
<!DOCTYPE svg PUBLIC "-//W3C//DTD SVG 1.1//EN"
  "http://www.w3.org/Graphics/SVG/1.1/DTD/svg11.dtd">
<!-- Created with matplotlib (https://matplotlib.org/) -->
<svg height="576pt" version="1.1" viewBox="0 0 1080 576" width="1080pt" xmlns="http://www.w3.org/2000/svg" xmlns:xlink="http://www.w3.org/1999/xlink">
 <defs>
  <style type="text/css">
*{stroke-linecap:butt;stroke-linejoin:round;}
  </style>
 </defs>
 <g id="figure_1">
  <g id="patch_1">
   <path d="M 0 576 
L 1080 576 
L 1080 0 
L 0 0 
z
" style="fill:#ffffff;"/>
  </g>
  <g id="axes_1">
   <g id="patch_2">
    <path d="M 135 512.64 
L 972 512.64 
L 972 69.12 
L 135 69.12 
z
" style="fill:#eaeaf2;"/>
   </g>
   <g id="matplotlib.axis_1">
    <g id="xtick_1">
     <g id="line2d_1">
      <path clip-path="url(#p79afd7265c)" d="M 164.683816 512.64 
L 164.683816 69.12 
" style="fill:none;stroke:#ffffff;stroke-linecap:round;"/>
     </g>
     <g id="text_1">
      <!-- 0.0 -->
      <defs>
       <path d="M 31.78125 66.40625 
Q 24.171875 66.40625 20.328125 58.90625 
Q 16.5 51.421875 16.5 36.375 
Q 16.5 21.390625 20.328125 13.890625 
Q 24.171875 6.390625 31.78125 6.390625 
Q 39.453125 6.390625 43.28125 13.890625 
Q 47.125 21.390625 47.125 36.375 
Q 47.125 51.421875 43.28125 58.90625 
Q 39.453125 66.40625 31.78125 66.40625 
z
M 31.78125 74.21875 
Q 44.046875 74.21875 50.515625 64.515625 
Q 56.984375 54.828125 56.984375 36.375 
Q 56.984375 17.96875 50.515625 8.265625 
Q 44.046875 -1.421875 31.78125 -1.421875 
Q 19.53125 -1.421875 13.0625 8.265625 
Q 6.59375 17.96875 6.59375 36.375 
Q 6.59375 54.828125 13.0625 64.515625 
Q 19.53125 74.21875 31.78125 74.21875 
z
" id="DejaVuSans-48"/>
       <path d="M 10.6875 12.40625 
L 21 12.40625 
L 21 0 
L 10.6875 0 
z
" id="DejaVuSans-46"/>
      </defs>
      <g style="fill:#262626;" transform="translate(151.563738 534.677422)scale(0.165 -0.165)">
       <use xlink:href="#DejaVuSans-48"/>
       <use x="63.623047" xlink:href="#DejaVuSans-46"/>
       <use x="95.410156" xlink:href="#DejaVuSans-48"/>
      </g>
     </g>
    </g>
    <g id="xtick_2">
     <g id="line2d_2">
      <path clip-path="url(#p79afd7265c)" d="M 269.204296 512.64 
L 269.204296 69.12 
" style="fill:none;stroke:#ffffff;stroke-linecap:round;"/>
     </g>
     <g id="text_2">
      <!-- 0.2 -->
      <defs>
       <path d="M 19.1875 8.296875 
L 53.609375 8.296875 
L 53.609375 0 
L 7.328125 0 
L 7.328125 8.296875 
Q 12.9375 14.109375 22.625 23.890625 
Q 32.328125 33.6875 34.8125 36.53125 
Q 39.546875 41.84375 41.421875 45.53125 
Q 43.3125 49.21875 43.3125 52.78125 
Q 43.3125 58.59375 39.234375 62.25 
Q 35.15625 65.921875 28.609375 65.921875 
Q 23.96875 65.921875 18.8125 64.3125 
Q 13.671875 62.703125 7.8125 59.421875 
L 7.8125 69.390625 
Q 13.765625 71.78125 18.9375 73 
Q 24.125 74.21875 28.421875 74.21875 
Q 39.75 74.21875 46.484375 68.546875 
Q 53.21875 62.890625 53.21875 53.421875 
Q 53.21875 48.921875 51.53125 44.890625 
Q 49.859375 40.875 45.40625 35.40625 
Q 44.1875 33.984375 37.640625 27.21875 
Q 31.109375 20.453125 19.1875 8.296875 
z
" id="DejaVuSans-50"/>
      </defs>
      <g style="fill:#262626;" transform="translate(256.084218 534.677422)scale(0.165 -0.165)">
       <use xlink:href="#DejaVuSans-48"/>
       <use x="63.623047" xlink:href="#DejaVuSans-46"/>
       <use x="95.410156" xlink:href="#DejaVuSans-50"/>
      </g>
     </g>
    </g>
    <g id="xtick_3">
     <g id="line2d_3">
      <path clip-path="url(#p79afd7265c)" d="M 373.724775 512.64 
L 373.724775 69.12 
" style="fill:none;stroke:#ffffff;stroke-linecap:round;"/>
     </g>
     <g id="text_3">
      <!-- 0.4 -->
      <defs>
       <path d="M 37.796875 64.3125 
L 12.890625 25.390625 
L 37.796875 25.390625 
z
M 35.203125 72.90625 
L 47.609375 72.90625 
L 47.609375 25.390625 
L 58.015625 25.390625 
L 58.015625 17.1875 
L 47.609375 17.1875 
L 47.609375 0 
L 37.796875 0 
L 37.796875 17.1875 
L 4.890625 17.1875 
L 4.890625 26.703125 
z
" id="DejaVuSans-52"/>
      </defs>
      <g style="fill:#262626;" transform="translate(360.604697 534.677422)scale(0.165 -0.165)">
       <use xlink:href="#DejaVuSans-48"/>
       <use x="63.623047" xlink:href="#DejaVuSans-46"/>
       <use x="95.410156" xlink:href="#DejaVuSans-52"/>
      </g>
     </g>
    </g>
    <g id="xtick_4">
     <g id="line2d_4">
      <path clip-path="url(#p79afd7265c)" d="M 478.245255 512.64 
L 478.245255 69.12 
" style="fill:none;stroke:#ffffff;stroke-linecap:round;"/>
     </g>
     <g id="text_4">
      <!-- 0.6 -->
      <defs>
       <path d="M 33.015625 40.375 
Q 26.375 40.375 22.484375 35.828125 
Q 18.609375 31.296875 18.609375 23.390625 
Q 18.609375 15.53125 22.484375 10.953125 
Q 26.375 6.390625 33.015625 6.390625 
Q 39.65625 6.390625 43.53125 10.953125 
Q 47.40625 15.53125 47.40625 23.390625 
Q 47.40625 31.296875 43.53125 35.828125 
Q 39.65625 40.375 33.015625 40.375 
z
M 52.59375 71.296875 
L 52.59375 62.3125 
Q 48.875 64.0625 45.09375 64.984375 
Q 41.3125 65.921875 37.59375 65.921875 
Q 27.828125 65.921875 22.671875 59.328125 
Q 17.53125 52.734375 16.796875 39.40625 
Q 19.671875 43.65625 24.015625 45.921875 
Q 28.375 48.1875 33.59375 48.1875 
Q 44.578125 48.1875 50.953125 41.515625 
Q 57.328125 34.859375 57.328125 23.390625 
Q 57.328125 12.15625 50.6875 5.359375 
Q 44.046875 -1.421875 33.015625 -1.421875 
Q 20.359375 -1.421875 13.671875 8.265625 
Q 6.984375 17.96875 6.984375 36.375 
Q 6.984375 53.65625 15.1875 63.9375 
Q 23.390625 74.21875 37.203125 74.21875 
Q 40.921875 74.21875 44.703125 73.484375 
Q 48.484375 72.75 52.59375 71.296875 
z
" id="DejaVuSans-54"/>
      </defs>
      <g style="fill:#262626;" transform="translate(465.125177 534.677422)scale(0.165 -0.165)">
       <use xlink:href="#DejaVuSans-48"/>
       <use x="63.623047" xlink:href="#DejaVuSans-46"/>
       <use x="95.410156" xlink:href="#DejaVuSans-54"/>
      </g>
     </g>
    </g>
    <g id="xtick_5">
     <g id="line2d_5">
      <path clip-path="url(#p79afd7265c)" d="M 582.765734 512.64 
L 582.765734 69.12 
" style="fill:none;stroke:#ffffff;stroke-linecap:round;"/>
     </g>
     <g id="text_5">
      <!-- 0.8 -->
      <defs>
       <path d="M 31.78125 34.625 
Q 24.75 34.625 20.71875 30.859375 
Q 16.703125 27.09375 16.703125 20.515625 
Q 16.703125 13.921875 20.71875 10.15625 
Q 24.75 6.390625 31.78125 6.390625 
Q 38.8125 6.390625 42.859375 10.171875 
Q 46.921875 13.96875 46.921875 20.515625 
Q 46.921875 27.09375 42.890625 30.859375 
Q 38.875 34.625 31.78125 34.625 
z
M 21.921875 38.8125 
Q 15.578125 40.375 12.03125 44.71875 
Q 8.5 49.078125 8.5 55.328125 
Q 8.5 64.0625 14.71875 69.140625 
Q 20.953125 74.21875 31.78125 74.21875 
Q 42.671875 74.21875 48.875 69.140625 
Q 55.078125 64.0625 55.078125 55.328125 
Q 55.078125 49.078125 51.53125 44.71875 
Q 48 40.375 41.703125 38.8125 
Q 48.828125 37.15625 52.796875 32.3125 
Q 56.78125 27.484375 56.78125 20.515625 
Q 56.78125 9.90625 50.3125 4.234375 
Q 43.84375 -1.421875 31.78125 -1.421875 
Q 19.734375 -1.421875 13.25 4.234375 
Q 6.78125 9.90625 6.78125 20.515625 
Q 6.78125 27.484375 10.78125 32.3125 
Q 14.796875 37.15625 21.921875 38.8125 
z
M 18.3125 54.390625 
Q 18.3125 48.734375 21.84375 45.5625 
Q 25.390625 42.390625 31.78125 42.390625 
Q 38.140625 42.390625 41.71875 45.5625 
Q 45.3125 48.734375 45.3125 54.390625 
Q 45.3125 60.0625 41.71875 63.234375 
Q 38.140625 66.40625 31.78125 66.40625 
Q 25.390625 66.40625 21.84375 63.234375 
Q 18.3125 60.0625 18.3125 54.390625 
z
" id="DejaVuSans-56"/>
      </defs>
      <g style="fill:#262626;" transform="translate(569.645656 534.677422)scale(0.165 -0.165)">
       <use xlink:href="#DejaVuSans-48"/>
       <use x="63.623047" xlink:href="#DejaVuSans-46"/>
       <use x="95.410156" xlink:href="#DejaVuSans-56"/>
      </g>
     </g>
    </g>
    <g id="xtick_6">
     <g id="line2d_6">
      <path clip-path="url(#p79afd7265c)" d="M 687.286214 512.64 
L 687.286214 69.12 
" style="fill:none;stroke:#ffffff;stroke-linecap:round;"/>
     </g>
     <g id="text_6">
      <!-- 1.0 -->
      <defs>
       <path d="M 12.40625 8.296875 
L 28.515625 8.296875 
L 28.515625 63.921875 
L 10.984375 60.40625 
L 10.984375 69.390625 
L 28.421875 72.90625 
L 38.28125 72.90625 
L 38.28125 8.296875 
L 54.390625 8.296875 
L 54.390625 0 
L 12.40625 0 
z
" id="DejaVuSans-49"/>
      </defs>
      <g style="fill:#262626;" transform="translate(674.166136 534.677422)scale(0.165 -0.165)">
       <use xlink:href="#DejaVuSans-49"/>
       <use x="63.623047" xlink:href="#DejaVuSans-46"/>
       <use x="95.410156" xlink:href="#DejaVuSans-48"/>
      </g>
     </g>
    </g>
    <g id="xtick_7">
     <g id="line2d_7">
      <path clip-path="url(#p79afd7265c)" d="M 791.806693 512.64 
L 791.806693 69.12 
" style="fill:none;stroke:#ffffff;stroke-linecap:round;"/>
     </g>
     <g id="text_7">
      <!-- 1.2 -->
      <g style="fill:#262626;" transform="translate(778.686615 534.677422)scale(0.165 -0.165)">
       <use xlink:href="#DejaVuSans-49"/>
       <use x="63.623047" xlink:href="#DejaVuSans-46"/>
       <use x="95.410156" xlink:href="#DejaVuSans-50"/>
      </g>
     </g>
    </g>
    <g id="xtick_8">
     <g id="line2d_8">
      <path clip-path="url(#p79afd7265c)" d="M 896.327173 512.64 
L 896.327173 69.12 
" style="fill:none;stroke:#ffffff;stroke-linecap:round;"/>
     </g>
     <g id="text_8">
      <!-- 1.4 -->
      <g style="fill:#262626;" transform="translate(883.207095 534.677422)scale(0.165 -0.165)">
       <use xlink:href="#DejaVuSans-49"/>
       <use x="63.623047" xlink:href="#DejaVuSans-46"/>
       <use x="95.410156" xlink:href="#DejaVuSans-52"/>
      </g>
     </g>
    </g>
    <g id="text_9">
     <!--  Env Steps  -->
     <defs>
      <path id="DejaVuSans-32"/>
      <path d="M 9.8125 72.90625 
L 55.90625 72.90625 
L 55.90625 64.59375 
L 19.671875 64.59375 
L 19.671875 43.015625 
L 54.390625 43.015625 
L 54.390625 34.71875 
L 19.671875 34.71875 
L 19.671875 8.296875 
L 56.78125 8.296875 
L 56.78125 0 
L 9.8125 0 
z
" id="DejaVuSans-69"/>
      <path d="M 54.890625 33.015625 
L 54.890625 0 
L 45.90625 0 
L 45.90625 32.71875 
Q 45.90625 40.484375 42.875 44.328125 
Q 39.84375 48.1875 33.796875 48.1875 
Q 26.515625 48.1875 22.3125 43.546875 
Q 18.109375 38.921875 18.109375 30.90625 
L 18.109375 0 
L 9.078125 0 
L 9.078125 54.6875 
L 18.109375 54.6875 
L 18.109375 46.1875 
Q 21.34375 51.125 25.703125 53.5625 
Q 30.078125 56 35.796875 56 
Q 45.21875 56 50.046875 50.171875 
Q 54.890625 44.34375 54.890625 33.015625 
z
" id="DejaVuSans-110"/>
      <path d="M 2.984375 54.6875 
L 12.5 54.6875 
L 29.59375 8.796875 
L 46.6875 54.6875 
L 56.203125 54.6875 
L 35.6875 0 
L 23.484375 0 
z
" id="DejaVuSans-118"/>
      <path d="M 53.515625 70.515625 
L 53.515625 60.890625 
Q 47.90625 63.578125 42.921875 64.890625 
Q 37.9375 66.21875 33.296875 66.21875 
Q 25.25 66.21875 20.875 63.09375 
Q 16.5 59.96875 16.5 54.203125 
Q 16.5 49.359375 19.40625 46.890625 
Q 22.3125 44.4375 30.421875 42.921875 
L 36.375 41.703125 
Q 47.40625 39.59375 52.65625 34.296875 
Q 57.90625 29 57.90625 20.125 
Q 57.90625 9.515625 50.796875 4.046875 
Q 43.703125 -1.421875 29.984375 -1.421875 
Q 24.8125 -1.421875 18.96875 -0.25 
Q 13.140625 0.921875 6.890625 3.21875 
L 6.890625 13.375 
Q 12.890625 10.015625 18.65625 8.296875 
Q 24.421875 6.59375 29.984375 6.59375 
Q 38.421875 6.59375 43.015625 9.90625 
Q 47.609375 13.234375 47.609375 19.390625 
Q 47.609375 24.75 44.3125 27.78125 
Q 41.015625 30.8125 33.5 32.328125 
L 27.484375 33.5 
Q 16.453125 35.6875 11.515625 40.375 
Q 6.59375 45.0625 6.59375 53.421875 
Q 6.59375 63.09375 13.40625 68.65625 
Q 20.21875 74.21875 32.171875 74.21875 
Q 37.3125 74.21875 42.625 73.28125 
Q 47.953125 72.359375 53.515625 70.515625 
z
" id="DejaVuSans-83"/>
      <path d="M 18.3125 70.21875 
L 18.3125 54.6875 
L 36.8125 54.6875 
L 36.8125 47.703125 
L 18.3125 47.703125 
L 18.3125 18.015625 
Q 18.3125 11.328125 20.140625 9.421875 
Q 21.96875 7.515625 27.59375 7.515625 
L 36.8125 7.515625 
L 36.8125 0 
L 27.59375 0 
Q 17.1875 0 13.234375 3.875 
Q 9.28125 7.765625 9.28125 18.015625 
L 9.28125 47.703125 
L 2.6875 47.703125 
L 2.6875 54.6875 
L 9.28125 54.6875 
L 9.28125 70.21875 
z
" id="DejaVuSans-116"/>
      <path d="M 56.203125 29.59375 
L 56.203125 25.203125 
L 14.890625 25.203125 
Q 15.484375 15.921875 20.484375 11.0625 
Q 25.484375 6.203125 34.421875 6.203125 
Q 39.59375 6.203125 44.453125 7.46875 
Q 49.3125 8.734375 54.109375 11.28125 
L 54.109375 2.78125 
Q 49.265625 0.734375 44.1875 -0.34375 
Q 39.109375 -1.421875 33.890625 -1.421875 
Q 20.796875 -1.421875 13.15625 6.1875 
Q 5.515625 13.8125 5.515625 26.8125 
Q 5.515625 40.234375 12.765625 48.109375 
Q 20.015625 56 32.328125 56 
Q 43.359375 56 49.78125 48.890625 
Q 56.203125 41.796875 56.203125 29.59375 
z
M 47.21875 32.234375 
Q 47.125 39.59375 43.09375 43.984375 
Q 39.0625 48.390625 32.421875 48.390625 
Q 24.90625 48.390625 20.390625 44.140625 
Q 15.875 39.890625 15.1875 32.171875 
z
" id="DejaVuSans-101"/>
      <path d="M 18.109375 8.203125 
L 18.109375 -20.796875 
L 9.078125 -20.796875 
L 9.078125 54.6875 
L 18.109375 54.6875 
L 18.109375 46.390625 
Q 20.953125 51.265625 25.265625 53.625 
Q 29.59375 56 35.59375 56 
Q 45.5625 56 51.78125 48.09375 
Q 58.015625 40.1875 58.015625 27.296875 
Q 58.015625 14.40625 51.78125 6.484375 
Q 45.5625 -1.421875 35.59375 -1.421875 
Q 29.59375 -1.421875 25.265625 0.953125 
Q 20.953125 3.328125 18.109375 8.203125 
z
M 48.6875 27.296875 
Q 48.6875 37.203125 44.609375 42.84375 
Q 40.53125 48.484375 33.40625 48.484375 
Q 26.265625 48.484375 22.1875 42.84375 
Q 18.109375 37.203125 18.109375 27.296875 
Q 18.109375 17.390625 22.1875 11.75 
Q 26.265625 6.109375 33.40625 6.109375 
Q 40.53125 6.109375 44.609375 11.75 
Q 48.6875 17.390625 48.6875 27.296875 
z
" id="DejaVuSans-112"/>
      <path d="M 44.28125 53.078125 
L 44.28125 44.578125 
Q 40.484375 46.53125 36.375 47.5 
Q 32.28125 48.484375 27.875 48.484375 
Q 21.1875 48.484375 17.84375 46.4375 
Q 14.5 44.390625 14.5 40.28125 
Q 14.5 37.15625 16.890625 35.375 
Q 19.28125 33.59375 26.515625 31.984375 
L 29.59375 31.296875 
Q 39.15625 29.25 43.1875 25.515625 
Q 47.21875 21.78125 47.21875 15.09375 
Q 47.21875 7.46875 41.1875 3.015625 
Q 35.15625 -1.421875 24.609375 -1.421875 
Q 20.21875 -1.421875 15.453125 -0.5625 
Q 10.6875 0.296875 5.421875 2 
L 5.421875 11.28125 
Q 10.40625 8.6875 15.234375 7.390625 
Q 20.0625 6.109375 24.8125 6.109375 
Q 31.15625 6.109375 34.5625 8.28125 
Q 37.984375 10.453125 37.984375 14.40625 
Q 37.984375 18.0625 35.515625 20.015625 
Q 33.0625 21.96875 24.703125 23.78125 
L 21.578125 24.515625 
Q 13.234375 26.265625 9.515625 29.90625 
Q 5.8125 33.546875 5.8125 39.890625 
Q 5.8125 47.609375 11.28125 51.796875 
Q 16.75 56 26.8125 56 
Q 31.78125 56 36.171875 55.265625 
Q 40.578125 54.546875 44.28125 53.078125 
z
" id="DejaVuSans-115"/>
     </defs>
     <g style="fill:#262626;" transform="translate(503.019844 555.786094)scale(0.18 -0.18)">
      <use xlink:href="#DejaVuSans-32"/>
      <use x="31.787109" xlink:href="#DejaVuSans-69"/>
      <use x="94.970703" xlink:href="#DejaVuSans-110"/>
      <use x="158.349609" xlink:href="#DejaVuSans-118"/>
      <use x="217.529297" xlink:href="#DejaVuSans-32"/>
      <use x="249.316406" xlink:href="#DejaVuSans-83"/>
      <use x="312.792969" xlink:href="#DejaVuSans-116"/>
      <use x="352.001953" xlink:href="#DejaVuSans-101"/>
      <use x="413.525391" xlink:href="#DejaVuSans-112"/>
      <use x="477.001953" xlink:href="#DejaVuSans-115"/>
      <use x="529.101562" xlink:href="#DejaVuSans-32"/>
     </g>
    </g>
    <g id="text_10">
     <!-- 1e6 -->
     <g style="fill:#262626;" transform="translate(940.851094 553.646328)scale(0.165 -0.165)">
      <use xlink:href="#DejaVuSans-49"/>
      <use x="63.623047" xlink:href="#DejaVuSans-101"/>
      <use x="125.146484" xlink:href="#DejaVuSans-54"/>
     </g>
    </g>
   </g>
   <g id="matplotlib.axis_2">
    <g id="ytick_1">
     <g id="line2d_9">
      <path clip-path="url(#p79afd7265c)" d="M 135 454.173054 
L 972 454.173054 
" style="fill:none;stroke:#ffffff;stroke-linecap:round;"/>
     </g>
     <g id="text_11">
      <!-- −8 -->
      <defs>
       <path d="M 10.59375 35.5 
L 73.1875 35.5 
L 73.1875 27.203125 
L 10.59375 27.203125 
z
" id="DejaVuSans-8722"/>
      </defs>
      <g style="fill:#262626;" transform="translate(101.175391 460.441764)scale(0.165 -0.165)">
       <use xlink:href="#DejaVuSans-8722"/>
       <use x="83.789062" xlink:href="#DejaVuSans-56"/>
      </g>
     </g>
    </g>
    <g id="ytick_2">
     <g id="line2d_10">
      <path clip-path="url(#p79afd7265c)" d="M 135 361.954235 
L 972 361.954235 
" style="fill:none;stroke:#ffffff;stroke-linecap:round;"/>
     </g>
     <g id="text_12">
      <!-- −6 -->
      <g style="fill:#262626;" transform="translate(101.175391 368.222946)scale(0.165 -0.165)">
       <use xlink:href="#DejaVuSans-8722"/>
       <use x="83.789062" xlink:href="#DejaVuSans-54"/>
      </g>
     </g>
    </g>
    <g id="ytick_3">
     <g id="line2d_11">
      <path clip-path="url(#p79afd7265c)" d="M 135 269.735416 
L 972 269.735416 
" style="fill:none;stroke:#ffffff;stroke-linecap:round;"/>
     </g>
     <g id="text_13">
      <!-- −4 -->
      <g style="fill:#262626;" transform="translate(101.175391 276.004127)scale(0.165 -0.165)">
       <use xlink:href="#DejaVuSans-8722"/>
       <use x="83.789062" xlink:href="#DejaVuSans-52"/>
      </g>
     </g>
    </g>
    <g id="ytick_4">
     <g id="line2d_12">
      <path clip-path="url(#p79afd7265c)" d="M 135 177.516598 
L 972 177.516598 
" style="fill:none;stroke:#ffffff;stroke-linecap:round;"/>
     </g>
     <g id="text_14">
      <!-- −2 -->
      <g style="fill:#262626;" transform="translate(101.175391 183.785308)scale(0.165 -0.165)">
       <use xlink:href="#DejaVuSans-8722"/>
       <use x="83.789062" xlink:href="#DejaVuSans-50"/>
      </g>
     </g>
    </g>
    <g id="ytick_5">
     <g id="line2d_13">
      <path clip-path="url(#p79afd7265c)" d="M 135 85.297779 
L 972 85.297779 
" style="fill:none;stroke:#ffffff;stroke-linecap:round;"/>
     </g>
     <g id="text_15">
      <!-- 0 -->
      <g style="fill:#262626;" transform="translate(115.001875 91.56649)scale(0.165 -0.165)">
       <use xlink:href="#DejaVuSans-48"/>
      </g>
     </g>
    </g>
    <g id="text_16">
     <!--  Mean Reward  -->
     <defs>
      <path d="M 9.8125 72.90625 
L 24.515625 72.90625 
L 43.109375 23.296875 
L 61.8125 72.90625 
L 76.515625 72.90625 
L 76.515625 0 
L 66.890625 0 
L 66.890625 64.015625 
L 48.09375 14.015625 
L 38.1875 14.015625 
L 19.390625 64.015625 
L 19.390625 0 
L 9.8125 0 
z
" id="DejaVuSans-77"/>
      <path d="M 34.28125 27.484375 
Q 23.390625 27.484375 19.1875 25 
Q 14.984375 22.515625 14.984375 16.5 
Q 14.984375 11.71875 18.140625 8.90625 
Q 21.296875 6.109375 26.703125 6.109375 
Q 34.1875 6.109375 38.703125 11.40625 
Q 43.21875 16.703125 43.21875 25.484375 
L 43.21875 27.484375 
z
M 52.203125 31.203125 
L 52.203125 0 
L 43.21875 0 
L 43.21875 8.296875 
Q 40.140625 3.328125 35.546875 0.953125 
Q 30.953125 -1.421875 24.3125 -1.421875 
Q 15.921875 -1.421875 10.953125 3.296875 
Q 6 8.015625 6 15.921875 
Q 6 25.140625 12.171875 29.828125 
Q 18.359375 34.515625 30.609375 34.515625 
L 43.21875 34.515625 
L 43.21875 35.40625 
Q 43.21875 41.609375 39.140625 45 
Q 35.0625 48.390625 27.6875 48.390625 
Q 23 48.390625 18.546875 47.265625 
Q 14.109375 46.140625 10.015625 43.890625 
L 10.015625 52.203125 
Q 14.9375 54.109375 19.578125 55.046875 
Q 24.21875 56 28.609375 56 
Q 40.484375 56 46.34375 49.84375 
Q 52.203125 43.703125 52.203125 31.203125 
z
" id="DejaVuSans-97"/>
      <path d="M 44.390625 34.1875 
Q 47.5625 33.109375 50.5625 29.59375 
Q 53.5625 26.078125 56.59375 19.921875 
L 66.609375 0 
L 56 0 
L 46.6875 18.703125 
Q 43.0625 26.03125 39.671875 28.421875 
Q 36.28125 30.8125 30.421875 30.8125 
L 19.671875 30.8125 
L 19.671875 0 
L 9.8125 0 
L 9.8125 72.90625 
L 32.078125 72.90625 
Q 44.578125 72.90625 50.734375 67.671875 
Q 56.890625 62.453125 56.890625 51.90625 
Q 56.890625 45.015625 53.6875 40.46875 
Q 50.484375 35.9375 44.390625 34.1875 
z
M 19.671875 64.796875 
L 19.671875 38.921875 
L 32.078125 38.921875 
Q 39.203125 38.921875 42.84375 42.21875 
Q 46.484375 45.515625 46.484375 51.90625 
Q 46.484375 58.296875 42.84375 61.546875 
Q 39.203125 64.796875 32.078125 64.796875 
z
" id="DejaVuSans-82"/>
      <path d="M 4.203125 54.6875 
L 13.1875 54.6875 
L 24.421875 12.015625 
L 35.59375 54.6875 
L 46.1875 54.6875 
L 57.421875 12.015625 
L 68.609375 54.6875 
L 77.59375 54.6875 
L 63.28125 0 
L 52.6875 0 
L 40.921875 44.828125 
L 29.109375 0 
L 18.5 0 
z
" id="DejaVuSans-119"/>
      <path d="M 41.109375 46.296875 
Q 39.59375 47.171875 37.8125 47.578125 
Q 36.03125 48 33.890625 48 
Q 26.265625 48 22.1875 43.046875 
Q 18.109375 38.09375 18.109375 28.8125 
L 18.109375 0 
L 9.078125 0 
L 9.078125 54.6875 
L 18.109375 54.6875 
L 18.109375 46.1875 
Q 20.953125 51.171875 25.484375 53.578125 
Q 30.03125 56 36.53125 56 
Q 37.453125 56 38.578125 55.875 
Q 39.703125 55.765625 41.0625 55.515625 
z
" id="DejaVuSans-114"/>
      <path d="M 45.40625 46.390625 
L 45.40625 75.984375 
L 54.390625 75.984375 
L 54.390625 0 
L 45.40625 0 
L 45.40625 8.203125 
Q 42.578125 3.328125 38.25 0.953125 
Q 33.9375 -1.421875 27.875 -1.421875 
Q 17.96875 -1.421875 11.734375 6.484375 
Q 5.515625 14.40625 5.515625 27.296875 
Q 5.515625 40.1875 11.734375 48.09375 
Q 17.96875 56 27.875 56 
Q 33.9375 56 38.25 53.625 
Q 42.578125 51.265625 45.40625 46.390625 
z
M 14.796875 27.296875 
Q 14.796875 17.390625 18.875 11.75 
Q 22.953125 6.109375 30.078125 6.109375 
Q 37.203125 6.109375 41.296875 11.75 
Q 45.40625 17.390625 45.40625 27.296875 
Q 45.40625 37.203125 41.296875 42.84375 
Q 37.203125 48.484375 30.078125 48.484375 
Q 22.953125 48.484375 18.875 42.84375 
Q 14.796875 37.203125 14.796875 27.296875 
z
" id="DejaVuSans-100"/>
     </defs>
     <g style="fill:#262626;" transform="translate(93.431953 358.056562)rotate(-90)scale(0.18 -0.18)">
      <use xlink:href="#DejaVuSans-32"/>
      <use x="31.787109" xlink:href="#DejaVuSans-77"/>
      <use x="118.066406" xlink:href="#DejaVuSans-101"/>
      <use x="179.589844" xlink:href="#DejaVuSans-97"/>
      <use x="240.869141" xlink:href="#DejaVuSans-110"/>
      <use x="304.248047" xlink:href="#DejaVuSans-32"/>
      <use x="336.035156" xlink:href="#DejaVuSans-82"/>
      <use x="405.455078" xlink:href="#DejaVuSans-101"/>
      <use x="466.978516" xlink:href="#DejaVuSans-119"/>
      <use x="548.765625" xlink:href="#DejaVuSans-97"/>
      <use x="610.044922" xlink:href="#DejaVuSans-114"/>
      <use x="651.142578" xlink:href="#DejaVuSans-100"/>
      <use x="714.619141" xlink:href="#DejaVuSans-32"/>
     </g>
    </g>
   </g>
   <g id="PolyCollection_1">
    <defs>
     <path d="M 173.045455 -344.459364 
L 173.045455 -153.468946 
L 181.407093 -242.871849 
L 189.768731 -292.970935 
L 198.13037 -308.317598 
L 206.492008 -362.077473 
L 214.853646 -405.266886 
L 223.215285 -386.19617 
L 231.576923 -407.842104 
L 239.938561 -430.753911 
L 248.3002 -436.312006 
L 256.661838 -450.481871 
L 265.023477 -442.873112 
L 273.385115 -419.566386 
L 281.746753 -386.056199 
L 290.108392 -398.881153 
L 298.47003 -389.561325 
L 306.831668 -417.330608 
L 315.193307 -429.277836 
L 323.554945 -407.414492 
L 331.916583 -386.308187 
L 340.278222 -388.446644 
L 348.63986 -381.963119 
L 357.001499 -353.323923 
L 365.363137 -358.657934 
L 373.724775 -356.785617 
L 382.086414 -360.823892 
L 390.448052 -352.947254 
L 398.80969 -372.922156 
L 407.171329 -372.630918 
L 415.532967 -413.983311 
L 423.894605 -399.917359 
L 432.256244 -384.475285 
L 440.617882 -389.104867 
L 448.97952 -406.712054 
L 457.341159 -410.531902 
L 465.702797 -421.375856 
L 474.064436 -423.907329 
L 482.426074 -419.174155 
L 490.787712 -388.094715 
L 499.149351 -341.910133 
L 507.510989 -309.322264 
L 515.872627 -264.648159 
L 524.234266 -248.894877 
L 532.595904 -244.040329 
L 540.957542 -245.309402 
L 549.319181 -283.062962 
L 557.680819 -297.471102 
L 566.042458 -297.483321 
L 574.404096 -304.076921 
L 582.765734 -310.789314 
L 591.127373 -321.780105 
L 599.489011 -312.067269 
L 607.850649 -309.135152 
L 616.212288 -318.595773 
L 624.573926 -322.375461 
L 632.935564 -322.50071 
L 641.297203 -341.188402 
L 649.658841 -345.418427 
L 658.02048 -360.728513 
L 666.382118 -359.349779 
L 674.743756 -356.628831 
L 683.105395 -378.65525 
L 691.467033 -358.676816 
L 699.828671 -345.199186 
L 708.19031 -355.30148 
L 716.551948 -352.241993 
L 724.913586 -331.154083 
L 733.275225 -322.978731 
L 741.636863 -294.242997 
L 749.998501 -288.066923 
L 758.36014 -297.269742 
L 766.721778 -313.123863 
L 775.083417 -361.654572 
L 783.445055 -371.560526 
L 791.806693 -329.224081 
L 800.168332 -350.497812 
L 808.52997 -343.251658 
L 816.891608 -312.544897 
L 825.253247 -300.979349 
L 833.614885 -294.325209 
L 841.976523 -283.019975 
L 850.338162 -277.549144 
L 858.6998 -275.440114 
L 867.061439 -239.227681 
L 875.423077 -246.930859 
L 883.784715 -262.057108 
L 892.146354 -244.752593 
L 900.507992 -238.088126 
L 908.86963 -294.057852 
L 917.231269 -261.958175 
L 925.592907 -205.880104 
L 933.954545 -247.273905 
L 933.954545 -382.503978 
L 933.954545 -382.503978 
L 925.592907 -385.415694 
L 917.231269 -406.968874 
L 908.86963 -430.3395 
L 900.507992 -428.701908 
L 892.146354 -432.597374 
L 883.784715 -433.116527 
L 875.423077 -462.717853 
L 867.061439 -465.618821 
L 858.6998 -453.800555 
L 850.338162 -447.3327 
L 841.976523 -465.48361 
L 833.614885 -457.901819 
L 825.253247 -451.383841 
L 816.891608 -461.495374 
L 808.52997 -451.476512 
L 800.168332 -447.070825 
L 791.806693 -449.445835 
L 783.445055 -441.164133 
L 775.083417 -425.572609 
L 766.721778 -432.471991 
L 758.36014 -435.967204 
L 749.998501 -428.375666 
L 741.636863 -430.664659 
L 733.275225 -443.916845 
L 724.913586 -443.321851 
L 716.551948 -431.468252 
L 708.19031 -426.895573 
L 699.828671 -401.541818 
L 691.467033 -399.569325 
L 683.105395 -402.798168 
L 674.743756 -412.769366 
L 666.382118 -397.594585 
L 658.02048 -403.285048 
L 649.658841 -409.604313 
L 641.297203 -394.526343 
L 632.935564 -391.898907 
L 624.573926 -414.588627 
L 616.212288 -422.520819 
L 607.850649 -430.508542 
L 599.489011 -440.137185 
L 591.127373 -454.465024 
L 582.765734 -457.476034 
L 574.404096 -445.130872 
L 566.042458 -449.948535 
L 557.680819 -451.124084 
L 549.319181 -446.292657 
L 540.957542 -446.996203 
L 532.595904 -454.315924 
L 524.234266 -428.206665 
L 515.872627 -436.332 
L 507.510989 -448.339421 
L 499.149351 -442.974133 
L 490.787712 -430.774843 
L 482.426074 -479.751138 
L 474.064436 -475.874191 
L 465.702797 -473.223148 
L 457.341159 -474.593605 
L 448.97952 -474.806294 
L 440.617882 -473.723259 
L 432.256244 -475.291012 
L 423.894605 -479.413435 
L 415.532967 -483.681131 
L 407.171329 -478.863628 
L 398.80969 -475.536345 
L 390.448052 -451.243807 
L 382.086414 -450.595469 
L 373.724775 -434.430332 
L 365.363137 -430.598331 
L 357.001499 -440.229275 
L 348.63986 -466.322384 
L 340.278222 -476.285621 
L 331.916583 -470.547139 
L 323.554945 -486.72 
L 315.193307 -452.826377 
L 306.831668 -442.340716 
L 298.47003 -434.456162 
L 290.108392 -463.791123 
L 281.746753 -477.236194 
L 273.385115 -469.827483 
L 265.023477 -474.220037 
L 256.661838 -473.506963 
L 248.3002 -458.549088 
L 239.938561 -463.029547 
L 231.576923 -465.379702 
L 223.215285 -463.385712 
L 214.853646 -472.619869 
L 206.492008 -472.603369 
L 198.13037 -468.7515 
L 189.768731 -429.363262 
L 181.407093 -408.105528 
L 173.045455 -344.459364 
z
" id="md2aeb30983" style="stroke:#4c72b0;stroke-opacity:0.2;"/>
    </defs>
    <g clip-path="url(#p79afd7265c)">
     <use style="fill:#4c72b0;fill-opacity:0.2;stroke:#4c72b0;stroke-opacity:0.2;" x="0" xlink:href="#md2aeb30983" y="576"/>
    </g>
   </g>
   <g id="PolyCollection_2">
    <defs>
     <path d="M 173.045455 -253.195198 
L 173.045455 -192.813976 
L 181.407093 -196.140204 
L 189.768731 -227.653492 
L 198.13037 -226.165244 
L 206.492008 -212.90518 
L 214.853646 -237.181252 
L 223.215285 -239.702149 
L 231.576923 -211.555299 
L 239.938561 -239.64621 
L 248.3002 -251.942943 
L 256.661838 -272.883821 
L 265.023477 -286.241037 
L 273.385115 -291.448622 
L 281.746753 -307.582887 
L 290.108392 -308.266146 
L 298.47003 -319.068219 
L 306.831668 -323.78425 
L 315.193307 -323.691667 
L 323.554945 -343.994936 
L 331.916583 -367.050601 
L 340.278222 -354.749404 
L 348.63986 -341.959382 
L 357.001499 -362.071635 
L 365.363137 -361.384153 
L 373.724775 -356.356161 
L 382.086414 -350.150317 
L 390.448052 -339.304988 
L 398.80969 -340.619375 
L 407.171329 -339.075489 
L 415.532967 -334.327278 
L 423.894605 -326.71747 
L 432.256244 -339.56188 
L 440.617882 -347.554439 
L 448.97952 -327.719537 
L 457.341159 -354.394378 
L 465.702797 -361.152407 
L 474.064436 -346.748197 
L 482.426074 -350.049773 
L 490.787712 -362.957319 
L 499.149351 -357.15719 
L 507.510989 -349.974848 
L 515.872627 -363.032013 
L 524.234266 -347.221316 
L 532.595904 -317.499429 
L 540.957542 -317.704312 
L 549.319181 -321.53784 
L 557.680819 -321.332456 
L 566.042458 -327.766017 
L 574.404096 -357.394061 
L 582.765734 -368.998849 
L 591.127373 -386.457075 
L 599.489011 -374.564533 
L 607.850649 -383.874952 
L 616.212288 -395.846338 
L 624.573926 -401.956452 
L 632.935564 -390.168365 
L 641.297203 -393.966607 
L 649.658841 -374.205973 
L 658.02048 -353.74829 
L 666.382118 -327.959235 
L 674.743756 -327.891987 
L 683.105395 -321.647973 
L 691.467033 -322.938369 
L 699.828671 -348.938422 
L 708.19031 -366.260373 
L 716.551948 -369.058546 
L 724.913586 -354.828239 
L 733.275225 -355.193092 
L 741.636863 -349.657826 
L 749.998501 -345.853935 
L 758.36014 -321.383342 
L 766.721778 -359.1519 
L 775.083417 -338.959404 
L 783.445055 -329.61139 
L 791.806693 -349.325 
L 800.168332 -359.532981 
L 808.52997 -366.671661 
L 816.891608 -383.524238 
L 825.253247 -389.146642 
L 833.614885 -371.420175 
L 841.976523 -377.000116 
L 850.338162 -375.864075 
L 858.6998 -377.763032 
L 867.061439 -372.59816 
L 875.423077 -390.438138 
L 883.784715 -376.052637 
L 892.146354 -355.545867 
L 900.507992 -342.861529 
L 908.86963 -368.633715 
L 917.231269 -377.008147 
L 925.592907 -375.530677 
L 933.954545 -379.346083 
L 933.954545 -394.982927 
L 933.954545 -394.982927 
L 925.592907 -378.458532 
L 917.231269 -377.945064 
L 908.86963 -389.720747 
L 900.507992 -387.977457 
L 892.146354 -399.842211 
L 883.784715 -395.919803 
L 875.423077 -399.500248 
L 867.061439 -379.398423 
L 858.6998 -387.839171 
L 850.338162 -376.543478 
L 841.976523 -382.077276 
L 833.614885 -384.76176 
L 825.253247 -399.636494 
L 816.891608 -395.662197 
L 808.52997 -388.705368 
L 800.168332 -390.587902 
L 791.806693 -387.837294 
L 783.445055 -388.191215 
L 775.083417 -366.829444 
L 766.721778 -385.037857 
L 758.36014 -370.302766 
L 749.998501 -347.754622 
L 741.636863 -351.59004 
L 733.275225 -355.322492 
L 724.913586 -360.062204 
L 716.551948 -391.750131 
L 708.19031 -378.464028 
L 699.828671 -378.00537 
L 691.467033 -365.157849 
L 683.105395 -341.540384 
L 674.743756 -345.57496 
L 666.382118 -354.846444 
L 658.02048 -367.523209 
L 649.658841 -398.440787 
L 641.297203 -399.971296 
L 632.935564 -398.228286 
L 624.573926 -404.229727 
L 616.212288 -409.482417 
L 607.850649 -414.726123 
L 599.489011 -414.008184 
L 591.127373 -400.533596 
L 582.765734 -394.434156 
L 574.404096 -382.221904 
L 566.042458 -374.018224 
L 557.680819 -344.467782 
L 549.319181 -344.451104 
L 540.957542 -332.137171 
L 532.595904 -339.120289 
L 524.234266 -354.767595 
L 515.872627 -378.230295 
L 507.510989 -370.131826 
L 499.149351 -366.945973 
L 490.787712 -363.41106 
L 482.426074 -360.550343 
L 474.064436 -352.299066 
L 465.702797 -365.214684 
L 457.341159 -373.218084 
L 448.97952 -365.641699 
L 440.617882 -365.705243 
L 432.256244 -344.243165 
L 423.894605 -349.58819 
L 415.532967 -345.99061 
L 407.171329 -358.604402 
L 398.80969 -362.940916 
L 390.448052 -393.105141 
L 382.086414 -365.980996 
L 373.724775 -362.494429 
L 365.363137 -382.465616 
L 357.001499 -365.968458 
L 348.63986 -383.61941 
L 340.278222 -393.703259 
L 331.916583 -383.996308 
L 323.554945 -346.949788 
L 315.193307 -346.52955 
L 306.831668 -341.885646 
L 298.47003 -330.232139 
L 290.108392 -333.719049 
L 281.746753 -334.049231 
L 273.385115 -338.072385 
L 265.023477 -308.619015 
L 256.661838 -274.286128 
L 248.3002 -267.284985 
L 239.938561 -279.869278 
L 231.576923 -280.59096 
L 223.215285 -256.129939 
L 214.853646 -243.434783 
L 206.492008 -236.174268 
L 198.13037 -243.377452 
L 189.768731 -232.634559 
L 181.407093 -259.121973 
L 173.045455 -253.195198 
z
" id="m5c28f711f6" style="stroke:#1a1a1a;stroke-opacity:0.2;"/>
    </defs>
    <g clip-path="url(#p79afd7265c)">
     <use style="fill:#1a1a1a;fill-opacity:0.2;stroke:#1a1a1a;stroke-opacity:0.2;" x="0" xlink:href="#m5c28f711f6" y="576"/>
    </g>
   </g>
   <g id="line2d_14">
    <path clip-path="url(#p79afd7265c)" d="M 173.045455 336.14742 
L 181.407093 250.511311 
L 189.768731 214.832901 
L 198.13037 187.465451 
L 206.492008 155.203833 
L 214.853646 135.964169 
L 223.215285 150.017187 
L 231.576923 139.389097 
L 239.938561 131.780672 
L 248.3002 126.754647 
L 256.661838 115.300015 
L 265.023477 120.248764 
L 273.385115 132.523656 
L 281.746753 144.000743 
L 290.108392 144.663862 
L 298.47003 161.287831 
L 306.831668 148.070766 
L 315.193307 134.947894 
L 323.554945 128.932754 
L 331.916583 147.572337 
L 340.278222 143.633867 
L 348.63986 150.433627 
L 357.001499 177.624752 
L 365.363137 182.398289 
L 373.724775 179.292435 
L 382.086414 176.870513 
L 390.448052 173.967846 
L 398.80969 148.711637 
L 407.171329 138.395921 
L 415.532967 125.123325 
L 423.894605 139.486115 
L 432.256244 146.116852 
L 440.617882 144.585937 
L 448.97952 135.240826 
L 457.341159 133.388704 
L 465.702797 128.700498 
L 474.064436 122.059189 
L 482.426074 121.988835 
L 490.787712 166.565221 
L 499.149351 183.557867 
L 507.510989 197.169157 
L 515.872627 224.192115 
L 524.234266 238.789492 
L 532.595904 226.821874 
L 540.957542 230.640756 
L 549.319181 223.872263 
L 557.680819 213.755476 
L 566.042458 211.520551 
L 574.404096 204.18399 
L 582.765734 197.038553 
L 591.127373 183.156243 
L 599.489011 187.405931 
L 607.850649 195.906919 
L 616.212288 190.83176 
L 624.573926 197.652454 
L 632.935564 213.6211 
L 641.297203 202.994276 
L 649.658841 198.008047 
L 658.02048 193.993219 
L 666.382118 197.527818 
L 674.743756 191.864616 
L 683.105395 184.413843 
L 691.467033 194.227981 
L 699.828671 194.750271 
L 708.19031 184.901474 
L 716.551948 182.974121 
L 724.913586 190.371768 
L 733.275225 198.681878 
L 741.636863 216.617159 
L 749.998501 216.30689 
L 758.36014 211.824402 
L 766.721778 203.202073 
L 775.083417 182.386409 
L 783.445055 168.562759 
L 791.806693 175.812494 
L 800.168332 177.215682 
L 808.52997 178.635915 
L 816.891608 188.979865 
L 825.253247 199.818405 
L 833.614885 199.886486 
L 841.976523 201.748207 
L 850.338162 213.559078 
L 858.6998 215.314733 
L 867.061439 219.018127 
L 875.423077 222.307039 
L 883.784715 226.852629 
L 892.146354 248.547238 
L 900.507992 253.347136 
L 908.86963 230.459008 
L 917.231269 248.580909 
L 925.592907 258.546752 
L 933.954545 240.451589 
" style="fill:none;stroke:#4c72b0;stroke-dasharray:5.55,2.4;stroke-dashoffset:0;stroke-width:1.5;"/>
   </g>
   <g id="line2d_15">
    <path clip-path="url(#p79afd7265c)" d="M 173.045455 352.995413 
L 181.407093 348.368912 
L 189.768731 345.855974 
L 198.13037 341.228652 
L 206.492008 351.460276 
L 214.853646 335.691982 
L 223.215285 328.083956 
L 231.576923 329.92687 
L 239.938561 316.242256 
L 248.3002 316.386036 
L 256.661838 302.415025 
L 265.023477 278.569974 
L 273.385115 261.239497 
L 281.746753 255.183941 
L 290.108392 255.007403 
L 298.47003 251.349821 
L 306.831668 243.165052 
L 315.193307 240.889391 
L 323.554945 230.527638 
L 331.916583 200.476545 
L 340.278222 201.773668 
L 348.63986 213.210604 
L 357.001499 211.979954 
L 365.363137 204.075116 
L 373.724775 216.574705 
L 382.086414 217.934344 
L 390.448052 209.794936 
L 398.80969 224.219855 
L 407.171329 227.160055 
L 415.532967 235.841056 
L 423.894605 237.84717 
L 432.256244 234.097477 
L 440.617882 219.370159 
L 448.97952 229.319382 
L 457.341159 212.193769 
L 465.702797 212.816455 
L 474.064436 226.476368 
L 482.426074 220.699942 
L 490.787712 212.81581 
L 499.149351 213.948418 
L 507.510989 215.946663 
L 515.872627 205.368846 
L 524.234266 225.005545 
L 532.595904 247.690141 
L 540.957542 251.079258 
L 549.319181 243.005528 
L 557.680819 243.099881 
L 566.042458 225.10788 
L 574.404096 206.192018 
L 582.765734 194.283497 
L 591.127373 182.504665 
L 599.489011 181.713641 
L 607.850649 176.699463 
L 616.212288 173.335622 
L 624.573926 172.90691 
L 632.935564 181.801675 
L 641.297203 179.031049 
L 649.658841 189.67662 
L 658.02048 215.364251 
L 666.382118 234.597161 
L 674.743756 239.266527 
L 683.105395 244.405821 
L 691.467033 231.951891 
L 699.828671 212.528104 
L 708.19031 203.6378 
L 716.551948 195.595661 
L 724.913586 218.554779 
L 733.275225 220.742208 
L 741.636863 225.376067 
L 749.998501 229.195722 
L 758.36014 230.156946 
L 766.721778 203.905121 
L 775.083417 223.105576 
L 783.445055 217.098697 
L 791.806693 207.418853 
L 800.168332 200.939559 
L 808.52997 198.311485 
L 816.891608 186.406782 
L 825.253247 181.608432 
L 833.614885 197.909032 
L 841.976523 196.461304 
L 850.338162 199.796224 
L 858.6998 193.198898 
L 867.061439 200.001708 
L 875.423077 181.030807 
L 883.784715 190.01378 
L 892.146354 198.305961 
L 900.507992 210.580507 
L 908.86963 196.822769 
L 917.231269 198.523395 
L 925.592907 199.005395 
L 933.954545 188.835495 
" style="fill:none;stroke:#1a1a1a;stroke-linecap:round;stroke-width:1.5;"/>
   </g>
   <g id="line2d_16">
    <path clip-path="url(#p79afd7265c)" d="M 173.045455 352.634818 
L 181.407093 420.361188 
L 189.768731 417.971969 
L 198.13037 423.318828 
L 206.492008 406.550339 
L 214.853646 466.784574 
L 223.215285 450.787997 
L 231.576923 437.754237 
L 239.938561 429.980181 
L 248.3002 455.585453 
L 256.661838 461.379682 
L 265.023477 391.614831 
L 273.385115 369.194702 
L 281.746753 392.721903 
L 290.108392 356.198831 
L 298.47003 295.208025 
L 306.831668 389.510673 
L 315.193307 392.125265 
L 323.554945 368.529198 
L 331.916583 352.603302 
L 340.278222 425.909669 
L 348.63986 387.163118 
L 357.001499 422.13435 
L 365.363137 443.809735 
L 373.724775 479.710069 
L 382.086414 371.40209 
L 390.448052 357.104498 
L 398.80969 288.090828 
L 407.171329 251.756556 
L 415.532967 246.233652 
L 423.894605 281.170165 
L 432.256244 281.176236 
L 440.617882 389.099217 
L 448.97952 389.860886 
L 457.341159 426.715762 
L 465.702797 406.534322 
L 474.064436 422.760447 
L 482.426074 364.777225 
L 490.787712 397.543428 
L 499.149351 366.229 
L 507.510989 410.491912 
L 515.872627 370.336941 
L 524.234266 373.582529 
L 532.595904 342.185136 
L 540.957542 300.32834 
L 549.319181 292.631502 
L 557.680819 347.467337 
L 566.042458 347.298012 
L 574.404096 379.012938 
L 582.765734 420.289201 
L 591.127373 458.242664 
L 599.489011 446.462893 
L 607.850649 492.48 
L 616.212288 476.519324 
L 624.573926 441.149509 
L 632.935564 403.431941 
L 641.297203 411.783985 
L 649.658841 396.630501 
L 658.02048 377.446021 
L 666.382118 413.417778 
L 674.743756 396.505666 
L 683.105395 383.469691 
L 691.467033 330.36808 
L 699.828671 385.978157 
L 708.19031 417.95176 
L 716.551948 452.448958 
L 724.913586 404.637607 
L 733.275225 460.406279 
L 741.636863 440.749149 
L 749.998501 382.997004 
L 758.36014 360.766947 
L 766.721778 394.56384 
L 775.083417 360.917202 
L 783.445055 380.002349 
L 791.806693 419.221188 
L 800.168332 468.58323 
L 808.52997 487.753288 
L 816.891608 484.339361 
L 825.253247 447.483776 
L 833.614885 462.549359 
L 841.976523 464.187919 
L 850.338162 445.086968 
L 858.6998 457.652088 
L 867.061439 476.831853 
L 875.423077 411.521309 
L 883.784715 415.012714 
L 892.146354 415.751173 
L 900.507992 385.873896 
L 908.86963 384.153085 
L 917.231269 418.27829 
L 925.592907 378.657284 
L 933.954545 394.673867 
" style="fill:none;stroke:#c44e52;stroke-dasharray:9.6,2.4,1.5,2.4;stroke-dashoffset:0;stroke-width:1.5;"/>
   </g>
   <g id="line2d_17">
    <path clip-path="url(#p79afd7265c)" d="M 173.045455 183.527882 
L 181.407093 120.066242 
L 189.768731 103.629964 
L 198.13037 120.361531 
L 206.492008 125.916439 
L 214.853646 172.41032 
L 223.215285 210.596526 
L 231.576923 200.935844 
L 239.938561 205.210407 
L 248.3002 239.918276 
L 256.661838 198.938553 
L 265.023477 205.233195 
L 273.385115 233.951091 
L 281.746753 223.412214 
L 290.108392 208.691945 
L 298.47003 230.491564 
L 306.831668 240.441021 
L 315.193307 210.42397 
L 323.554945 236.397695 
L 331.916583 212.406322 
L 340.278222 199.683734 
L 348.63986 161.037353 
L 357.001499 185.880834 
L 365.363137 153.955139 
L 373.724775 155.11789 
L 382.086414 141.799014 
L 390.448052 133.408014 
L 398.80969 116.935716 
L 407.171329 135.782961 
L 415.532967 134.681806 
L 423.894605 160.154472 
L 432.256244 145.696943 
L 440.617882 127.544344 
L 448.97952 122.459807 
L 457.341159 177.222167 
L 465.702797 154.633431 
L 474.064436 196.430754 
L 482.426074 199.704406 
L 490.787712 180.431422 
L 499.149351 144.065031 
L 507.510989 145.525762 
L 515.872627 143.199407 
L 524.234266 184.04045 
L 532.595904 177.804809 
L 540.957542 179.282437 
L 549.319181 180.633898 
L 557.680819 161.477709 
L 566.042458 112.066899 
L 574.404096 120.105242 
L 582.765734 109.099562 
L 591.127373 121.001503 
L 599.489011 128.430921 
L 607.850649 163.624931 
L 616.212288 176.537863 
L 624.573926 178.698202 
L 632.935564 181.189544 
L 641.297203 155.534436 
L 649.658841 150.463953 
L 658.02048 173.000505 
L 666.382118 186.329991 
L 674.743756 167.788953 
L 683.105395 204.550479 
L 691.467033 187.472962 
L 699.828671 209.842402 
L 708.19031 224.14243 
L 716.551948 231.688932 
L 724.913586 211.135854 
L 733.275225 213.593582 
L 741.636863 144.920046 
L 749.998501 115.106759 
L 758.36014 135.076998 
L 766.721778 125.015819 
L 775.083417 109.616477 
L 783.445055 153.703256 
L 791.806693 190.504707 
L 800.168332 156.504086 
L 808.52997 171.007978 
L 816.891608 169.702704 
L 825.253247 152.885988 
L 833.614885 116.778965 
L 841.976523 129.781799 
L 850.338162 124.472824 
L 858.6998 147.425574 
L 867.061439 123.417225 
L 875.423077 114.269639 
L 883.784715 139.132353 
L 892.146354 152.115707 
L 900.507992 157.748625 
L 908.86963 214.986142 
L 917.231269 226.449542 
L 925.592907 188.066796 
L 933.954545 213.141349 
" style="fill:none;stroke:#ffa500;stroke-linecap:round;stroke-width:1.5;"/>
   </g>
   <g id="patch_3">
    <path d="M 135 512.64 
L 135 69.12 
" style="fill:none;stroke:#ffffff;stroke-linecap:square;stroke-linejoin:miter;stroke-width:1.25;"/>
   </g>
   <g id="patch_4">
    <path d="M 972 512.64 
L 972 69.12 
" style="fill:none;stroke:#ffffff;stroke-linecap:square;stroke-linejoin:miter;stroke-width:1.25;"/>
   </g>
   <g id="patch_5">
    <path d="M 135 512.64 
L 972 512.64 
" style="fill:none;stroke:#ffffff;stroke-linecap:square;stroke-linejoin:miter;stroke-width:1.25;"/>
   </g>
   <g id="patch_6">
    <path d="M 135 69.12 
L 972 69.12 
" style="fill:none;stroke:#ffffff;stroke-linecap:square;stroke-linejoin:miter;stroke-width:1.25;"/>
   </g>
   <g id="legend_1">
    <g id="patch_7">
     <path d="M 690.6 400.955625 
L 909.446719 400.955625 
Q 912.746719 400.955625 912.746719 397.655625 
L 912.746719 302.43 
Q 912.746719 299.13 909.446719 299.13 
L 690.6 299.13 
Q 687.3 299.13 687.3 302.43 
L 687.3 397.655625 
Q 687.3 400.955625 690.6 400.955625 
z
" style="fill:#eaeaf2;opacity:0.8;stroke:#cccccc;stroke-linejoin:miter;"/>
    </g>
    <g id="line2d_18">
     <path d="M 693.9 312.492422 
L 726.9 312.492422 
" style="fill:none;stroke:#4c72b0;stroke-dasharray:5.55,2.4;stroke-dashoffset:0;stroke-width:1.5;"/>
    </g>
    <g id="line2d_19"/>
    <g id="text_17">
     <!-- MAHRL(Homo) -->
     <defs>
      <path d="M 34.1875 63.1875 
L 20.796875 26.90625 
L 47.609375 26.90625 
z
M 28.609375 72.90625 
L 39.796875 72.90625 
L 67.578125 0 
L 57.328125 0 
L 50.6875 18.703125 
L 17.828125 18.703125 
L 11.1875 0 
L 0.78125 0 
z
" id="DejaVuSans-65"/>
      <path d="M 9.8125 72.90625 
L 19.671875 72.90625 
L 19.671875 43.015625 
L 55.515625 43.015625 
L 55.515625 72.90625 
L 65.375 72.90625 
L 65.375 0 
L 55.515625 0 
L 55.515625 34.71875 
L 19.671875 34.71875 
L 19.671875 0 
L 9.8125 0 
z
" id="DejaVuSans-72"/>
      <path d="M 9.8125 72.90625 
L 19.671875 72.90625 
L 19.671875 8.296875 
L 55.171875 8.296875 
L 55.171875 0 
L 9.8125 0 
z
" id="DejaVuSans-76"/>
      <path d="M 31 75.875 
Q 24.46875 64.65625 21.28125 53.65625 
Q 18.109375 42.671875 18.109375 31.390625 
Q 18.109375 20.125 21.3125 9.0625 
Q 24.515625 -2 31 -13.1875 
L 23.1875 -13.1875 
Q 15.875 -1.703125 12.234375 9.375 
Q 8.59375 20.453125 8.59375 31.390625 
Q 8.59375 42.28125 12.203125 53.3125 
Q 15.828125 64.359375 23.1875 75.875 
z
" id="DejaVuSans-40"/>
      <path d="M 30.609375 48.390625 
Q 23.390625 48.390625 19.1875 42.75 
Q 14.984375 37.109375 14.984375 27.296875 
Q 14.984375 17.484375 19.15625 11.84375 
Q 23.34375 6.203125 30.609375 6.203125 
Q 37.796875 6.203125 41.984375 11.859375 
Q 46.1875 17.53125 46.1875 27.296875 
Q 46.1875 37.015625 41.984375 42.703125 
Q 37.796875 48.390625 30.609375 48.390625 
z
M 30.609375 56 
Q 42.328125 56 49.015625 48.375 
Q 55.71875 40.765625 55.71875 27.296875 
Q 55.71875 13.875 49.015625 6.21875 
Q 42.328125 -1.421875 30.609375 -1.421875 
Q 18.84375 -1.421875 12.171875 6.21875 
Q 5.515625 13.875 5.515625 27.296875 
Q 5.515625 40.765625 12.171875 48.375 
Q 18.84375 56 30.609375 56 
z
" id="DejaVuSans-111"/>
      <path d="M 52 44.1875 
Q 55.375 50.25 60.0625 53.125 
Q 64.75 56 71.09375 56 
Q 79.640625 56 84.28125 50.015625 
Q 88.921875 44.046875 88.921875 33.015625 
L 88.921875 0 
L 79.890625 0 
L 79.890625 32.71875 
Q 79.890625 40.578125 77.09375 44.375 
Q 74.3125 48.1875 68.609375 48.1875 
Q 61.625 48.1875 57.5625 43.546875 
Q 53.515625 38.921875 53.515625 30.90625 
L 53.515625 0 
L 44.484375 0 
L 44.484375 32.71875 
Q 44.484375 40.625 41.703125 44.40625 
Q 38.921875 48.1875 33.109375 48.1875 
Q 26.21875 48.1875 22.15625 43.53125 
Q 18.109375 38.875 18.109375 30.90625 
L 18.109375 0 
L 9.078125 0 
L 9.078125 54.6875 
L 18.109375 54.6875 
L 18.109375 46.1875 
Q 21.1875 51.21875 25.484375 53.609375 
Q 29.78125 56 35.6875 56 
Q 41.65625 56 45.828125 52.96875 
Q 50 49.953125 52 44.1875 
z
" id="DejaVuSans-109"/>
      <path d="M 8.015625 75.875 
L 15.828125 75.875 
Q 23.140625 64.359375 26.78125 53.3125 
Q 30.421875 42.28125 30.421875 31.390625 
Q 30.421875 20.453125 26.78125 9.375 
Q 23.140625 -1.703125 15.828125 -13.1875 
L 8.015625 -13.1875 
Q 14.5 -2 17.703125 9.0625 
Q 20.90625 20.125 20.90625 31.390625 
Q 20.90625 42.671875 17.703125 53.65625 
Q 14.5 64.65625 8.015625 75.875 
z
" id="DejaVuSans-41"/>
     </defs>
     <g style="fill:#262626;" transform="translate(740.1 318.267422)scale(0.165 -0.165)">
      <use xlink:href="#DejaVuSans-77"/>
      <use x="86.279297" xlink:href="#DejaVuSans-65"/>
      <use x="154.6875" xlink:href="#DejaVuSans-72"/>
      <use x="229.882812" xlink:href="#DejaVuSans-82"/>
      <use x="299.365234" xlink:href="#DejaVuSans-76"/>
      <use x="355.078125" xlink:href="#DejaVuSans-40"/>
      <use x="394.091797" xlink:href="#DejaVuSans-72"/>
      <use x="469.287109" xlink:href="#DejaVuSans-111"/>
      <use x="530.46875" xlink:href="#DejaVuSans-109"/>
      <use x="627.880859" xlink:href="#DejaVuSans-111"/>
      <use x="689.0625" xlink:href="#DejaVuSans-41"/>
     </g>
    </g>
    <g id="line2d_20">
     <path d="M 693.9 336.711328 
L 726.9 336.711328 
" style="fill:none;stroke:#1a1a1a;stroke-linecap:round;stroke-width:1.5;"/>
    </g>
    <g id="line2d_21"/>
    <g id="text_18">
     <!-- MAHRL(Hetero) -->
     <g style="fill:#262626;" transform="translate(740.1 342.486328)scale(0.165 -0.165)">
      <use xlink:href="#DejaVuSans-77"/>
      <use x="86.279297" xlink:href="#DejaVuSans-65"/>
      <use x="154.6875" xlink:href="#DejaVuSans-72"/>
      <use x="229.882812" xlink:href="#DejaVuSans-82"/>
      <use x="299.365234" xlink:href="#DejaVuSans-76"/>
      <use x="355.078125" xlink:href="#DejaVuSans-40"/>
      <use x="394.091797" xlink:href="#DejaVuSans-72"/>
      <use x="469.287109" xlink:href="#DejaVuSans-101"/>
      <use x="530.810547" xlink:href="#DejaVuSans-116"/>
      <use x="570.019531" xlink:href="#DejaVuSans-101"/>
      <use x="631.542969" xlink:href="#DejaVuSans-114"/>
      <use x="672.625" xlink:href="#DejaVuSans-111"/>
      <use x="733.806641" xlink:href="#DejaVuSans-41"/>
     </g>
    </g>
    <g id="line2d_22">
     <path d="M 693.9 360.930234 
L 726.9 360.930234 
" style="fill:none;stroke:#c44e52;stroke-dasharray:9.6,2.4,1.5,2.4;stroke-dashoffset:0;stroke-width:1.5;"/>
    </g>
    <g id="line2d_23"/>
    <g id="text_19">
     <!-- MADDPG(Hetero) -->
     <defs>
      <path d="M 19.671875 64.796875 
L 19.671875 8.109375 
L 31.59375 8.109375 
Q 46.6875 8.109375 53.6875 14.9375 
Q 60.6875 21.78125 60.6875 36.53125 
Q 60.6875 51.171875 53.6875 57.984375 
Q 46.6875 64.796875 31.59375 64.796875 
z
M 9.8125 72.90625 
L 30.078125 72.90625 
Q 51.265625 72.90625 61.171875 64.09375 
Q 71.09375 55.28125 71.09375 36.53125 
Q 71.09375 17.671875 61.125 8.828125 
Q 51.171875 0 30.078125 0 
L 9.8125 0 
z
" id="DejaVuSans-68"/>
      <path d="M 19.671875 64.796875 
L 19.671875 37.40625 
L 32.078125 37.40625 
Q 38.96875 37.40625 42.71875 40.96875 
Q 46.484375 44.53125 46.484375 51.125 
Q 46.484375 57.671875 42.71875 61.234375 
Q 38.96875 64.796875 32.078125 64.796875 
z
M 9.8125 72.90625 
L 32.078125 72.90625 
Q 44.34375 72.90625 50.609375 67.359375 
Q 56.890625 61.8125 56.890625 51.125 
Q 56.890625 40.328125 50.609375 34.8125 
Q 44.34375 29.296875 32.078125 29.296875 
L 19.671875 29.296875 
L 19.671875 0 
L 9.8125 0 
z
" id="DejaVuSans-80"/>
      <path d="M 59.515625 10.40625 
L 59.515625 29.984375 
L 43.40625 29.984375 
L 43.40625 38.09375 
L 69.28125 38.09375 
L 69.28125 6.78125 
Q 63.578125 2.734375 56.6875 0.65625 
Q 49.8125 -1.421875 42 -1.421875 
Q 24.90625 -1.421875 15.25 8.5625 
Q 5.609375 18.5625 5.609375 36.375 
Q 5.609375 54.25 15.25 64.234375 
Q 24.90625 74.21875 42 74.21875 
Q 49.125 74.21875 55.546875 72.453125 
Q 61.96875 70.703125 67.390625 67.28125 
L 67.390625 56.78125 
Q 61.921875 61.421875 55.765625 63.765625 
Q 49.609375 66.109375 42.828125 66.109375 
Q 29.4375 66.109375 22.71875 58.640625 
Q 16.015625 51.171875 16.015625 36.375 
Q 16.015625 21.625 22.71875 14.15625 
Q 29.4375 6.6875 42.828125 6.6875 
Q 48.046875 6.6875 52.140625 7.59375 
Q 56.25 8.5 59.515625 10.40625 
z
" id="DejaVuSans-71"/>
     </defs>
     <g style="fill:#262626;" transform="translate(740.1 366.705234)scale(0.165 -0.165)">
      <use xlink:href="#DejaVuSans-77"/>
      <use x="86.279297" xlink:href="#DejaVuSans-65"/>
      <use x="154.6875" xlink:href="#DejaVuSans-68"/>
      <use x="231.689453" xlink:href="#DejaVuSans-68"/>
      <use x="308.691406" xlink:href="#DejaVuSans-80"/>
      <use x="368.994141" xlink:href="#DejaVuSans-71"/>
      <use x="446.484375" xlink:href="#DejaVuSans-40"/>
      <use x="485.498047" xlink:href="#DejaVuSans-72"/>
      <use x="560.693359" xlink:href="#DejaVuSans-101"/>
      <use x="622.216797" xlink:href="#DejaVuSans-116"/>
      <use x="661.425781" xlink:href="#DejaVuSans-101"/>
      <use x="722.949219" xlink:href="#DejaVuSans-114"/>
      <use x="764.03125" xlink:href="#DejaVuSans-111"/>
      <use x="825.212891" xlink:href="#DejaVuSans-41"/>
     </g>
    </g>
    <g id="line2d_24">
     <path d="M 693.9 385.149141 
L 726.9 385.149141 
" style="fill:none;stroke:#ffa500;stroke-linecap:round;stroke-width:1.5;"/>
    </g>
    <g id="line2d_25"/>
    <g id="text_20">
     <!-- MAHRL(TD3,Hetero) -->
     <defs>
      <path d="M -0.296875 72.90625 
L 61.375 72.90625 
L 61.375 64.59375 
L 35.5 64.59375 
L 35.5 0 
L 25.59375 0 
L 25.59375 64.59375 
L -0.296875 64.59375 
z
" id="DejaVuSans-84"/>
      <path d="M 40.578125 39.3125 
Q 47.65625 37.796875 51.625 33 
Q 55.609375 28.21875 55.609375 21.1875 
Q 55.609375 10.40625 48.1875 4.484375 
Q 40.765625 -1.421875 27.09375 -1.421875 
Q 22.515625 -1.421875 17.65625 -0.515625 
Q 12.796875 0.390625 7.625 2.203125 
L 7.625 11.71875 
Q 11.71875 9.328125 16.59375 8.109375 
Q 21.484375 6.890625 26.8125 6.890625 
Q 36.078125 6.890625 40.9375 10.546875 
Q 45.796875 14.203125 45.796875 21.1875 
Q 45.796875 27.640625 41.28125 31.265625 
Q 36.765625 34.90625 28.71875 34.90625 
L 20.21875 34.90625 
L 20.21875 43.015625 
L 29.109375 43.015625 
Q 36.375 43.015625 40.234375 45.921875 
Q 44.09375 48.828125 44.09375 54.296875 
Q 44.09375 59.90625 40.109375 62.90625 
Q 36.140625 65.921875 28.71875 65.921875 
Q 24.65625 65.921875 20.015625 65.03125 
Q 15.375 64.15625 9.8125 62.3125 
L 9.8125 71.09375 
Q 15.4375 72.65625 20.34375 73.4375 
Q 25.25 74.21875 29.59375 74.21875 
Q 40.828125 74.21875 47.359375 69.109375 
Q 53.90625 64.015625 53.90625 55.328125 
Q 53.90625 49.265625 50.4375 45.09375 
Q 46.96875 40.921875 40.578125 39.3125 
z
" id="DejaVuSans-51"/>
      <path d="M 11.71875 12.40625 
L 22.015625 12.40625 
L 22.015625 4 
L 14.015625 -11.625 
L 7.71875 -11.625 
L 11.71875 4 
z
" id="DejaVuSans-44"/>
     </defs>
     <g style="fill:#262626;" transform="translate(740.1 390.924141)scale(0.165 -0.165)">
      <use xlink:href="#DejaVuSans-77"/>
      <use x="86.279297" xlink:href="#DejaVuSans-65"/>
      <use x="154.6875" xlink:href="#DejaVuSans-72"/>
      <use x="229.882812" xlink:href="#DejaVuSans-82"/>
      <use x="299.365234" xlink:href="#DejaVuSans-76"/>
      <use x="355.078125" xlink:href="#DejaVuSans-40"/>
      <use x="394.091797" xlink:href="#DejaVuSans-84"/>
      <use x="455.175781" xlink:href="#DejaVuSans-68"/>
      <use x="532.177734" xlink:href="#DejaVuSans-51"/>
      <use x="595.800781" xlink:href="#DejaVuSans-44"/>
      <use x="627.587891" xlink:href="#DejaVuSans-72"/>
      <use x="702.783203" xlink:href="#DejaVuSans-101"/>
      <use x="764.306641" xlink:href="#DejaVuSans-116"/>
      <use x="803.515625" xlink:href="#DejaVuSans-101"/>
      <use x="865.039062" xlink:href="#DejaVuSans-114"/>
      <use x="906.121094" xlink:href="#DejaVuSans-111"/>
      <use x="967.302734" xlink:href="#DejaVuSans-41"/>
     </g>
    </g>
   </g>
  </g>
 </g>
 <defs>
  <clipPath id="p79afd7265c">
   <rect height="443.52" width="837" x="135" y="69.12"/>
  </clipPath>
 </defs>
</svg>
