<?xml version="1.0" encoding="utf-8" standalone="no"?>
<!DOCTYPE svg PUBLIC "-//W3C//DTD SVG 1.1//EN"
  "http://www.w3.org/Graphics/SVG/1.1/DTD/svg11.dtd">
<!-- Created with matplotlib (https://matplotlib.org/) -->
<svg height="576pt" version="1.1" viewBox="0 0 1080 576" width="1080pt" xmlns="http://www.w3.org/2000/svg" xmlns:xlink="http://www.w3.org/1999/xlink">
 <defs>
  <style type="text/css">
*{stroke-linecap:butt;stroke-linejoin:round;}
  </style>
 </defs>
 <g id="figure_1">
  <g id="patch_1">
   <path d="M 0 576 
L 1080 576 
L 1080 0 
L 0 0 
z
" style="fill:#ffffff;"/>
  </g>
  <g id="axes_1">
   <g id="patch_2">
    <path d="M 135 512.64 
L 972 512.64 
L 972 69.12 
L 135 69.12 
z
" style="fill:#eaeaf2;"/>
   </g>
   <g id="matplotlib.axis_1">
    <g id="xtick_1">
     <g id="line2d_1">
      <path clip-path="url(#p12a50d5cfd)" d="M 164.683816 512.64 
L 164.683816 69.12 
" style="fill:none;stroke:#ffffff;stroke-linecap:round;"/>
     </g>
     <g id="text_1">
      <!-- 0.0 -->
      <defs>
       <path d="M 31.78125 66.40625 
Q 24.171875 66.40625 20.328125 58.90625 
Q 16.5 51.421875 16.5 36.375 
Q 16.5 21.390625 20.328125 13.890625 
Q 24.171875 6.390625 31.78125 6.390625 
Q 39.453125 6.390625 43.28125 13.890625 
Q 47.125 21.390625 47.125 36.375 
Q 47.125 51.421875 43.28125 58.90625 
Q 39.453125 66.40625 31.78125 66.40625 
z
M 31.78125 74.21875 
Q 44.046875 74.21875 50.515625 64.515625 
Q 56.984375 54.828125 56.984375 36.375 
Q 56.984375 17.96875 50.515625 8.265625 
Q 44.046875 -1.421875 31.78125 -1.421875 
Q 19.53125 -1.421875 13.0625 8.265625 
Q 6.59375 17.96875 6.59375 36.375 
Q 6.59375 54.828125 13.0625 64.515625 
Q 19.53125 74.21875 31.78125 74.21875 
z
" id="DejaVuSans-48"/>
       <path d="M 10.6875 12.40625 
L 21 12.40625 
L 21 0 
L 10.6875 0 
z
" id="DejaVuSans-46"/>
      </defs>
      <g style="fill:#262626;" transform="translate(151.563738 534.677422)scale(0.165 -0.165)">
       <use xlink:href="#DejaVuSans-48"/>
       <use x="63.623047" xlink:href="#DejaVuSans-46"/>
       <use x="95.410156" xlink:href="#DejaVuSans-48"/>
      </g>
     </g>
    </g>
    <g id="xtick_2">
     <g id="line2d_2">
      <path clip-path="url(#p12a50d5cfd)" d="M 269.204296 512.64 
L 269.204296 69.12 
" style="fill:none;stroke:#ffffff;stroke-linecap:round;"/>
     </g>
     <g id="text_2">
      <!-- 0.2 -->
      <defs>
       <path d="M 19.1875 8.296875 
L 53.609375 8.296875 
L 53.609375 0 
L 7.328125 0 
L 7.328125 8.296875 
Q 12.9375 14.109375 22.625 23.890625 
Q 32.328125 33.6875 34.8125 36.53125 
Q 39.546875 41.84375 41.421875 45.53125 
Q 43.3125 49.21875 43.3125 52.78125 
Q 43.3125 58.59375 39.234375 62.25 
Q 35.15625 65.921875 28.609375 65.921875 
Q 23.96875 65.921875 18.8125 64.3125 
Q 13.671875 62.703125 7.8125 59.421875 
L 7.8125 69.390625 
Q 13.765625 71.78125 18.9375 73 
Q 24.125 74.21875 28.421875 74.21875 
Q 39.75 74.21875 46.484375 68.546875 
Q 53.21875 62.890625 53.21875 53.421875 
Q 53.21875 48.921875 51.53125 44.890625 
Q 49.859375 40.875 45.40625 35.40625 
Q 44.1875 33.984375 37.640625 27.21875 
Q 31.109375 20.453125 19.1875 8.296875 
z
" id="DejaVuSans-50"/>
      </defs>
      <g style="fill:#262626;" transform="translate(256.084218 534.677422)scale(0.165 -0.165)">
       <use xlink:href="#DejaVuSans-48"/>
       <use x="63.623047" xlink:href="#DejaVuSans-46"/>
       <use x="95.410156" xlink:href="#DejaVuSans-50"/>
      </g>
     </g>
    </g>
    <g id="xtick_3">
     <g id="line2d_3">
      <path clip-path="url(#p12a50d5cfd)" d="M 373.724775 512.64 
L 373.724775 69.12 
" style="fill:none;stroke:#ffffff;stroke-linecap:round;"/>
     </g>
     <g id="text_3">
      <!-- 0.4 -->
      <defs>
       <path d="M 37.796875 64.3125 
L 12.890625 25.390625 
L 37.796875 25.390625 
z
M 35.203125 72.90625 
L 47.609375 72.90625 
L 47.609375 25.390625 
L 58.015625 25.390625 
L 58.015625 17.1875 
L 47.609375 17.1875 
L 47.609375 0 
L 37.796875 0 
L 37.796875 17.1875 
L 4.890625 17.1875 
L 4.890625 26.703125 
z
" id="DejaVuSans-52"/>
      </defs>
      <g style="fill:#262626;" transform="translate(360.604697 534.677422)scale(0.165 -0.165)">
       <use xlink:href="#DejaVuSans-48"/>
       <use x="63.623047" xlink:href="#DejaVuSans-46"/>
       <use x="95.410156" xlink:href="#DejaVuSans-52"/>
      </g>
     </g>
    </g>
    <g id="xtick_4">
     <g id="line2d_4">
      <path clip-path="url(#p12a50d5cfd)" d="M 478.245255 512.64 
L 478.245255 69.12 
" style="fill:none;stroke:#ffffff;stroke-linecap:round;"/>
     </g>
     <g id="text_4">
      <!-- 0.6 -->
      <defs>
       <path d="M 33.015625 40.375 
Q 26.375 40.375 22.484375 35.828125 
Q 18.609375 31.296875 18.609375 23.390625 
Q 18.609375 15.53125 22.484375 10.953125 
Q 26.375 6.390625 33.015625 6.390625 
Q 39.65625 6.390625 43.53125 10.953125 
Q 47.40625 15.53125 47.40625 23.390625 
Q 47.40625 31.296875 43.53125 35.828125 
Q 39.65625 40.375 33.015625 40.375 
z
M 52.59375 71.296875 
L 52.59375 62.3125 
Q 48.875 64.0625 45.09375 64.984375 
Q 41.3125 65.921875 37.59375 65.921875 
Q 27.828125 65.921875 22.671875 59.328125 
Q 17.53125 52.734375 16.796875 39.40625 
Q 19.671875 43.65625 24.015625 45.921875 
Q 28.375 48.1875 33.59375 48.1875 
Q 44.578125 48.1875 50.953125 41.515625 
Q 57.328125 34.859375 57.328125 23.390625 
Q 57.328125 12.15625 50.6875 5.359375 
Q 44.046875 -1.421875 33.015625 -1.421875 
Q 20.359375 -1.421875 13.671875 8.265625 
Q 6.984375 17.96875 6.984375 36.375 
Q 6.984375 53.65625 15.1875 63.9375 
Q 23.390625 74.21875 37.203125 74.21875 
Q 40.921875 74.21875 44.703125 73.484375 
Q 48.484375 72.75 52.59375 71.296875 
z
" id="DejaVuSans-54"/>
      </defs>
      <g style="fill:#262626;" transform="translate(465.125177 534.677422)scale(0.165 -0.165)">
       <use xlink:href="#DejaVuSans-48"/>
       <use x="63.623047" xlink:href="#DejaVuSans-46"/>
       <use x="95.410156" xlink:href="#DejaVuSans-54"/>
      </g>
     </g>
    </g>
    <g id="xtick_5">
     <g id="line2d_5">
      <path clip-path="url(#p12a50d5cfd)" d="M 582.765734 512.64 
L 582.765734 69.12 
" style="fill:none;stroke:#ffffff;stroke-linecap:round;"/>
     </g>
     <g id="text_5">
      <!-- 0.8 -->
      <defs>
       <path d="M 31.78125 34.625 
Q 24.75 34.625 20.71875 30.859375 
Q 16.703125 27.09375 16.703125 20.515625 
Q 16.703125 13.921875 20.71875 10.15625 
Q 24.75 6.390625 31.78125 6.390625 
Q 38.8125 6.390625 42.859375 10.171875 
Q 46.921875 13.96875 46.921875 20.515625 
Q 46.921875 27.09375 42.890625 30.859375 
Q 38.875 34.625 31.78125 34.625 
z
M 21.921875 38.8125 
Q 15.578125 40.375 12.03125 44.71875 
Q 8.5 49.078125 8.5 55.328125 
Q 8.5 64.0625 14.71875 69.140625 
Q 20.953125 74.21875 31.78125 74.21875 
Q 42.671875 74.21875 48.875 69.140625 
Q 55.078125 64.0625 55.078125 55.328125 
Q 55.078125 49.078125 51.53125 44.71875 
Q 48 40.375 41.703125 38.8125 
Q 48.828125 37.15625 52.796875 32.3125 
Q 56.78125 27.484375 56.78125 20.515625 
Q 56.78125 9.90625 50.3125 4.234375 
Q 43.84375 -1.421875 31.78125 -1.421875 
Q 19.734375 -1.421875 13.25 4.234375 
Q 6.78125 9.90625 6.78125 20.515625 
Q 6.78125 27.484375 10.78125 32.3125 
Q 14.796875 37.15625 21.921875 38.8125 
z
M 18.3125 54.390625 
Q 18.3125 48.734375 21.84375 45.5625 
Q 25.390625 42.390625 31.78125 42.390625 
Q 38.140625 42.390625 41.71875 45.5625 
Q 45.3125 48.734375 45.3125 54.390625 
Q 45.3125 60.0625 41.71875 63.234375 
Q 38.140625 66.40625 31.78125 66.40625 
Q 25.390625 66.40625 21.84375 63.234375 
Q 18.3125 60.0625 18.3125 54.390625 
z
" id="DejaVuSans-56"/>
      </defs>
      <g style="fill:#262626;" transform="translate(569.645656 534.677422)scale(0.165 -0.165)">
       <use xlink:href="#DejaVuSans-48"/>
       <use x="63.623047" xlink:href="#DejaVuSans-46"/>
       <use x="95.410156" xlink:href="#DejaVuSans-56"/>
      </g>
     </g>
    </g>
    <g id="xtick_6">
     <g id="line2d_6">
      <path clip-path="url(#p12a50d5cfd)" d="M 687.286214 512.64 
L 687.286214 69.12 
" style="fill:none;stroke:#ffffff;stroke-linecap:round;"/>
     </g>
     <g id="text_6">
      <!-- 1.0 -->
      <defs>
       <path d="M 12.40625 8.296875 
L 28.515625 8.296875 
L 28.515625 63.921875 
L 10.984375 60.40625 
L 10.984375 69.390625 
L 28.421875 72.90625 
L 38.28125 72.90625 
L 38.28125 8.296875 
L 54.390625 8.296875 
L 54.390625 0 
L 12.40625 0 
z
" id="DejaVuSans-49"/>
      </defs>
      <g style="fill:#262626;" transform="translate(674.166136 534.677422)scale(0.165 -0.165)">
       <use xlink:href="#DejaVuSans-49"/>
       <use x="63.623047" xlink:href="#DejaVuSans-46"/>
       <use x="95.410156" xlink:href="#DejaVuSans-48"/>
      </g>
     </g>
    </g>
    <g id="xtick_7">
     <g id="line2d_7">
      <path clip-path="url(#p12a50d5cfd)" d="M 791.806693 512.64 
L 791.806693 69.12 
" style="fill:none;stroke:#ffffff;stroke-linecap:round;"/>
     </g>
     <g id="text_7">
      <!-- 1.2 -->
      <g style="fill:#262626;" transform="translate(778.686615 534.677422)scale(0.165 -0.165)">
       <use xlink:href="#DejaVuSans-49"/>
       <use x="63.623047" xlink:href="#DejaVuSans-46"/>
       <use x="95.410156" xlink:href="#DejaVuSans-50"/>
      </g>
     </g>
    </g>
    <g id="xtick_8">
     <g id="line2d_8">
      <path clip-path="url(#p12a50d5cfd)" d="M 896.327173 512.64 
L 896.327173 69.12 
" style="fill:none;stroke:#ffffff;stroke-linecap:round;"/>
     </g>
     <g id="text_8">
      <!-- 1.4 -->
      <g style="fill:#262626;" transform="translate(883.207095 534.677422)scale(0.165 -0.165)">
       <use xlink:href="#DejaVuSans-49"/>
       <use x="63.623047" xlink:href="#DejaVuSans-46"/>
       <use x="95.410156" xlink:href="#DejaVuSans-52"/>
      </g>
     </g>
    </g>
    <g id="text_9">
     <!--  Env Steps  -->
     <defs>
      <path id="DejaVuSans-32"/>
      <path d="M 9.8125 72.90625 
L 55.90625 72.90625 
L 55.90625 64.59375 
L 19.671875 64.59375 
L 19.671875 43.015625 
L 54.390625 43.015625 
L 54.390625 34.71875 
L 19.671875 34.71875 
L 19.671875 8.296875 
L 56.78125 8.296875 
L 56.78125 0 
L 9.8125 0 
z
" id="DejaVuSans-69"/>
      <path d="M 54.890625 33.015625 
L 54.890625 0 
L 45.90625 0 
L 45.90625 32.71875 
Q 45.90625 40.484375 42.875 44.328125 
Q 39.84375 48.1875 33.796875 48.1875 
Q 26.515625 48.1875 22.3125 43.546875 
Q 18.109375 38.921875 18.109375 30.90625 
L 18.109375 0 
L 9.078125 0 
L 9.078125 54.6875 
L 18.109375 54.6875 
L 18.109375 46.1875 
Q 21.34375 51.125 25.703125 53.5625 
Q 30.078125 56 35.796875 56 
Q 45.21875 56 50.046875 50.171875 
Q 54.890625 44.34375 54.890625 33.015625 
z
" id="DejaVuSans-110"/>
      <path d="M 2.984375 54.6875 
L 12.5 54.6875 
L 29.59375 8.796875 
L 46.6875 54.6875 
L 56.203125 54.6875 
L 35.6875 0 
L 23.484375 0 
z
" id="DejaVuSans-118"/>
      <path d="M 53.515625 70.515625 
L 53.515625 60.890625 
Q 47.90625 63.578125 42.921875 64.890625 
Q 37.9375 66.21875 33.296875 66.21875 
Q 25.25 66.21875 20.875 63.09375 
Q 16.5 59.96875 16.5 54.203125 
Q 16.5 49.359375 19.40625 46.890625 
Q 22.3125 44.4375 30.421875 42.921875 
L 36.375 41.703125 
Q 47.40625 39.59375 52.65625 34.296875 
Q 57.90625 29 57.90625 20.125 
Q 57.90625 9.515625 50.796875 4.046875 
Q 43.703125 -1.421875 29.984375 -1.421875 
Q 24.8125 -1.421875 18.96875 -0.25 
Q 13.140625 0.921875 6.890625 3.21875 
L 6.890625 13.375 
Q 12.890625 10.015625 18.65625 8.296875 
Q 24.421875 6.59375 29.984375 6.59375 
Q 38.421875 6.59375 43.015625 9.90625 
Q 47.609375 13.234375 47.609375 19.390625 
Q 47.609375 24.75 44.3125 27.78125 
Q 41.015625 30.8125 33.5 32.328125 
L 27.484375 33.5 
Q 16.453125 35.6875 11.515625 40.375 
Q 6.59375 45.0625 6.59375 53.421875 
Q 6.59375 63.09375 13.40625 68.65625 
Q 20.21875 74.21875 32.171875 74.21875 
Q 37.3125 74.21875 42.625 73.28125 
Q 47.953125 72.359375 53.515625 70.515625 
z
" id="DejaVuSans-83"/>
      <path d="M 18.3125 70.21875 
L 18.3125 54.6875 
L 36.8125 54.6875 
L 36.8125 47.703125 
L 18.3125 47.703125 
L 18.3125 18.015625 
Q 18.3125 11.328125 20.140625 9.421875 
Q 21.96875 7.515625 27.59375 7.515625 
L 36.8125 7.515625 
L 36.8125 0 
L 27.59375 0 
Q 17.1875 0 13.234375 3.875 
Q 9.28125 7.765625 9.28125 18.015625 
L 9.28125 47.703125 
L 2.6875 47.703125 
L 2.6875 54.6875 
L 9.28125 54.6875 
L 9.28125 70.21875 
z
" id="DejaVuSans-116"/>
      <path d="M 56.203125 29.59375 
L 56.203125 25.203125 
L 14.890625 25.203125 
Q 15.484375 15.921875 20.484375 11.0625 
Q 25.484375 6.203125 34.421875 6.203125 
Q 39.59375 6.203125 44.453125 7.46875 
Q 49.3125 8.734375 54.109375 11.28125 
L 54.109375 2.78125 
Q 49.265625 0.734375 44.1875 -0.34375 
Q 39.109375 -1.421875 33.890625 -1.421875 
Q 20.796875 -1.421875 13.15625 6.1875 
Q 5.515625 13.8125 5.515625 26.8125 
Q 5.515625 40.234375 12.765625 48.109375 
Q 20.015625 56 32.328125 56 
Q 43.359375 56 49.78125 48.890625 
Q 56.203125 41.796875 56.203125 29.59375 
z
M 47.21875 32.234375 
Q 47.125 39.59375 43.09375 43.984375 
Q 39.0625 48.390625 32.421875 48.390625 
Q 24.90625 48.390625 20.390625 44.140625 
Q 15.875 39.890625 15.1875 32.171875 
z
" id="DejaVuSans-101"/>
      <path d="M 18.109375 8.203125 
L 18.109375 -20.796875 
L 9.078125 -20.796875 
L 9.078125 54.6875 
L 18.109375 54.6875 
L 18.109375 46.390625 
Q 20.953125 51.265625 25.265625 53.625 
Q 29.59375 56 35.59375 56 
Q 45.5625 56 51.78125 48.09375 
Q 58.015625 40.1875 58.015625 27.296875 
Q 58.015625 14.40625 51.78125 6.484375 
Q 45.5625 -1.421875 35.59375 -1.421875 
Q 29.59375 -1.421875 25.265625 0.953125 
Q 20.953125 3.328125 18.109375 8.203125 
z
M 48.6875 27.296875 
Q 48.6875 37.203125 44.609375 42.84375 
Q 40.53125 48.484375 33.40625 48.484375 
Q 26.265625 48.484375 22.1875 42.84375 
Q 18.109375 37.203125 18.109375 27.296875 
Q 18.109375 17.390625 22.1875 11.75 
Q 26.265625 6.109375 33.40625 6.109375 
Q 40.53125 6.109375 44.609375 11.75 
Q 48.6875 17.390625 48.6875 27.296875 
z
" id="DejaVuSans-112"/>
      <path d="M 44.28125 53.078125 
L 44.28125 44.578125 
Q 40.484375 46.53125 36.375 47.5 
Q 32.28125 48.484375 27.875 48.484375 
Q 21.1875 48.484375 17.84375 46.4375 
Q 14.5 44.390625 14.5 40.28125 
Q 14.5 37.15625 16.890625 35.375 
Q 19.28125 33.59375 26.515625 31.984375 
L 29.59375 31.296875 
Q 39.15625 29.25 43.1875 25.515625 
Q 47.21875 21.78125 47.21875 15.09375 
Q 47.21875 7.46875 41.1875 3.015625 
Q 35.15625 -1.421875 24.609375 -1.421875 
Q 20.21875 -1.421875 15.453125 -0.5625 
Q 10.6875 0.296875 5.421875 2 
L 5.421875 11.28125 
Q 10.40625 8.6875 15.234375 7.390625 
Q 20.0625 6.109375 24.8125 6.109375 
Q 31.15625 6.109375 34.5625 8.28125 
Q 37.984375 10.453125 37.984375 14.40625 
Q 37.984375 18.0625 35.515625 20.015625 
Q 33.0625 21.96875 24.703125 23.78125 
L 21.578125 24.515625 
Q 13.234375 26.265625 9.515625 29.90625 
Q 5.8125 33.546875 5.8125 39.890625 
Q 5.8125 47.609375 11.28125 51.796875 
Q 16.75 56 26.8125 56 
Q 31.78125 56 36.171875 55.265625 
Q 40.578125 54.546875 44.28125 53.078125 
z
" id="DejaVuSans-115"/>
     </defs>
     <g style="fill:#262626;" transform="translate(503.019844 555.786094)scale(0.18 -0.18)">
      <use xlink:href="#DejaVuSans-32"/>
      <use x="31.787109" xlink:href="#DejaVuSans-69"/>
      <use x="94.970703" xlink:href="#DejaVuSans-110"/>
      <use x="158.349609" xlink:href="#DejaVuSans-118"/>
      <use x="217.529297" xlink:href="#DejaVuSans-32"/>
      <use x="249.316406" xlink:href="#DejaVuSans-83"/>
      <use x="312.792969" xlink:href="#DejaVuSans-116"/>
      <use x="352.001953" xlink:href="#DejaVuSans-101"/>
      <use x="413.525391" xlink:href="#DejaVuSans-112"/>
      <use x="477.001953" xlink:href="#DejaVuSans-115"/>
      <use x="529.101562" xlink:href="#DejaVuSans-32"/>
     </g>
    </g>
    <g id="text_10">
     <!-- 1e6 -->
     <g style="fill:#262626;" transform="translate(940.851094 553.646328)scale(0.165 -0.165)">
      <use xlink:href="#DejaVuSans-49"/>
      <use x="63.623047" xlink:href="#DejaVuSans-101"/>
      <use x="125.146484" xlink:href="#DejaVuSans-54"/>
     </g>
    </g>
   </g>
   <g id="matplotlib.axis_2">
    <g id="ytick_1">
     <g id="line2d_9">
      <path clip-path="url(#p12a50d5cfd)" d="M 135 480.060783 
L 972 480.060783 
" style="fill:none;stroke:#ffffff;stroke-linecap:round;"/>
     </g>
     <g id="text_11">
      <!-- −20 -->
      <defs>
       <path d="M 10.59375 35.5 
L 73.1875 35.5 
L 73.1875 27.203125 
L 10.59375 27.203125 
z
" id="DejaVuSans-8722"/>
      </defs>
      <g style="fill:#262626;" transform="translate(90.677266 486.329494)scale(0.165 -0.165)">
       <use xlink:href="#DejaVuSans-8722"/>
       <use x="83.789062" xlink:href="#DejaVuSans-50"/>
       <use x="147.412109" xlink:href="#DejaVuSans-48"/>
      </g>
     </g>
    </g>
    <g id="ytick_2">
     <g id="line2d_10">
      <path clip-path="url(#p12a50d5cfd)" d="M 135 382.380655 
L 972 382.380655 
" style="fill:none;stroke:#ffffff;stroke-linecap:round;"/>
     </g>
     <g id="text_12">
      <!-- −15 -->
      <defs>
       <path d="M 10.796875 72.90625 
L 49.515625 72.90625 
L 49.515625 64.59375 
L 19.828125 64.59375 
L 19.828125 46.734375 
Q 21.96875 47.46875 24.109375 47.828125 
Q 26.265625 48.1875 28.421875 48.1875 
Q 40.625 48.1875 47.75 41.5 
Q 54.890625 34.8125 54.890625 23.390625 
Q 54.890625 11.625 47.5625 5.09375 
Q 40.234375 -1.421875 26.90625 -1.421875 
Q 22.3125 -1.421875 17.546875 -0.640625 
Q 12.796875 0.140625 7.71875 1.703125 
L 7.71875 11.625 
Q 12.109375 9.234375 16.796875 8.0625 
Q 21.484375 6.890625 26.703125 6.890625 
Q 35.15625 6.890625 40.078125 11.328125 
Q 45.015625 15.765625 45.015625 23.390625 
Q 45.015625 31 40.078125 35.4375 
Q 35.15625 39.890625 26.703125 39.890625 
Q 22.75 39.890625 18.8125 39.015625 
Q 14.890625 38.140625 10.796875 36.28125 
z
" id="DejaVuSans-53"/>
      </defs>
      <g style="fill:#262626;" transform="translate(90.677266 388.649366)scale(0.165 -0.165)">
       <use xlink:href="#DejaVuSans-8722"/>
       <use x="83.789062" xlink:href="#DejaVuSans-49"/>
       <use x="147.412109" xlink:href="#DejaVuSans-53"/>
      </g>
     </g>
    </g>
    <g id="ytick_3">
     <g id="line2d_11">
      <path clip-path="url(#p12a50d5cfd)" d="M 135 284.700528 
L 972 284.700528 
" style="fill:none;stroke:#ffffff;stroke-linecap:round;"/>
     </g>
     <g id="text_13">
      <!-- −10 -->
      <g style="fill:#262626;" transform="translate(90.677266 290.969239)scale(0.165 -0.165)">
       <use xlink:href="#DejaVuSans-8722"/>
       <use x="83.789062" xlink:href="#DejaVuSans-49"/>
       <use x="147.412109" xlink:href="#DejaVuSans-48"/>
      </g>
     </g>
    </g>
    <g id="ytick_4">
     <g id="line2d_12">
      <path clip-path="url(#p12a50d5cfd)" d="M 135 187.0204 
L 972 187.0204 
" style="fill:none;stroke:#ffffff;stroke-linecap:round;"/>
     </g>
     <g id="text_14">
      <!-- −5 -->
      <g style="fill:#262626;" transform="translate(101.175391 193.289111)scale(0.165 -0.165)">
       <use xlink:href="#DejaVuSans-8722"/>
       <use x="83.789062" xlink:href="#DejaVuSans-53"/>
      </g>
     </g>
    </g>
    <g id="ytick_5">
     <g id="line2d_13">
      <path clip-path="url(#p12a50d5cfd)" d="M 135 89.340273 
L 972 89.340273 
" style="fill:none;stroke:#ffffff;stroke-linecap:round;"/>
     </g>
     <g id="text_15">
      <!-- 0 -->
      <g style="fill:#262626;" transform="translate(115.001875 95.608984)scale(0.165 -0.165)">
       <use xlink:href="#DejaVuSans-48"/>
      </g>
     </g>
    </g>
    <g id="text_16">
     <!--  Mean Reward  -->
     <defs>
      <path d="M 9.8125 72.90625 
L 24.515625 72.90625 
L 43.109375 23.296875 
L 61.8125 72.90625 
L 76.515625 72.90625 
L 76.515625 0 
L 66.890625 0 
L 66.890625 64.015625 
L 48.09375 14.015625 
L 38.1875 14.015625 
L 19.390625 64.015625 
L 19.390625 0 
L 9.8125 0 
z
" id="DejaVuSans-77"/>
      <path d="M 34.28125 27.484375 
Q 23.390625 27.484375 19.1875 25 
Q 14.984375 22.515625 14.984375 16.5 
Q 14.984375 11.71875 18.140625 8.90625 
Q 21.296875 6.109375 26.703125 6.109375 
Q 34.1875 6.109375 38.703125 11.40625 
Q 43.21875 16.703125 43.21875 25.484375 
L 43.21875 27.484375 
z
M 52.203125 31.203125 
L 52.203125 0 
L 43.21875 0 
L 43.21875 8.296875 
Q 40.140625 3.328125 35.546875 0.953125 
Q 30.953125 -1.421875 24.3125 -1.421875 
Q 15.921875 -1.421875 10.953125 3.296875 
Q 6 8.015625 6 15.921875 
Q 6 25.140625 12.171875 29.828125 
Q 18.359375 34.515625 30.609375 34.515625 
L 43.21875 34.515625 
L 43.21875 35.40625 
Q 43.21875 41.609375 39.140625 45 
Q 35.0625 48.390625 27.6875 48.390625 
Q 23 48.390625 18.546875 47.265625 
Q 14.109375 46.140625 10.015625 43.890625 
L 10.015625 52.203125 
Q 14.9375 54.109375 19.578125 55.046875 
Q 24.21875 56 28.609375 56 
Q 40.484375 56 46.34375 49.84375 
Q 52.203125 43.703125 52.203125 31.203125 
z
" id="DejaVuSans-97"/>
      <path d="M 44.390625 34.1875 
Q 47.5625 33.109375 50.5625 29.59375 
Q 53.5625 26.078125 56.59375 19.921875 
L 66.609375 0 
L 56 0 
L 46.6875 18.703125 
Q 43.0625 26.03125 39.671875 28.421875 
Q 36.28125 30.8125 30.421875 30.8125 
L 19.671875 30.8125 
L 19.671875 0 
L 9.8125 0 
L 9.8125 72.90625 
L 32.078125 72.90625 
Q 44.578125 72.90625 50.734375 67.671875 
Q 56.890625 62.453125 56.890625 51.90625 
Q 56.890625 45.015625 53.6875 40.46875 
Q 50.484375 35.9375 44.390625 34.1875 
z
M 19.671875 64.796875 
L 19.671875 38.921875 
L 32.078125 38.921875 
Q 39.203125 38.921875 42.84375 42.21875 
Q 46.484375 45.515625 46.484375 51.90625 
Q 46.484375 58.296875 42.84375 61.546875 
Q 39.203125 64.796875 32.078125 64.796875 
z
" id="DejaVuSans-82"/>
      <path d="M 4.203125 54.6875 
L 13.1875 54.6875 
L 24.421875 12.015625 
L 35.59375 54.6875 
L 46.1875 54.6875 
L 57.421875 12.015625 
L 68.609375 54.6875 
L 77.59375 54.6875 
L 63.28125 0 
L 52.6875 0 
L 40.921875 44.828125 
L 29.109375 0 
L 18.5 0 
z
" id="DejaVuSans-119"/>
      <path d="M 41.109375 46.296875 
Q 39.59375 47.171875 37.8125 47.578125 
Q 36.03125 48 33.890625 48 
Q 26.265625 48 22.1875 43.046875 
Q 18.109375 38.09375 18.109375 28.8125 
L 18.109375 0 
L 9.078125 0 
L 9.078125 54.6875 
L 18.109375 54.6875 
L 18.109375 46.1875 
Q 20.953125 51.171875 25.484375 53.578125 
Q 30.03125 56 36.53125 56 
Q 37.453125 56 38.578125 55.875 
Q 39.703125 55.765625 41.0625 55.515625 
z
" id="DejaVuSans-114"/>
      <path d="M 45.40625 46.390625 
L 45.40625 75.984375 
L 54.390625 75.984375 
L 54.390625 0 
L 45.40625 0 
L 45.40625 8.203125 
Q 42.578125 3.328125 38.25 0.953125 
Q 33.9375 -1.421875 27.875 -1.421875 
Q 17.96875 -1.421875 11.734375 6.484375 
Q 5.515625 14.40625 5.515625 27.296875 
Q 5.515625 40.1875 11.734375 48.09375 
Q 17.96875 56 27.875 56 
Q 33.9375 56 38.25 53.625 
Q 42.578125 51.265625 45.40625 46.390625 
z
M 14.796875 27.296875 
Q 14.796875 17.390625 18.875 11.75 
Q 22.953125 6.109375 30.078125 6.109375 
Q 37.203125 6.109375 41.296875 11.75 
Q 45.40625 17.390625 45.40625 27.296875 
Q 45.40625 37.203125 41.296875 42.84375 
Q 37.203125 48.484375 30.078125 48.484375 
Q 22.953125 48.484375 18.875 42.84375 
Q 14.796875 37.203125 14.796875 27.296875 
z
" id="DejaVuSans-100"/>
     </defs>
     <g style="fill:#262626;" transform="translate(82.933828 358.056562)rotate(-90)scale(0.18 -0.18)">
      <use xlink:href="#DejaVuSans-32"/>
      <use x="31.787109" xlink:href="#DejaVuSans-77"/>
      <use x="118.066406" xlink:href="#DejaVuSans-101"/>
      <use x="179.589844" xlink:href="#DejaVuSans-97"/>
      <use x="240.869141" xlink:href="#DejaVuSans-110"/>
      <use x="304.248047" xlink:href="#DejaVuSans-32"/>
      <use x="336.035156" xlink:href="#DejaVuSans-82"/>
      <use x="405.455078" xlink:href="#DejaVuSans-101"/>
      <use x="466.978516" xlink:href="#DejaVuSans-119"/>
      <use x="548.765625" xlink:href="#DejaVuSans-97"/>
      <use x="610.044922" xlink:href="#DejaVuSans-114"/>
      <use x="651.142578" xlink:href="#DejaVuSans-100"/>
      <use x="714.619141" xlink:href="#DejaVuSans-32"/>
     </g>
    </g>
   </g>
   <g id="PolyCollection_1">
    <defs>
     <path d="M 173.045455 -417.170398 
L 173.045455 -335.973196 
L 181.407093 -381.656854 
L 189.768731 -402.883259 
L 198.13037 -409.385464 
L 206.492008 -432.162903 
L 214.853646 -450.46176 
L 223.215285 -442.381717 
L 231.576923 -451.55285 
L 239.938561 -461.273419 
L 248.3002 -463.61522 
L 256.661838 -469.618828 
L 265.023477 -466.395085 
L 273.385115 -456.520294 
L 281.746753 -438.428307 
L 290.108392 -447.756199 
L 298.47003 -443.833507 
L 306.831668 -455.57302 
L 315.193307 -460.634923 
L 323.554945 -451.371676 
L 331.916583 -442.429178 
L 340.278222 -443.335217 
L 348.63986 -440.588222 
L 357.001499 -429.733084 
L 365.363137 -430.714084 
L 373.724775 -430.852572 
L 382.086414 -431.631776 
L 390.448052 -428.294535 
L 398.80969 -434.716422 
L 407.171329 -436.634277 
L 415.532967 -451.351268 
L 423.894605 -448.195227 
L 432.256244 -441.652598 
L 440.617882 -443.614099 
L 448.97952 -451.074061 
L 457.341159 -452.692487 
L 465.702797 -457.286945 
L 474.064436 -458.359501 
L 482.426074 -456.35411 
L 490.787712 -443.186109 
L 499.149351 -423.618234 
L 507.510989 -409.811129 
L 515.872627 -390.883226 
L 524.234266 -384.208742 
L 532.595904 -382.151925 
L 540.957542 -382.689617 
L 549.319181 -398.685366 
L 557.680819 -404.789928 
L 566.042458 -404.84733 
L 574.404096 -402.289424 
L 582.765734 -410.407646 
L 591.127373 -415.089373 
L 599.489011 -410.974156 
L 607.850649 -409.731852 
L 616.212288 -415.456723 
L 624.573926 -415.341618 
L 632.935564 -417.95969 
L 641.297203 -423.312445 
L 649.658841 -425.104658 
L 658.02048 -431.591365 
L 666.382118 -431.007211 
L 674.743756 -429.854377 
L 683.105395 -438.314732 
L 691.467033 -430.722084 
L 699.828671 -425.011767 
L 708.19031 -429.291993 
L 716.551948 -428.987796 
L 724.913586 -416.819876 
L 733.275225 -415.597217 
L 741.636863 -403.422217 
L 749.998501 -400.805486 
L 758.36014 -404.704615 
L 766.721778 -411.421823 
L 775.083417 -431.983725 
L 783.445055 -436.46624 
L 791.806693 -423.415754 
L 800.168332 -427.256734 
L 808.52997 -424.186623 
L 816.891608 -411.176521 
L 825.253247 -406.276332 
L 833.614885 -403.45705 
L 841.976523 -398.667152 
L 850.338162 -396.349224 
L 858.6998 -395.455652 
L 867.061439 -380.112862 
L 875.423077 -383.37661 
L 883.784715 -389.785427 
L 892.146354 -382.453703 
L 900.507992 -379.778242 
L 908.86963 -403.343774 
L 917.231269 -389.74351 
L 925.592907 -387.900413 
L 933.954545 -383.521955 
L 933.954545 -440.817378 
L 933.954545 -440.817378 
L 925.592907 -442.051039 
L 917.231269 -451.182873 
L 908.86963 -461.084738 
L 900.507992 -460.390909 
L 892.146354 -462.041373 
L 883.784715 -470.664276 
L 875.423077 -474.803073 
L 867.061439 -476.067953 
L 858.6998 -471.024916 
L 850.338162 -468.284561 
L 841.976523 -475.974892 
L 833.614885 -472.762575 
L 825.253247 -470.000983 
L 816.891608 -474.285123 
L 808.52997 -470.040246 
L 800.168332 -468.177587 
L 791.806693 -470.508952 
L 783.445055 -465.67101 
L 775.083417 -459.065061 
L 766.721778 -467.803339 
L 758.36014 -463.469131 
L 749.998501 -460.252684 
L 741.636863 -461.222504 
L 733.275225 -461.643164 
L 724.913586 -464.400095 
L 716.551948 -461.562977 
L 708.19031 -459.625585 
L 699.828671 -448.883492 
L 691.467033 -448.047769 
L 683.105395 -449.415793 
L 674.743756 -453.563171 
L 666.382118 -447.211095 
L 658.02048 -450.434489 
L 649.658841 -452.299478 
L 641.297203 -445.911116 
L 632.935564 -444.792513 
L 624.573926 -454.411274 
L 616.212288 -457.76782 
L 607.850649 -461.156359 
L 599.489011 -465.235904 
L 591.127373 -471.306444 
L 582.765734 -472.582175 
L 574.404096 -467.219189 
L 566.042458 -469.39286 
L 557.680819 -469.890926 
L 549.319181 -467.843907 
L 540.957542 -475.629562 
L 532.595904 -471.243272 
L 524.234266 -460.18108 
L 515.872627 -463.623691 
L 507.510989 -468.711097 
L 499.149351 -466.54717 
L 490.787712 -461.269188 
L 482.426074 -482.019879 
L 474.064436 -481.534285 
L 465.702797 -479.254045 
L 457.341159 -479.834692 
L 448.97952 -479.924806 
L 440.617882 -479.465937 
L 432.256244 -480.130176 
L 423.894605 -481.876799 
L 415.532967 -483.684972 
L 407.171329 -486.72 
L 398.80969 -480.23412 
L 390.448052 -469.655696 
L 382.086414 -467.361727 
L 373.724775 -462.817976 
L 365.363137 -461.194401 
L 357.001499 -465.274922 
L 348.63986 -476.330271 
L 340.278222 -480.55158 
L 331.916583 -478.235768 
L 323.554945 -484.972506 
L 315.193307 -470.612169 
L 306.831668 -466.158628 
L 298.47003 -463.869402 
L 290.108392 -475.257805 
L 281.746753 -480.954327 
L 273.385115 -477.815341 
L 265.023477 -479.676416 
L 256.661838 -479.374294 
L 248.3002 -473.036815 
L 239.938561 -475.44605 
L 231.576923 -475.930867 
L 223.215285 -475.086037 
L 214.853646 -478.998443 
L 206.492008 -478.812916 
L 198.13037 -477.35946 
L 189.768731 -460.671117 
L 181.407093 -451.66446 
L 173.045455 -417.170398 
z
" id="m15c0c39943" style="stroke:#4c72b0;stroke-opacity:0.2;"/>
    </defs>
    <g clip-path="url(#p12a50d5cfd)">
     <use style="fill:#4c72b0;fill-opacity:0.2;stroke:#4c72b0;stroke-opacity:0.2;" x="0" xlink:href="#m15c0c39943" y="576"/>
    </g>
   </g>
   <g id="PolyCollection_2">
    <defs>
     <path d="M 173.045455 -386.030738 
L 173.045455 -360.44791 
L 181.407093 -361.857194 
L 189.768731 -375.209012 
L 198.13037 -374.578458 
L 206.492008 -368.960322 
L 214.853646 -379.245813 
L 223.215285 -380.313889 
L 231.576923 -368.388393 
L 239.938561 -380.290188 
L 248.3002 -385.500172 
L 256.661838 -394.372581 
L 265.023477 -400.031879 
L 273.385115 -402.238273 
L 281.746753 -409.074175 
L 290.108392 -409.363664 
L 298.47003 -413.940378 
L 306.831668 -415.938506 
L 315.193307 -415.89928 
L 323.554945 -424.501541 
L 331.916583 -434.269961 
L 340.278222 -429.058085 
L 348.63986 -423.6391 
L 357.001499 -432.16043 
L 365.363137 -431.869152 
L 373.724775 -429.738849 
L 382.086414 -427.109505 
L 390.448052 -422.514464 
L 398.80969 -423.071354 
L 407.171329 -422.417228 
L 415.532967 -420.405465 
L 423.894605 -417.181278 
L 432.256244 -422.623306 
L 440.617882 -426.009661 
L 448.97952 -417.605842 
L 457.341159 -428.907665 
L 465.702797 -431.770963 
L 474.064436 -425.668066 
L 482.426074 -427.066906 
L 490.787712 -432.535684 
L 499.149351 -430.078236 
L 507.510989 -427.035161 
L 515.872627 -432.567331 
L 524.234266 -425.868521 
L 532.595904 -413.2757 
L 540.957542 -413.362507 
L 549.319181 -414.986728 
L 557.680819 -414.899709 
L 566.042458 -417.625535 
L 574.404096 -430.178596 
L 582.765734 -435.095411 
L 591.127373 -442.49226 
L 599.489011 -437.453527 
L 607.850649 -441.398244 
L 616.212288 -446.470382 
L 624.573926 -449.059167 
L 632.935564 -444.064691 
L 641.297203 -445.673962 
L 649.658841 -437.301609 
L 658.02048 -428.633924 
L 666.382118 -417.707399 
L 674.743756 -417.678907 
L 683.105395 -415.03339 
L 691.467033 -415.580116 
L 699.828671 -426.596039 
L 708.19031 -433.93515 
L 716.551948 -435.120704 
L 724.913586 -429.091486 
L 733.275225 -429.246071 
L 741.636863 -426.900842 
L 749.998501 -425.289177 
L 758.36014 -414.921269 
L 766.721778 -430.923372 
L 775.083417 -422.368044 
L 783.445055 -418.407398 
L 791.806693 -426.759828 
L 800.168332 -431.084831 
L 808.52997 -434.109408 
L 816.891608 -441.249651 
L 825.253247 -443.631798 
L 833.614885 -436.121299 
L 841.976523 -438.485455 
L 850.338162 -438.004128 
L 858.6998 -438.808694 
L 867.061439 -436.620397 
L 875.423077 -444.17899 
L 883.784715 -438.084019 
L 892.146354 -429.395537 
L 900.507992 -424.021329 
L 908.86963 -434.940708 
L 917.231269 -438.488858 
L 925.592907 -437.862871 
L 933.954545 -439.479414 
L 933.954545 -446.104565 
L 933.954545 -446.104565 
L 925.592907 -439.103369 
L 917.231269 -438.885819 
L 908.86963 -443.87504 
L 900.507992 -443.136428 
L 892.146354 -448.163388 
L 883.784715 -446.501509 
L 875.423077 -448.018502 
L 867.061439 -439.50159 
L 858.6998 -443.077838 
L 850.338162 -438.291983 
L 841.976523 -440.636589 
L 833.614885 -441.773974 
L 825.253247 -448.076228 
L 816.891608 -446.392364 
L 808.52997 -443.444836 
L 800.168332 -444.242444 
L 791.806693 -443.077043 
L 783.445055 -443.226995 
L 775.083417 -434.176259 
L 766.721778 -441.890954 
L 758.36014 -435.647865 
L 749.998501 -426.094476 
L 741.636863 -427.719499 
L 733.275225 -429.300896 
L 724.913586 -431.309057 
L 716.551948 -444.734867 
L 708.19031 -439.105698 
L 699.828671 -438.91137 
L 691.467033 -433.468023 
L 683.105395 -423.461575 
L 674.743756 -425.170979 
L 666.382118 -429.0992 
L 658.02048 -434.470199 
L 649.658841 -447.569621 
L 641.297203 -448.218079 
L 632.935564 -447.479586 
L 624.573926 -450.022328 
L 616.212288 -452.247832 
L 607.850649 -454.46953 
L 599.489011 -454.165347 
L 591.127373 -448.456319 
L 582.765734 -445.872057 
L 574.404096 -440.697867 
L 566.042458 -437.222062 
L 557.680819 -424.70188 
L 549.319181 -424.694814 
L 540.957542 -419.477542 
L 532.595904 -422.436209 
L 524.234266 -429.065792 
L 515.872627 -439.006668 
L 507.510989 -435.57544 
L 499.149351 -434.225631 
L 490.787712 -432.727929 
L 482.426074 -431.515876 
L 474.064436 -428.019905 
L 465.702797 -433.492103 
L 457.341159 -436.883052 
L 448.97952 -433.673025 
L 440.617882 -433.699948 
L 432.256244 -424.606713 
L 423.894605 -426.871338 
L 415.532967 -425.347085 
L 407.171329 -430.691403 
L 398.80969 -432.528734 
L 390.448052 -445.308969 
L 382.086414 -433.816781 
L 373.724775 -432.339563 
L 365.363137 -440.801125 
L 357.001499 -433.811469 
L 348.63986 -441.289974 
L 340.278222 -445.562385 
L 331.916583 -441.449661 
L 323.554945 -425.753477 
L 315.193307 -425.575428 
L 306.831668 -423.607859 
L 298.47003 -418.670402 
L 290.108392 -420.147766 
L 281.746753 -420.28766 
L 273.385115 -421.992224 
L 265.023477 -409.513171 
L 256.661838 -394.966722 
L 248.3002 -392.000418 
L 239.938561 -397.332238 
L 231.576923 -397.638007 
L 223.215285 -387.274154 
L 214.853646 -381.895363 
L 206.492008 -378.819166 
L 198.13037 -381.871072 
L 189.768731 -377.319432 
L 181.407093 -388.541844 
L 173.045455 -386.030738 
z
" id="m56e5717d58" style="stroke:#1a1a1a;stroke-opacity:0.2;"/>
    </defs>
    <g clip-path="url(#p12a50d5cfd)">
     <use style="fill:#1a1a1a;fill-opacity:0.2;stroke:#1a1a1a;stroke-opacity:0.2;" x="0" xlink:href="#m56e5717d58" y="576"/>
    </g>
   </g>
   <g id="PolyCollection_3">
    <defs>
     <path d="M 173.045455 -84.893314 
L 173.045455 -84.227 
L 181.407093 -84.258206 
L 189.768731 -84.288522 
L 198.13037 -84.155526 
L 206.492008 -83.978001 
L 214.853646 -83.724533 
L 223.215285 -83.57509 
L 231.576923 -83.52 
L 239.938561 -84.001913 
L 248.3002 -84.032204 
L 256.661838 -84.255748 
L 265.023477 -84.359459 
L 273.385115 -84.469095 
L 281.746753 -84.454997 
L 290.108392 -84.53246 
L 298.47003 -84.687106 
L 306.831668 -84.688184 
L 315.193307 -84.684986 
L 323.554945 -84.612086 
L 331.916583 -84.59712 
L 340.278222 -84.462431 
L 348.63986 -84.518958 
L 357.001499 -84.581638 
L 365.363137 -84.75346 
L 373.724775 -84.726229 
L 382.086414 -84.859436 
L 390.448052 -84.9046 
L 398.80969 -84.828756 
L 407.171329 -84.812588 
L 415.532967 -84.823552 
L 423.894605 -84.736565 
L 432.256244 -84.796775 
L 440.617882 -84.667942 
L 448.97952 -84.448955 
L 457.341159 -84.276901 
L 465.702797 -84.371652 
L 474.064436 -83.922973 
L 482.426074 -84.247628 
L 490.787712 -84.131295 
L 499.149351 -84.415371 
L 507.510989 -84.44863 
L 515.872627 -84.620037 
L 524.234266 -84.62855 
L 532.595904 -84.665184 
L 540.957542 -84.65022 
L 549.319181 -84.641571 
L 557.680819 -84.571201 
L 566.042458 -84.657414 
L 574.404096 -84.690124 
L 582.765734 -84.682926 
L 591.127373 -84.641258 
L 599.489011 -84.601073 
L 607.850649 -84.64464 
L 616.212288 -84.62578 
L 624.573926 -84.629784 
L 632.935564 -84.729771 
L 641.297203 -84.816572 
L 649.658841 -84.783721 
L 658.02048 -84.757576 
L 666.382118 -84.820121 
L 674.743756 -84.852358 
L 683.105395 -84.855502 
L 691.467033 -84.884879 
L 699.828671 -84.962489 
L 708.19031 -84.847917 
L 716.551948 -84.781064 
L 724.913586 -84.709185 
L 733.275225 -84.631278 
L 741.636863 -84.618823 
L 749.998501 -84.615611 
L 758.36014 -84.648456 
L 766.721778 -84.622044 
L 775.083417 -84.655849 
L 783.445055 -84.560875 
L 791.806693 -84.544866 
L 800.168332 -84.357955 
L 808.52997 -84.36541 
L 816.891608 -84.496713 
L 825.253247 -84.524142 
L 833.614885 -84.741714 
L 841.976523 -84.787622 
L 850.338162 -84.861002 
L 858.6998 -84.843179 
L 867.061439 -84.977199 
L 875.423077 -84.980294 
L 883.784715 -84.964712 
L 892.146354 -84.951011 
L 900.507992 -84.938598 
L 908.86963 -84.77752 
L 917.231269 -84.620116 
L 925.592907 -84.446963 
L 933.954545 -84.500661 
L 933.954545 -86.103692 
L 933.954545 -86.103692 
L 925.592907 -86.213694 
L 917.231269 -86.162639 
L 908.86963 -86.372666 
L 900.507992 -86.345233 
L 892.146354 -86.353325 
L 883.784715 -86.397042 
L 875.423077 -86.474074 
L 867.061439 -86.215219 
L 858.6998 -86.148974 
L 850.338162 -86.092903 
L 841.976523 -86.068211 
L 833.614885 -85.9184 
L 825.253247 -86.017576 
L 816.891608 -85.963203 
L 808.52997 -86.015264 
L 800.168332 -85.947211 
L 791.806693 -86.007508 
L 783.445055 -86.102607 
L 775.083417 -85.943484 
L 766.721778 -85.940142 
L 758.36014 -86.012828 
L 749.998501 -86.058987 
L 741.636863 -86.140824 
L 733.275225 -86.160169 
L 724.913586 -86.253636 
L 716.551948 -86.334687 
L 708.19031 -86.296359 
L 699.828671 -86.217711 
L 691.467033 -86.15273 
L 683.105395 -86.092326 
L 674.743756 -85.880212 
L 666.382118 -85.928992 
L 658.02048 -86.051522 
L 649.658841 -86.209599 
L 641.297203 -86.244225 
L 632.935564 -86.4068 
L 624.573926 -86.521143 
L 616.212288 -86.706043 
L 607.850649 -86.788991 
L 599.489011 -86.91092 
L 591.127373 -87.032087 
L 582.765734 -87.043356 
L 574.404096 -86.975784 
L 566.042458 -87.031482 
L 557.680819 -87.1322 
L 549.319181 -87.102555 
L 540.957542 -87.075843 
L 532.595904 -86.951118 
L 524.234266 -86.752797 
L 515.872627 -86.678178 
L 507.510989 -86.39149 
L 499.149351 -86.374584 
L 490.787712 -86.586357 
L 482.426074 -86.643486 
L 474.064436 -86.792479 
L 465.702797 -86.92262 
L 457.341159 -87.011604 
L 448.97952 -87.062911 
L 440.617882 -87.046249 
L 432.256244 -86.8066 
L 423.894605 -86.77047 
L 415.532967 -86.857636 
L 407.171329 -86.828141 
L 398.80969 -86.87033 
L 390.448052 -86.984278 
L 382.086414 -86.969479 
L 373.724775 -86.950642 
L 365.363137 -86.967051 
L 357.001499 -86.926151 
L 348.63986 -86.840727 
L 340.278222 -86.83365 
L 331.916583 -86.696173 
L 323.554945 -86.562183 
L 315.193307 -86.649173 
L 306.831668 -86.507213 
L 298.47003 -86.336934 
L 290.108392 -86.141916 
L 281.746753 -85.865959 
L 273.385115 -85.485198 
L 265.023477 -85.486559 
L 256.661838 -85.213863 
L 248.3002 -85.251693 
L 239.938561 -85.359656 
L 231.576923 -85.227379 
L 223.215285 -85.100887 
L 214.853646 -85.083003 
L 206.492008 -85.052661 
L 198.13037 -84.916016 
L 189.768731 -84.968991 
L 181.407093 -84.979952 
L 173.045455 -84.893314 
z
" id="mb32c698eec" style="stroke:#800080;stroke-opacity:0.2;"/>
    </defs>
    <g clip-path="url(#p12a50d5cfd)">
     <use style="fill:#800080;fill-opacity:0.2;stroke:#800080;stroke-opacity:0.2;" x="0" xlink:href="#mb32c698eec" y="576"/>
    </g>
   </g>
   <g id="line2d_14">
    <path clip-path="url(#p12a50d5cfd)" d="M 173.045455 195.622376 
L 181.407093 159.339343 
L 189.768731 144.222812 
L 198.13037 132.627538 
L 206.492008 118.958663 
L 214.853646 110.807039 
L 223.215285 116.76114 
L 231.576923 112.258141 
L 239.938561 109.034539 
L 248.3002 106.90507 
L 256.661838 102.051875 
L 265.023477 104.148603 
L 273.385115 109.349333 
L 281.746753 114.212043 
L 290.108392 114.492998 
L 298.47003 121.536382 
L 306.831668 115.936464 
L 315.193307 110.376454 
L 323.554945 107.827909 
L 331.916583 115.725286 
L 340.278222 114.056601 
L 348.63986 116.937581 
L 357.001499 128.458148 
L 365.363137 130.48064 
L 373.724775 129.164726 
L 382.086414 128.138585 
L 390.448052 126.908759 
L 398.80969 116.207994 
L 407.171329 111.837344 
L 415.532967 106.213898 
L 423.894605 112.299246 
L 432.256244 115.108613 
L 440.617882 114.459982 
L 448.97952 110.500566 
L 457.341159 109.715844 
L 465.702797 107.729505 
L 474.064436 104.915659 
L 482.426074 104.885851 
L 490.787712 123.772352 
L 499.149351 130.97194 
L 507.510989 136.738887 
L 515.872627 148.188203 
L 524.234266 154.372943 
L 532.595904 149.302401 
L 540.957542 150.920418 
L 549.319181 148.052685 
L 557.680819 143.766319 
L 566.042458 142.819407 
L 574.404096 139.710991 
L 582.765734 136.683551 
L 591.127373 130.801777 
L 599.489011 132.60232 
L 607.850649 136.204091 
L 616.212288 134.053805 
L 624.573926 136.943654 
L 632.935564 143.709385 
L 641.297203 139.206923 
L 649.658841 137.094315 
L 658.02048 135.393279 
L 666.382118 136.890847 
L 674.743756 134.491414 
L 683.105395 131.334607 
L 691.467033 135.492744 
L 699.828671 135.714033 
L 708.19031 131.541211 
L 716.551948 130.724614 
L 724.913586 133.858911 
L 733.275225 137.379809 
L 741.636863 144.978781 
L 749.998501 144.847324 
L 758.36014 142.948145 
L 766.721778 139.294964 
L 775.083417 130.475607 
L 783.445055 124.618686 
L 791.806693 127.690315 
L 800.168332 128.284829 
L 808.52997 128.886565 
L 816.891608 133.269178 
L 825.253247 137.861343 
L 833.614885 137.890188 
L 841.976523 138.678978 
L 850.338162 143.683108 
L 858.6998 144.426958 
L 867.061439 145.996044 
L 875.423077 147.389518 
L 883.784715 149.315432 
L 892.146354 158.507188 
L 900.507992 160.540849 
L 908.86963 150.843413 
L 917.231269 158.521454 
L 925.592907 162.743867 
L 933.954545 155.077154 
" style="fill:none;stroke:#4c72b0;stroke-dasharray:5.55,2.4;stroke-dashoffset:0;stroke-width:1.5;"/>
   </g>
   <g id="line2d_15">
    <path clip-path="url(#p12a50d5cfd)" d="M 173.045455 202.760676 
L 181.407093 200.800481 
L 189.768731 199.735778 
L 198.13037 197.775235 
L 206.492008 202.110256 
L 214.853646 195.429412 
L 223.215285 192.205979 
L 231.576923 192.9868 
L 239.938561 187.188787 
L 248.3002 187.249705 
L 256.661838 181.330349 
L 265.023477 171.227475 
L 273.385115 163.884751 
L 281.746753 161.319082 
L 290.108392 161.244285 
L 298.47003 159.69461 
L 306.831668 156.226818 
L 315.193307 155.262646 
L 323.554945 150.872491 
L 331.916583 138.140189 
L 340.278222 138.689765 
L 348.63986 143.535463 
L 357.001499 143.014051 
L 365.363137 139.664862 
L 373.724775 144.960794 
L 382.086414 145.536857 
L 390.448052 142.088284 
L 398.80969 148.199956 
L 407.171329 149.445685 
L 415.532967 153.123725 
L 423.894605 153.973692 
L 432.256244 152.384991 
L 440.617882 146.145196 
L 448.97952 150.360567 
L 457.341159 143.104642 
L 465.702797 143.368467 
L 474.064436 149.156015 
L 482.426074 146.708609 
L 490.787712 143.368193 
L 499.149351 143.848066 
L 507.510989 144.6947 
L 515.872627 140.213 
L 524.234266 148.532843 
L 532.595904 158.144046 
L 540.957542 159.579976 
L 549.319181 156.159229 
L 557.680819 156.199205 
L 566.042458 148.576202 
L 574.404096 140.561769 
L 582.765734 135.516266 
L 591.127373 130.52571 
L 599.489011 130.190563 
L 607.850649 128.066113 
L 616.212288 126.640893 
L 624.573926 126.459252 
L 632.935564 130.227861 
L 641.297203 129.053979 
L 649.658841 133.564385 
L 658.02048 144.447938 
L 666.382118 152.596701 
L 674.743756 154.575057 
L 683.105395 156.752517 
L 691.467033 151.47593 
L 699.828671 143.246296 
L 708.19031 139.479576 
L 716.551948 136.072215 
L 724.913586 145.799728 
L 733.275225 146.726517 
L 741.636863 148.68983 
L 749.998501 150.308173 
L 758.36014 150.715433 
L 766.721778 139.592837 
L 775.083417 147.727849 
L 783.445055 145.182803 
L 791.806693 141.081565 
L 800.168332 138.336362 
L 808.52997 137.222878 
L 816.891608 132.178993 
L 825.253247 130.145987 
L 833.614885 137.052363 
L 841.976523 136.438978 
L 850.338162 137.851945 
L 858.6998 135.056734 
L 867.061439 137.939006 
L 875.423077 129.901254 
L 883.784715 133.707236 
L 892.146354 137.220538 
L 900.507992 142.421121 
L 908.86963 136.592126 
L 917.231269 137.312662 
L 925.592907 137.51688 
L 933.954545 133.20801 
" style="fill:none;stroke:#1a1a1a;stroke-linecap:round;stroke-width:1.5;"/>
   </g>
   <g id="line2d_16">
    <path clip-path="url(#p12a50d5cfd)" d="M 173.045455 202.607896 
L 181.407093 231.302779 
L 189.768731 230.290494 
L 198.13037 232.555897 
L 206.492008 225.451281 
L 214.853646 250.971832 
L 223.215285 244.194267 
L 231.576923 238.672013 
L 239.938561 235.378235 
L 248.3002 246.226894 
L 256.661838 248.681842 
L 265.023477 219.123278 
L 273.385115 209.624128 
L 281.746753 219.592332 
L 290.108392 204.117927 
L 298.47003 178.276826 
L 306.831668 218.231771 
L 315.193307 219.339544 
L 323.554945 209.342162 
L 331.916583 202.594543 
L 340.278222 233.653606 
L 348.63986 217.237139 
L 357.001499 232.054047 
L 365.363137 241.237658 
L 373.724775 256.448216 
L 382.086414 210.559373 
L 390.448052 204.501648 
L 398.80969 175.261351 
L 407.171329 159.866939 
L 415.532967 157.526948 
L 423.894605 172.329146 
L 432.256244 172.331718 
L 440.617882 218.057442 
L 448.97952 218.380152 
L 457.341159 233.995139 
L 465.702797 225.444495 
L 474.064436 232.319317 
L 482.426074 207.752494 
L 490.787712 221.635157 
L 499.149351 208.367595 
L 507.510989 227.12128 
L 515.872627 210.108082 
L 524.234266 211.4832 
L 532.595904 198.180486 
L 540.957542 180.446244 
L 549.319181 177.185183 
L 557.680819 200.418494 
L 566.042458 200.346753 
L 574.404096 213.784001 
L 582.765734 231.272279 
L 591.127373 247.352724 
L 599.489011 242.361771 
L 607.850649 261.858689 
L 616.212288 255.096334 
L 624.573926 240.110551 
L 632.935564 224.130052 
L 641.297203 227.668717 
L 649.658841 221.24836 
L 658.02048 213.120117 
L 666.382118 228.360936 
L 674.743756 221.195469 
L 683.105395 215.672277 
L 691.467033 193.173736 
L 699.828671 216.735085 
L 708.19031 230.281932 
L 716.551948 244.897997 
L 724.913586 224.640879 
L 733.275225 248.269423 
L 741.636863 239.940923 
L 749.998501 215.472004 
L 758.36014 206.053386 
L 766.721778 220.37274 
L 775.083417 206.117047 
L 783.445055 214.203204 
L 791.806693 230.819774 
L 800.168332 251.733902 
L 808.52997 259.856035 
L 816.891608 258.409593 
L 825.253247 242.794307 
L 833.614885 249.177421 
L 841.976523 249.87166 
L 850.338162 241.778807 
L 858.6998 247.102504 
L 867.061439 255.228749 
L 875.423077 227.557424 
L 883.784715 229.036692 
L 892.146354 229.349569 
L 900.507992 216.690911 
L 908.86963 215.961823 
L 917.231269 230.420279 
L 925.592907 213.633315 
L 933.954545 220.419357 
" style="fill:none;stroke:#c44e52;stroke-dasharray:9.6,2.4,1.5,2.4;stroke-dashoffset:0;stroke-width:1.5;"/>
   </g>
   <g id="line2d_17">
    <path clip-path="url(#p12a50d5cfd)" d="M 173.045455 130.959236 
L 181.407093 104.07127 
L 189.768731 97.107409 
L 198.13037 104.196381 
L 206.492008 106.549931 
L 214.853646 126.248853 
L 223.215285 142.427908 
L 231.576923 138.334789 
L 239.938561 140.145872 
L 248.3002 154.851196 
L 256.661838 137.48856 
L 265.023477 140.155527 
L 273.385115 152.322968 
L 281.746753 147.857768 
L 290.108392 141.620959 
L 298.47003 150.857207 
L 306.831668 155.072677 
L 315.193307 142.354799 
L 323.554945 153.359566 
L 331.916583 143.194698 
L 340.278222 137.804284 
L 348.63986 121.430258 
L 357.001499 131.956154 
L 365.363137 118.429605 
L 373.724775 118.92225 
L 382.086414 113.279195 
L 390.448052 109.724025 
L 398.80969 102.744902 
L 407.171329 110.730263 
L 415.532967 110.263716 
L 423.894605 121.056191 
L 432.256244 114.930703 
L 440.617882 107.239656 
L 448.97952 105.085396 
L 457.341159 128.287577 
L 465.702797 118.71699 
L 474.064436 136.426034 
L 482.426074 137.813043 
L 490.787712 129.647301 
L 499.149351 114.23928 
L 507.510989 114.858175 
L 515.872627 113.872525 
L 524.234266 131.176405 
L 532.595904 128.534436 
L 540.957542 129.160489 
L 549.319181 129.733088 
L 557.680819 121.616831 
L 566.042458 100.68204 
L 574.404096 104.087794 
L 582.765734 99.424814 
L 591.127373 104.467529 
L 599.489011 107.615288 
L 607.850649 122.526585 
L 616.212288 127.997645 
L 624.573926 128.912956 
L 632.935564 129.968509 
L 641.297203 119.098735 
L 649.658841 116.95043 
L 658.02048 126.498907 
L 666.382118 132.146457 
L 674.743756 124.290833 
L 683.105395 139.866268 
L 691.467033 132.630721 
L 699.828671 142.108395 
L 708.19031 148.167152 
L 716.551948 151.364518 
L 724.913586 142.656415 
L 733.275225 143.697726 
L 741.636863 114.60154 
L 749.998501 101.969994 
L 758.36014 110.431155 
L 766.721778 106.168349 
L 775.083417 99.643825 
L 783.445055 118.322885 
L 791.806693 133.915236 
L 800.168332 119.509565 
L 808.52997 125.654697 
L 816.891608 125.101667 
L 825.253247 117.976618 
L 833.614885 102.678489 
L 841.976523 108.187639 
L 850.338162 105.938288 
L 858.6998 115.663104 
L 867.061439 105.491043 
L 875.423077 101.615316 
L 883.784715 112.149361 
L 892.146354 117.650259 
L 900.507992 120.036861 
L 908.86963 144.287738 
L 917.231269 149.144649 
L 925.592907 132.882321 
L 933.954545 143.50612 
" style="fill:none;stroke:#ffa500;stroke-linecap:round;stroke-width:1.5;"/>
   </g>
   <g id="line2d_18">
    <path clip-path="url(#p12a50d5cfd)" d="M 173.045455 491.463401 
L 181.407093 491.380921 
L 189.768731 491.371988 
L 198.13037 491.464106 
L 206.492008 491.455348 
L 214.853646 491.523226 
L 223.215285 491.518824 
L 231.576923 491.492464 
L 239.938561 491.330162 
L 248.3002 491.323143 
L 256.661838 491.227702 
L 265.023477 491.136112 
L 273.385115 491.022854 
L 281.746753 490.839522 
L 290.108392 490.662812 
L 298.47003 490.48798 
L 306.831668 490.402302 
L 315.193307 490.332921 
L 323.554945 490.412866 
L 331.916583 490.353353 
L 340.278222 490.351959 
L 348.63986 490.320158 
L 357.001499 490.249358 
L 365.363137 490.139745 
L 373.724775 490.160803 
L 382.086414 490.085542 
L 390.448052 490.055561 
L 398.80969 490.150457 
L 407.171329 490.179635 
L 415.532967 490.159406 
L 423.894605 490.227378 
L 432.256244 490.199986 
L 440.617882 490.142905 
L 448.97952 490.245456 
L 457.341159 490.28589 
L 465.702797 490.352864 
L 474.064436 490.516467 
L 482.426074 490.554443 
L 490.787712 490.56842 
L 499.149351 490.605022 
L 507.510989 490.577333 
L 515.872627 490.425481 
L 524.234266 490.309327 
L 532.595904 490.191849 
L 540.957542 490.136968 
L 549.319181 490.127937 
L 557.680819 490.148299 
L 566.042458 490.175839 
L 574.404096 490.167046 
L 582.765734 490.136859 
L 591.127373 490.163327 
L 599.489011 490.233694 
L 607.850649 490.283185 
L 616.212288 490.356267 
L 624.573926 490.424537 
L 632.935564 490.431715 
L 641.297203 490.469602 
L 649.658841 490.50334 
L 658.02048 490.5782 
L 666.382118 490.625443 
L 674.743756 490.633715 
L 683.105395 490.526086 
L 691.467033 490.486899 
L 699.828671 490.4099 
L 708.19031 490.417045 
L 716.551948 490.442124 
L 724.913586 490.518397 
L 733.275225 490.604277 
L 741.636863 490.621088 
L 749.998501 490.662701 
L 758.36014 490.669358 
L 766.721778 490.717989 
L 775.083417 490.705352 
L 783.445055 490.761316 
L 791.806693 490.76482 
L 800.168332 490.796316 
L 808.52997 490.825231 
L 816.891608 490.819474 
L 825.253247 490.801583 
L 833.614885 490.740037 
L 841.976523 490.684271 
L 850.338162 490.576418 
L 858.6998 490.559811 
L 867.061439 490.472745 
L 875.423077 490.3731 
L 883.784715 490.410233 
L 892.146354 490.440329 
L 900.507992 490.447193 
L 908.86963 490.508403 
L 917.231269 490.620128 
L 925.592907 490.680664 
L 933.954545 490.73971 
" style="fill:none;stroke:#800080;stroke-dasharray:1.5,2.475;stroke-dashoffset:0;stroke-width:1.5;"/>
   </g>
   <g id="patch_3">
    <path d="M 135 512.64 
L 135 69.12 
" style="fill:none;stroke:#ffffff;stroke-linecap:square;stroke-linejoin:miter;stroke-width:1.25;"/>
   </g>
   <g id="patch_4">
    <path d="M 972 512.64 
L 972 69.12 
" style="fill:none;stroke:#ffffff;stroke-linecap:square;stroke-linejoin:miter;stroke-width:1.25;"/>
   </g>
   <g id="patch_5">
    <path d="M 135 512.64 
L 972 512.64 
" style="fill:none;stroke:#ffffff;stroke-linecap:square;stroke-linejoin:miter;stroke-width:1.25;"/>
   </g>
   <g id="patch_6">
    <path d="M 135 69.12 
L 972 69.12 
" style="fill:none;stroke:#ffffff;stroke-linecap:square;stroke-linejoin:miter;stroke-width:1.25;"/>
   </g>
   <g id="legend_1">
    <g id="patch_7">
     <path d="M 690.6 425.174531 
L 909.446719 425.174531 
Q 912.746719 425.174531 912.746719 421.874531 
L 912.746719 302.43 
Q 912.746719 299.13 909.446719 299.13 
L 690.6 299.13 
Q 687.3 299.13 687.3 302.43 
L 687.3 421.874531 
Q 687.3 425.174531 690.6 425.174531 
z
" style="fill:#eaeaf2;opacity:0.8;stroke:#cccccc;stroke-linejoin:miter;"/>
    </g>
    <g id="line2d_19">
     <path d="M 693.9 312.492422 
L 726.9 312.492422 
" style="fill:none;stroke:#4c72b0;stroke-dasharray:5.55,2.4;stroke-dashoffset:0;stroke-width:1.5;"/>
    </g>
    <g id="line2d_20"/>
    <g id="text_17">
     <!-- MAHRL(Homo) -->
     <defs>
      <path d="M 34.1875 63.1875 
L 20.796875 26.90625 
L 47.609375 26.90625 
z
M 28.609375 72.90625 
L 39.796875 72.90625 
L 67.578125 0 
L 57.328125 0 
L 50.6875 18.703125 
L 17.828125 18.703125 
L 11.1875 0 
L 0.78125 0 
z
" id="DejaVuSans-65"/>
      <path d="M 9.8125 72.90625 
L 19.671875 72.90625 
L 19.671875 43.015625 
L 55.515625 43.015625 
L 55.515625 72.90625 
L 65.375 72.90625 
L 65.375 0 
L 55.515625 0 
L 55.515625 34.71875 
L 19.671875 34.71875 
L 19.671875 0 
L 9.8125 0 
z
" id="DejaVuSans-72"/>
      <path d="M 9.8125 72.90625 
L 19.671875 72.90625 
L 19.671875 8.296875 
L 55.171875 8.296875 
L 55.171875 0 
L 9.8125 0 
z
" id="DejaVuSans-76"/>
      <path d="M 31 75.875 
Q 24.46875 64.65625 21.28125 53.65625 
Q 18.109375 42.671875 18.109375 31.390625 
Q 18.109375 20.125 21.3125 9.0625 
Q 24.515625 -2 31 -13.1875 
L 23.1875 -13.1875 
Q 15.875 -1.703125 12.234375 9.375 
Q 8.59375 20.453125 8.59375 31.390625 
Q 8.59375 42.28125 12.203125 53.3125 
Q 15.828125 64.359375 23.1875 75.875 
z
" id="DejaVuSans-40"/>
      <path d="M 30.609375 48.390625 
Q 23.390625 48.390625 19.1875 42.75 
Q 14.984375 37.109375 14.984375 27.296875 
Q 14.984375 17.484375 19.15625 11.84375 
Q 23.34375 6.203125 30.609375 6.203125 
Q 37.796875 6.203125 41.984375 11.859375 
Q 46.1875 17.53125 46.1875 27.296875 
Q 46.1875 37.015625 41.984375 42.703125 
Q 37.796875 48.390625 30.609375 48.390625 
z
M 30.609375 56 
Q 42.328125 56 49.015625 48.375 
Q 55.71875 40.765625 55.71875 27.296875 
Q 55.71875 13.875 49.015625 6.21875 
Q 42.328125 -1.421875 30.609375 -1.421875 
Q 18.84375 -1.421875 12.171875 6.21875 
Q 5.515625 13.875 5.515625 27.296875 
Q 5.515625 40.765625 12.171875 48.375 
Q 18.84375 56 30.609375 56 
z
" id="DejaVuSans-111"/>
      <path d="M 52 44.1875 
Q 55.375 50.25 60.0625 53.125 
Q 64.75 56 71.09375 56 
Q 79.640625 56 84.28125 50.015625 
Q 88.921875 44.046875 88.921875 33.015625 
L 88.921875 0 
L 79.890625 0 
L 79.890625 32.71875 
Q 79.890625 40.578125 77.09375 44.375 
Q 74.3125 48.1875 68.609375 48.1875 
Q 61.625 48.1875 57.5625 43.546875 
Q 53.515625 38.921875 53.515625 30.90625 
L 53.515625 0 
L 44.484375 0 
L 44.484375 32.71875 
Q 44.484375 40.625 41.703125 44.40625 
Q 38.921875 48.1875 33.109375 48.1875 
Q 26.21875 48.1875 22.15625 43.53125 
Q 18.109375 38.875 18.109375 30.90625 
L 18.109375 0 
L 9.078125 0 
L 9.078125 54.6875 
L 18.109375 54.6875 
L 18.109375 46.1875 
Q 21.1875 51.21875 25.484375 53.609375 
Q 29.78125 56 35.6875 56 
Q 41.65625 56 45.828125 52.96875 
Q 50 49.953125 52 44.1875 
z
" id="DejaVuSans-109"/>
      <path d="M 8.015625 75.875 
L 15.828125 75.875 
Q 23.140625 64.359375 26.78125 53.3125 
Q 30.421875 42.28125 30.421875 31.390625 
Q 30.421875 20.453125 26.78125 9.375 
Q 23.140625 -1.703125 15.828125 -13.1875 
L 8.015625 -13.1875 
Q 14.5 -2 17.703125 9.0625 
Q 20.90625 20.125 20.90625 31.390625 
Q 20.90625 42.671875 17.703125 53.65625 
Q 14.5 64.65625 8.015625 75.875 
z
" id="DejaVuSans-41"/>
     </defs>
     <g style="fill:#262626;" transform="translate(740.1 318.267422)scale(0.165 -0.165)">
      <use xlink:href="#DejaVuSans-77"/>
      <use x="86.279297" xlink:href="#DejaVuSans-65"/>
      <use x="154.6875" xlink:href="#DejaVuSans-72"/>
      <use x="229.882812" xlink:href="#DejaVuSans-82"/>
      <use x="299.365234" xlink:href="#DejaVuSans-76"/>
      <use x="355.078125" xlink:href="#DejaVuSans-40"/>
      <use x="394.091797" xlink:href="#DejaVuSans-72"/>
      <use x="469.287109" xlink:href="#DejaVuSans-111"/>
      <use x="530.46875" xlink:href="#DejaVuSans-109"/>
      <use x="627.880859" xlink:href="#DejaVuSans-111"/>
      <use x="689.0625" xlink:href="#DejaVuSans-41"/>
     </g>
    </g>
    <g id="line2d_21">
     <path d="M 693.9 336.711328 
L 726.9 336.711328 
" style="fill:none;stroke:#1a1a1a;stroke-linecap:round;stroke-width:1.5;"/>
    </g>
    <g id="line2d_22"/>
    <g id="text_18">
     <!-- MAHRL(Hetero) -->
     <g style="fill:#262626;" transform="translate(740.1 342.486328)scale(0.165 -0.165)">
      <use xlink:href="#DejaVuSans-77"/>
      <use x="86.279297" xlink:href="#DejaVuSans-65"/>
      <use x="154.6875" xlink:href="#DejaVuSans-72"/>
      <use x="229.882812" xlink:href="#DejaVuSans-82"/>
      <use x="299.365234" xlink:href="#DejaVuSans-76"/>
      <use x="355.078125" xlink:href="#DejaVuSans-40"/>
      <use x="394.091797" xlink:href="#DejaVuSans-72"/>
      <use x="469.287109" xlink:href="#DejaVuSans-101"/>
      <use x="530.810547" xlink:href="#DejaVuSans-116"/>
      <use x="570.019531" xlink:href="#DejaVuSans-101"/>
      <use x="631.542969" xlink:href="#DejaVuSans-114"/>
      <use x="672.625" xlink:href="#DejaVuSans-111"/>
      <use x="733.806641" xlink:href="#DejaVuSans-41"/>
     </g>
    </g>
    <g id="line2d_23">
     <path d="M 693.9 360.930234 
L 726.9 360.930234 
" style="fill:none;stroke:#c44e52;stroke-dasharray:9.6,2.4,1.5,2.4;stroke-dashoffset:0;stroke-width:1.5;"/>
    </g>
    <g id="line2d_24"/>
    <g id="text_19">
     <!-- MADDPG(Hetero) -->
     <defs>
      <path d="M 19.671875 64.796875 
L 19.671875 8.109375 
L 31.59375 8.109375 
Q 46.6875 8.109375 53.6875 14.9375 
Q 60.6875 21.78125 60.6875 36.53125 
Q 60.6875 51.171875 53.6875 57.984375 
Q 46.6875 64.796875 31.59375 64.796875 
z
M 9.8125 72.90625 
L 30.078125 72.90625 
Q 51.265625 72.90625 61.171875 64.09375 
Q 71.09375 55.28125 71.09375 36.53125 
Q 71.09375 17.671875 61.125 8.828125 
Q 51.171875 0 30.078125 0 
L 9.8125 0 
z
" id="DejaVuSans-68"/>
      <path d="M 19.671875 64.796875 
L 19.671875 37.40625 
L 32.078125 37.40625 
Q 38.96875 37.40625 42.71875 40.96875 
Q 46.484375 44.53125 46.484375 51.125 
Q 46.484375 57.671875 42.71875 61.234375 
Q 38.96875 64.796875 32.078125 64.796875 
z
M 9.8125 72.90625 
L 32.078125 72.90625 
Q 44.34375 72.90625 50.609375 67.359375 
Q 56.890625 61.8125 56.890625 51.125 
Q 56.890625 40.328125 50.609375 34.8125 
Q 44.34375 29.296875 32.078125 29.296875 
L 19.671875 29.296875 
L 19.671875 0 
L 9.8125 0 
z
" id="DejaVuSans-80"/>
      <path d="M 59.515625 10.40625 
L 59.515625 29.984375 
L 43.40625 29.984375 
L 43.40625 38.09375 
L 69.28125 38.09375 
L 69.28125 6.78125 
Q 63.578125 2.734375 56.6875 0.65625 
Q 49.8125 -1.421875 42 -1.421875 
Q 24.90625 -1.421875 15.25 8.5625 
Q 5.609375 18.5625 5.609375 36.375 
Q 5.609375 54.25 15.25 64.234375 
Q 24.90625 74.21875 42 74.21875 
Q 49.125 74.21875 55.546875 72.453125 
Q 61.96875 70.703125 67.390625 67.28125 
L 67.390625 56.78125 
Q 61.921875 61.421875 55.765625 63.765625 
Q 49.609375 66.109375 42.828125 66.109375 
Q 29.4375 66.109375 22.71875 58.640625 
Q 16.015625 51.171875 16.015625 36.375 
Q 16.015625 21.625 22.71875 14.15625 
Q 29.4375 6.6875 42.828125 6.6875 
Q 48.046875 6.6875 52.140625 7.59375 
Q 56.25 8.5 59.515625 10.40625 
z
" id="DejaVuSans-71"/>
     </defs>
     <g style="fill:#262626;" transform="translate(740.1 366.705234)scale(0.165 -0.165)">
      <use xlink:href="#DejaVuSans-77"/>
      <use x="86.279297" xlink:href="#DejaVuSans-65"/>
      <use x="154.6875" xlink:href="#DejaVuSans-68"/>
      <use x="231.689453" xlink:href="#DejaVuSans-68"/>
      <use x="308.691406" xlink:href="#DejaVuSans-80"/>
      <use x="368.994141" xlink:href="#DejaVuSans-71"/>
      <use x="446.484375" xlink:href="#DejaVuSans-40"/>
      <use x="485.498047" xlink:href="#DejaVuSans-72"/>
      <use x="560.693359" xlink:href="#DejaVuSans-101"/>
      <use x="622.216797" xlink:href="#DejaVuSans-116"/>
      <use x="661.425781" xlink:href="#DejaVuSans-101"/>
      <use x="722.949219" xlink:href="#DejaVuSans-114"/>
      <use x="764.03125" xlink:href="#DejaVuSans-111"/>
      <use x="825.212891" xlink:href="#DejaVuSans-41"/>
     </g>
    </g>
    <g id="line2d_25">
     <path d="M 693.9 385.149141 
L 726.9 385.149141 
" style="fill:none;stroke:#ffa500;stroke-linecap:round;stroke-width:1.5;"/>
    </g>
    <g id="line2d_26"/>
    <g id="text_20">
     <!-- MAHRL(TD3,Hetero) -->
     <defs>
      <path d="M -0.296875 72.90625 
L 61.375 72.90625 
L 61.375 64.59375 
L 35.5 64.59375 
L 35.5 0 
L 25.59375 0 
L 25.59375 64.59375 
L -0.296875 64.59375 
z
" id="DejaVuSans-84"/>
      <path d="M 40.578125 39.3125 
Q 47.65625 37.796875 51.625 33 
Q 55.609375 28.21875 55.609375 21.1875 
Q 55.609375 10.40625 48.1875 4.484375 
Q 40.765625 -1.421875 27.09375 -1.421875 
Q 22.515625 -1.421875 17.65625 -0.515625 
Q 12.796875 0.390625 7.625 2.203125 
L 7.625 11.71875 
Q 11.71875 9.328125 16.59375 8.109375 
Q 21.484375 6.890625 26.8125 6.890625 
Q 36.078125 6.890625 40.9375 10.546875 
Q 45.796875 14.203125 45.796875 21.1875 
Q 45.796875 27.640625 41.28125 31.265625 
Q 36.765625 34.90625 28.71875 34.90625 
L 20.21875 34.90625 
L 20.21875 43.015625 
L 29.109375 43.015625 
Q 36.375 43.015625 40.234375 45.921875 
Q 44.09375 48.828125 44.09375 54.296875 
Q 44.09375 59.90625 40.109375 62.90625 
Q 36.140625 65.921875 28.71875 65.921875 
Q 24.65625 65.921875 20.015625 65.03125 
Q 15.375 64.15625 9.8125 62.3125 
L 9.8125 71.09375 
Q 15.4375 72.65625 20.34375 73.4375 
Q 25.25 74.21875 29.59375 74.21875 
Q 40.828125 74.21875 47.359375 69.109375 
Q 53.90625 64.015625 53.90625 55.328125 
Q 53.90625 49.265625 50.4375 45.09375 
Q 46.96875 40.921875 40.578125 39.3125 
z
" id="DejaVuSans-51"/>
      <path d="M 11.71875 12.40625 
L 22.015625 12.40625 
L 22.015625 4 
L 14.015625 -11.625 
L 7.71875 -11.625 
L 11.71875 4 
z
" id="DejaVuSans-44"/>
     </defs>
     <g style="fill:#262626;" transform="translate(740.1 390.924141)scale(0.165 -0.165)">
      <use xlink:href="#DejaVuSans-77"/>
      <use x="86.279297" xlink:href="#DejaVuSans-65"/>
      <use x="154.6875" xlink:href="#DejaVuSans-72"/>
      <use x="229.882812" xlink:href="#DejaVuSans-82"/>
      <use x="299.365234" xlink:href="#DejaVuSans-76"/>
      <use x="355.078125" xlink:href="#DejaVuSans-40"/>
      <use x="394.091797" xlink:href="#DejaVuSans-84"/>
      <use x="455.175781" xlink:href="#DejaVuSans-68"/>
      <use x="532.177734" xlink:href="#DejaVuSans-51"/>
      <use x="595.800781" xlink:href="#DejaVuSans-44"/>
      <use x="627.587891" xlink:href="#DejaVuSans-72"/>
      <use x="702.783203" xlink:href="#DejaVuSans-101"/>
      <use x="764.306641" xlink:href="#DejaVuSans-116"/>
      <use x="803.515625" xlink:href="#DejaVuSans-101"/>
      <use x="865.039062" xlink:href="#DejaVuSans-114"/>
      <use x="906.121094" xlink:href="#DejaVuSans-111"/>
      <use x="967.302734" xlink:href="#DejaVuSans-41"/>
     </g>
    </g>
    <g id="line2d_27">
     <path d="M 693.9 409.368047 
L 726.9 409.368047 
" style="fill:none;stroke:#800080;stroke-dasharray:1.5,2.475;stroke-dashoffset:0;stroke-width:1.5;"/>
    </g>
    <g id="line2d_28"/>
    <g id="text_21">
     <!-- PPO(Homo) -->
     <defs>
      <path d="M 39.40625 66.21875 
Q 28.65625 66.21875 22.328125 58.203125 
Q 16.015625 50.203125 16.015625 36.375 
Q 16.015625 22.609375 22.328125 14.59375 
Q 28.65625 6.59375 39.40625 6.59375 
Q 50.140625 6.59375 56.421875 14.59375 
Q 62.703125 22.609375 62.703125 36.375 
Q 62.703125 50.203125 56.421875 58.203125 
Q 50.140625 66.21875 39.40625 66.21875 
z
M 39.40625 74.21875 
Q 54.734375 74.21875 63.90625 63.9375 
Q 73.09375 53.65625 73.09375 36.375 
Q 73.09375 19.140625 63.90625 8.859375 
Q 54.734375 -1.421875 39.40625 -1.421875 
Q 24.03125 -1.421875 14.8125 8.828125 
Q 5.609375 19.09375 5.609375 36.375 
Q 5.609375 53.65625 14.8125 63.9375 
Q 24.03125 74.21875 39.40625 74.21875 
z
" id="DejaVuSans-79"/>
     </defs>
     <g style="fill:#262626;" transform="translate(740.1 415.143047)scale(0.165 -0.165)">
      <use xlink:href="#DejaVuSans-80"/>
      <use x="60.302734" xlink:href="#DejaVuSans-80"/>
      <use x="120.605469" xlink:href="#DejaVuSans-79"/>
      <use x="199.316406" xlink:href="#DejaVuSans-40"/>
      <use x="238.330078" xlink:href="#DejaVuSans-72"/>
      <use x="313.525391" xlink:href="#DejaVuSans-111"/>
      <use x="374.707031" xlink:href="#DejaVuSans-109"/>
      <use x="472.119141" xlink:href="#DejaVuSans-111"/>
      <use x="533.300781" xlink:href="#DejaVuSans-41"/>
     </g>
    </g>
   </g>
  </g>
 </g>
 <defs>
  <clipPath id="p12a50d5cfd">
   <rect height="443.52" width="837" x="135" y="69.12"/>
  </clipPath>
 </defs>
</svg>
