<?xml version="1.0" encoding="utf-8" standalone="no"?>
<!DOCTYPE svg PUBLIC "-//W3C//DTD SVG 1.1//EN"
  "http://www.w3.org/Graphics/SVG/1.1/DTD/svg11.dtd">
<!-- Created with matplotlib (https://matplotlib.org/) -->
<svg height="576pt" version="1.1" viewBox="0 0 1080 576" width="1080pt" xmlns="http://www.w3.org/2000/svg" xmlns:xlink="http://www.w3.org/1999/xlink">
 <defs>
  <style type="text/css">
*{stroke-linecap:butt;stroke-linejoin:round;}
  </style>
 </defs>
 <g id="figure_1">
  <g id="patch_1">
   <path d="M 0 576 
L 1080 576 
L 1080 0 
L 0 0 
z
" style="fill:#ffffff;"/>
  </g>
  <g id="axes_1">
   <g id="patch_2">
    <path d="M 135 512.64 
L 972 512.64 
L 972 69.12 
L 135 69.12 
z
" style="fill:#eaeaf2;"/>
   </g>
   <g id="matplotlib.axis_1">
    <g id="xtick_1">
     <g id="line2d_1">
      <path clip-path="url(#pc5e3682929)" d="M 164.683816 512.64 
L 164.683816 69.12 
" style="fill:none;stroke:#ffffff;stroke-linecap:round;"/>
     </g>
     <g id="text_1">
      <!-- 0.0 -->
      <defs>
       <path d="M 31.78125 66.40625 
Q 24.171875 66.40625 20.328125 58.90625 
Q 16.5 51.421875 16.5 36.375 
Q 16.5 21.390625 20.328125 13.890625 
Q 24.171875 6.390625 31.78125 6.390625 
Q 39.453125 6.390625 43.28125 13.890625 
Q 47.125 21.390625 47.125 36.375 
Q 47.125 51.421875 43.28125 58.90625 
Q 39.453125 66.40625 31.78125 66.40625 
z
M 31.78125 74.21875 
Q 44.046875 74.21875 50.515625 64.515625 
Q 56.984375 54.828125 56.984375 36.375 
Q 56.984375 17.96875 50.515625 8.265625 
Q 44.046875 -1.421875 31.78125 -1.421875 
Q 19.53125 -1.421875 13.0625 8.265625 
Q 6.59375 17.96875 6.59375 36.375 
Q 6.59375 54.828125 13.0625 64.515625 
Q 19.53125 74.21875 31.78125 74.21875 
z
" id="DejaVuSans-48"/>
       <path d="M 10.6875 12.40625 
L 21 12.40625 
L 21 0 
L 10.6875 0 
z
" id="DejaVuSans-46"/>
      </defs>
      <g style="fill:#262626;" transform="translate(151.563738 534.677422)scale(0.165 -0.165)">
       <use xlink:href="#DejaVuSans-48"/>
       <use x="63.623047" xlink:href="#DejaVuSans-46"/>
       <use x="95.410156" xlink:href="#DejaVuSans-48"/>
      </g>
     </g>
    </g>
    <g id="xtick_2">
     <g id="line2d_2">
      <path clip-path="url(#pc5e3682929)" d="M 269.204296 512.64 
L 269.204296 69.12 
" style="fill:none;stroke:#ffffff;stroke-linecap:round;"/>
     </g>
     <g id="text_2">
      <!-- 0.2 -->
      <defs>
       <path d="M 19.1875 8.296875 
L 53.609375 8.296875 
L 53.609375 0 
L 7.328125 0 
L 7.328125 8.296875 
Q 12.9375 14.109375 22.625 23.890625 
Q 32.328125 33.6875 34.8125 36.53125 
Q 39.546875 41.84375 41.421875 45.53125 
Q 43.3125 49.21875 43.3125 52.78125 
Q 43.3125 58.59375 39.234375 62.25 
Q 35.15625 65.921875 28.609375 65.921875 
Q 23.96875 65.921875 18.8125 64.3125 
Q 13.671875 62.703125 7.8125 59.421875 
L 7.8125 69.390625 
Q 13.765625 71.78125 18.9375 73 
Q 24.125 74.21875 28.421875 74.21875 
Q 39.75 74.21875 46.484375 68.546875 
Q 53.21875 62.890625 53.21875 53.421875 
Q 53.21875 48.921875 51.53125 44.890625 
Q 49.859375 40.875 45.40625 35.40625 
Q 44.1875 33.984375 37.640625 27.21875 
Q 31.109375 20.453125 19.1875 8.296875 
z
" id="DejaVuSans-50"/>
      </defs>
      <g style="fill:#262626;" transform="translate(256.084218 534.677422)scale(0.165 -0.165)">
       <use xlink:href="#DejaVuSans-48"/>
       <use x="63.623047" xlink:href="#DejaVuSans-46"/>
       <use x="95.410156" xlink:href="#DejaVuSans-50"/>
      </g>
     </g>
    </g>
    <g id="xtick_3">
     <g id="line2d_3">
      <path clip-path="url(#pc5e3682929)" d="M 373.724775 512.64 
L 373.724775 69.12 
" style="fill:none;stroke:#ffffff;stroke-linecap:round;"/>
     </g>
     <g id="text_3">
      <!-- 0.4 -->
      <defs>
       <path d="M 37.796875 64.3125 
L 12.890625 25.390625 
L 37.796875 25.390625 
z
M 35.203125 72.90625 
L 47.609375 72.90625 
L 47.609375 25.390625 
L 58.015625 25.390625 
L 58.015625 17.1875 
L 47.609375 17.1875 
L 47.609375 0 
L 37.796875 0 
L 37.796875 17.1875 
L 4.890625 17.1875 
L 4.890625 26.703125 
z
" id="DejaVuSans-52"/>
      </defs>
      <g style="fill:#262626;" transform="translate(360.604697 534.677422)scale(0.165 -0.165)">
       <use xlink:href="#DejaVuSans-48"/>
       <use x="63.623047" xlink:href="#DejaVuSans-46"/>
       <use x="95.410156" xlink:href="#DejaVuSans-52"/>
      </g>
     </g>
    </g>
    <g id="xtick_4">
     <g id="line2d_4">
      <path clip-path="url(#pc5e3682929)" d="M 478.245255 512.64 
L 478.245255 69.12 
" style="fill:none;stroke:#ffffff;stroke-linecap:round;"/>
     </g>
     <g id="text_4">
      <!-- 0.6 -->
      <defs>
       <path d="M 33.015625 40.375 
Q 26.375 40.375 22.484375 35.828125 
Q 18.609375 31.296875 18.609375 23.390625 
Q 18.609375 15.53125 22.484375 10.953125 
Q 26.375 6.390625 33.015625 6.390625 
Q 39.65625 6.390625 43.53125 10.953125 
Q 47.40625 15.53125 47.40625 23.390625 
Q 47.40625 31.296875 43.53125 35.828125 
Q 39.65625 40.375 33.015625 40.375 
z
M 52.59375 71.296875 
L 52.59375 62.3125 
Q 48.875 64.0625 45.09375 64.984375 
Q 41.3125 65.921875 37.59375 65.921875 
Q 27.828125 65.921875 22.671875 59.328125 
Q 17.53125 52.734375 16.796875 39.40625 
Q 19.671875 43.65625 24.015625 45.921875 
Q 28.375 48.1875 33.59375 48.1875 
Q 44.578125 48.1875 50.953125 41.515625 
Q 57.328125 34.859375 57.328125 23.390625 
Q 57.328125 12.15625 50.6875 5.359375 
Q 44.046875 -1.421875 33.015625 -1.421875 
Q 20.359375 -1.421875 13.671875 8.265625 
Q 6.984375 17.96875 6.984375 36.375 
Q 6.984375 53.65625 15.1875 63.9375 
Q 23.390625 74.21875 37.203125 74.21875 
Q 40.921875 74.21875 44.703125 73.484375 
Q 48.484375 72.75 52.59375 71.296875 
z
" id="DejaVuSans-54"/>
      </defs>
      <g style="fill:#262626;" transform="translate(465.125177 534.677422)scale(0.165 -0.165)">
       <use xlink:href="#DejaVuSans-48"/>
       <use x="63.623047" xlink:href="#DejaVuSans-46"/>
       <use x="95.410156" xlink:href="#DejaVuSans-54"/>
      </g>
     </g>
    </g>
    <g id="xtick_5">
     <g id="line2d_5">
      <path clip-path="url(#pc5e3682929)" d="M 582.765734 512.64 
L 582.765734 69.12 
" style="fill:none;stroke:#ffffff;stroke-linecap:round;"/>
     </g>
     <g id="text_5">
      <!-- 0.8 -->
      <defs>
       <path d="M 31.78125 34.625 
Q 24.75 34.625 20.71875 30.859375 
Q 16.703125 27.09375 16.703125 20.515625 
Q 16.703125 13.921875 20.71875 10.15625 
Q 24.75 6.390625 31.78125 6.390625 
Q 38.8125 6.390625 42.859375 10.171875 
Q 46.921875 13.96875 46.921875 20.515625 
Q 46.921875 27.09375 42.890625 30.859375 
Q 38.875 34.625 31.78125 34.625 
z
M 21.921875 38.8125 
Q 15.578125 40.375 12.03125 44.71875 
Q 8.5 49.078125 8.5 55.328125 
Q 8.5 64.0625 14.71875 69.140625 
Q 20.953125 74.21875 31.78125 74.21875 
Q 42.671875 74.21875 48.875 69.140625 
Q 55.078125 64.0625 55.078125 55.328125 
Q 55.078125 49.078125 51.53125 44.71875 
Q 48 40.375 41.703125 38.8125 
Q 48.828125 37.15625 52.796875 32.3125 
Q 56.78125 27.484375 56.78125 20.515625 
Q 56.78125 9.90625 50.3125 4.234375 
Q 43.84375 -1.421875 31.78125 -1.421875 
Q 19.734375 -1.421875 13.25 4.234375 
Q 6.78125 9.90625 6.78125 20.515625 
Q 6.78125 27.484375 10.78125 32.3125 
Q 14.796875 37.15625 21.921875 38.8125 
z
M 18.3125 54.390625 
Q 18.3125 48.734375 21.84375 45.5625 
Q 25.390625 42.390625 31.78125 42.390625 
Q 38.140625 42.390625 41.71875 45.5625 
Q 45.3125 48.734375 45.3125 54.390625 
Q 45.3125 60.0625 41.71875 63.234375 
Q 38.140625 66.40625 31.78125 66.40625 
Q 25.390625 66.40625 21.84375 63.234375 
Q 18.3125 60.0625 18.3125 54.390625 
z
" id="DejaVuSans-56"/>
      </defs>
      <g style="fill:#262626;" transform="translate(569.645656 534.677422)scale(0.165 -0.165)">
       <use xlink:href="#DejaVuSans-48"/>
       <use x="63.623047" xlink:href="#DejaVuSans-46"/>
       <use x="95.410156" xlink:href="#DejaVuSans-56"/>
      </g>
     </g>
    </g>
    <g id="xtick_6">
     <g id="line2d_6">
      <path clip-path="url(#pc5e3682929)" d="M 687.286214 512.64 
L 687.286214 69.12 
" style="fill:none;stroke:#ffffff;stroke-linecap:round;"/>
     </g>
     <g id="text_6">
      <!-- 1.0 -->
      <defs>
       <path d="M 12.40625 8.296875 
L 28.515625 8.296875 
L 28.515625 63.921875 
L 10.984375 60.40625 
L 10.984375 69.390625 
L 28.421875 72.90625 
L 38.28125 72.90625 
L 38.28125 8.296875 
L 54.390625 8.296875 
L 54.390625 0 
L 12.40625 0 
z
" id="DejaVuSans-49"/>
      </defs>
      <g style="fill:#262626;" transform="translate(674.166136 534.677422)scale(0.165 -0.165)">
       <use xlink:href="#DejaVuSans-49"/>
       <use x="63.623047" xlink:href="#DejaVuSans-46"/>
       <use x="95.410156" xlink:href="#DejaVuSans-48"/>
      </g>
     </g>
    </g>
    <g id="xtick_7">
     <g id="line2d_7">
      <path clip-path="url(#pc5e3682929)" d="M 791.806693 512.64 
L 791.806693 69.12 
" style="fill:none;stroke:#ffffff;stroke-linecap:round;"/>
     </g>
     <g id="text_7">
      <!-- 1.2 -->
      <g style="fill:#262626;" transform="translate(778.686615 534.677422)scale(0.165 -0.165)">
       <use xlink:href="#DejaVuSans-49"/>
       <use x="63.623047" xlink:href="#DejaVuSans-46"/>
       <use x="95.410156" xlink:href="#DejaVuSans-50"/>
      </g>
     </g>
    </g>
    <g id="xtick_8">
     <g id="line2d_8">
      <path clip-path="url(#pc5e3682929)" d="M 896.327173 512.64 
L 896.327173 69.12 
" style="fill:none;stroke:#ffffff;stroke-linecap:round;"/>
     </g>
     <g id="text_8">
      <!-- 1.4 -->
      <g style="fill:#262626;" transform="translate(883.207095 534.677422)scale(0.165 -0.165)">
       <use xlink:href="#DejaVuSans-49"/>
       <use x="63.623047" xlink:href="#DejaVuSans-46"/>
       <use x="95.410156" xlink:href="#DejaVuSans-52"/>
      </g>
     </g>
    </g>
    <g id="text_9">
     <!--  Env Steps  -->
     <defs>
      <path id="DejaVuSans-32"/>
      <path d="M 9.8125 72.90625 
L 55.90625 72.90625 
L 55.90625 64.59375 
L 19.671875 64.59375 
L 19.671875 43.015625 
L 54.390625 43.015625 
L 54.390625 34.71875 
L 19.671875 34.71875 
L 19.671875 8.296875 
L 56.78125 8.296875 
L 56.78125 0 
L 9.8125 0 
z
" id="DejaVuSans-69"/>
      <path d="M 54.890625 33.015625 
L 54.890625 0 
L 45.90625 0 
L 45.90625 32.71875 
Q 45.90625 40.484375 42.875 44.328125 
Q 39.84375 48.1875 33.796875 48.1875 
Q 26.515625 48.1875 22.3125 43.546875 
Q 18.109375 38.921875 18.109375 30.90625 
L 18.109375 0 
L 9.078125 0 
L 9.078125 54.6875 
L 18.109375 54.6875 
L 18.109375 46.1875 
Q 21.34375 51.125 25.703125 53.5625 
Q 30.078125 56 35.796875 56 
Q 45.21875 56 50.046875 50.171875 
Q 54.890625 44.34375 54.890625 33.015625 
z
" id="DejaVuSans-110"/>
      <path d="M 2.984375 54.6875 
L 12.5 54.6875 
L 29.59375 8.796875 
L 46.6875 54.6875 
L 56.203125 54.6875 
L 35.6875 0 
L 23.484375 0 
z
" id="DejaVuSans-118"/>
      <path d="M 53.515625 70.515625 
L 53.515625 60.890625 
Q 47.90625 63.578125 42.921875 64.890625 
Q 37.9375 66.21875 33.296875 66.21875 
Q 25.25 66.21875 20.875 63.09375 
Q 16.5 59.96875 16.5 54.203125 
Q 16.5 49.359375 19.40625 46.890625 
Q 22.3125 44.4375 30.421875 42.921875 
L 36.375 41.703125 
Q 47.40625 39.59375 52.65625 34.296875 
Q 57.90625 29 57.90625 20.125 
Q 57.90625 9.515625 50.796875 4.046875 
Q 43.703125 -1.421875 29.984375 -1.421875 
Q 24.8125 -1.421875 18.96875 -0.25 
Q 13.140625 0.921875 6.890625 3.21875 
L 6.890625 13.375 
Q 12.890625 10.015625 18.65625 8.296875 
Q 24.421875 6.59375 29.984375 6.59375 
Q 38.421875 6.59375 43.015625 9.90625 
Q 47.609375 13.234375 47.609375 19.390625 
Q 47.609375 24.75 44.3125 27.78125 
Q 41.015625 30.8125 33.5 32.328125 
L 27.484375 33.5 
Q 16.453125 35.6875 11.515625 40.375 
Q 6.59375 45.0625 6.59375 53.421875 
Q 6.59375 63.09375 13.40625 68.65625 
Q 20.21875 74.21875 32.171875 74.21875 
Q 37.3125 74.21875 42.625 73.28125 
Q 47.953125 72.359375 53.515625 70.515625 
z
" id="DejaVuSans-83"/>
      <path d="M 18.3125 70.21875 
L 18.3125 54.6875 
L 36.8125 54.6875 
L 36.8125 47.703125 
L 18.3125 47.703125 
L 18.3125 18.015625 
Q 18.3125 11.328125 20.140625 9.421875 
Q 21.96875 7.515625 27.59375 7.515625 
L 36.8125 7.515625 
L 36.8125 0 
L 27.59375 0 
Q 17.1875 0 13.234375 3.875 
Q 9.28125 7.765625 9.28125 18.015625 
L 9.28125 47.703125 
L 2.6875 47.703125 
L 2.6875 54.6875 
L 9.28125 54.6875 
L 9.28125 70.21875 
z
" id="DejaVuSans-116"/>
      <path d="M 56.203125 29.59375 
L 56.203125 25.203125 
L 14.890625 25.203125 
Q 15.484375 15.921875 20.484375 11.0625 
Q 25.484375 6.203125 34.421875 6.203125 
Q 39.59375 6.203125 44.453125 7.46875 
Q 49.3125 8.734375 54.109375 11.28125 
L 54.109375 2.78125 
Q 49.265625 0.734375 44.1875 -0.34375 
Q 39.109375 -1.421875 33.890625 -1.421875 
Q 20.796875 -1.421875 13.15625 6.1875 
Q 5.515625 13.8125 5.515625 26.8125 
Q 5.515625 40.234375 12.765625 48.109375 
Q 20.015625 56 32.328125 56 
Q 43.359375 56 49.78125 48.890625 
Q 56.203125 41.796875 56.203125 29.59375 
z
M 47.21875 32.234375 
Q 47.125 39.59375 43.09375 43.984375 
Q 39.0625 48.390625 32.421875 48.390625 
Q 24.90625 48.390625 20.390625 44.140625 
Q 15.875 39.890625 15.1875 32.171875 
z
" id="DejaVuSans-101"/>
      <path d="M 18.109375 8.203125 
L 18.109375 -20.796875 
L 9.078125 -20.796875 
L 9.078125 54.6875 
L 18.109375 54.6875 
L 18.109375 46.390625 
Q 20.953125 51.265625 25.265625 53.625 
Q 29.59375 56 35.59375 56 
Q 45.5625 56 51.78125 48.09375 
Q 58.015625 40.1875 58.015625 27.296875 
Q 58.015625 14.40625 51.78125 6.484375 
Q 45.5625 -1.421875 35.59375 -1.421875 
Q 29.59375 -1.421875 25.265625 0.953125 
Q 20.953125 3.328125 18.109375 8.203125 
z
M 48.6875 27.296875 
Q 48.6875 37.203125 44.609375 42.84375 
Q 40.53125 48.484375 33.40625 48.484375 
Q 26.265625 48.484375 22.1875 42.84375 
Q 18.109375 37.203125 18.109375 27.296875 
Q 18.109375 17.390625 22.1875 11.75 
Q 26.265625 6.109375 33.40625 6.109375 
Q 40.53125 6.109375 44.609375 11.75 
Q 48.6875 17.390625 48.6875 27.296875 
z
" id="DejaVuSans-112"/>
      <path d="M 44.28125 53.078125 
L 44.28125 44.578125 
Q 40.484375 46.53125 36.375 47.5 
Q 32.28125 48.484375 27.875 48.484375 
Q 21.1875 48.484375 17.84375 46.4375 
Q 14.5 44.390625 14.5 40.28125 
Q 14.5 37.15625 16.890625 35.375 
Q 19.28125 33.59375 26.515625 31.984375 
L 29.59375 31.296875 
Q 39.15625 29.25 43.1875 25.515625 
Q 47.21875 21.78125 47.21875 15.09375 
Q 47.21875 7.46875 41.1875 3.015625 
Q 35.15625 -1.421875 24.609375 -1.421875 
Q 20.21875 -1.421875 15.453125 -0.5625 
Q 10.6875 0.296875 5.421875 2 
L 5.421875 11.28125 
Q 10.40625 8.6875 15.234375 7.390625 
Q 20.0625 6.109375 24.8125 6.109375 
Q 31.15625 6.109375 34.5625 8.28125 
Q 37.984375 10.453125 37.984375 14.40625 
Q 37.984375 18.0625 35.515625 20.015625 
Q 33.0625 21.96875 24.703125 23.78125 
L 21.578125 24.515625 
Q 13.234375 26.265625 9.515625 29.90625 
Q 5.8125 33.546875 5.8125 39.890625 
Q 5.8125 47.609375 11.28125 51.796875 
Q 16.75 56 26.8125 56 
Q 31.78125 56 36.171875 55.265625 
Q 40.578125 54.546875 44.28125 53.078125 
z
" id="DejaVuSans-115"/>
     </defs>
     <g style="fill:#262626;" transform="translate(503.019844 555.786094)scale(0.18 -0.18)">
      <use xlink:href="#DejaVuSans-32"/>
      <use x="31.787109" xlink:href="#DejaVuSans-69"/>
      <use x="94.970703" xlink:href="#DejaVuSans-110"/>
      <use x="158.349609" xlink:href="#DejaVuSans-118"/>
      <use x="217.529297" xlink:href="#DejaVuSans-32"/>
      <use x="249.316406" xlink:href="#DejaVuSans-83"/>
      <use x="312.792969" xlink:href="#DejaVuSans-116"/>
      <use x="352.001953" xlink:href="#DejaVuSans-101"/>
      <use x="413.525391" xlink:href="#DejaVuSans-112"/>
      <use x="477.001953" xlink:href="#DejaVuSans-115"/>
      <use x="529.101562" xlink:href="#DejaVuSans-32"/>
     </g>
    </g>
    <g id="text_10">
     <!-- 1e6 -->
     <g style="fill:#262626;" transform="translate(940.851094 553.646328)scale(0.165 -0.165)">
      <use xlink:href="#DejaVuSans-49"/>
      <use x="63.623047" xlink:href="#DejaVuSans-101"/>
      <use x="125.146484" xlink:href="#DejaVuSans-54"/>
     </g>
    </g>
   </g>
   <g id="matplotlib.axis_2">
    <g id="ytick_1">
     <g id="line2d_9">
      <path clip-path="url(#pc5e3682929)" d="M 135 479.985179 
L 972 479.985179 
" style="fill:none;stroke:#ffffff;stroke-linecap:round;"/>
     </g>
     <g id="text_11">
      <!-- −20 -->
      <defs>
       <path d="M 10.59375 35.5 
L 73.1875 35.5 
L 73.1875 27.203125 
L 10.59375 27.203125 
z
" id="DejaVuSans-8722"/>
      </defs>
      <g style="fill:#262626;" transform="translate(90.677266 486.25389)scale(0.165 -0.165)">
       <use xlink:href="#DejaVuSans-8722"/>
       <use x="83.789062" xlink:href="#DejaVuSans-50"/>
       <use x="147.412109" xlink:href="#DejaVuSans-48"/>
      </g>
     </g>
    </g>
    <g id="ytick_2">
     <g id="line2d_10">
      <path clip-path="url(#pc5e3682929)" d="M 135 382.323949 
L 972 382.323949 
" style="fill:none;stroke:#ffffff;stroke-linecap:round;"/>
     </g>
     <g id="text_12">
      <!-- −15 -->
      <defs>
       <path d="M 10.796875 72.90625 
L 49.515625 72.90625 
L 49.515625 64.59375 
L 19.828125 64.59375 
L 19.828125 46.734375 
Q 21.96875 47.46875 24.109375 47.828125 
Q 26.265625 48.1875 28.421875 48.1875 
Q 40.625 48.1875 47.75 41.5 
Q 54.890625 34.8125 54.890625 23.390625 
Q 54.890625 11.625 47.5625 5.09375 
Q 40.234375 -1.421875 26.90625 -1.421875 
Q 22.3125 -1.421875 17.546875 -0.640625 
Q 12.796875 0.140625 7.71875 1.703125 
L 7.71875 11.625 
Q 12.109375 9.234375 16.796875 8.0625 
Q 21.484375 6.890625 26.703125 6.890625 
Q 35.15625 6.890625 40.078125 11.328125 
Q 45.015625 15.765625 45.015625 23.390625 
Q 45.015625 31 40.078125 35.4375 
Q 35.15625 39.890625 26.703125 39.890625 
Q 22.75 39.890625 18.8125 39.015625 
Q 14.890625 38.140625 10.796875 36.28125 
z
" id="DejaVuSans-53"/>
      </defs>
      <g style="fill:#262626;" transform="translate(90.677266 388.59266)scale(0.165 -0.165)">
       <use xlink:href="#DejaVuSans-8722"/>
       <use x="83.789062" xlink:href="#DejaVuSans-49"/>
       <use x="147.412109" xlink:href="#DejaVuSans-53"/>
      </g>
     </g>
    </g>
    <g id="ytick_3">
     <g id="line2d_11">
      <path clip-path="url(#pc5e3682929)" d="M 135 284.66272 
L 972 284.66272 
" style="fill:none;stroke:#ffffff;stroke-linecap:round;"/>
     </g>
     <g id="text_13">
      <!-- −10 -->
      <g style="fill:#262626;" transform="translate(90.677266 290.931431)scale(0.165 -0.165)">
       <use xlink:href="#DejaVuSans-8722"/>
       <use x="83.789062" xlink:href="#DejaVuSans-49"/>
       <use x="147.412109" xlink:href="#DejaVuSans-48"/>
      </g>
     </g>
    </g>
    <g id="ytick_4">
     <g id="line2d_12">
      <path clip-path="url(#pc5e3682929)" d="M 135 187.00149 
L 972 187.00149 
" style="fill:none;stroke:#ffffff;stroke-linecap:round;"/>
     </g>
     <g id="text_14">
      <!-- −5 -->
      <g style="fill:#262626;" transform="translate(101.175391 193.270201)scale(0.165 -0.165)">
       <use xlink:href="#DejaVuSans-8722"/>
       <use x="83.789062" xlink:href="#DejaVuSans-53"/>
      </g>
     </g>
    </g>
    <g id="ytick_5">
     <g id="line2d_13">
      <path clip-path="url(#pc5e3682929)" d="M 135 89.340261 
L 972 89.340261 
" style="fill:none;stroke:#ffffff;stroke-linecap:round;"/>
     </g>
     <g id="text_15">
      <!-- 0 -->
      <g style="fill:#262626;" transform="translate(115.001875 95.608972)scale(0.165 -0.165)">
       <use xlink:href="#DejaVuSans-48"/>
      </g>
     </g>
    </g>
    <g id="text_16">
     <!--  Mean Reward  -->
     <defs>
      <path d="M 9.8125 72.90625 
L 24.515625 72.90625 
L 43.109375 23.296875 
L 61.8125 72.90625 
L 76.515625 72.90625 
L 76.515625 0 
L 66.890625 0 
L 66.890625 64.015625 
L 48.09375 14.015625 
L 38.1875 14.015625 
L 19.390625 64.015625 
L 19.390625 0 
L 9.8125 0 
z
" id="DejaVuSans-77"/>
      <path d="M 34.28125 27.484375 
Q 23.390625 27.484375 19.1875 25 
Q 14.984375 22.515625 14.984375 16.5 
Q 14.984375 11.71875 18.140625 8.90625 
Q 21.296875 6.109375 26.703125 6.109375 
Q 34.1875 6.109375 38.703125 11.40625 
Q 43.21875 16.703125 43.21875 25.484375 
L 43.21875 27.484375 
z
M 52.203125 31.203125 
L 52.203125 0 
L 43.21875 0 
L 43.21875 8.296875 
Q 40.140625 3.328125 35.546875 0.953125 
Q 30.953125 -1.421875 24.3125 -1.421875 
Q 15.921875 -1.421875 10.953125 3.296875 
Q 6 8.015625 6 15.921875 
Q 6 25.140625 12.171875 29.828125 
Q 18.359375 34.515625 30.609375 34.515625 
L 43.21875 34.515625 
L 43.21875 35.40625 
Q 43.21875 41.609375 39.140625 45 
Q 35.0625 48.390625 27.6875 48.390625 
Q 23 48.390625 18.546875 47.265625 
Q 14.109375 46.140625 10.015625 43.890625 
L 10.015625 52.203125 
Q 14.9375 54.109375 19.578125 55.046875 
Q 24.21875 56 28.609375 56 
Q 40.484375 56 46.34375 49.84375 
Q 52.203125 43.703125 52.203125 31.203125 
z
" id="DejaVuSans-97"/>
      <path d="M 44.390625 34.1875 
Q 47.5625 33.109375 50.5625 29.59375 
Q 53.5625 26.078125 56.59375 19.921875 
L 66.609375 0 
L 56 0 
L 46.6875 18.703125 
Q 43.0625 26.03125 39.671875 28.421875 
Q 36.28125 30.8125 30.421875 30.8125 
L 19.671875 30.8125 
L 19.671875 0 
L 9.8125 0 
L 9.8125 72.90625 
L 32.078125 72.90625 
Q 44.578125 72.90625 50.734375 67.671875 
Q 56.890625 62.453125 56.890625 51.90625 
Q 56.890625 45.015625 53.6875 40.46875 
Q 50.484375 35.9375 44.390625 34.1875 
z
M 19.671875 64.796875 
L 19.671875 38.921875 
L 32.078125 38.921875 
Q 39.203125 38.921875 42.84375 42.21875 
Q 46.484375 45.515625 46.484375 51.90625 
Q 46.484375 58.296875 42.84375 61.546875 
Q 39.203125 64.796875 32.078125 64.796875 
z
" id="DejaVuSans-82"/>
      <path d="M 4.203125 54.6875 
L 13.1875 54.6875 
L 24.421875 12.015625 
L 35.59375 54.6875 
L 46.1875 54.6875 
L 57.421875 12.015625 
L 68.609375 54.6875 
L 77.59375 54.6875 
L 63.28125 0 
L 52.6875 0 
L 40.921875 44.828125 
L 29.109375 0 
L 18.5 0 
z
" id="DejaVuSans-119"/>
      <path d="M 41.109375 46.296875 
Q 39.59375 47.171875 37.8125 47.578125 
Q 36.03125 48 33.890625 48 
Q 26.265625 48 22.1875 43.046875 
Q 18.109375 38.09375 18.109375 28.8125 
L 18.109375 0 
L 9.078125 0 
L 9.078125 54.6875 
L 18.109375 54.6875 
L 18.109375 46.1875 
Q 20.953125 51.171875 25.484375 53.578125 
Q 30.03125 56 36.53125 56 
Q 37.453125 56 38.578125 55.875 
Q 39.703125 55.765625 41.0625 55.515625 
z
" id="DejaVuSans-114"/>
      <path d="M 45.40625 46.390625 
L 45.40625 75.984375 
L 54.390625 75.984375 
L 54.390625 0 
L 45.40625 0 
L 45.40625 8.203125 
Q 42.578125 3.328125 38.25 0.953125 
Q 33.9375 -1.421875 27.875 -1.421875 
Q 17.96875 -1.421875 11.734375 6.484375 
Q 5.515625 14.40625 5.515625 27.296875 
Q 5.515625 40.1875 11.734375 48.09375 
Q 17.96875 56 27.875 56 
Q 33.9375 56 38.25 53.625 
Q 42.578125 51.265625 45.40625 46.390625 
z
M 14.796875 27.296875 
Q 14.796875 17.390625 18.875 11.75 
Q 22.953125 6.109375 30.078125 6.109375 
Q 37.203125 6.109375 41.296875 11.75 
Q 45.40625 17.390625 45.40625 27.296875 
Q 45.40625 37.203125 41.296875 42.84375 
Q 37.203125 48.484375 30.078125 48.484375 
Q 22.953125 48.484375 18.875 42.84375 
Q 14.796875 37.203125 14.796875 27.296875 
z
" id="DejaVuSans-100"/>
     </defs>
     <g style="fill:#262626;" transform="translate(82.933828 358.056562)rotate(-90)scale(0.18 -0.18)">
      <use xlink:href="#DejaVuSans-32"/>
      <use x="31.787109" xlink:href="#DejaVuSans-77"/>
      <use x="118.066406" xlink:href="#DejaVuSans-101"/>
      <use x="179.589844" xlink:href="#DejaVuSans-97"/>
      <use x="240.869141" xlink:href="#DejaVuSans-110"/>
      <use x="304.248047" xlink:href="#DejaVuSans-32"/>
      <use x="336.035156" xlink:href="#DejaVuSans-82"/>
      <use x="405.455078" xlink:href="#DejaVuSans-101"/>
      <use x="466.978516" xlink:href="#DejaVuSans-119"/>
      <use x="548.765625" xlink:href="#DejaVuSans-97"/>
      <use x="610.044922" xlink:href="#DejaVuSans-114"/>
      <use x="651.142578" xlink:href="#DejaVuSans-100"/>
      <use x="714.619141" xlink:href="#DejaVuSans-32"/>
     </g>
    </g>
   </g>
   <g id="PolyCollection_1">
    <defs>
     <path d="M 173.045455 -416.990868 
L 173.045455 -343.805529 
L 181.407093 -381.67718 
L 189.768731 -399.44798 
L 198.13037 -409.400426 
L 206.492008 -432.019437 
L 214.853646 -450.468775 
L 223.215285 -442.390295 
L 231.576923 -451.559654 
L 239.938561 -461.278343 
L 248.3002 -463.61969 
L 256.661838 -469.622137 
L 265.023477 -466.399017 
L 273.385115 -456.526136 
L 281.746753 -442.331003 
L 290.108392 -447.763737 
L 298.47003 -443.841804 
L 306.831668 -455.579046 
L 315.193307 -460.639969 
L 323.554945 -451.378515 
L 331.916583 -442.437746 
L 340.278222 -443.343611 
L 348.63986 -441.773105 
L 357.001499 -429.74411 
L 365.363137 -434.085356 
L 373.724775 -430.863381 
L 382.086414 -429.337648 
L 390.448052 -428.305838 
L 398.80969 -436.767337 
L 407.171329 -436.643967 
L 415.532967 -451.358111 
L 423.894605 -448.20268 
L 432.256244 -441.661317 
L 440.617882 -443.622438 
L 448.97952 -451.080957 
L 457.341159 -452.740196 
L 465.702797 -457.292639 
L 474.064436 -458.364988 
L 482.426074 -456.359985 
L 490.787712 -443.194532 
L 499.149351 -422.065209 
L 507.510989 -409.826009 
L 515.872627 -390.901767 
L 524.234266 -375.343959 
L 532.595904 -382.172156 
L 540.957542 -382.709743 
L 549.319181 -398.702398 
L 557.680819 -404.805779 
L 566.042458 -404.86317 
L 574.404096 -407.604047 
L 582.765734 -410.447461 
L 591.127373 -415.103231 
L 599.489011 -412.942746 
L 607.850649 -409.175716 
L 616.212288 -415.47051 
L 624.573926 -415.355428 
L 632.935564 -415.192981 
L 641.297203 -423.324712 
L 649.658841 -421.71606 
L 658.02048 -431.60203 
L 666.382118 -431.017989 
L 674.743756 -427.888348 
L 683.105395 -439.195913 
L 691.467033 -430.732918 
L 699.828671 -424.705048 
L 708.19031 -429.303104 
L 716.551948 -428.998965 
L 724.913586 -419.074109 
L 733.275225 -415.610977 
L 741.636863 -403.438333 
L 749.998501 -400.822108 
L 758.36014 -404.720482 
L 766.721778 -411.436391 
L 775.083417 -431.368119 
L 783.445055 -436.190542 
L 791.806693 -423.428001 
L 800.168332 -427.268239 
L 808.52997 -424.198721 
L 816.891608 -411.191137 
L 825.253247 -406.291895 
L 833.614885 -403.473158 
L 841.976523 -398.684188 
L 850.338162 -396.366708 
L 858.6998 -395.473309 
L 867.061439 -380.133487 
L 875.423077 -383.396604 
L 883.784715 -389.804181 
L 892.146354 -382.473876 
L 900.507992 -379.798932 
L 908.86963 -403.359904 
L 917.231269 -389.762272 
L 925.592907 -366.007237 
L 933.954545 -383.54192 
L 933.954545 -440.826259 
L 933.954545 -440.826259 
L 925.592907 -442.059681 
L 917.231269 -451.189748 
L 908.86963 -461.089697 
L 900.507992 -460.396003 
L 892.146354 -462.046147 
L 883.784715 -470.667382 
L 875.423077 -474.805379 
L 867.061439 -476.034247 
L 858.6998 -471.027953 
L 850.338162 -468.288127 
L 841.976523 -475.976971 
L 833.614885 -472.765275 
L 825.253247 -470.004217 
L 816.891608 -474.287529 
L 808.52997 -470.043473 
L 800.168332 -468.336349 
L 791.806693 -469.183265 
L 783.445055 -465.675082 
L 775.083417 -459.070412 
L 766.721778 -461.993034 
L 758.36014 -463.47363 
L 749.998501 -461.612876 
L 741.636863 -461.227437 
L 733.275225 -461.648016 
L 724.913586 -464.348396 
L 716.551948 -461.567844 
L 708.19031 -463.483982 
L 699.828671 -448.890812 
L 691.467033 -447.777583 
L 683.105395 -449.42301 
L 674.743756 -453.569586 
L 666.382118 -448.328684 
L 658.02048 -449.629255 
L 649.658841 -452.306137 
L 641.297203 -445.919011 
L 632.935564 -444.800625 
L 624.573926 -454.106277 
L 616.212288 -457.773422 
L 607.850649 -461.161305 
L 599.489011 -465.240061 
L 591.127373 -471.309426 
L 582.765734 -472.58491 
L 574.404096 -472.521251 
L 566.042458 -469.396212 
L 557.680819 -469.894182 
L 549.319181 -467.847559 
L 540.957542 -468.145585 
L 532.595904 -471.246267 
L 524.234266 -460.186214 
L 515.872627 -463.628159 
L 507.510989 -468.714581 
L 499.149351 -466.551073 
L 490.787712 -461.274112 
L 482.426074 -482.020789 
L 474.064436 -481.564126 
L 465.702797 -479.25549 
L 457.341159 -479.836024 
L 448.97952 -479.926121 
L 440.617882 -479.46734 
L 432.256244 -480.13145 
L 423.894605 -481.877736 
L 415.532967 -483.685559 
L 407.171329 -486.72 
L 398.80969 -480.235375 
L 390.448052 -469.666144 
L 382.086414 -467.365473 
L 373.724775 -462.8226 
L 365.363137 -461.19934 
L 357.001499 -465.279071 
L 348.63986 -476.332281 
L 340.278222 -480.552773 
L 331.916583 -478.237409 
L 323.554945 -484.972844 
L 315.193307 -470.615285 
L 306.831668 -466.162606 
L 298.47003 -462.833542 
L 290.108392 -475.260022 
L 281.746753 -479.886149 
L 273.385115 -476.697028 
L 265.023477 -479.677779 
L 256.661838 -479.401773 
L 248.3002 -473.039462 
L 239.938561 -475.448231 
L 231.576923 -475.932955 
L 223.215285 -475.088288 
L 214.853646 -478.999937 
L 206.492008 -478.992947 
L 198.13037 -477.361271 
L 189.768731 -460.757799 
L 181.407093 -451.671242 
L 173.045455 -416.990868 
z
" id="mab8ea4cf91" style="stroke:#4c72b0;stroke-opacity:0.2;"/>
    </defs>
    <g clip-path="url(#pc5e3682929)">
     <use style="fill:#4c72b0;fill-opacity:0.2;stroke:#4c72b0;stroke-opacity:0.2;" x="0" xlink:href="#mab8ea4cf91" y="576"/>
    </g>
   </g>
   <g id="PolyCollection_2">
    <defs>
     <path d="M 173.045455 -386.050218 
L 173.045455 -360.472339 
L 181.407093 -361.881351 
L 189.768731 -375.230585 
L 198.13037 -374.600154 
L 206.492008 -368.983104 
L 214.853646 -379.266606 
L 223.215285 -380.334475 
L 231.576923 -368.411286 
L 239.938561 -380.310779 
L 248.3002 -385.519755 
L 256.661838 -394.390447 
L 265.023477 -400.048651 
L 273.385115 -402.254617 
L 281.746753 -409.089197 
L 290.108392 -409.37863 
L 298.47003 -413.954459 
L 306.831668 -415.9522 
L 315.193307 -415.912981 
L 323.554945 -424.513578 
L 331.916583 -434.280108 
L 340.278222 -429.069241 
L 348.63986 -423.651304 
L 357.001499 -432.170985 
L 365.363137 -431.879764 
L 373.724775 -429.749873 
L 382.086414 -427.121037 
L 390.448052 -422.526886 
L 398.80969 -423.083668 
L 407.171329 -422.429668 
L 415.532967 -420.418295 
L 423.894605 -417.194731 
L 432.256244 -422.635707 
L 440.617882 -426.021407 
L 448.97952 -417.619213 
L 457.341159 -428.91885 
L 465.702797 -431.781594 
L 474.064436 -425.679877 
L 482.426074 -427.078447 
L 490.787712 -432.546167 
L 499.149351 -430.089195 
L 507.510989 -427.046708 
L 515.872627 -432.577808 
L 524.234266 -425.880294 
L 532.595904 -413.289909 
L 540.957542 -413.376699 
L 549.319181 -415.000606 
L 557.680819 -414.913604 
L 566.042458 -417.638902 
L 574.404096 -430.189535 
L 582.765734 -435.105398 
L 591.127373 -442.500817 
L 599.489011 -437.463058 
L 607.850649 -441.407012 
L 616.212288 -446.47817 
L 624.573926 -449.066453 
L 632.935564 -444.072943 
L 641.297203 -445.681903 
L 649.658841 -437.31117 
L 658.02048 -428.645162 
L 666.382118 -417.720751 
L 674.743756 -417.692264 
L 683.105395 -415.047259 
L 691.467033 -415.593879 
L 699.828671 -426.607671 
L 708.19031 -433.945362 
L 716.551948 -435.130686 
L 724.913586 -429.102636 
L 733.275225 -429.25719 
L 741.636863 -426.912415 
L 749.998501 -425.301062 
L 758.36014 -414.93516 
L 766.721778 -430.934167 
L 775.083417 -422.380494 
L 783.445055 -418.420614 
L 791.806693 -426.771428 
L 800.168332 -431.095595 
L 808.52997 -434.119587 
L 816.891608 -441.258448 
L 825.253247 -443.640135 
L 833.614885 -436.131088 
L 841.976523 -438.494787 
L 850.338162 -438.013553 
L 858.6998 -438.817963 
L 867.061439 -436.63009 
L 875.423077 -444.187221 
L 883.784715 -438.093429 
L 892.146354 -429.406628 
L 900.507992 -424.033459 
L 908.86963 -434.950725 
L 917.231269 -438.498189 
L 925.592907 -437.872323 
L 933.954545 -439.488554 
L 933.954545 -446.112423 
L 933.954545 -446.112423 
L 925.592907 -439.112582 
L 917.231269 -438.895073 
L 908.86963 -443.883329 
L 900.507992 -443.14486 
L 892.146354 -448.170847 
L 883.784715 -446.50929 
L 875.423077 -448.02599 
L 867.061439 -439.510726 
L 858.6998 -443.086282 
L 850.338162 -438.301352 
L 841.976523 -440.645505 
L 833.614885 -441.78267 
L 825.253247 -448.083704 
L 816.891608 -446.400166 
L 808.52997 -443.453208 
L 800.168332 -444.250662 
L 791.806693 -443.085486 
L 783.445055 -443.23541 
L 775.083417 -434.186424 
L 766.721778 -441.899627 
L 758.36014 -435.657746 
L 749.998501 -426.106205 
L 741.636863 -427.730914 
L 733.275225 -429.312005 
L 724.913586 -431.319777 
L 716.551948 -444.74299 
L 708.19031 -439.11491 
L 699.828671 -438.920619 
L 691.467033 -433.478326 
L 683.105395 -423.473814 
L 674.743756 -425.182887 
L 666.382118 -429.110347 
L 658.02048 -434.480308 
L 649.658841 -447.577195 
L 641.297203 -448.225528 
L 632.935564 -447.487178 
L 624.573926 -450.029428 
L 616.212288 -452.254501 
L 607.850649 -454.475769 
L 599.489011 -454.171646 
L 591.127373 -448.463722 
L 582.765734 -445.87996 
L 574.404096 -440.70677 
L 566.042458 -437.231638 
L 557.680819 -424.713879 
L 549.319181 -424.706814 
L 540.957542 -419.490552 
L 532.595904 -422.448646 
L 524.234266 -429.076947 
L 515.872627 -439.015899 
L 507.510989 -435.585335 
L 499.149351 -434.235787 
L 490.787712 -432.738375 
L 482.426074 -431.526556 
L 474.064436 -428.031262 
L 465.702797 -433.502401 
L 457.341159 -436.892694 
L 448.97952 -433.683288 
L 440.617882 -433.710205 
L 432.256244 -424.61873 
L 423.894605 -426.882917 
L 415.532967 -425.358958 
L 407.171329 -430.702243 
L 398.80969 -432.539218 
L 390.448052 -445.31698 
L 382.086414 -433.827016 
L 373.724775 -432.350084 
L 365.363137 -440.810009 
L 357.001499 -433.821705 
L 348.63986 -441.298763 
L 340.278222 -445.570347 
L 331.916583 -441.45842 
L 323.554945 -425.765273 
L 315.193307 -425.587257 
L 306.831668 -423.620069 
L 298.47003 -418.683568 
L 290.108392 -420.160645 
L 281.746753 -420.300513 
L 273.385115 -422.004747 
L 265.023477 -409.528108 
L 256.661838 -394.984474 
L 248.3002 -392.018744 
L 239.938561 -397.349532 
L 231.576923 -397.655241 
L 223.215285 -387.293394 
L 214.853646 -381.915643 
L 206.492008 -378.840041 
L 198.13037 -381.891357 
L 189.768731 -377.340598 
L 181.407093 -388.560839 
L 173.045455 -386.050218 
z
" id="mb5332a63ad" style="stroke:#1a1a1a;stroke-opacity:0.2;"/>
    </defs>
    <g clip-path="url(#pc5e3682929)">
     <use style="fill:#1a1a1a;fill-opacity:0.2;stroke:#1a1a1a;stroke-opacity:0.2;" x="0" xlink:href="#mb5332a63ad" y="576"/>
    </g>
   </g>
   <g id="PolyCollection_3">
    <defs>
     <path d="M 173.045455 -84.971055 
L 173.045455 -84.250063 
L 181.407093 -84.385296 
L 189.768731 -84.36638 
L 198.13037 -84.233409 
L 206.492008 -83.906667 
L 214.853646 -83.665013 
L 223.215285 -83.653086 
L 231.576923 -83.52 
L 239.938561 -83.913945 
L 248.3002 -84.110112 
L 256.661838 -84.333612 
L 265.023477 -84.437303 
L 273.385115 -84.546918 
L 281.746753 -84.490941 
L 290.108392 -84.609668 
L 298.47003 -84.764887 
L 306.831668 -84.763807 
L 315.193307 -84.762767 
L 323.554945 -84.689882 
L 331.916583 -84.674918 
L 340.278222 -84.540255 
L 348.63986 -84.596771 
L 357.001499 -84.659439 
L 365.363137 -84.831228 
L 373.724775 -84.805524 
L 382.086414 -84.937183 
L 390.448052 -84.982339 
L 398.80969 -84.906509 
L 407.171329 -84.890345 
L 415.532967 -84.90068 
L 423.894605 -84.852539 
L 432.256244 -84.873103 
L 440.617882 -84.745727 
L 448.97952 -84.526782 
L 457.341159 -84.490957 
L 465.702797 -84.449494 
L 474.064436 -84.252467 
L 482.426074 -84.325494 
L 490.787712 -84.41987 
L 499.149351 -84.493205 
L 507.510989 -84.531671 
L 515.872627 -84.69783 
L 524.234266 -84.706342 
L 532.595904 -84.742969 
L 540.957542 -84.728008 
L 549.319181 -84.719361 
L 557.680819 -84.649004 
L 566.042458 -84.735201 
L 574.404096 -84.767904 
L 582.765734 -84.760708 
L 591.127373 -84.719048 
L 599.489011 -84.699486 
L 607.850649 -84.722429 
L 616.212288 -84.703573 
L 624.573926 -84.707576 
L 632.935564 -84.807544 
L 641.297203 -84.894328 
L 649.658841 -84.861483 
L 658.02048 -84.869839 
L 666.382118 -84.848352 
L 674.743756 -84.887487 
L 683.105395 -84.93325 
L 691.467033 -84.962622 
L 699.828671 -85.040217 
L 708.19031 -84.947297 
L 716.551948 -84.858826 
L 724.913586 -84.787345 
L 733.275225 -84.611086 
L 741.636863 -84.696617 
L 749.998501 -84.693406 
L 758.36014 -84.726245 
L 766.721778 -84.701672 
L 775.083417 -84.733636 
L 783.445055 -84.638681 
L 791.806693 -84.622674 
L 800.168332 -84.4358 
L 808.52997 -84.443253 
L 816.891608 -84.574531 
L 825.253247 -84.601955 
L 833.614885 -84.819484 
L 841.976523 -84.865384 
L 850.338162 -84.938749 
L 858.6998 -84.92093 
L 867.061439 -85.054923 
L 875.423077 -85.073056 
L 883.784715 -85.042439 
L 892.146354 -84.955436 
L 900.507992 -85.01633 
L 908.86963 -84.854761 
L 917.231269 -84.69791 
L 925.592907 -84.603338 
L 933.954545 -84.578478 
L 933.954545 -86.371007 
L 933.954545 -86.371007 
L 925.592907 -86.29118 
L 917.231269 -86.240134 
L 908.86963 -86.450121 
L 900.507992 -86.422694 
L 892.146354 -86.430784 
L 883.784715 -86.474492 
L 875.423077 -86.551509 
L 867.061439 -86.292704 
L 858.6998 -86.226472 
L 850.338162 -86.170411 
L 841.976523 -85.999364 
L 833.614885 -85.995942 
L 825.253247 -86.186996 
L 816.891608 -86.040737 
L 808.52997 -86.092788 
L 800.168332 -86.115739 
L 791.806693 -86.085033 
L 783.445055 -85.994036 
L 775.083417 -86.021022 
L 766.721778 -86.017681 
L 758.36014 -86.238839 
L 749.998501 -86.219449 
L 741.636863 -86.216502 
L 733.275225 -86.237665 
L 724.913586 -86.331114 
L 716.551948 -86.41215 
L 708.19031 -86.373828 
L 699.828671 -86.295196 
L 691.467033 -86.218822 
L 683.105395 -86.169835 
L 674.743756 -85.957762 
L 666.382118 -86.006533 
L 658.02048 -86.129039 
L 649.658841 -86.287085 
L 641.297203 -86.321705 
L 632.935564 -86.484248 
L 624.573926 -86.598569 
L 616.212288 -86.739085 
L 607.850649 -86.866365 
L 599.489011 -86.988271 
L 591.127373 -87.109415 
L 582.765734 -87.120681 
L 574.404096 -87.053122 
L 566.042458 -87.068243 
L 557.680819 -87.209508 
L 549.319181 -87.179868 
L 540.957542 -87.153162 
L 532.595904 -87.02846 
L 524.234266 -86.830178 
L 515.872627 -86.606425 
L 507.510989 -86.468941 
L 499.149351 -86.452039 
L 490.787712 -86.598564 
L 482.426074 -86.720889 
L 474.064436 -86.869853 
L 465.702797 -86.999969 
L 457.341159 -87.088935 
L 448.97952 -87.137454 
L 440.617882 -87.123573 
L 432.256244 -86.880625 
L 423.894605 -86.847848 
L 415.532967 -86.934997 
L 407.171329 -86.91102 
L 398.80969 -87.163738 
L 390.448052 -87.061615 
L 382.086414 -87.046819 
L 373.724775 -87.027985 
L 365.363137 -87.049433 
L 357.001499 -86.996996 
L 348.63986 -86.918091 
L 340.278222 -86.911016 
L 331.916583 -86.773565 
L 323.554945 -86.91052 
L 315.193307 -86.726575 
L 306.831668 -86.584642 
L 298.47003 -86.414396 
L 290.108392 -86.219416 
L 281.746753 -85.943511 
L 273.385115 -85.562824 
L 265.023477 -85.445967 
L 256.661838 -85.384302 
L 248.3002 -85.329365 
L 239.938561 -85.485353 
L 231.576923 -85.258377 
L 223.215285 -85.222268 
L 214.853646 -85.160708 
L 206.492008 -85.130372 
L 198.13037 -85.039182 
L 189.768731 -85.045229 
L 181.407093 -85.057676 
L 173.045455 -84.971055 
z
" id="m4b4f7529b1" style="stroke:#800080;stroke-opacity:0.2;"/>
    </defs>
    <g clip-path="url(#pc5e3682929)">
     <use style="fill:#800080;fill-opacity:0.2;stroke:#800080;stroke-opacity:0.2;" x="0" xlink:href="#m4b4f7529b1" y="576"/>
    </g>
   </g>
   <g id="line2d_14">
    <path clip-path="url(#pc5e3682929)" d="M 173.045455 195.601802 
L 181.407093 159.325789 
L 189.768731 144.212182 
L 198.13037 132.619152 
L 206.492008 118.952921 
L 214.853646 110.802874 
L 223.215285 116.755824 
L 231.576923 112.253696 
L 239.938561 109.030717 
L 248.3002 106.90166 
L 256.661838 102.049404 
L 265.023477 104.145726 
L 273.385115 109.34545 
L 281.746753 114.207219 
L 290.108392 114.48812 
L 298.47003 121.530142 
L 306.831668 115.931307 
L 315.193307 110.372373 
L 323.554945 107.824321 
L 331.916583 115.720169 
L 340.278222 114.051808 
L 348.63986 116.93223 
L 357.001499 128.450568 
L 365.363137 130.472669 
L 373.724775 129.157009 
L 382.086414 128.131067 
L 390.448052 126.901479 
L 398.80969 116.202784 
L 407.171329 111.83298 
L 415.532967 106.210622 
L 423.894605 112.294793 
L 432.256244 115.103616 
L 440.617882 114.455111 
L 448.97952 110.496461 
L 457.341159 109.71189 
L 465.702797 107.725935 
L 474.064436 104.912634 
L 482.426074 104.882831 
L 490.787712 123.765678 
L 499.149351 130.963874 
L 507.510989 136.729705 
L 515.872627 148.176806 
L 524.234266 154.36035 
L 532.595904 149.290789 
L 540.957542 150.908492 
L 549.319181 148.041315 
L 557.680819 143.755778 
L 566.042458 142.809049 
L 574.404096 139.701234 
L 582.765734 136.67438 
L 591.127373 130.793743 
L 599.489011 132.593939 
L 607.850649 136.195013 
L 616.212288 134.045142 
L 624.573926 136.934433 
L 632.935564 143.698855 
L 641.297203 139.197263 
L 649.658841 137.085064 
L 658.02048 135.384357 
L 666.382118 136.881636 
L 674.743756 134.482667 
L 683.105395 131.326471 
L 691.467033 135.483804 
L 699.828671 135.705049 
L 708.19031 131.533035 
L 716.551948 130.716595 
L 724.913586 133.850287 
L 733.275225 137.370504 
L 741.636863 144.968005 
L 749.998501 144.836573 
L 758.36014 142.937762 
L 766.721778 139.285288 
L 775.083417 130.467637 
L 783.445055 124.611849 
L 791.806693 127.682884 
L 800.168332 128.277283 
L 808.52997 128.878903 
L 816.891608 133.260667 
L 825.253247 137.851944 
L 833.614885 137.880783 
L 841.976523 138.669421 
L 850.338162 143.672582 
L 858.6998 144.416289 
L 867.061439 145.985071 
L 875.423077 147.378276 
L 883.784715 149.303817 
L 892.146354 158.493794 
L 900.507992 160.527062 
L 908.86963 150.831503 
L 917.231269 158.508058 
L 925.592907 162.729654 
L 933.954545 155.064425 
" style="fill:none;stroke:#4c72b0;stroke-dasharray:5.55,2.4;stroke-dashoffset:0;stroke-width:1.5;"/>
   </g>
   <g id="line2d_15">
    <path clip-path="url(#pc5e3682929)" d="M 173.045455 202.738721 
L 181.407093 200.778905 
L 189.768731 199.714408 
L 198.13037 197.754244 
L 206.492008 202.088427 
L 214.853646 195.408875 
L 223.215285 192.186066 
L 231.576923 192.966736 
L 239.938561 187.169845 
L 248.3002 187.230751 
L 256.661838 181.31254 
L 265.023477 171.211621 
L 273.385115 163.870318 
L 281.746753 161.305145 
L 290.108392 161.230362 
L 298.47003 159.680987 
L 306.831668 156.213866 
L 315.193307 155.249881 
L 323.554945 150.860575 
L 331.916583 138.130736 
L 340.278222 138.680206 
L 348.63986 143.524966 
L 357.001499 143.003655 
L 365.363137 139.655114 
L 373.724775 144.950022 
L 382.086414 145.525973 
L 390.448052 142.078067 
L 398.80969 148.188557 
L 407.171329 149.434044 
L 415.532967 153.111373 
L 423.894605 153.961176 
L 432.256244 152.372782 
L 440.617882 146.134194 
L 448.97952 150.348749 
L 457.341159 143.094228 
L 465.702797 143.358002 
L 474.064436 149.14443 
L 482.426074 146.697498 
L 490.787712 143.357729 
L 499.149351 143.837509 
L 507.510989 144.683979 
L 515.872627 140.203146 
L 524.234266 148.52138 
L 532.595904 158.130722 
L 540.957542 159.566375 
L 549.319181 156.14629 
L 557.680819 156.186259 
L 566.042458 148.56473 
L 574.404096 140.551847 
L 582.765734 135.507321 
L 591.127373 130.517731 
L 599.489011 130.182648 
L 607.850649 128.058609 
L 616.212288 126.633665 
L 624.573926 126.452059 
L 632.935564 130.219939 
L 641.297203 129.046284 
L 649.658841 133.555817 
L 658.02048 144.437265 
L 666.382118 152.584451 
L 674.743756 154.562425 
L 683.105395 156.739463 
L 691.467033 151.463897 
L 699.828671 143.235855 
L 708.19031 139.469864 
L 716.551948 136.063162 
L 724.913586 145.788794 
L 733.275225 146.715403 
L 741.636863 148.678336 
L 749.998501 150.296366 
L 758.36014 150.703547 
L 766.721778 139.583103 
L 775.083417 147.716541 
L 783.445055 145.171988 
L 791.806693 141.071543 
L 800.168332 138.326872 
L 808.52997 137.213603 
L 816.891608 132.170693 
L 825.253247 130.138081 
L 833.614885 137.043121 
L 841.976523 136.429854 
L 850.338162 137.842547 
L 858.6998 135.047877 
L 867.061439 137.929592 
L 875.423077 129.893395 
L 883.784715 133.698641 
L 892.146354 137.211263 
L 900.507992 142.41084 
L 908.86963 136.582973 
L 917.231269 137.303369 
L 925.592907 137.507548 
L 933.954545 133.199511 
" style="fill:none;stroke:#1a1a1a;stroke-linecap:round;stroke-width:1.5;"/>
   </g>
   <g id="line2d_16">
    <path clip-path="url(#pc5e3682929)" d="M 173.045455 202.585971 
L 181.407093 231.275302 
L 189.768731 230.263213 
L 198.13037 232.528178 
L 206.492008 225.424937 
L 214.853646 250.94055 
L 223.215285 244.164296 
L 231.576923 238.64311 
L 239.938561 235.34997 
L 248.3002 246.19653 
L 256.661838 248.651003 
L 265.023477 219.098158 
L 273.385115 209.600846 
L 281.746753 219.567121 
L 290.108392 204.09571 
L 298.47003 178.259607 
L 306.831668 218.206823 
L 315.193307 219.314381 
L 323.554945 209.318934 
L 331.916583 202.57262 
L 340.278222 233.625674 
L 348.63986 217.212383 
L 357.001499 232.026425 
L 365.363137 241.208259 
L 373.724775 256.415874 
L 382.086414 210.535909 
L 390.448052 204.479356 
L 398.80969 175.244716 
L 407.171329 159.853283 
L 415.532967 157.513744 
L 423.894605 172.313079 
L 432.256244 172.31565 
L 440.617882 218.032527 
L 448.97952 218.355175 
L 457.341159 233.967141 
L 465.702797 225.418151 
L 474.064436 232.291644 
L 482.426074 207.729574 
L 490.787712 221.60955 
L 499.149351 208.344555 
L 507.510989 227.094612 
L 515.872627 210.084705 
L 524.234266 211.459558 
L 532.595904 198.159417 
L 540.957542 180.428606 
L 549.319181 177.168176 
L 557.680819 200.396992 
L 566.042458 200.325265 
L 574.404096 213.759914 
L 582.765734 231.244808 
L 591.127373 247.322142 
L 599.489011 242.332154 
L 607.850649 261.8253 
L 616.212288 255.064254 
L 624.573926 240.08137 
L 632.935564 224.103963 
L 641.297203 227.641943 
L 649.658841 221.222828 
L 658.02048 213.096158 
L 666.382118 228.334028 
L 674.743756 221.169947 
L 683.105395 215.647824 
L 691.467033 193.153636 
L 699.828671 216.710426 
L 708.19031 230.254652 
L 716.551948 244.86789 
L 724.913586 224.614691 
L 733.275225 248.238663 
L 741.636863 239.911775 
L 749.998501 215.44759 
L 758.36014 206.030794 
L 766.721778 220.347377 
L 775.083417 206.094443 
L 783.445055 214.179035 
L 791.806693 230.792391 
L 800.168332 251.702473 
L 808.52997 259.823034 
L 816.891608 258.376872 
L 825.253247 242.764606 
L 833.614885 249.146486 
L 841.976523 249.84059 
L 850.338162 241.749303 
L 858.6998 247.07197 
L 867.061439 255.196643 
L 875.423077 227.530672 
L 883.784715 229.009653 
L 892.146354 229.32247 
L 900.507992 216.666261 
L 908.86963 215.937314 
L 917.231269 230.392973 
L 925.592907 213.609257 
L 933.954545 220.393985 
" style="fill:none;stroke:#c44e52;stroke-dasharray:9.6,2.4,1.5,2.4;stroke-dashoffset:0;stroke-width:1.5;"/>
   </g>
   <g id="line2d_17">
    <path clip-path="url(#pc5e3682929)" d="M 173.045455 130.951172 
L 181.407093 104.068409 
L 189.768731 97.105894 
L 198.13037 104.193495 
L 206.492008 106.54659 
L 214.853646 126.241701 
L 223.215285 142.417626 
L 231.576923 138.325298 
L 239.938561 140.136031 
L 248.3002 154.83851 
L 256.661838 137.479233 
L 265.023477 140.145684 
L 273.385115 152.310772 
L 281.746753 147.846435 
L 290.108392 141.610833 
L 298.47003 150.845293 
L 306.831668 155.059948 
L 315.193307 142.34453 
L 323.554945 153.347169 
L 331.916583 143.184267 
L 340.278222 137.794896 
L 348.63986 121.424037 
L 357.001499 131.947898 
L 365.363137 118.423966 
L 373.724775 118.916515 
L 382.086414 113.274552 
L 390.448052 109.72007 
L 398.80969 102.742297 
L 407.171329 110.726113 
L 415.532967 110.259657 
L 423.894605 121.050043 
L 432.256244 114.92574 
L 440.617882 107.236181 
L 448.97952 105.082338 
L 457.341159 128.28003 
L 465.702797 118.711295 
L 474.064436 136.416913 
L 482.426074 137.803653 
L 490.787712 129.639491 
L 499.149351 114.234451 
L 507.510989 114.853227 
L 515.872627 113.867768 
L 524.234266 131.168299 
L 532.595904 128.526841 
L 540.957542 129.152774 
L 549.319181 129.725262 
L 557.680819 121.610575 
L 566.042458 100.679834 
L 574.404096 104.084929 
L 582.765734 99.422852 
L 591.127373 104.464591 
L 599.489011 107.611741 
L 607.850649 122.520153 
L 616.212288 127.990155 
L 624.573926 128.905288 
L 632.935564 129.960637 
L 641.297203 119.092966 
L 649.658841 116.945076 
L 658.02048 126.491707 
L 666.382118 132.138164 
L 674.743756 124.284059 
L 683.105395 139.856481 
L 691.467033 132.622334 
L 699.828671 142.098174 
L 708.19031 148.155759 
L 716.551948 151.352506 
L 724.913586 142.646089 
L 733.275225 143.687198 
L 741.636863 114.596641 
L 749.998501 101.967539 
L 758.36014 110.427062 
L 766.721778 106.165082 
L 775.083417 99.64182 
L 783.445055 118.317267 
L 791.806693 133.906601 
L 800.168332 119.503716 
L 808.52997 125.647659 
L 816.891608 125.094737 
L 825.253247 117.971066 
L 833.614885 102.675897 
L 841.976523 108.183981 
L 850.338162 105.935065 
L 858.6998 115.657999 
L 867.061439 105.487906 
L 875.423077 101.61293 
L 883.784715 112.144937 
L 892.146354 117.64477 
L 900.507992 120.030911 
L 908.86963 144.277096 
L 917.231269 149.133067 
L 925.592907 132.873886 
L 933.954545 143.495629 
" style="fill:none;stroke:#ffa500;stroke-linecap:round;stroke-width:1.5;"/>
   </g>
   <g id="line2d_18">
    <path clip-path="url(#pc5e3682929)" d="M 173.045455 491.385591 
L 181.407093 491.303127 
L 189.768731 491.294196 
L 198.13037 491.386296 
L 206.492008 491.37754 
L 214.853646 491.445404 
L 223.215285 491.441003 
L 231.576923 491.414648 
L 239.938561 491.252378 
L 248.3002 491.24536 
L 256.661838 491.149938 
L 265.023477 491.058365 
L 273.385115 490.945129 
L 281.746753 490.761833 
L 290.108392 490.585157 
L 298.47003 490.410359 
L 306.831668 490.324697 
L 315.193307 490.255329 
L 323.554945 490.335259 
L 331.916583 490.275758 
L 340.278222 490.274364 
L 348.63986 490.242569 
L 357.001499 490.171783 
L 365.363137 490.062191 
L 373.724775 490.083245 
L 382.086414 490.007999 
L 390.448052 489.978023 
L 398.80969 490.072901 
L 407.171329 490.102074 
L 415.532967 490.081848 
L 423.894605 490.149807 
L 432.256244 490.12242 
L 440.617882 490.06535 
L 448.97952 490.167882 
L 457.341159 490.208308 
L 465.702797 490.275269 
L 474.064436 490.43884 
L 482.426074 490.476809 
L 490.787712 490.490783 
L 499.149351 490.527378 
L 507.510989 490.499694 
L 515.872627 490.347872 
L 524.234266 490.23174 
L 532.595904 490.114285 
L 540.957542 490.059415 
L 549.319181 490.050386 
L 557.680819 490.070744 
L 566.042458 490.098278 
L 574.404096 490.089487 
L 582.765734 490.059306 
L 591.127373 490.085769 
L 599.489011 490.156121 
L 607.850649 490.205603 
L 616.212288 490.278671 
L 624.573926 490.346928 
L 632.935564 490.354104 
L 641.297203 490.391984 
L 649.658841 490.425716 
L 658.02048 490.500561 
L 666.382118 490.547795 
L 674.743756 490.556065 
L 683.105395 490.448457 
L 691.467033 490.409278 
L 699.828671 490.332294 
L 708.19031 490.339437 
L 716.551948 490.364512 
L 724.913586 490.44077 
L 733.275225 490.526633 
L 741.636863 490.543441 
L 749.998501 490.585046 
L 758.36014 490.591702 
L 766.721778 490.640323 
L 775.083417 490.627689 
L 783.445055 490.683642 
L 791.806693 490.687145 
L 800.168332 490.718635 
L 808.52997 490.747545 
L 816.891608 490.741788 
L 825.253247 490.723901 
L 833.614885 490.662367 
L 841.976523 490.606612 
L 850.338162 490.498779 
L 858.6998 490.482176 
L 867.061439 490.395126 
L 875.423077 490.295501 
L 883.784715 490.332627 
L 892.146354 490.362717 
L 900.507992 490.36958 
L 908.86963 490.430777 
L 917.231269 490.542482 
L 925.592907 490.603005 
L 933.954545 490.66204 
" style="fill:none;stroke:#800080;stroke-dasharray:1.5,2.475;stroke-dashoffset:0;stroke-width:1.5;"/>
   </g>
   <g id="patch_3">
    <path d="M 135 512.64 
L 135 69.12 
" style="fill:none;stroke:#ffffff;stroke-linecap:square;stroke-linejoin:miter;stroke-width:1.25;"/>
   </g>
   <g id="patch_4">
    <path d="M 972 512.64 
L 972 69.12 
" style="fill:none;stroke:#ffffff;stroke-linecap:square;stroke-linejoin:miter;stroke-width:1.25;"/>
   </g>
   <g id="patch_5">
    <path d="M 135 512.64 
L 972 512.64 
" style="fill:none;stroke:#ffffff;stroke-linecap:square;stroke-linejoin:miter;stroke-width:1.25;"/>
   </g>
   <g id="patch_6">
    <path d="M 135 69.12 
L 972 69.12 
" style="fill:none;stroke:#ffffff;stroke-linecap:square;stroke-linejoin:miter;stroke-width:1.25;"/>
   </g>
   <g id="legend_1">
    <g id="patch_7">
     <path d="M 690.6 425.174531 
L 885.998672 425.174531 
Q 889.298672 425.174531 889.298672 421.874531 
L 889.298672 302.43 
Q 889.298672 299.13 885.998672 299.13 
L 690.6 299.13 
Q 687.3 299.13 687.3 302.43 
L 687.3 421.874531 
Q 687.3 425.174531 690.6 425.174531 
z
" style="fill:#eaeaf2;opacity:0.8;stroke:#cccccc;stroke-linejoin:miter;"/>
    </g>
    <g id="line2d_19">
     <path d="M 693.9 312.492422 
L 726.9 312.492422 
" style="fill:none;stroke:#4c72b0;stroke-dasharray:5.55,2.4;stroke-dashoffset:0;stroke-width:1.5;"/>
    </g>
    <g id="line2d_20"/>
    <g id="text_17">
     <!-- MAHRL(Homo) -->
     <defs>
      <path d="M 34.1875 63.1875 
L 20.796875 26.90625 
L 47.609375 26.90625 
z
M 28.609375 72.90625 
L 39.796875 72.90625 
L 67.578125 0 
L 57.328125 0 
L 50.6875 18.703125 
L 17.828125 18.703125 
L 11.1875 0 
L 0.78125 0 
z
" id="DejaVuSans-65"/>
      <path d="M 9.8125 72.90625 
L 19.671875 72.90625 
L 19.671875 43.015625 
L 55.515625 43.015625 
L 55.515625 72.90625 
L 65.375 72.90625 
L 65.375 0 
L 55.515625 0 
L 55.515625 34.71875 
L 19.671875 34.71875 
L 19.671875 0 
L 9.8125 0 
z
" id="DejaVuSans-72"/>
      <path d="M 9.8125 72.90625 
L 19.671875 72.90625 
L 19.671875 8.296875 
L 55.171875 8.296875 
L 55.171875 0 
L 9.8125 0 
z
" id="DejaVuSans-76"/>
      <path d="M 31 75.875 
Q 24.46875 64.65625 21.28125 53.65625 
Q 18.109375 42.671875 18.109375 31.390625 
Q 18.109375 20.125 21.3125 9.0625 
Q 24.515625 -2 31 -13.1875 
L 23.1875 -13.1875 
Q 15.875 -1.703125 12.234375 9.375 
Q 8.59375 20.453125 8.59375 31.390625 
Q 8.59375 42.28125 12.203125 53.3125 
Q 15.828125 64.359375 23.1875 75.875 
z
" id="DejaVuSans-40"/>
      <path d="M 30.609375 48.390625 
Q 23.390625 48.390625 19.1875 42.75 
Q 14.984375 37.109375 14.984375 27.296875 
Q 14.984375 17.484375 19.15625 11.84375 
Q 23.34375 6.203125 30.609375 6.203125 
Q 37.796875 6.203125 41.984375 11.859375 
Q 46.1875 17.53125 46.1875 27.296875 
Q 46.1875 37.015625 41.984375 42.703125 
Q 37.796875 48.390625 30.609375 48.390625 
z
M 30.609375 56 
Q 42.328125 56 49.015625 48.375 
Q 55.71875 40.765625 55.71875 27.296875 
Q 55.71875 13.875 49.015625 6.21875 
Q 42.328125 -1.421875 30.609375 -1.421875 
Q 18.84375 -1.421875 12.171875 6.21875 
Q 5.515625 13.875 5.515625 27.296875 
Q 5.515625 40.765625 12.171875 48.375 
Q 18.84375 56 30.609375 56 
z
" id="DejaVuSans-111"/>
      <path d="M 52 44.1875 
Q 55.375 50.25 60.0625 53.125 
Q 64.75 56 71.09375 56 
Q 79.640625 56 84.28125 50.015625 
Q 88.921875 44.046875 88.921875 33.015625 
L 88.921875 0 
L 79.890625 0 
L 79.890625 32.71875 
Q 79.890625 40.578125 77.09375 44.375 
Q 74.3125 48.1875 68.609375 48.1875 
Q 61.625 48.1875 57.5625 43.546875 
Q 53.515625 38.921875 53.515625 30.90625 
L 53.515625 0 
L 44.484375 0 
L 44.484375 32.71875 
Q 44.484375 40.625 41.703125 44.40625 
Q 38.921875 48.1875 33.109375 48.1875 
Q 26.21875 48.1875 22.15625 43.53125 
Q 18.109375 38.875 18.109375 30.90625 
L 18.109375 0 
L 9.078125 0 
L 9.078125 54.6875 
L 18.109375 54.6875 
L 18.109375 46.1875 
Q 21.1875 51.21875 25.484375 53.609375 
Q 29.78125 56 35.6875 56 
Q 41.65625 56 45.828125 52.96875 
Q 50 49.953125 52 44.1875 
z
" id="DejaVuSans-109"/>
      <path d="M 8.015625 75.875 
L 15.828125 75.875 
Q 23.140625 64.359375 26.78125 53.3125 
Q 30.421875 42.28125 30.421875 31.390625 
Q 30.421875 20.453125 26.78125 9.375 
Q 23.140625 -1.703125 15.828125 -13.1875 
L 8.015625 -13.1875 
Q 14.5 -2 17.703125 9.0625 
Q 20.90625 20.125 20.90625 31.390625 
Q 20.90625 42.671875 17.703125 53.65625 
Q 14.5 64.65625 8.015625 75.875 
z
" id="DejaVuSans-41"/>
     </defs>
     <g style="fill:#262626;" transform="translate(740.1 318.267422)scale(0.165 -0.165)">
      <use xlink:href="#DejaVuSans-77"/>
      <use x="86.279297" xlink:href="#DejaVuSans-65"/>
      <use x="154.6875" xlink:href="#DejaVuSans-72"/>
      <use x="229.882812" xlink:href="#DejaVuSans-82"/>
      <use x="299.365234" xlink:href="#DejaVuSans-76"/>
      <use x="355.078125" xlink:href="#DejaVuSans-40"/>
      <use x="394.091797" xlink:href="#DejaVuSans-72"/>
      <use x="469.287109" xlink:href="#DejaVuSans-111"/>
      <use x="530.46875" xlink:href="#DejaVuSans-109"/>
      <use x="627.880859" xlink:href="#DejaVuSans-111"/>
      <use x="689.0625" xlink:href="#DejaVuSans-41"/>
     </g>
    </g>
    <g id="line2d_21">
     <path d="M 693.9 336.711328 
L 726.9 336.711328 
" style="fill:none;stroke:#1a1a1a;stroke-linecap:round;stroke-width:1.5;"/>
    </g>
    <g id="line2d_22"/>
    <g id="text_18">
     <!-- MAHRL(Hetero) -->
     <g style="fill:#262626;" transform="translate(740.1 342.486328)scale(0.165 -0.165)">
      <use xlink:href="#DejaVuSans-77"/>
      <use x="86.279297" xlink:href="#DejaVuSans-65"/>
      <use x="154.6875" xlink:href="#DejaVuSans-72"/>
      <use x="229.882812" xlink:href="#DejaVuSans-82"/>
      <use x="299.365234" xlink:href="#DejaVuSans-76"/>
      <use x="355.078125" xlink:href="#DejaVuSans-40"/>
      <use x="394.091797" xlink:href="#DejaVuSans-72"/>
      <use x="469.287109" xlink:href="#DejaVuSans-101"/>
      <use x="530.810547" xlink:href="#DejaVuSans-116"/>
      <use x="570.019531" xlink:href="#DejaVuSans-101"/>
      <use x="631.542969" xlink:href="#DejaVuSans-114"/>
      <use x="672.625" xlink:href="#DejaVuSans-111"/>
      <use x="733.806641" xlink:href="#DejaVuSans-41"/>
     </g>
    </g>
    <g id="line2d_23">
     <path d="M 693.9 360.930234 
L 726.9 360.930234 
" style="fill:none;stroke:#c44e52;stroke-dasharray:9.6,2.4,1.5,2.4;stroke-dashoffset:0;stroke-width:1.5;"/>
    </g>
    <g id="line2d_24"/>
    <g id="text_19">
     <!-- MADDPG(Hetero) -->
     <defs>
      <path d="M 19.671875 64.796875 
L 19.671875 8.109375 
L 31.59375 8.109375 
Q 46.6875 8.109375 53.6875 14.9375 
Q 60.6875 21.78125 60.6875 36.53125 
Q 60.6875 51.171875 53.6875 57.984375 
Q 46.6875 64.796875 31.59375 64.796875 
z
M 9.8125 72.90625 
L 30.078125 72.90625 
Q 51.265625 72.90625 61.171875 64.09375 
Q 71.09375 55.28125 71.09375 36.53125 
Q 71.09375 17.671875 61.125 8.828125 
Q 51.171875 0 30.078125 0 
L 9.8125 0 
z
" id="DejaVuSans-68"/>
      <path d="M 19.671875 64.796875 
L 19.671875 37.40625 
L 32.078125 37.40625 
Q 38.96875 37.40625 42.71875 40.96875 
Q 46.484375 44.53125 46.484375 51.125 
Q 46.484375 57.671875 42.71875 61.234375 
Q 38.96875 64.796875 32.078125 64.796875 
z
M 9.8125 72.90625 
L 32.078125 72.90625 
Q 44.34375 72.90625 50.609375 67.359375 
Q 56.890625 61.8125 56.890625 51.125 
Q 56.890625 40.328125 50.609375 34.8125 
Q 44.34375 29.296875 32.078125 29.296875 
L 19.671875 29.296875 
L 19.671875 0 
L 9.8125 0 
z
" id="DejaVuSans-80"/>
      <path d="M 59.515625 10.40625 
L 59.515625 29.984375 
L 43.40625 29.984375 
L 43.40625 38.09375 
L 69.28125 38.09375 
L 69.28125 6.78125 
Q 63.578125 2.734375 56.6875 0.65625 
Q 49.8125 -1.421875 42 -1.421875 
Q 24.90625 -1.421875 15.25 8.5625 
Q 5.609375 18.5625 5.609375 36.375 
Q 5.609375 54.25 15.25 64.234375 
Q 24.90625 74.21875 42 74.21875 
Q 49.125 74.21875 55.546875 72.453125 
Q 61.96875 70.703125 67.390625 67.28125 
L 67.390625 56.78125 
Q 61.921875 61.421875 55.765625 63.765625 
Q 49.609375 66.109375 42.828125 66.109375 
Q 29.4375 66.109375 22.71875 58.640625 
Q 16.015625 51.171875 16.015625 36.375 
Q 16.015625 21.625 22.71875 14.15625 
Q 29.4375 6.6875 42.828125 6.6875 
Q 48.046875 6.6875 52.140625 7.59375 
Q 56.25 8.5 59.515625 10.40625 
z
" id="DejaVuSans-71"/>
     </defs>
     <g style="fill:#262626;" transform="translate(740.1 366.705234)scale(0.165 -0.165)">
      <use xlink:href="#DejaVuSans-77"/>
      <use x="86.279297" xlink:href="#DejaVuSans-65"/>
      <use x="154.6875" xlink:href="#DejaVuSans-68"/>
      <use x="231.689453" xlink:href="#DejaVuSans-68"/>
      <use x="308.691406" xlink:href="#DejaVuSans-80"/>
      <use x="368.994141" xlink:href="#DejaVuSans-71"/>
      <use x="446.484375" xlink:href="#DejaVuSans-40"/>
      <use x="485.498047" xlink:href="#DejaVuSans-72"/>
      <use x="560.693359" xlink:href="#DejaVuSans-101"/>
      <use x="622.216797" xlink:href="#DejaVuSans-116"/>
      <use x="661.425781" xlink:href="#DejaVuSans-101"/>
      <use x="722.949219" xlink:href="#DejaVuSans-114"/>
      <use x="764.03125" xlink:href="#DejaVuSans-111"/>
      <use x="825.212891" xlink:href="#DejaVuSans-41"/>
     </g>
    </g>
    <g id="line2d_25">
     <path d="M 693.9 385.149141 
L 726.9 385.149141 
" style="fill:none;stroke:#ffa500;stroke-linecap:round;stroke-width:1.5;"/>
    </g>
    <g id="line2d_26"/>
    <g id="text_20">
     <!-- TD3(Hetero) -->
     <defs>
      <path d="M -0.296875 72.90625 
L 61.375 72.90625 
L 61.375 64.59375 
L 35.5 64.59375 
L 35.5 0 
L 25.59375 0 
L 25.59375 64.59375 
L -0.296875 64.59375 
z
" id="DejaVuSans-84"/>
      <path d="M 40.578125 39.3125 
Q 47.65625 37.796875 51.625 33 
Q 55.609375 28.21875 55.609375 21.1875 
Q 55.609375 10.40625 48.1875 4.484375 
Q 40.765625 -1.421875 27.09375 -1.421875 
Q 22.515625 -1.421875 17.65625 -0.515625 
Q 12.796875 0.390625 7.625 2.203125 
L 7.625 11.71875 
Q 11.71875 9.328125 16.59375 8.109375 
Q 21.484375 6.890625 26.8125 6.890625 
Q 36.078125 6.890625 40.9375 10.546875 
Q 45.796875 14.203125 45.796875 21.1875 
Q 45.796875 27.640625 41.28125 31.265625 
Q 36.765625 34.90625 28.71875 34.90625 
L 20.21875 34.90625 
L 20.21875 43.015625 
L 29.109375 43.015625 
Q 36.375 43.015625 40.234375 45.921875 
Q 44.09375 48.828125 44.09375 54.296875 
Q 44.09375 59.90625 40.109375 62.90625 
Q 36.140625 65.921875 28.71875 65.921875 
Q 24.65625 65.921875 20.015625 65.03125 
Q 15.375 64.15625 9.8125 62.3125 
L 9.8125 71.09375 
Q 15.4375 72.65625 20.34375 73.4375 
Q 25.25 74.21875 29.59375 74.21875 
Q 40.828125 74.21875 47.359375 69.109375 
Q 53.90625 64.015625 53.90625 55.328125 
Q 53.90625 49.265625 50.4375 45.09375 
Q 46.96875 40.921875 40.578125 39.3125 
z
" id="DejaVuSans-51"/>
     </defs>
     <g style="fill:#262626;" transform="translate(740.1 390.924141)scale(0.165 -0.165)">
      <use xlink:href="#DejaVuSans-84"/>
      <use x="61.083984" xlink:href="#DejaVuSans-68"/>
      <use x="138.085938" xlink:href="#DejaVuSans-51"/>
      <use x="201.708984" xlink:href="#DejaVuSans-40"/>
      <use x="240.722656" xlink:href="#DejaVuSans-72"/>
      <use x="315.917969" xlink:href="#DejaVuSans-101"/>
      <use x="377.441406" xlink:href="#DejaVuSans-116"/>
      <use x="416.650391" xlink:href="#DejaVuSans-101"/>
      <use x="478.173828" xlink:href="#DejaVuSans-114"/>
      <use x="519.255859" xlink:href="#DejaVuSans-111"/>
      <use x="580.4375" xlink:href="#DejaVuSans-41"/>
     </g>
    </g>
    <g id="line2d_27">
     <path d="M 693.9 409.368047 
L 726.9 409.368047 
" style="fill:none;stroke:#800080;stroke-dasharray:1.5,2.475;stroke-dashoffset:0;stroke-width:1.5;"/>
    </g>
    <g id="line2d_28"/>
    <g id="text_21">
     <!-- PPO(Homo) -->
     <defs>
      <path d="M 39.40625 66.21875 
Q 28.65625 66.21875 22.328125 58.203125 
Q 16.015625 50.203125 16.015625 36.375 
Q 16.015625 22.609375 22.328125 14.59375 
Q 28.65625 6.59375 39.40625 6.59375 
Q 50.140625 6.59375 56.421875 14.59375 
Q 62.703125 22.609375 62.703125 36.375 
Q 62.703125 50.203125 56.421875 58.203125 
Q 50.140625 66.21875 39.40625 66.21875 
z
M 39.40625 74.21875 
Q 54.734375 74.21875 63.90625 63.9375 
Q 73.09375 53.65625 73.09375 36.375 
Q 73.09375 19.140625 63.90625 8.859375 
Q 54.734375 -1.421875 39.40625 -1.421875 
Q 24.03125 -1.421875 14.8125 8.828125 
Q 5.609375 19.09375 5.609375 36.375 
Q 5.609375 53.65625 14.8125 63.9375 
Q 24.03125 74.21875 39.40625 74.21875 
z
" id="DejaVuSans-79"/>
     </defs>
     <g style="fill:#262626;" transform="translate(740.1 415.143047)scale(0.165 -0.165)">
      <use xlink:href="#DejaVuSans-80"/>
      <use x="60.302734" xlink:href="#DejaVuSans-80"/>
      <use x="120.605469" xlink:href="#DejaVuSans-79"/>
      <use x="199.316406" xlink:href="#DejaVuSans-40"/>
      <use x="238.330078" xlink:href="#DejaVuSans-72"/>
      <use x="313.525391" xlink:href="#DejaVuSans-111"/>
      <use x="374.707031" xlink:href="#DejaVuSans-109"/>
      <use x="472.119141" xlink:href="#DejaVuSans-111"/>
      <use x="533.300781" xlink:href="#DejaVuSans-41"/>
     </g>
    </g>
   </g>
  </g>
 </g>
 <defs>
  <clipPath id="pc5e3682929">
   <rect height="443.52" width="837" x="135" y="69.12"/>
  </clipPath>
 </defs>
</svg>
