<?xml version="1.0" encoding="utf-8" standalone="no"?>
<!DOCTYPE svg PUBLIC "-//W3C//DTD SVG 1.1//EN"
  "http://www.w3.org/Graphics/SVG/1.1/DTD/svg11.dtd">
<!-- Created with matplotlib (https://matplotlib.org/) -->
<svg height="576pt" version="1.1" viewBox="0 0 1080 576" width="1080pt" xmlns="http://www.w3.org/2000/svg" xmlns:xlink="http://www.w3.org/1999/xlink">
 <defs>
  <style type="text/css">
*{stroke-linecap:butt;stroke-linejoin:round;}
  </style>
 </defs>
 <g id="figure_1">
  <g id="patch_1">
   <path d="M 0 576 
L 1080 576 
L 1080 0 
L 0 0 
z
" style="fill:#ffffff;"/>
  </g>
  <g id="axes_1">
   <g id="patch_2">
    <path d="M 135 512.64 
L 972 512.64 
L 972 69.12 
L 135 69.12 
z
" style="fill:#eaeaf2;"/>
   </g>
   <g id="matplotlib.axis_1">
    <g id="xtick_1">
     <g id="line2d_1">
      <path clip-path="url(#p80094241d1)" d="M 167.409091 512.64 
L 167.409091 69.12 
" style="fill:none;stroke:#ffffff;stroke-linecap:round;"/>
     </g>
     <g id="text_1">
      <!-- 0.0 -->
      <defs>
       <path d="M 31.78125 66.40625 
Q 24.171875 66.40625 20.328125 58.90625 
Q 16.5 51.421875 16.5 36.375 
Q 16.5 21.390625 20.328125 13.890625 
Q 24.171875 6.390625 31.78125 6.390625 
Q 39.453125 6.390625 43.28125 13.890625 
Q 47.125 21.390625 47.125 36.375 
Q 47.125 51.421875 43.28125 58.90625 
Q 39.453125 66.40625 31.78125 66.40625 
z
M 31.78125 74.21875 
Q 44.046875 74.21875 50.515625 64.515625 
Q 56.984375 54.828125 56.984375 36.375 
Q 56.984375 17.96875 50.515625 8.265625 
Q 44.046875 -1.421875 31.78125 -1.421875 
Q 19.53125 -1.421875 13.0625 8.265625 
Q 6.59375 17.96875 6.59375 36.375 
Q 6.59375 54.828125 13.0625 64.515625 
Q 19.53125 74.21875 31.78125 74.21875 
z
" id="DejaVuSans-48"/>
       <path d="M 10.6875 12.40625 
L 21 12.40625 
L 21 0 
L 10.6875 0 
z
" id="DejaVuSans-46"/>
      </defs>
      <g style="fill:#262626;" transform="translate(154.289013 534.677422)scale(0.165 -0.165)">
       <use xlink:href="#DejaVuSans-48"/>
       <use x="63.623047" xlink:href="#DejaVuSans-46"/>
       <use x="95.410156" xlink:href="#DejaVuSans-48"/>
      </g>
     </g>
    </g>
    <g id="xtick_2">
     <g id="line2d_2">
      <path clip-path="url(#p80094241d1)" d="M 343.545455 512.64 
L 343.545455 69.12 
" style="fill:none;stroke:#ffffff;stroke-linecap:round;"/>
     </g>
     <g id="text_2">
      <!-- 0.5 -->
      <defs>
       <path d="M 10.796875 72.90625 
L 49.515625 72.90625 
L 49.515625 64.59375 
L 19.828125 64.59375 
L 19.828125 46.734375 
Q 21.96875 47.46875 24.109375 47.828125 
Q 26.265625 48.1875 28.421875 48.1875 
Q 40.625 48.1875 47.75 41.5 
Q 54.890625 34.8125 54.890625 23.390625 
Q 54.890625 11.625 47.5625 5.09375 
Q 40.234375 -1.421875 26.90625 -1.421875 
Q 22.3125 -1.421875 17.546875 -0.640625 
Q 12.796875 0.140625 7.71875 1.703125 
L 7.71875 11.625 
Q 12.109375 9.234375 16.796875 8.0625 
Q 21.484375 6.890625 26.703125 6.890625 
Q 35.15625 6.890625 40.078125 11.328125 
Q 45.015625 15.765625 45.015625 23.390625 
Q 45.015625 31 40.078125 35.4375 
Q 35.15625 39.890625 26.703125 39.890625 
Q 22.75 39.890625 18.8125 39.015625 
Q 14.890625 38.140625 10.796875 36.28125 
z
" id="DejaVuSans-53"/>
      </defs>
      <g style="fill:#262626;" transform="translate(330.425376 534.677422)scale(0.165 -0.165)">
       <use xlink:href="#DejaVuSans-48"/>
       <use x="63.623047" xlink:href="#DejaVuSans-46"/>
       <use x="95.410156" xlink:href="#DejaVuSans-53"/>
      </g>
     </g>
    </g>
    <g id="xtick_3">
     <g id="line2d_3">
      <path clip-path="url(#p80094241d1)" d="M 519.681818 512.64 
L 519.681818 69.12 
" style="fill:none;stroke:#ffffff;stroke-linecap:round;"/>
     </g>
     <g id="text_3">
      <!-- 1.0 -->
      <defs>
       <path d="M 12.40625 8.296875 
L 28.515625 8.296875 
L 28.515625 63.921875 
L 10.984375 60.40625 
L 10.984375 69.390625 
L 28.421875 72.90625 
L 38.28125 72.90625 
L 38.28125 8.296875 
L 54.390625 8.296875 
L 54.390625 0 
L 12.40625 0 
z
" id="DejaVuSans-49"/>
      </defs>
      <g style="fill:#262626;" transform="translate(506.56174 534.677422)scale(0.165 -0.165)">
       <use xlink:href="#DejaVuSans-49"/>
       <use x="63.623047" xlink:href="#DejaVuSans-46"/>
       <use x="95.410156" xlink:href="#DejaVuSans-48"/>
      </g>
     </g>
    </g>
    <g id="xtick_4">
     <g id="line2d_4">
      <path clip-path="url(#p80094241d1)" d="M 695.818182 512.64 
L 695.818182 69.12 
" style="fill:none;stroke:#ffffff;stroke-linecap:round;"/>
     </g>
     <g id="text_4">
      <!-- 1.5 -->
      <g style="fill:#262626;" transform="translate(682.698104 534.677422)scale(0.165 -0.165)">
       <use xlink:href="#DejaVuSans-49"/>
       <use x="63.623047" xlink:href="#DejaVuSans-46"/>
       <use x="95.410156" xlink:href="#DejaVuSans-53"/>
      </g>
     </g>
    </g>
    <g id="xtick_5">
     <g id="line2d_5">
      <path clip-path="url(#p80094241d1)" d="M 871.954545 512.64 
L 871.954545 69.12 
" style="fill:none;stroke:#ffffff;stroke-linecap:round;"/>
     </g>
     <g id="text_5">
      <!-- 2.0 -->
      <defs>
       <path d="M 19.1875 8.296875 
L 53.609375 8.296875 
L 53.609375 0 
L 7.328125 0 
L 7.328125 8.296875 
Q 12.9375 14.109375 22.625 23.890625 
Q 32.328125 33.6875 34.8125 36.53125 
Q 39.546875 41.84375 41.421875 45.53125 
Q 43.3125 49.21875 43.3125 52.78125 
Q 43.3125 58.59375 39.234375 62.25 
Q 35.15625 65.921875 28.609375 65.921875 
Q 23.96875 65.921875 18.8125 64.3125 
Q 13.671875 62.703125 7.8125 59.421875 
L 7.8125 69.390625 
Q 13.765625 71.78125 18.9375 73 
Q 24.125 74.21875 28.421875 74.21875 
Q 39.75 74.21875 46.484375 68.546875 
Q 53.21875 62.890625 53.21875 53.421875 
Q 53.21875 48.921875 51.53125 44.890625 
Q 49.859375 40.875 45.40625 35.40625 
Q 44.1875 33.984375 37.640625 27.21875 
Q 31.109375 20.453125 19.1875 8.296875 
z
" id="DejaVuSans-50"/>
      </defs>
      <g style="fill:#262626;" transform="translate(858.834467 534.677422)scale(0.165 -0.165)">
       <use xlink:href="#DejaVuSans-50"/>
       <use x="63.623047" xlink:href="#DejaVuSans-46"/>
       <use x="95.410156" xlink:href="#DejaVuSans-48"/>
      </g>
     </g>
    </g>
    <g id="text_6">
     <!--  Env Steps  -->
     <defs>
      <path id="DejaVuSans-32"/>
      <path d="M 9.8125 72.90625 
L 55.90625 72.90625 
L 55.90625 64.59375 
L 19.671875 64.59375 
L 19.671875 43.015625 
L 54.390625 43.015625 
L 54.390625 34.71875 
L 19.671875 34.71875 
L 19.671875 8.296875 
L 56.78125 8.296875 
L 56.78125 0 
L 9.8125 0 
z
" id="DejaVuSans-69"/>
      <path d="M 54.890625 33.015625 
L 54.890625 0 
L 45.90625 0 
L 45.90625 32.71875 
Q 45.90625 40.484375 42.875 44.328125 
Q 39.84375 48.1875 33.796875 48.1875 
Q 26.515625 48.1875 22.3125 43.546875 
Q 18.109375 38.921875 18.109375 30.90625 
L 18.109375 0 
L 9.078125 0 
L 9.078125 54.6875 
L 18.109375 54.6875 
L 18.109375 46.1875 
Q 21.34375 51.125 25.703125 53.5625 
Q 30.078125 56 35.796875 56 
Q 45.21875 56 50.046875 50.171875 
Q 54.890625 44.34375 54.890625 33.015625 
z
" id="DejaVuSans-110"/>
      <path d="M 2.984375 54.6875 
L 12.5 54.6875 
L 29.59375 8.796875 
L 46.6875 54.6875 
L 56.203125 54.6875 
L 35.6875 0 
L 23.484375 0 
z
" id="DejaVuSans-118"/>
      <path d="M 53.515625 70.515625 
L 53.515625 60.890625 
Q 47.90625 63.578125 42.921875 64.890625 
Q 37.9375 66.21875 33.296875 66.21875 
Q 25.25 66.21875 20.875 63.09375 
Q 16.5 59.96875 16.5 54.203125 
Q 16.5 49.359375 19.40625 46.890625 
Q 22.3125 44.4375 30.421875 42.921875 
L 36.375 41.703125 
Q 47.40625 39.59375 52.65625 34.296875 
Q 57.90625 29 57.90625 20.125 
Q 57.90625 9.515625 50.796875 4.046875 
Q 43.703125 -1.421875 29.984375 -1.421875 
Q 24.8125 -1.421875 18.96875 -0.25 
Q 13.140625 0.921875 6.890625 3.21875 
L 6.890625 13.375 
Q 12.890625 10.015625 18.65625 8.296875 
Q 24.421875 6.59375 29.984375 6.59375 
Q 38.421875 6.59375 43.015625 9.90625 
Q 47.609375 13.234375 47.609375 19.390625 
Q 47.609375 24.75 44.3125 27.78125 
Q 41.015625 30.8125 33.5 32.328125 
L 27.484375 33.5 
Q 16.453125 35.6875 11.515625 40.375 
Q 6.59375 45.0625 6.59375 53.421875 
Q 6.59375 63.09375 13.40625 68.65625 
Q 20.21875 74.21875 32.171875 74.21875 
Q 37.3125 74.21875 42.625 73.28125 
Q 47.953125 72.359375 53.515625 70.515625 
z
" id="DejaVuSans-83"/>
      <path d="M 18.3125 70.21875 
L 18.3125 54.6875 
L 36.8125 54.6875 
L 36.8125 47.703125 
L 18.3125 47.703125 
L 18.3125 18.015625 
Q 18.3125 11.328125 20.140625 9.421875 
Q 21.96875 7.515625 27.59375 7.515625 
L 36.8125 7.515625 
L 36.8125 0 
L 27.59375 0 
Q 17.1875 0 13.234375 3.875 
Q 9.28125 7.765625 9.28125 18.015625 
L 9.28125 47.703125 
L 2.6875 47.703125 
L 2.6875 54.6875 
L 9.28125 54.6875 
L 9.28125 70.21875 
z
" id="DejaVuSans-116"/>
      <path d="M 56.203125 29.59375 
L 56.203125 25.203125 
L 14.890625 25.203125 
Q 15.484375 15.921875 20.484375 11.0625 
Q 25.484375 6.203125 34.421875 6.203125 
Q 39.59375 6.203125 44.453125 7.46875 
Q 49.3125 8.734375 54.109375 11.28125 
L 54.109375 2.78125 
Q 49.265625 0.734375 44.1875 -0.34375 
Q 39.109375 -1.421875 33.890625 -1.421875 
Q 20.796875 -1.421875 13.15625 6.1875 
Q 5.515625 13.8125 5.515625 26.8125 
Q 5.515625 40.234375 12.765625 48.109375 
Q 20.015625 56 32.328125 56 
Q 43.359375 56 49.78125 48.890625 
Q 56.203125 41.796875 56.203125 29.59375 
z
M 47.21875 32.234375 
Q 47.125 39.59375 43.09375 43.984375 
Q 39.0625 48.390625 32.421875 48.390625 
Q 24.90625 48.390625 20.390625 44.140625 
Q 15.875 39.890625 15.1875 32.171875 
z
" id="DejaVuSans-101"/>
      <path d="M 18.109375 8.203125 
L 18.109375 -20.796875 
L 9.078125 -20.796875 
L 9.078125 54.6875 
L 18.109375 54.6875 
L 18.109375 46.390625 
Q 20.953125 51.265625 25.265625 53.625 
Q 29.59375 56 35.59375 56 
Q 45.5625 56 51.78125 48.09375 
Q 58.015625 40.1875 58.015625 27.296875 
Q 58.015625 14.40625 51.78125 6.484375 
Q 45.5625 -1.421875 35.59375 -1.421875 
Q 29.59375 -1.421875 25.265625 0.953125 
Q 20.953125 3.328125 18.109375 8.203125 
z
M 48.6875 27.296875 
Q 48.6875 37.203125 44.609375 42.84375 
Q 40.53125 48.484375 33.40625 48.484375 
Q 26.265625 48.484375 22.1875 42.84375 
Q 18.109375 37.203125 18.109375 27.296875 
Q 18.109375 17.390625 22.1875 11.75 
Q 26.265625 6.109375 33.40625 6.109375 
Q 40.53125 6.109375 44.609375 11.75 
Q 48.6875 17.390625 48.6875 27.296875 
z
" id="DejaVuSans-112"/>
      <path d="M 44.28125 53.078125 
L 44.28125 44.578125 
Q 40.484375 46.53125 36.375 47.5 
Q 32.28125 48.484375 27.875 48.484375 
Q 21.1875 48.484375 17.84375 46.4375 
Q 14.5 44.390625 14.5 40.28125 
Q 14.5 37.15625 16.890625 35.375 
Q 19.28125 33.59375 26.515625 31.984375 
L 29.59375 31.296875 
Q 39.15625 29.25 43.1875 25.515625 
Q 47.21875 21.78125 47.21875 15.09375 
Q 47.21875 7.46875 41.1875 3.015625 
Q 35.15625 -1.421875 24.609375 -1.421875 
Q 20.21875 -1.421875 15.453125 -0.5625 
Q 10.6875 0.296875 5.421875 2 
L 5.421875 11.28125 
Q 10.40625 8.6875 15.234375 7.390625 
Q 20.0625 6.109375 24.8125 6.109375 
Q 31.15625 6.109375 34.5625 8.28125 
Q 37.984375 10.453125 37.984375 14.40625 
Q 37.984375 18.0625 35.515625 20.015625 
Q 33.0625 21.96875 24.703125 23.78125 
L 21.578125 24.515625 
Q 13.234375 26.265625 9.515625 29.90625 
Q 5.8125 33.546875 5.8125 39.890625 
Q 5.8125 47.609375 11.28125 51.796875 
Q 16.75 56 26.8125 56 
Q 31.78125 56 36.171875 55.265625 
Q 40.578125 54.546875 44.28125 53.078125 
z
" id="DejaVuSans-115"/>
     </defs>
     <g style="fill:#262626;" transform="translate(503.019844 555.786094)scale(0.18 -0.18)">
      <use xlink:href="#DejaVuSans-32"/>
      <use x="31.787109" xlink:href="#DejaVuSans-69"/>
      <use x="94.970703" xlink:href="#DejaVuSans-110"/>
      <use x="158.349609" xlink:href="#DejaVuSans-118"/>
      <use x="217.529297" xlink:href="#DejaVuSans-32"/>
      <use x="249.316406" xlink:href="#DejaVuSans-83"/>
      <use x="312.792969" xlink:href="#DejaVuSans-116"/>
      <use x="352.001953" xlink:href="#DejaVuSans-101"/>
      <use x="413.525391" xlink:href="#DejaVuSans-112"/>
      <use x="477.001953" xlink:href="#DejaVuSans-115"/>
      <use x="529.101562" xlink:href="#DejaVuSans-32"/>
     </g>
    </g>
    <g id="text_7">
     <!-- 1e6 -->
     <defs>
      <path d="M 33.015625 40.375 
Q 26.375 40.375 22.484375 35.828125 
Q 18.609375 31.296875 18.609375 23.390625 
Q 18.609375 15.53125 22.484375 10.953125 
Q 26.375 6.390625 33.015625 6.390625 
Q 39.65625 6.390625 43.53125 10.953125 
Q 47.40625 15.53125 47.40625 23.390625 
Q 47.40625 31.296875 43.53125 35.828125 
Q 39.65625 40.375 33.015625 40.375 
z
M 52.59375 71.296875 
L 52.59375 62.3125 
Q 48.875 64.0625 45.09375 64.984375 
Q 41.3125 65.921875 37.59375 65.921875 
Q 27.828125 65.921875 22.671875 59.328125 
Q 17.53125 52.734375 16.796875 39.40625 
Q 19.671875 43.65625 24.015625 45.921875 
Q 28.375 48.1875 33.59375 48.1875 
Q 44.578125 48.1875 50.953125 41.515625 
Q 57.328125 34.859375 57.328125 23.390625 
Q 57.328125 12.15625 50.6875 5.359375 
Q 44.046875 -1.421875 33.015625 -1.421875 
Q 20.359375 -1.421875 13.671875 8.265625 
Q 6.984375 17.96875 6.984375 36.375 
Q 6.984375 53.65625 15.1875 63.9375 
Q 23.390625 74.21875 37.203125 74.21875 
Q 40.921875 74.21875 44.703125 73.484375 
Q 48.484375 72.75 52.59375 71.296875 
z
" id="DejaVuSans-54"/>
     </defs>
     <g style="fill:#262626;" transform="translate(940.851094 553.646328)scale(0.165 -0.165)">
      <use xlink:href="#DejaVuSans-49"/>
      <use x="63.623047" xlink:href="#DejaVuSans-101"/>
      <use x="125.146484" xlink:href="#DejaVuSans-54"/>
     </g>
    </g>
   </g>
   <g id="matplotlib.axis_2">
    <g id="ytick_1">
     <g id="line2d_6">
      <path clip-path="url(#p80094241d1)" d="M 135 481.384607 
L 972 481.384607 
" style="fill:none;stroke:#ffffff;stroke-linecap:round;"/>
     </g>
     <g id="text_8">
      <!-- −20 -->
      <defs>
       <path d="M 10.59375 35.5 
L 73.1875 35.5 
L 73.1875 27.203125 
L 10.59375 27.203125 
z
" id="DejaVuSans-8722"/>
      </defs>
      <g style="fill:#262626;" transform="translate(90.677266 487.653318)scale(0.165 -0.165)">
       <use xlink:href="#DejaVuSans-8722"/>
       <use x="83.789062" xlink:href="#DejaVuSans-50"/>
       <use x="147.412109" xlink:href="#DejaVuSans-48"/>
      </g>
     </g>
    </g>
    <g id="ytick_2">
     <g id="line2d_7">
      <path clip-path="url(#p80094241d1)" d="M 135 389.493219 
L 972 389.493219 
" style="fill:none;stroke:#ffffff;stroke-linecap:round;"/>
     </g>
     <g id="text_9">
      <!-- −15 -->
      <g style="fill:#262626;" transform="translate(90.677266 395.76193)scale(0.165 -0.165)">
       <use xlink:href="#DejaVuSans-8722"/>
       <use x="83.789062" xlink:href="#DejaVuSans-49"/>
       <use x="147.412109" xlink:href="#DejaVuSans-53"/>
      </g>
     </g>
    </g>
    <g id="ytick_3">
     <g id="line2d_8">
      <path clip-path="url(#p80094241d1)" d="M 135 297.601831 
L 972 297.601831 
" style="fill:none;stroke:#ffffff;stroke-linecap:round;"/>
     </g>
     <g id="text_10">
      <!-- −10 -->
      <g style="fill:#262626;" transform="translate(90.677266 303.870542)scale(0.165 -0.165)">
       <use xlink:href="#DejaVuSans-8722"/>
       <use x="83.789062" xlink:href="#DejaVuSans-49"/>
       <use x="147.412109" xlink:href="#DejaVuSans-48"/>
      </g>
     </g>
    </g>
    <g id="ytick_4">
     <g id="line2d_9">
      <path clip-path="url(#p80094241d1)" d="M 135 205.710443 
L 972 205.710443 
" style="fill:none;stroke:#ffffff;stroke-linecap:round;"/>
     </g>
     <g id="text_11">
      <!-- −5 -->
      <g style="fill:#262626;" transform="translate(101.175391 211.979154)scale(0.165 -0.165)">
       <use xlink:href="#DejaVuSans-8722"/>
       <use x="83.789062" xlink:href="#DejaVuSans-53"/>
      </g>
     </g>
    </g>
    <g id="ytick_5">
     <g id="line2d_10">
      <path clip-path="url(#p80094241d1)" d="M 135 113.819055 
L 972 113.819055 
" style="fill:none;stroke:#ffffff;stroke-linecap:round;"/>
     </g>
     <g id="text_12">
      <!-- 0 -->
      <g style="fill:#262626;" transform="translate(115.001875 120.087766)scale(0.165 -0.165)">
       <use xlink:href="#DejaVuSans-48"/>
      </g>
     </g>
    </g>
    <g id="text_13">
     <!--  Mean Reward  -->
     <defs>
      <path d="M 9.8125 72.90625 
L 24.515625 72.90625 
L 43.109375 23.296875 
L 61.8125 72.90625 
L 76.515625 72.90625 
L 76.515625 0 
L 66.890625 0 
L 66.890625 64.015625 
L 48.09375 14.015625 
L 38.1875 14.015625 
L 19.390625 64.015625 
L 19.390625 0 
L 9.8125 0 
z
" id="DejaVuSans-77"/>
      <path d="M 34.28125 27.484375 
Q 23.390625 27.484375 19.1875 25 
Q 14.984375 22.515625 14.984375 16.5 
Q 14.984375 11.71875 18.140625 8.90625 
Q 21.296875 6.109375 26.703125 6.109375 
Q 34.1875 6.109375 38.703125 11.40625 
Q 43.21875 16.703125 43.21875 25.484375 
L 43.21875 27.484375 
z
M 52.203125 31.203125 
L 52.203125 0 
L 43.21875 0 
L 43.21875 8.296875 
Q 40.140625 3.328125 35.546875 0.953125 
Q 30.953125 -1.421875 24.3125 -1.421875 
Q 15.921875 -1.421875 10.953125 3.296875 
Q 6 8.015625 6 15.921875 
Q 6 25.140625 12.171875 29.828125 
Q 18.359375 34.515625 30.609375 34.515625 
L 43.21875 34.515625 
L 43.21875 35.40625 
Q 43.21875 41.609375 39.140625 45 
Q 35.0625 48.390625 27.6875 48.390625 
Q 23 48.390625 18.546875 47.265625 
Q 14.109375 46.140625 10.015625 43.890625 
L 10.015625 52.203125 
Q 14.9375 54.109375 19.578125 55.046875 
Q 24.21875 56 28.609375 56 
Q 40.484375 56 46.34375 49.84375 
Q 52.203125 43.703125 52.203125 31.203125 
z
" id="DejaVuSans-97"/>
      <path d="M 44.390625 34.1875 
Q 47.5625 33.109375 50.5625 29.59375 
Q 53.5625 26.078125 56.59375 19.921875 
L 66.609375 0 
L 56 0 
L 46.6875 18.703125 
Q 43.0625 26.03125 39.671875 28.421875 
Q 36.28125 30.8125 30.421875 30.8125 
L 19.671875 30.8125 
L 19.671875 0 
L 9.8125 0 
L 9.8125 72.90625 
L 32.078125 72.90625 
Q 44.578125 72.90625 50.734375 67.671875 
Q 56.890625 62.453125 56.890625 51.90625 
Q 56.890625 45.015625 53.6875 40.46875 
Q 50.484375 35.9375 44.390625 34.1875 
z
M 19.671875 64.796875 
L 19.671875 38.921875 
L 32.078125 38.921875 
Q 39.203125 38.921875 42.84375 42.21875 
Q 46.484375 45.515625 46.484375 51.90625 
Q 46.484375 58.296875 42.84375 61.546875 
Q 39.203125 64.796875 32.078125 64.796875 
z
" id="DejaVuSans-82"/>
      <path d="M 4.203125 54.6875 
L 13.1875 54.6875 
L 24.421875 12.015625 
L 35.59375 54.6875 
L 46.1875 54.6875 
L 57.421875 12.015625 
L 68.609375 54.6875 
L 77.59375 54.6875 
L 63.28125 0 
L 52.6875 0 
L 40.921875 44.828125 
L 29.109375 0 
L 18.5 0 
z
" id="DejaVuSans-119"/>
      <path d="M 41.109375 46.296875 
Q 39.59375 47.171875 37.8125 47.578125 
Q 36.03125 48 33.890625 48 
Q 26.265625 48 22.1875 43.046875 
Q 18.109375 38.09375 18.109375 28.8125 
L 18.109375 0 
L 9.078125 0 
L 9.078125 54.6875 
L 18.109375 54.6875 
L 18.109375 46.1875 
Q 20.953125 51.171875 25.484375 53.578125 
Q 30.03125 56 36.53125 56 
Q 37.453125 56 38.578125 55.875 
Q 39.703125 55.765625 41.0625 55.515625 
z
" id="DejaVuSans-114"/>
      <path d="M 45.40625 46.390625 
L 45.40625 75.984375 
L 54.390625 75.984375 
L 54.390625 0 
L 45.40625 0 
L 45.40625 8.203125 
Q 42.578125 3.328125 38.25 0.953125 
Q 33.9375 -1.421875 27.875 -1.421875 
Q 17.96875 -1.421875 11.734375 6.484375 
Q 5.515625 14.40625 5.515625 27.296875 
Q 5.515625 40.1875 11.734375 48.09375 
Q 17.96875 56 27.875 56 
Q 33.9375 56 38.25 53.625 
Q 42.578125 51.265625 45.40625 46.390625 
z
M 14.796875 27.296875 
Q 14.796875 17.390625 18.875 11.75 
Q 22.953125 6.109375 30.078125 6.109375 
Q 37.203125 6.109375 41.296875 11.75 
Q 45.40625 17.390625 45.40625 27.296875 
Q 45.40625 37.203125 41.296875 42.84375 
Q 37.203125 48.484375 30.078125 48.484375 
Q 22.953125 48.484375 18.875 42.84375 
Q 14.796875 37.203125 14.796875 27.296875 
z
" id="DejaVuSans-100"/>
     </defs>
     <g style="fill:#262626;" transform="translate(82.933828 358.056562)rotate(-90)scale(0.18 -0.18)">
      <use xlink:href="#DejaVuSans-32"/>
      <use x="31.787109" xlink:href="#DejaVuSans-77"/>
      <use x="118.066406" xlink:href="#DejaVuSans-101"/>
      <use x="179.589844" xlink:href="#DejaVuSans-97"/>
      <use x="240.869141" xlink:href="#DejaVuSans-110"/>
      <use x="304.248047" xlink:href="#DejaVuSans-32"/>
      <use x="336.035156" xlink:href="#DejaVuSans-82"/>
      <use x="405.455078" xlink:href="#DejaVuSans-101"/>
      <use x="466.978516" xlink:href="#DejaVuSans-119"/>
      <use x="548.765625" xlink:href="#DejaVuSans-97"/>
      <use x="610.044922" xlink:href="#DejaVuSans-114"/>
      <use x="651.142578" xlink:href="#DejaVuSans-100"/>
      <use x="714.619141" xlink:href="#DejaVuSans-32"/>
     </g>
    </g>
   </g>
   <g id="PolyCollection_1">
    <defs>
     <path d="M 173.045455 -385.264445 
L 173.045455 -363.702148 
L 178.681818 -351.232764 
L 184.318182 -340.82679 
L 189.954545 -348.961787 
L 195.590909 -346.051632 
L 201.227273 -362.304391 
L 206.863636 -353.478347 
L 212.5 -359.358424 
L 218.136364 -368.185298 
L 223.772727 -373.706651 
L 229.409091 -345.974964 
L 235.045455 -345.585596 
L 240.681818 -347.45215 
L 246.318182 -344.844188 
L 251.954545 -351.184281 
L 257.590909 -371.061656 
L 263.227273 -372.385757 
L 268.863636 -362.610372 
L 274.5 -377.211466 
L 280.136364 -359.642024 
L 285.772727 -347.440733 
L 291.409091 -346.670499 
L 297.045455 -357.97521 
L 302.681818 -350.749713 
L 308.318182 -350.562308 
L 313.954545 -363.049494 
L 319.590909 -368.432149 
L 325.227273 -363.198031 
L 330.863636 -354.998999 
L 336.5 -358.868443 
L 342.136364 -356.995681 
L 347.772727 -343.34529 
L 353.409091 -334.017259 
L 359.045455 -350.358772 
L 364.681818 -349.052364 
L 370.318182 -358.053323 
L 375.954545 -364.508754 
L 381.590909 -386.689699 
L 387.227273 -372.224504 
L 392.863636 -378.186072 
L 398.5 -368.783675 
L 404.136364 -354.8548 
L 409.772727 -356.243638 
L 415.409091 -354.718436 
L 421.045455 -342.188628 
L 426.681818 -347.911573 
L 432.318182 -357.013814 
L 437.954545 -343.111881 
L 443.590909 -350.311953 
L 449.227273 -354.977796 
L 454.863636 -362.031691 
L 460.5 -371.902183 
L 466.136364 -380.634357 
L 471.772727 -394.386918 
L 477.409091 -389.917862 
L 483.045455 -388.988948 
L 488.681818 -393.577061 
L 494.318182 -394.227376 
L 499.954545 -384.357548 
L 505.590909 -399.975329 
L 511.227273 -404.764046 
L 516.863636 -407.008751 
L 522.5 -412.16464 
L 528.136364 -393.174699 
L 533.772727 -389.882063 
L 539.409091 -392.683512 
L 545.045455 -371.085751 
L 550.681818 -371.000868 
L 556.318182 -377.060308 
L 561.954545 -391.499579 
L 567.590909 -394.396581 
L 573.227273 -410.961969 
L 578.863636 -418.36562 
L 584.5 -414.183016 
L 590.136364 -393.413399 
L 595.772727 -405.289445 
L 601.409091 -415.869616 
L 607.045455 -402.172722 
L 612.681818 -413.104609 
L 618.318182 -411.667941 
L 623.954545 -395.306403 
L 629.590909 -382.332794 
L 635.227273 -389.331935 
L 640.863636 -393.904836 
L 646.5 -377.292181 
L 652.136364 -389.027579 
L 657.772727 -386.125478 
L 663.409091 -381.294061 
L 669.045455 -389.572629 
L 674.681818 -406.764207 
L 680.318182 -399.154157 
L 685.954545 -399.759075 
L 691.590909 -422.729205 
L 697.227273 -418.274587 
L 702.863636 -406.295944 
L 708.5 -420.314027 
L 714.136364 -414.505119 
L 719.772727 -406.138621 
L 725.409091 -403.108002 
L 731.045455 -406.210616 
L 736.681818 -402.519712 
L 742.318182 -393.351189 
L 747.954545 -376.71347 
L 753.590909 -382.966339 
L 759.227273 -386.424732 
L 764.863636 -387.068775 
L 770.5 -389.588009 
L 776.136364 -402.62218 
L 781.772727 -388.2953 
L 787.409091 -386.772722 
L 793.045455 -408.522676 
L 798.681818 -418.420337 
L 804.318182 -428.686693 
L 809.954545 -427.947341 
L 815.590909 -405.942364 
L 821.227273 -401.824015 
L 826.863636 -388.892551 
L 832.5 -389.234567 
L 838.136364 -396.281049 
L 843.772727 -416.695372 
L 849.409091 -416.969943 
L 855.045455 -432.956671 
L 860.681818 -423.739003 
L 866.318182 -421.505547 
L 871.954545 -416.473244 
L 877.590909 -416.925719 
L 883.227273 -410.815584 
L 888.863636 -413.751266 
L 894.5 -414.594265 
L 900.136364 -400.740468 
L 905.772727 -397.304568 
L 911.409091 -403.309332 
L 917.045455 -400.217126 
L 922.681818 -407.325363 
L 928.318182 -407.586931 
L 933.954545 -421.462246 
L 933.954545 -467.698882 
L 933.954545 -467.698882 
L 928.318182 -477.750553 
L 922.681818 -458.533762 
L 917.045455 -456.648011 
L 911.409091 -473.977816 
L 905.772727 -449.052685 
L 900.136364 -453.763525 
L 894.5 -470.968812 
L 888.863636 -456.795216 
L 883.227273 -443.340284 
L 877.590909 -462.227008 
L 871.954545 -453.33846 
L 866.318182 -449.859281 
L 860.681818 -467.012483 
L 855.045455 -466.759485 
L 849.409091 -452.617208 
L 843.772727 -461.998423 
L 838.136364 -455.493787 
L 832.5 -457.626576 
L 826.863636 -460.297337 
L 821.227273 -467.985266 
L 815.590909 -481.123062 
L 809.954545 -466.820562 
L 804.318182 -460.139981 
L 798.681818 -456.537708 
L 793.045455 -451.035461 
L 787.409091 -436.544481 
L 781.772727 -442.355821 
L 776.136364 -457.671392 
L 770.5 -454.324038 
L 764.863636 -442.556162 
L 759.227273 -449.540484 
L 753.590909 -453.885482 
L 747.954545 -451.911803 
L 742.318182 -457.078813 
L 736.681818 -457.521981 
L 731.045455 -460.36183 
L 725.409091 -457.992991 
L 719.772727 -460.09285 
L 714.136364 -455.382419 
L 708.5 -466.980877 
L 702.863636 -456.293611 
L 697.227273 -459.39003 
L 691.590909 -447.997791 
L 685.954545 -446.22056 
L 680.318182 -438.710389 
L 674.681818 -457.844619 
L 669.045455 -453.576103 
L 663.409091 -461.232519 
L 657.772727 -481.468322 
L 652.136364 -473.016793 
L 646.5 -485.021733 
L 640.863636 -481.406436 
L 635.227273 -486.72 
L 629.590909 -467.242258 
L 623.954545 -477.386047 
L 618.318182 -463.458625 
L 612.681818 -478.920783 
L 607.045455 -473.9928 
L 601.409091 -478.276546 
L 595.772727 -486.597433 
L 590.136364 -470.816913 
L 584.5 -461.109307 
L 578.863636 -467.687518 
L 573.227273 -472.249278 
L 567.590909 -457.614408 
L 561.954545 -469.241435 
L 556.318182 -459.375936 
L 550.681818 -456.428452 
L 545.045455 -448.546812 
L 539.409091 -450.607425 
L 533.772727 -449.541489 
L 528.136364 -460.830608 
L 522.5 -455.02544 
L 516.863636 -459.700164 
L 511.227273 -449.848657 
L 505.590909 -451.810232 
L 499.954545 -445.757426 
L 494.318182 -437.956429 
L 488.681818 -425.433289 
L 483.045455 -426.609785 
L 477.409091 -419.224194 
L 471.772727 -434.853641 
L 466.136364 -442.620455 
L 460.5 -437.027594 
L 454.863636 -439.049526 
L 449.227273 -435.096728 
L 443.590909 -431.888029 
L 437.954545 -434.583729 
L 432.318182 -434.181491 
L 426.681818 -434.520932 
L 421.045455 -427.496371 
L 415.409091 -434.81907 
L 409.772727 -421.529267 
L 404.136364 -435.500904 
L 398.5 -423.641691 
L 392.863636 -431.070585 
L 387.227273 -430.580118 
L 381.590909 -428.244915 
L 375.954545 -430.469924 
L 370.318182 -434.997033 
L 364.681818 -446.406847 
L 359.045455 -440.387862 
L 353.409091 -441.80737 
L 347.772727 -437.632787 
L 342.136364 -437.964205 
L 336.5 -434.186633 
L 330.863636 -428.469889 
L 325.227273 -433.423442 
L 319.590909 -439.02641 
L 313.954545 -440.445912 
L 308.318182 -432.788496 
L 302.681818 -430.210808 
L 297.045455 -428.021615 
L 291.409091 -418.587209 
L 285.772727 -415.434505 
L 280.136364 -409.018685 
L 274.5 -411.0857 
L 268.863636 -425.051447 
L 263.227273 -421.72166 
L 257.590909 -437.569992 
L 251.954545 -430.075053 
L 246.318182 -408.028171 
L 240.681818 -404.215379 
L 235.045455 -412.0643 
L 229.409091 -423.280342 
L 223.772727 -431.806223 
L 218.136364 -429.331213 
L 212.5 -437.614808 
L 206.863636 -418.11121 
L 201.227273 -407.78864 
L 195.590909 -410.56321 
L 189.954545 -405.859031 
L 184.318182 -390.081125 
L 178.681818 -391.67834 
L 173.045455 -385.264445 
z
" id="m09b61c57e9" style="stroke:#4c72b0;stroke-opacity:0.2;"/>
    </defs>
    <g clip-path="url(#p80094241d1)">
     <use style="fill:#4c72b0;fill-opacity:0.2;stroke:#4c72b0;stroke-opacity:0.2;" x="0" xlink:href="#m09b61c57e9" y="576"/>
    </g>
   </g>
   <g id="line2d_11">
    <path clip-path="url(#p80094241d1)" d="M 173.045455 202.694333 
L 178.681818 205.797835 
L 184.318182 212.358423 
L 189.954545 199.659648 
L 195.590909 197.260719 
L 201.227273 189.836544 
L 206.863636 190.205222 
L 212.5 177.513384 
L 218.136364 177.241745 
L 223.772727 179.321885 
L 229.409091 193.977415 
L 235.045455 196.580657 
L 240.681818 199.01828 
L 246.318182 199.563821 
L 251.954545 193.3172 
L 257.590909 182.015568 
L 263.227273 179.681087 
L 268.863636 182.169091 
L 274.5 182.341195 
L 285.772727 193.983625 
L 291.409091 189.994121 
L 297.045455 183.48675 
L 302.681818 188.466915 
L 308.318182 185.472138 
L 313.954545 177.675328 
L 319.590909 172.936044 
L 325.227273 177.774874 
L 330.863636 187.477452 
L 336.5 185.901693 
L 342.136364 182.862877 
L 347.772727 188.632406 
L 353.409091 186.643315 
L 359.045455 176.268004 
L 364.681818 174.829558 
L 370.318182 175.446786 
L 375.954545 174.288753 
L 381.590909 171.967264 
L 387.227273 173.830881 
L 392.863636 171.513043 
L 398.5 182.406264 
L 404.136364 185.402968 
L 409.772727 187.113548 
L 415.409091 181.391165 
L 421.045455 189.986153 
L 426.681818 184.783748 
L 432.318182 180.632035 
L 437.954545 187.176011 
L 443.590909 184.900009 
L 449.227273 180.962738 
L 454.863636 175.459392 
L 460.5 171.844783 
L 466.136364 164.372594 
L 471.772727 162.164126 
L 477.409091 171.428972 
L 483.045455 165.817247 
L 488.681818 166.494825 
L 494.318182 159.462818 
L 499.954545 162.905631 
L 505.590909 148.208277 
L 511.227273 148.431546 
L 516.863636 139.027106 
L 522.5 142.40496 
L 528.136364 145.329421 
L 533.772727 151.813055 
L 539.409091 149.994774 
L 545.045455 161.601832 
L 550.681818 159.395906 
L 556.318182 148.918186 
L 561.954545 141.832555 
L 567.590909 149.094484 
L 573.227273 137.754673 
L 578.863636 136.332418 
L 584.5 140.621117 
L 590.136364 141.58124 
L 595.772727 132.272586 
L 601.409091 128.926919 
L 607.045455 135.000103 
L 612.681818 131.676782 
L 618.318182 133.297948 
L 623.954545 140.010261 
L 629.590909 153.479211 
L 635.227273 143.914819 
L 640.863636 148.886502 
L 646.5 152.421287 
L 652.136364 147.087671 
L 657.772727 142.133608 
L 663.409091 154.73671 
L 669.045455 154.425634 
L 674.681818 143.695587 
L 680.318182 157.067727 
L 685.954545 154.427782 
L 691.590909 140.804794 
L 697.227273 137.917924 
L 702.863636 144.705223 
L 708.5 132.352548 
L 714.136364 141.056231 
L 719.772727 142.884265 
L 725.409091 145.449504 
L 731.045455 142.090398 
L 736.681818 145.979153 
L 742.318182 147.975127 
L 747.954545 159.581845 
L 753.590909 154.431775 
L 759.227273 153.737083 
L 764.863636 161.187532 
L 770.5 154.043977 
L 776.136364 148.357653 
L 781.772727 157.50002 
L 787.409091 161.391401 
L 793.045455 146.040109 
L 798.681818 141.827072 
L 804.318182 134.346465 
L 809.954545 129.096307 
L 815.590909 128.065697 
L 821.227273 133.874259 
L 826.863636 150.475857 
L 832.5 153.014517 
L 838.136364 144.754965 
L 843.772727 141.032745 
L 849.409091 141.206425 
L 855.045455 126.52716 
L 860.681818 130.624257 
L 866.318182 140.317586 
L 871.954545 142.481695 
L 877.590909 139.348537 
L 883.227273 151.904904 
L 888.863636 146.891724 
L 894.5 141.453758 
L 900.136364 153.236663 
L 905.772727 156.156802 
L 911.409091 141.261156 
L 917.045455 144.357109 
L 922.681818 143.605679 
L 928.318182 134.850543 
L 933.954545 133.942589 
L 933.954545 133.942589 
" style="fill:none;stroke:#4c72b0;stroke-linecap:round;stroke-width:1.5;"/>
   </g>
   <g id="line2d_12">
    <path clip-path="url(#p80094241d1)" d="M 173.045455 222.316384 
L 178.681818 234.748606 
L 184.318182 238.023708 
L 189.954545 246.772983 
L 195.590909 235.850448 
L 201.227273 247.549632 
L 206.863636 236.900268 
L 212.5 212.089881 
L 218.136364 210.84342 
L 223.772727 218.448696 
L 229.409091 196.385591 
L 235.045455 194.075352 
L 240.681818 185.194365 
L 246.318182 194.753049 
L 251.954545 180.853817 
L 257.590909 190.220282 
L 263.227273 190.967509 
L 268.863636 219.347569 
L 274.5 201.413005 
L 280.136364 211.134848 
L 285.772727 218.217059 
L 291.409091 209.856854 
L 297.045455 189.117809 
L 302.681818 200.912249 
L 308.318182 188.980187 
L 313.954545 197.898415 
L 319.590909 199.983923 
L 325.227273 198.201774 
L 330.863636 191.157209 
L 336.5 194.9167 
L 342.136364 196.579005 
L 347.772727 221.192203 
L 353.409091 226.480749 
L 359.045455 222.580181 
L 364.681818 217.227869 
L 370.318182 216.628095 
L 375.954545 217.338701 
L 381.590909 223.710007 
L 387.227273 234.477587 
L 392.863636 242.1862 
L 398.5 219.265263 
L 404.136364 209.085296 
L 409.772727 201.206578 
L 415.409091 175.700624 
L 421.045455 162.889742 
L 426.681818 173.312125 
L 432.318182 169.819866 
L 437.954545 167.879591 
L 443.590909 188.440883 
L 449.227273 199.987026 
L 454.863636 194.317974 
L 460.5 180.579242 
L 466.136364 193.846503 
L 471.772727 178.822415 
L 477.409091 174.585206 
L 483.045455 174.308303 
L 488.681818 206.861056 
L 494.318182 211.740986 
L 499.954545 213.651372 
L 505.590909 212.251765 
L 511.227273 226.786368 
L 516.863636 219.155026 
L 522.5 200.305086 
L 528.136364 198.967821 
L 533.772727 209.750627 
L 539.409091 197.276431 
L 545.045455 182.295031 
L 550.681818 201.479047 
L 556.318182 208.490095 
L 561.954545 199.276513 
L 567.590909 217.384802 
L 573.227273 216.488281 
L 578.863636 204.448139 
L 584.5 200.516174 
L 590.136364 199.208379 
L 595.772727 198.621033 
L 601.409091 217.790847 
L 607.045455 224.023866 
L 612.681818 245.226815 
L 618.318182 252.851822 
L 623.954545 253.789183 
L 629.590909 256.068147 
L 635.227273 258.019812 
L 640.863636 252.824466 
L 646.5 257.166977 
L 652.136364 243.578671 
L 657.772727 233.411841 
L 663.409091 219.441104 
L 669.045455 209.301097 
L 674.681818 209.18567 
L 680.318182 211.458005 
L 685.954545 223.973114 
L 691.590909 228.546132 
L 697.227273 227.072937 
L 708.5 185.393401 
L 714.136364 183.069761 
L 719.772727 178.465883 
L 725.409091 174.52312 
L 731.045455 182.121465 
L 736.681818 209.239994 
L 742.318182 187.46465 
L 747.954545 188.390223 
L 753.590909 199.496604 
L 759.227273 213.483949 
L 764.863636 197.344421 
L 770.5 196.887898 
L 776.136364 207.000062 
L 781.772727 218.499281 
L 787.409091 212.093449 
L 793.045455 215.585705 
L 798.681818 233.672028 
L 804.318182 216.446489 
L 809.954545 188.317003 
L 815.590909 198.533459 
L 821.227273 191.081769 
L 826.863636 173.442668 
L 832.5 174.618741 
L 838.136364 179.282232 
L 843.772727 162.44694 
L 849.409091 193.683478 
L 855.045455 188.190074 
L 860.681818 206.624302 
L 866.318182 192.339241 
L 871.954545 205.805806 
L 877.590909 173.970174 
L 883.227273 166.786773 
L 888.863636 146.810928 
L 894.5 159.652008 
L 900.136364 153.984058 
L 905.772727 181.45611 
L 911.409091 194.246505 
L 917.045455 197.694964 
L 922.681818 192.065311 
L 928.318182 189.471119 
L 933.954545 168.157551 
L 933.954545 168.157551 
" style="fill:none;stroke:#c44e52;stroke-dasharray:9.6,2.4,1.5,2.4;stroke-dashoffset:0;stroke-width:1.5;"/>
   </g>
   <g id="line2d_13">
    <path clip-path="url(#p80094241d1)" d="M 173.045455 491.939169 
L 184.318182 491.841691 
L 189.954545 492.48 
L 195.590909 492.40392 
L 201.227273 490.679329 
L 206.863636 490.346323 
L 212.5 489.007318 
L 218.136364 488.946142 
L 223.772727 488.297427 
L 229.409091 489.407868 
L 235.045455 488.73987 
L 240.681818 489.94083 
L 246.318182 489.992678 
L 257.590909 491.121405 
L 263.227273 492.023846 
L 268.863636 492.126396 
L 274.5 491.232007 
L 280.136364 491.239454 
L 285.772727 489.90354 
L 297.045455 489.578826 
L 302.681818 490.529768 
L 308.318182 490.528232 
L 313.954545 491.578969 
L 325.227273 489.455867 
L 330.863636 489.307644 
L 342.136364 489.58042 
L 347.772727 490.81713 
L 353.409091 491.269028 
L 359.045455 490.760541 
L 364.681818 490.694964 
L 370.318182 490.783193 
L 375.954545 490.704174 
L 381.590909 490.98318 
L 387.227273 491.567019 
L 392.863636 491.447477 
L 404.136364 491.015214 
L 409.772727 491.64234 
L 421.045455 491.595393 
L 432.318182 490.633856 
L 437.954545 490.000561 
L 449.227273 489.609485 
L 454.863636 489.769942 
L 460.5 489.806213 
L 471.772727 490.344389 
L 477.409091 489.994883 
L 483.045455 490.103385 
L 488.681818 490.744039 
L 494.318182 490.923422 
L 499.954545 489.684503 
L 511.227273 490.794815 
L 516.863636 489.884672 
L 522.5 489.418055 
L 528.136364 490.388193 
L 533.772727 489.297186 
L 539.409091 489.030487 
L 545.045455 489.790139 
L 550.681818 490.070888 
L 556.318182 490.081739 
L 561.954545 489.941602 
L 567.590909 489.13519 
L 573.227273 488.601249 
L 578.863636 485.720067 
L 584.5 485.814046 
L 590.136364 486.20418 
L 595.772727 485.934945 
L 601.409091 486.578197 
L 607.045455 489.575584 
L 612.681818 488.364076 
L 618.318182 487.525534 
L 623.954545 486.853425 
L 629.590909 486.908907 
L 635.227273 486.847177 
L 640.863636 488.054189 
L 646.5 488.721805 
L 652.136364 490.563831 
L 657.772727 489.660449 
L 663.409091 489.248117 
L 669.045455 488.389285 
L 674.681818 488.433711 
L 680.318182 487.747568 
L 685.954545 488.116479 
L 691.590909 488.704706 
L 697.227273 488.693058 
L 702.863636 488.874088 
L 708.5 488.479614 
L 714.136364 488.560427 
L 719.772727 487.037495 
L 731.045455 488.400435 
L 736.681818 489.396204 
L 742.318182 489.868565 
L 747.954545 489.987916 
L 753.590909 490.24148 
L 759.227273 490.084034 
L 764.863636 488.98199 
L 770.5 488.797957 
L 776.136364 489.796391 
L 787.409091 489.982066 
L 793.045455 490.081878 
L 798.681818 489.139525 
L 804.318182 489.458032 
L 809.954545 488.914514 
L 815.590909 488.827956 
L 821.227273 489.047305 
L 826.863636 490.133403 
L 832.5 490.10522 
L 838.136364 490.635911 
L 843.772727 490.749479 
L 849.409091 491.565673 
L 860.681818 491.072421 
L 866.318182 489.740298 
L 871.954545 489.722788 
L 877.590909 488.507999 
L 883.227273 488.722246 
L 888.863636 488.822639 
L 894.5 489.983381 
L 900.136364 489.89757 
L 905.772727 490.969601 
L 911.409091 490.87465 
L 917.045455 489.405995 
L 922.681818 489.28591 
L 928.318182 488.256583 
L 933.954545 488.31934 
L 933.954545 488.31934 
" style="fill:none;stroke:#800080;stroke-dasharray:5.55,2.4;stroke-dashoffset:0;stroke-width:1.5;"/>
   </g>
   <g id="patch_3">
    <path d="M 135 512.64 
L 135 69.12 
" style="fill:none;stroke:#ffffff;stroke-linecap:square;stroke-linejoin:miter;stroke-width:1.25;"/>
   </g>
   <g id="patch_4">
    <path d="M 972 512.64 
L 972 69.12 
" style="fill:none;stroke:#ffffff;stroke-linecap:square;stroke-linejoin:miter;stroke-width:1.25;"/>
   </g>
   <g id="patch_5">
    <path d="M 135 512.64 
L 972 512.64 
" style="fill:none;stroke:#ffffff;stroke-linecap:square;stroke-linejoin:miter;stroke-width:1.25;"/>
   </g>
   <g id="patch_6">
    <path d="M 135 69.12 
L 972 69.12 
" style="fill:none;stroke:#ffffff;stroke-linecap:square;stroke-linejoin:miter;stroke-width:1.25;"/>
   </g>
   <g id="legend_1">
    <g id="patch_7">
     <path d="M 690.6 376.736719 
L 885.998672 376.736719 
Q 889.298672 376.736719 889.298672 373.436719 
L 889.298672 302.43 
Q 889.298672 299.13 885.998672 299.13 
L 690.6 299.13 
Q 687.3 299.13 687.3 302.43 
L 687.3 373.436719 
Q 687.3 376.736719 690.6 376.736719 
z
" style="fill:#eaeaf2;opacity:0.8;stroke:#cccccc;stroke-linejoin:miter;"/>
    </g>
    <g id="line2d_14">
     <path d="M 693.9 312.492422 
L 726.9 312.492422 
" style="fill:none;stroke:#4c72b0;stroke-linecap:round;stroke-width:1.5;"/>
    </g>
    <g id="line2d_15"/>
    <g id="text_14">
     <!-- MAHRL(Hetero) -->
     <defs>
      <path d="M 34.1875 63.1875 
L 20.796875 26.90625 
L 47.609375 26.90625 
z
M 28.609375 72.90625 
L 39.796875 72.90625 
L 67.578125 0 
L 57.328125 0 
L 50.6875 18.703125 
L 17.828125 18.703125 
L 11.1875 0 
L 0.78125 0 
z
" id="DejaVuSans-65"/>
      <path d="M 9.8125 72.90625 
L 19.671875 72.90625 
L 19.671875 43.015625 
L 55.515625 43.015625 
L 55.515625 72.90625 
L 65.375 72.90625 
L 65.375 0 
L 55.515625 0 
L 55.515625 34.71875 
L 19.671875 34.71875 
L 19.671875 0 
L 9.8125 0 
z
" id="DejaVuSans-72"/>
      <path d="M 9.8125 72.90625 
L 19.671875 72.90625 
L 19.671875 8.296875 
L 55.171875 8.296875 
L 55.171875 0 
L 9.8125 0 
z
" id="DejaVuSans-76"/>
      <path d="M 31 75.875 
Q 24.46875 64.65625 21.28125 53.65625 
Q 18.109375 42.671875 18.109375 31.390625 
Q 18.109375 20.125 21.3125 9.0625 
Q 24.515625 -2 31 -13.1875 
L 23.1875 -13.1875 
Q 15.875 -1.703125 12.234375 9.375 
Q 8.59375 20.453125 8.59375 31.390625 
Q 8.59375 42.28125 12.203125 53.3125 
Q 15.828125 64.359375 23.1875 75.875 
z
" id="DejaVuSans-40"/>
      <path d="M 30.609375 48.390625 
Q 23.390625 48.390625 19.1875 42.75 
Q 14.984375 37.109375 14.984375 27.296875 
Q 14.984375 17.484375 19.15625 11.84375 
Q 23.34375 6.203125 30.609375 6.203125 
Q 37.796875 6.203125 41.984375 11.859375 
Q 46.1875 17.53125 46.1875 27.296875 
Q 46.1875 37.015625 41.984375 42.703125 
Q 37.796875 48.390625 30.609375 48.390625 
z
M 30.609375 56 
Q 42.328125 56 49.015625 48.375 
Q 55.71875 40.765625 55.71875 27.296875 
Q 55.71875 13.875 49.015625 6.21875 
Q 42.328125 -1.421875 30.609375 -1.421875 
Q 18.84375 -1.421875 12.171875 6.21875 
Q 5.515625 13.875 5.515625 27.296875 
Q 5.515625 40.765625 12.171875 48.375 
Q 18.84375 56 30.609375 56 
z
" id="DejaVuSans-111"/>
      <path d="M 8.015625 75.875 
L 15.828125 75.875 
Q 23.140625 64.359375 26.78125 53.3125 
Q 30.421875 42.28125 30.421875 31.390625 
Q 30.421875 20.453125 26.78125 9.375 
Q 23.140625 -1.703125 15.828125 -13.1875 
L 8.015625 -13.1875 
Q 14.5 -2 17.703125 9.0625 
Q 20.90625 20.125 20.90625 31.390625 
Q 20.90625 42.671875 17.703125 53.65625 
Q 14.5 64.65625 8.015625 75.875 
z
" id="DejaVuSans-41"/>
     </defs>
     <g style="fill:#262626;" transform="translate(740.1 318.267422)scale(0.165 -0.165)">
      <use xlink:href="#DejaVuSans-77"/>
      <use x="86.279297" xlink:href="#DejaVuSans-65"/>
      <use x="154.6875" xlink:href="#DejaVuSans-72"/>
      <use x="229.882812" xlink:href="#DejaVuSans-82"/>
      <use x="299.365234" xlink:href="#DejaVuSans-76"/>
      <use x="355.078125" xlink:href="#DejaVuSans-40"/>
      <use x="394.091797" xlink:href="#DejaVuSans-72"/>
      <use x="469.287109" xlink:href="#DejaVuSans-101"/>
      <use x="530.810547" xlink:href="#DejaVuSans-116"/>
      <use x="570.019531" xlink:href="#DejaVuSans-101"/>
      <use x="631.542969" xlink:href="#DejaVuSans-114"/>
      <use x="672.625" xlink:href="#DejaVuSans-111"/>
      <use x="733.806641" xlink:href="#DejaVuSans-41"/>
     </g>
    </g>
    <g id="line2d_16">
     <path d="M 693.9 336.711328 
L 726.9 336.711328 
" style="fill:none;stroke:#c44e52;stroke-dasharray:9.6,2.4,1.5,2.4;stroke-dashoffset:0;stroke-width:1.5;"/>
    </g>
    <g id="line2d_17"/>
    <g id="text_15">
     <!-- MADDPG(Hetero) -->
     <defs>
      <path d="M 19.671875 64.796875 
L 19.671875 8.109375 
L 31.59375 8.109375 
Q 46.6875 8.109375 53.6875 14.9375 
Q 60.6875 21.78125 60.6875 36.53125 
Q 60.6875 51.171875 53.6875 57.984375 
Q 46.6875 64.796875 31.59375 64.796875 
z
M 9.8125 72.90625 
L 30.078125 72.90625 
Q 51.265625 72.90625 61.171875 64.09375 
Q 71.09375 55.28125 71.09375 36.53125 
Q 71.09375 17.671875 61.125 8.828125 
Q 51.171875 0 30.078125 0 
L 9.8125 0 
z
" id="DejaVuSans-68"/>
      <path d="M 19.671875 64.796875 
L 19.671875 37.40625 
L 32.078125 37.40625 
Q 38.96875 37.40625 42.71875 40.96875 
Q 46.484375 44.53125 46.484375 51.125 
Q 46.484375 57.671875 42.71875 61.234375 
Q 38.96875 64.796875 32.078125 64.796875 
z
M 9.8125 72.90625 
L 32.078125 72.90625 
Q 44.34375 72.90625 50.609375 67.359375 
Q 56.890625 61.8125 56.890625 51.125 
Q 56.890625 40.328125 50.609375 34.8125 
Q 44.34375 29.296875 32.078125 29.296875 
L 19.671875 29.296875 
L 19.671875 0 
L 9.8125 0 
z
" id="DejaVuSans-80"/>
      <path d="M 59.515625 10.40625 
L 59.515625 29.984375 
L 43.40625 29.984375 
L 43.40625 38.09375 
L 69.28125 38.09375 
L 69.28125 6.78125 
Q 63.578125 2.734375 56.6875 0.65625 
Q 49.8125 -1.421875 42 -1.421875 
Q 24.90625 -1.421875 15.25 8.5625 
Q 5.609375 18.5625 5.609375 36.375 
Q 5.609375 54.25 15.25 64.234375 
Q 24.90625 74.21875 42 74.21875 
Q 49.125 74.21875 55.546875 72.453125 
Q 61.96875 70.703125 67.390625 67.28125 
L 67.390625 56.78125 
Q 61.921875 61.421875 55.765625 63.765625 
Q 49.609375 66.109375 42.828125 66.109375 
Q 29.4375 66.109375 22.71875 58.640625 
Q 16.015625 51.171875 16.015625 36.375 
Q 16.015625 21.625 22.71875 14.15625 
Q 29.4375 6.6875 42.828125 6.6875 
Q 48.046875 6.6875 52.140625 7.59375 
Q 56.25 8.5 59.515625 10.40625 
z
" id="DejaVuSans-71"/>
     </defs>
     <g style="fill:#262626;" transform="translate(740.1 342.486328)scale(0.165 -0.165)">
      <use xlink:href="#DejaVuSans-77"/>
      <use x="86.279297" xlink:href="#DejaVuSans-65"/>
      <use x="154.6875" xlink:href="#DejaVuSans-68"/>
      <use x="231.689453" xlink:href="#DejaVuSans-68"/>
      <use x="308.691406" xlink:href="#DejaVuSans-80"/>
      <use x="368.994141" xlink:href="#DejaVuSans-71"/>
      <use x="446.484375" xlink:href="#DejaVuSans-40"/>
      <use x="485.498047" xlink:href="#DejaVuSans-72"/>
      <use x="560.693359" xlink:href="#DejaVuSans-101"/>
      <use x="622.216797" xlink:href="#DejaVuSans-116"/>
      <use x="661.425781" xlink:href="#DejaVuSans-101"/>
      <use x="722.949219" xlink:href="#DejaVuSans-114"/>
      <use x="764.03125" xlink:href="#DejaVuSans-111"/>
      <use x="825.212891" xlink:href="#DejaVuSans-41"/>
     </g>
    </g>
    <g id="line2d_18">
     <path d="M 693.9 360.930234 
L 726.9 360.930234 
" style="fill:none;stroke:#800080;stroke-dasharray:5.55,2.4;stroke-dashoffset:0;stroke-width:1.5;"/>
    </g>
    <g id="line2d_19"/>
    <g id="text_16">
     <!-- PPO(Hetero) -->
     <defs>
      <path d="M 39.40625 66.21875 
Q 28.65625 66.21875 22.328125 58.203125 
Q 16.015625 50.203125 16.015625 36.375 
Q 16.015625 22.609375 22.328125 14.59375 
Q 28.65625 6.59375 39.40625 6.59375 
Q 50.140625 6.59375 56.421875 14.59375 
Q 62.703125 22.609375 62.703125 36.375 
Q 62.703125 50.203125 56.421875 58.203125 
Q 50.140625 66.21875 39.40625 66.21875 
z
M 39.40625 74.21875 
Q 54.734375 74.21875 63.90625 63.9375 
Q 73.09375 53.65625 73.09375 36.375 
Q 73.09375 19.140625 63.90625 8.859375 
Q 54.734375 -1.421875 39.40625 -1.421875 
Q 24.03125 -1.421875 14.8125 8.828125 
Q 5.609375 19.09375 5.609375 36.375 
Q 5.609375 53.65625 14.8125 63.9375 
Q 24.03125 74.21875 39.40625 74.21875 
z
" id="DejaVuSans-79"/>
     </defs>
     <g style="fill:#262626;" transform="translate(740.1 366.705234)scale(0.165 -0.165)">
      <use xlink:href="#DejaVuSans-80"/>
      <use x="60.302734" xlink:href="#DejaVuSans-80"/>
      <use x="120.605469" xlink:href="#DejaVuSans-79"/>
      <use x="199.316406" xlink:href="#DejaVuSans-40"/>
      <use x="238.330078" xlink:href="#DejaVuSans-72"/>
      <use x="313.525391" xlink:href="#DejaVuSans-101"/>
      <use x="375.048828" xlink:href="#DejaVuSans-116"/>
      <use x="414.257812" xlink:href="#DejaVuSans-101"/>
      <use x="475.78125" xlink:href="#DejaVuSans-114"/>
      <use x="516.863281" xlink:href="#DejaVuSans-111"/>
      <use x="578.044922" xlink:href="#DejaVuSans-41"/>
     </g>
    </g>
   </g>
  </g>
 </g>
 <defs>
  <clipPath id="p80094241d1">
   <rect height="443.52" width="837" x="135" y="69.12"/>
  </clipPath>
 </defs>
</svg>
